<svg width="51" height="35" viewBox="0 0 51 35" fill="none" xmlns="http://www.w3.org/2000/svg">
<path d="M22.6122 0.19017C22.938 0.347116 23.2129 0.592748 23.4054 0.89887C23.598 1.20499 23.7003 1.5592 23.7006 1.92082V32.6879C23.7001 33.0498 23.5975 33.4041 23.4046 33.7103C23.2117 34.0164 22.9363 34.2619 22.6102 34.4186C22.284 34.5752 21.9203 34.6367 21.5607 34.5959C21.2012 34.5551 20.8605 34.4136 20.5777 34.1878L11.4899 26.9191H2.54819C2.03819 26.9191 1.54908 26.7165 1.18846 26.3559C0.827839 25.9953 0.625244 25.5062 0.625244 24.9962V9.6126C0.625244 9.1026 0.827839 8.6135 1.18846 8.25287C1.54908 7.89225 2.03819 7.68966 2.54819 7.68966H11.4899L20.5777 0.420924C20.8607 0.194739 21.2018 0.0530763 21.5617 0.0122518C21.9216 -0.0285727 22.2858 0.0331013 22.6122 0.19017ZM50.0603 8.25115C50.2394 8.42978 50.3815 8.64198 50.4784 8.8756C50.5753 9.10922 50.6252 9.35967 50.6252 9.6126C50.6252 9.86553 50.5753 10.116 50.4784 10.3496C50.3815 10.5832 50.2394 10.7954 50.0603 10.974L43.7261 17.3044L50.0603 23.6347C50.4214 23.9958 50.6242 24.4855 50.6242 24.9962C50.6242 25.5068 50.4214 25.9965 50.0603 26.3576C49.6992 26.7187 49.2095 26.9215 48.6989 26.9215C48.1882 26.9215 47.6985 26.7187 47.3374 26.3576L41.0071 20.0234L34.6768 26.3576C34.3157 26.7187 33.8259 26.9215 33.3153 26.9215C32.8047 26.9215 32.3149 26.7187 31.9539 26.3576C31.5928 25.9965 31.3899 25.5068 31.3899 24.9962C31.3899 24.4855 31.5928 23.9958 31.9539 23.6347L38.288 17.3044L31.9539 10.974C31.7751 10.7953 31.6333 10.583 31.5365 10.3494C31.4397 10.1158 31.3899 9.86544 31.3899 9.6126C31.3899 9.35976 31.4397 9.10939 31.5365 8.87579C31.6333 8.64219 31.7751 8.42994 31.9539 8.25115C32.3149 7.89008 32.8047 7.68723 33.3153 7.68723C33.5681 7.68723 33.8185 7.73703 34.0521 7.83379C34.2857 7.93055 34.498 8.07237 34.6768 8.25115L41.0071 14.5853L47.3374 8.25115C47.516 8.07208 47.7282 7.93 47.9619 7.83306C48.1955 7.73612 48.4459 7.68622 48.6989 7.68622C48.9518 7.68622 49.2022 7.73612 49.4359 7.83306C49.6695 7.93 49.8817 8.07208 50.0603 8.25115Z" fill="white"/>
</svg>
