<svg width="51" height="36" viewBox="0 0 51 36" fill="none" xmlns="http://www.w3.org/2000/svg">
<path d="M22.6122 1.10802C22.938 1.26496 23.2129 1.51059 23.4054 1.81672C23.598 2.12284 23.7003 2.47704 23.7006 2.83867V33.6058C23.7001 33.9676 23.5975 34.322 23.4046 34.6281C23.2117 34.9343 22.9363 35.1798 22.6102 35.3364C22.284 35.4931 21.9203 35.5545 21.5607 35.5137C21.2012 35.4729 20.8605 35.3315 20.5777 35.1057L11.4899 27.837H2.54819C2.03819 27.837 1.54908 27.6344 1.18846 27.2737C0.827839 26.9131 0.625244 26.424 0.625244 25.914V10.5304C0.625244 10.0205 0.827839 9.53134 1.18846 9.17072C1.54908 8.8101 2.03819 8.6075 2.54819 8.6075H11.4899L20.5777 1.33877C20.8607 1.11259 21.2018 0.970923 21.5617 0.930098C21.9216 0.889274 22.2858 0.950948 22.6122 1.10802ZM50.0603 9.169C50.2394 9.34763 50.3815 9.55983 50.4784 9.79344C50.5753 10.0271 50.6252 10.2775 50.6252 10.5304C50.6252 10.7834 50.5753 11.0338 50.4784 11.2674C50.3815 11.5011 50.2394 11.7133 50.0603 11.8919L43.7261 18.2222L50.0603 24.5526C50.4214 24.9136 50.6242 25.4034 50.6242 25.914C50.6242 26.4246 50.4214 26.9144 50.0603 27.2754C49.6992 27.6365 49.2095 27.8394 48.6989 27.8394C48.1882 27.8394 47.6985 27.6365 47.3374 27.2754L41.0071 20.9413L34.6768 27.2754C34.3157 27.6365 33.8259 27.8394 33.3153 27.8394C32.8047 27.8394 32.3149 27.6365 31.9539 27.2754C31.5928 26.9144 31.3899 26.4246 31.3899 25.914C31.3899 25.4034 31.5928 24.9136 31.9539 24.5526L38.288 18.2222L31.9539 11.8919C31.7751 11.7131 31.6333 11.5009 31.5365 11.2673C31.4397 11.0337 31.3899 10.7833 31.3899 10.5304C31.3899 10.2776 31.4397 10.0272 31.5365 9.79364C31.6333 9.56004 31.7751 9.34779 31.9539 9.169C32.3149 8.80792 32.8047 8.60507 33.3153 8.60507C33.5681 8.60507 33.8185 8.65487 34.0521 8.75163C34.2857 8.84839 34.498 8.99021 34.6768 9.169L41.0071 15.5032L47.3374 9.169C47.516 8.98992 47.7282 8.84785 47.9619 8.7509C48.1955 8.65396 48.4459 8.60407 48.6989 8.60407C48.9518 8.60407 49.2022 8.65396 49.4359 8.7509C49.6695 8.84785 49.8817 8.98992 50.0603 9.169Z" fill="black"/>
</svg>
