<svg width="101" height="50" viewBox="0 0 101 50" fill="none" xmlns="http://www.w3.org/2000/svg">
<path d="M0.649536 25C0.649536 11.469 11.6186 0.5 25.1495 0.5H75.1495C88.6805 0.5 99.6495 11.469 99.6495 25C99.6495 38.531 88.6805 49.5 75.1495 49.5H25.1495C11.6186 49.5 0.649536 38.531 0.649536 25Z" fill="#060049" stroke="#060049"/>
<rect x="1.81616" y="1.66663" width="46.6667" height="46.6667" rx="23.3333" fill="white"/>
<path d="M25.1496 31.25C23.492 31.25 21.9023 30.5916 20.7302 29.4195C19.5581 28.2474 18.8996 26.6576 18.8996 25C18.8996 23.3424 19.5581 21.7527 20.7302 20.5806C21.9023 19.4085 23.492 18.75 25.1496 18.75C26.8072 18.75 28.3969 19.4085 29.569 20.5806C30.7411 21.7527 31.3996 23.3424 31.3996 25C31.3996 26.6576 30.7411 28.2474 29.569 29.4195C28.3969 30.5916 26.8072 31.25 25.1496 31.25ZM25.1496 33.3334C27.3597 33.3334 29.4793 32.4554 31.0421 30.8926C32.6049 29.3298 33.4829 27.2102 33.4829 25C33.4829 22.7899 32.6049 20.6703 31.0421 19.1075C29.4793 17.5447 27.3597 16.6667 25.1496 16.6667C22.9394 16.6667 20.8198 17.5447 19.257 19.1075C17.6942 20.6703 16.8162 22.7899 16.8162 25C16.8162 27.2102 17.6942 29.3298 19.257 30.8926C20.8198 32.4554 22.9394 33.3334 25.1496 33.3334ZM25.1496 8.33337C25.4258 8.33337 25.6908 8.44312 25.8861 8.63847C26.0815 8.83382 26.1912 9.09877 26.1912 9.37504V13.5417C26.1912 13.818 26.0815 14.0829 25.8861 14.2783C25.6908 14.4736 25.4258 14.5834 25.1496 14.5834C24.8733 14.5834 24.6084 14.4736 24.413 14.2783C24.2177 14.0829 24.1079 13.818 24.1079 13.5417V9.37504C24.1079 9.09877 24.2177 8.83382 24.413 8.63847C24.6084 8.44312 24.8733 8.33337 25.1496 8.33337V8.33337ZM25.1496 35.4167C25.4258 35.4167 25.6908 35.5264 25.8861 35.7218C26.0815 35.9172 26.1912 36.1821 26.1912 36.4584V40.625C26.1912 40.9013 26.0815 41.1663 25.8861 41.3616C25.6908 41.557 25.4258 41.6667 25.1496 41.6667C24.8733 41.6667 24.6084 41.557 24.413 41.3616C24.2177 41.1663 24.1079 40.9013 24.1079 40.625V36.4584C24.1079 36.1821 24.2177 35.9172 24.413 35.7218C24.6084 35.5264 24.8733 35.4167 25.1496 35.4167ZM41.8162 25C41.8162 25.2763 41.7065 25.5413 41.5111 25.7366C41.3158 25.932 41.0508 26.0417 40.7746 26.0417H36.6079C36.3316 26.0417 36.0667 25.932 35.8713 25.7366C35.676 25.5413 35.5662 25.2763 35.5662 25C35.5662 24.7238 35.676 24.4588 35.8713 24.2635C36.0667 24.0681 36.3316 23.9584 36.6079 23.9584H40.7746C41.0508 23.9584 41.3158 24.0681 41.5111 24.2635C41.7065 24.4588 41.8162 24.7238 41.8162 25ZM14.7329 25C14.7329 25.2763 14.6232 25.5413 14.4278 25.7366C14.2325 25.932 13.9675 26.0417 13.6912 26.0417H9.52458C9.24831 26.0417 8.98336 25.932 8.78801 25.7366C8.59266 25.5413 8.48291 25.2763 8.48291 25C8.48291 24.7238 8.59266 24.4588 8.78801 24.2635C8.98336 24.0681 9.24831 23.9584 9.52458 23.9584H13.6912C13.9675 23.9584 14.2325 24.0681 14.4278 24.2635C14.6232 24.4588 14.7329 24.7238 14.7329 25ZM36.935 13.2146C37.1303 13.41 37.24 13.6749 37.24 13.9511C37.24 14.2273 37.1303 14.4922 36.935 14.6875L33.9892 17.6355C33.8923 17.7322 33.7774 17.8089 33.6509 17.8611C33.5244 17.9134 33.3888 17.9403 33.252 17.9402C32.9755 17.94 32.7105 17.83 32.5152 17.6344C32.4185 17.5376 32.3418 17.4226 32.2895 17.2961C32.2372 17.1696 32.2104 17.0341 32.2105 16.8972C32.2106 16.6208 32.3206 16.3558 32.5162 16.1605L35.4621 13.2146C35.6574 13.0193 35.9223 12.9096 36.1985 12.9096C36.4747 12.9096 36.7396 13.0193 36.935 13.2146ZM17.7829 32.3667C17.9782 32.562 18.0879 32.8269 18.0879 33.1032C18.0879 33.3794 17.9782 33.6443 17.7829 33.8396L14.8371 36.7855C14.6406 36.9752 14.3775 37.0802 14.1044 37.0778C13.8312 37.0754 13.57 36.9659 13.3768 36.7728C13.1837 36.5796 13.0742 36.3184 13.0718 36.0452C13.0694 35.7721 13.1744 35.509 13.3642 35.3125L16.31 32.3667C16.5053 32.1714 16.7702 32.0617 17.0465 32.0617C17.3227 32.0617 17.5876 32.1714 17.7829 32.3667ZM36.935 36.7855C36.7396 36.9807 36.4747 37.0904 36.1985 37.0904C35.9223 37.0904 35.6574 36.9807 35.4621 36.7855L32.5162 33.8396C32.3265 33.6432 32.2215 33.38 32.2239 33.1069C32.2262 32.8338 32.3358 32.5725 32.5289 32.3794C32.7221 32.1863 32.9833 32.0767 33.2564 32.0743C33.5296 32.072 33.7927 32.177 33.9892 32.3667L36.935 35.3125C37.1303 35.5079 37.24 35.7728 37.24 36.049C37.24 36.3252 37.1303 36.5901 36.935 36.7855ZM17.7829 17.6355C17.5876 17.8307 17.3227 17.9404 17.0465 17.9404C16.7702 17.9404 16.5053 17.8307 16.31 17.6355L13.3642 14.6875C13.2647 14.5914 13.1853 14.4765 13.1307 14.3494C13.0761 14.2223 13.0474 14.0856 13.0462 13.9473C13.045 13.809 13.0713 13.6719 13.1237 13.5438C13.1761 13.4158 13.2534 13.2995 13.3512 13.2017C13.4491 13.1039 13.5654 13.0266 13.6934 12.9742C13.8214 12.9218 13.9586 12.8955 14.0969 12.8967C14.2352 12.8979 14.3719 12.9266 14.499 12.9812C14.626 13.0358 14.741 13.1151 14.8371 13.2146L17.7829 16.1605C17.8799 16.2572 17.9569 16.3722 18.0094 16.4987C18.0619 16.6253 18.0889 16.7609 18.0889 16.898C18.0889 17.035 18.0619 17.1706 18.0094 17.2972C17.9569 17.4237 17.8799 17.5387 17.7829 17.6355Z" fill="black"/>
<path d="M68.8409 8.91247C69.0443 9.15958 69.1689 9.462 69.1986 9.78064C69.2283 10.0993 69.1618 10.4195 69.0076 10.7C67.8031 12.9114 67.1741 15.3902 67.1784 17.9083C67.1784 26.2854 74.0076 33.0687 82.4243 33.0687C83.5222 33.0687 84.5909 32.9541 85.618 32.7354C85.9329 32.6672 86.2608 32.6933 86.5609 32.8104C86.861 32.9275 87.12 33.1303 87.3055 33.3937C87.5013 33.6676 87.6012 33.9985 87.5895 34.3349C87.5778 34.6714 87.4553 34.9945 87.2409 35.2541C85.6069 37.2613 83.5456 38.8785 81.2073 39.9879C78.8689 41.0972 76.3124 41.6707 73.7243 41.6666C64.1201 41.6666 56.3409 33.9291 56.3409 24.3958C56.3409 17.2208 60.7451 11.0666 67.0159 8.4583C67.3283 8.32629 67.6751 8.29919 68.0042 8.38109C68.3333 8.46298 68.6269 8.64945 68.8409 8.91247ZM66.4618 11.0646C64.0505 12.3579 62.0348 14.2805 60.6287 16.6278C59.2227 18.9751 58.4789 21.6596 58.4764 24.3958C58.4764 32.7708 65.3076 39.5541 73.7243 39.5541C75.7398 39.5576 77.736 39.1613 79.5973 38.3882C81.4586 37.6151 83.1481 36.4804 84.568 35.05C83.8659 35.1375 83.1514 35.1812 82.4243 35.1812C72.8201 35.1812 65.043 27.4437 65.043 17.9104C65.043 15.4791 65.5472 13.1646 66.4618 11.0646Z" fill="white"/>
</svg>
