<svg width="101" height="51" viewBox="0 0 101 51" fill="none" xmlns="http://www.w3.org/2000/svg">
<path d="M0.649536 25.222C0.649536 11.6911 11.6186 0.722046 25.1495 0.722046H75.1495C88.6805 0.722046 99.6495 11.6911 99.6495 25.222C99.6495 38.753 88.6805 49.722 75.1495 49.722H25.1495C11.6186 49.722 0.649536 38.753 0.649536 25.222Z" fill="white" stroke="white"/>
<rect x="51.8162" y="1.88867" width="46.6667" height="46.6667" rx="23.3333" fill="#060049"/>
<path d="M25.1496 31.4721C23.492 31.4721 21.9023 30.8136 20.7302 29.6415C19.5581 28.4694 18.8996 26.8797 18.8996 25.2221C18.8996 23.5645 19.5581 21.9748 20.7302 20.8027C21.9023 19.6306 23.492 18.9721 25.1496 18.9721C26.8072 18.9721 28.3969 19.6306 29.569 20.8027C30.7411 21.9748 31.3996 23.5645 31.3996 25.2221C31.3996 26.8797 30.7411 28.4694 29.569 29.6415C28.3969 30.8136 26.8072 31.4721 25.1496 31.4721ZM25.1496 33.5554C27.3597 33.5554 29.4793 32.6774 31.0421 31.1146C32.6049 29.5518 33.4829 27.4322 33.4829 25.2221C33.4829 23.0119 32.6049 20.8923 31.0421 19.3295C29.4793 17.7667 27.3597 16.8888 25.1496 16.8888C22.9394 16.8888 20.8198 17.7667 19.257 19.3295C17.6942 20.8923 16.8162 23.0119 16.8162 25.2221C16.8162 27.4322 17.6942 29.5518 19.257 31.1146C20.8198 32.6774 22.9394 33.5554 25.1496 33.5554ZM25.1496 8.55542C25.4258 8.55542 25.6908 8.66517 25.8861 8.86052C26.0815 9.05587 26.1912 9.32082 26.1912 9.59709V13.7638C26.1912 14.04 26.0815 14.305 25.8861 14.5003C25.6908 14.6957 25.4258 14.8054 25.1496 14.8054C24.8733 14.8054 24.6084 14.6957 24.413 14.5003C24.2177 14.305 24.1079 14.04 24.1079 13.7638V9.59709C24.1079 9.32082 24.2177 9.05587 24.413 8.86052C24.6084 8.66517 24.8733 8.55542 25.1496 8.55542V8.55542ZM25.1496 35.6387C25.4258 35.6387 25.6908 35.7485 25.8861 35.9438C26.0815 36.1392 26.1912 36.4041 26.1912 36.6804V40.8471C26.1912 41.1233 26.0815 41.3883 25.8861 41.5837C25.6908 41.779 25.4258 41.8887 25.1496 41.8887C24.8733 41.8887 24.6084 41.779 24.413 41.5837C24.2177 41.3883 24.1079 41.1233 24.1079 40.8471V36.6804C24.1079 36.4041 24.2177 36.1392 24.413 35.9438C24.6084 35.7485 24.8733 35.6387 25.1496 35.6387ZM41.8162 25.2221C41.8162 25.4984 41.7065 25.7633 41.5111 25.9587C41.3158 26.154 41.0508 26.2638 40.7746 26.2638H36.6079C36.3316 26.2638 36.0667 26.154 35.8713 25.9587C35.676 25.7633 35.5662 25.4984 35.5662 25.2221C35.5662 24.9458 35.676 24.6809 35.8713 24.4855C36.0667 24.2902 36.3316 24.1804 36.6079 24.1804H40.7746C41.0508 24.1804 41.3158 24.2902 41.5111 24.4855C41.7065 24.6809 41.8162 24.9458 41.8162 25.2221ZM14.7329 25.2221C14.7329 25.4984 14.6232 25.7633 14.4278 25.9587C14.2325 26.154 13.9675 26.2638 13.6912 26.2638H9.52458C9.24831 26.2638 8.98336 26.154 8.78801 25.9587C8.59266 25.7633 8.48291 25.4984 8.48291 25.2221C8.48291 24.9458 8.59266 24.6809 8.78801 24.4855C8.98336 24.2902 9.24831 24.1804 9.52458 24.1804H13.6912C13.9675 24.1804 14.2325 24.2902 14.4278 24.4855C14.6232 24.6809 14.7329 24.9458 14.7329 25.2221ZM36.935 13.4367C37.1303 13.632 37.24 13.8969 37.24 14.1731C37.24 14.4493 37.1303 14.7142 36.935 14.9096L33.9892 17.8575C33.8923 17.9542 33.7774 18.0309 33.6509 18.0832C33.5244 18.1355 33.3888 18.1623 33.252 18.1622C32.9755 18.1621 32.7105 18.0521 32.5152 17.8565C32.4185 17.7596 32.3418 17.6447 32.2895 17.5182C32.2372 17.3917 32.2104 17.2561 32.2105 17.1193C32.2106 16.8428 32.3206 16.5778 32.5162 16.3825L35.4621 13.4367C35.6574 13.2414 35.9223 13.1317 36.1985 13.1317C36.4747 13.1317 36.7396 13.2414 36.935 13.4367ZM17.7829 32.5888C17.9782 32.7841 18.0879 33.049 18.0879 33.3252C18.0879 33.6014 17.9782 33.8663 17.7829 34.0617L14.8371 37.0075C14.6406 37.1972 14.3775 37.3022 14.1044 37.2999C13.8312 37.2975 13.57 37.1879 13.3768 36.9948C13.1837 36.8017 13.0742 36.5404 13.0718 36.2673C13.0694 35.9942 13.1744 35.731 13.3642 35.5346L16.31 32.5888C16.5053 32.3935 16.7702 32.2838 17.0465 32.2838C17.3227 32.2838 17.5876 32.3935 17.7829 32.5888ZM36.935 37.0075C36.7396 37.2028 36.4747 37.3125 36.1985 37.3125C35.9223 37.3125 35.6574 37.2028 35.4621 37.0075L32.5162 34.0617C32.3265 33.8652 32.2215 33.6021 32.2239 33.329C32.2262 33.0558 32.3358 32.7946 32.5289 32.6014C32.7221 32.4083 32.9833 32.2988 33.2564 32.2964C33.5296 32.294 33.7927 32.399 33.9892 32.5888L36.935 35.5346C37.1303 35.7299 37.24 35.9948 37.24 36.271C37.24 36.5473 37.1303 36.8122 36.935 37.0075ZM17.7829 17.8575C17.5876 18.0528 17.3227 18.1625 17.0465 18.1625C16.7702 18.1625 16.5053 18.0528 16.31 17.8575L13.3642 14.9096C13.2647 14.8135 13.1853 14.6986 13.1307 14.5715C13.0761 14.4444 13.0474 14.3077 13.0462 14.1694C13.045 14.0311 13.0713 13.8939 13.1237 13.7659C13.1761 13.6379 13.2534 13.5216 13.3512 13.4238C13.4491 13.326 13.5654 13.2486 13.6934 13.1962C13.8214 13.1439 13.9586 13.1175 14.0969 13.1187C14.2352 13.1199 14.3719 13.1486 14.499 13.2032C14.626 13.2578 14.741 13.3372 14.8371 13.4367L17.7829 16.3825C17.8799 16.4793 17.9569 16.5942 18.0094 16.7208C18.0619 16.8473 18.0889 16.983 18.0889 17.12C18.0889 17.257 18.0619 17.3927 18.0094 17.5192C17.9569 17.6458 17.8799 17.7607 17.7829 17.8575Z" fill="black"/>
<path d="M72.0249 9.13452C72.2283 9.38163 72.3528 9.68404 72.3826 10.0027C72.4123 10.3213 72.3457 10.6416 72.1916 10.922C70.9871 13.1334 70.3581 15.6122 70.3624 18.1304C70.3624 26.5074 77.1916 33.2908 85.6082 33.2908C86.7062 33.2908 87.7749 33.1762 88.802 32.9574C89.1168 32.8893 89.4448 32.9153 89.7449 33.0324C90.045 33.1495 90.304 33.3524 90.4895 33.6158C90.6853 33.8896 90.7851 34.2205 90.7734 34.557C90.7618 34.8934 90.6392 35.2166 90.4249 35.4762C88.7909 37.4833 86.7296 39.1006 84.3912 40.2099C82.0529 41.3193 79.4964 41.8928 76.9082 41.8887C67.3041 41.8887 59.5249 34.1512 59.5249 24.6179C59.5249 17.4429 63.9291 11.2887 70.1999 8.68035C70.5123 8.54833 70.859 8.52124 71.1881 8.60313C71.5172 8.68503 71.8108 8.87149 72.0249 9.13452ZM69.6457 11.2866C67.2345 12.58 65.2187 14.5025 63.8127 16.8499C62.4066 19.1972 61.6628 21.8816 61.6603 24.6179C61.6603 32.9929 68.4916 39.7762 76.9082 39.7762C78.9237 39.7797 80.9199 39.3834 82.7813 38.6102C84.6426 37.8371 86.3321 36.7025 87.752 35.272C87.0499 35.3595 86.3353 35.4033 85.6082 35.4033C76.0041 35.4033 68.227 27.6658 68.227 18.1324C68.227 15.7012 68.7312 13.3866 69.6457 11.2866Z" fill="white"/>
</svg>
