<svg width="16" height="16" viewBox="0 0 16 16" fill="none" xmlns="http://www.w3.org/2000/svg">
<path d="M7.7502 0.75C8.57284 0.749974 9.36345 1.0169 9.95576 1.49465C10.5481 1.97239 10.8959 2.62373 10.9262 3.3117L10.9283 3.41L14.3605 3.40957C14.5901 3.40966 14.8108 3.48401 14.9764 3.61707C15.142 3.75013 15.2398 3.93162 15.2492 4.12359C15.2587 4.31556 15.1791 4.50316 15.0272 4.64718C14.8752 4.7912 14.6626 4.88049 14.4338 4.89638L14.3605 4.89894H13.7671L12.9398 14.0777C12.8988 14.5324 12.6539 14.9575 12.2543 15.2676C11.8547 15.5777 11.3298 15.75 10.7849 15.75H4.71554C4.17055 15.75 3.64568 15.5777 3.24607 15.2676C2.84645 14.9575 2.6016 14.5324 2.56057 14.0777L1.73275 4.89894H1.13985C0.916451 4.89892 0.701227 4.82858 0.536936 4.70189C0.372644 4.57521 0.271306 4.40144 0.253051 4.21511L0.25 4.15426C0.250019 3.9673 0.334069 3.78719 0.485454 3.6497C0.63684 3.51221 0.844484 3.4274 1.06714 3.41213L1.13985 3.40957H4.57215C4.57215 2.00617 5.87134 0.856383 7.51833 0.756808L7.63376 0.751702L7.7502 0.75ZM9.65703 6.28192C9.49968 6.28185 9.34789 6.33064 9.23104 6.41884C9.11419 6.50704 9.04059 6.62837 9.02447 6.75936L9.02142 6.81383V11.9202L9.02447 11.9747C9.03992 12.1061 9.11323 12.228 9.23014 12.3167C9.34706 12.4054 9.49923 12.4545 9.65703 12.4545C9.81484 12.4545 9.967 12.4054 10.0839 12.3167C10.2008 12.228 10.2741 12.1061 10.2896 11.9747L10.2926 11.9202V6.81383L10.2896 6.75936C10.2735 6.62837 10.1999 6.50704 10.083 6.41884C9.96618 6.33064 9.81439 6.28185 9.65703 6.28192V6.28192ZM5.84337 6.28192C5.68601 6.28185 5.53423 6.33064 5.41738 6.41884C5.30053 6.50704 5.22692 6.62837 5.21081 6.75936L5.20776 6.81383V11.9202L5.21081 11.9747C5.22625 12.1061 5.29957 12.228 5.41648 12.3167C5.5334 12.4054 5.68556 12.4545 5.84337 12.4545C6.00118 12.4545 6.15334 12.4054 6.27026 12.3167C6.38717 12.228 6.46049 12.1061 6.47593 11.9747L6.47898 11.9202V6.81383L6.47593 6.75936C6.45982 6.62837 6.38621 6.50704 6.26936 6.41884C6.15251 6.33064 6.00073 6.28185 5.84337 6.28192V6.28192ZM7.83563 2.24149L7.7502 2.23936C7.39411 2.23935 7.05143 2.35302 6.79206 2.55719C6.53268 2.76136 6.37615 3.04065 6.3544 3.33809L6.35186 3.41L9.14854 3.40957C9.14856 3.11158 9.01273 2.82481 8.76876 2.60775C8.52478 2.39069 8.19105 2.25969 7.83563 2.24149V2.24149Z" fill="black"/>
</svg>
