<svg width="15" height="16" viewBox="0 0 15 16" fill="none" xmlns="http://www.w3.org/2000/svg">
<circle cx="7.5" cy="7.62695" r="7.5" fill="black"/>
<path d="M6.35156 9.97559C6.35156 9.31022 6.42676 8.78613 6.57715 8.40332C6.72754 8.01595 6.97135 7.68099 7.30859 7.39844C7.64583 7.11589 7.90104 6.8584 8.07422 6.62598C8.25195 6.389 8.34082 6.12923 8.34082 5.84668C8.34082 5.15853 8.0446 4.81445 7.45215 4.81445C7.17871 4.81445 6.95768 4.91471 6.78906 5.11523C6.62044 5.31576 6.53158 5.58691 6.52246 5.92871H4.21191C4.22103 5.01725 4.50814 4.30859 5.07324 3.80273C5.63835 3.29232 6.43132 3.03711 7.45215 3.03711C8.46842 3.03711 9.25456 3.27181 9.81055 3.74121C10.3711 4.21061 10.6514 4.87826 10.6514 5.74414C10.6514 6.1224 10.5762 6.46647 10.4258 6.77637C10.2754 7.08626 10.0339 7.40299 9.70117 7.72656L8.91504 8.45801C8.69173 8.6722 8.53678 8.89323 8.4502 9.12109C8.36361 9.3444 8.31576 9.62923 8.30664 9.97559H6.35156ZM6.07129 12.0537C6.07129 11.7165 6.19206 11.4408 6.43359 11.2266C6.67969 11.0078 6.98503 10.8984 7.34961 10.8984C7.71419 10.8984 8.01725 11.0078 8.25879 11.2266C8.50488 11.4408 8.62793 11.7165 8.62793 12.0537C8.62793 12.391 8.50488 12.6689 8.25879 12.8877C8.01725 13.1019 7.71419 13.209 7.34961 13.209C6.98503 13.209 6.67969 13.1019 6.43359 12.8877C6.19206 12.6689 6.07129 12.391 6.07129 12.0537Z" fill="white"/>
</svg>
