<svg width="15" height="15" viewBox="0 0 15 15" fill="none" xmlns="http://www.w3.org/2000/svg">
<path d="M4.66871 0.937511C4.59846 0.937611 4.52912 0.953503 4.46583 0.98401C4.40255 1.01452 4.34693 1.05886 4.30309 1.11376L1.44368 4.68755H5.62498C5.7493 4.68755 5.86853 4.73694 5.95644 4.82485C6.04434 4.91276 6.09373 5.03199 6.09373 5.15631C6.09373 5.52927 6.24189 5.88696 6.50562 6.15069C6.76934 6.41442 7.12703 6.56258 7.5 6.56258C7.87296 6.56258 8.23065 6.41442 8.49438 6.15069C8.7581 5.88696 8.90626 5.52927 8.90626 5.15631C8.90626 5.03199 8.95565 4.91276 9.04356 4.82485C9.13146 4.73694 9.25069 4.68755 9.37502 4.68755H13.5563L10.6969 1.11376C10.6531 1.05886 10.5974 1.01452 10.5342 0.98401C10.4709 0.953503 10.4015 0.937611 10.3313 0.937511H4.66871ZM14.0007 5.62506H9.7969C9.68931 6.15489 9.40186 6.63124 8.98326 6.97338C8.56465 7.31553 8.04064 7.50244 7.5 7.50244C6.95935 7.50244 6.43534 7.31553 6.01673 6.97338C5.59813 6.63124 5.31068 6.15489 5.2031 5.62506H0.999299L1.2993 8.02697C1.31351 8.14064 1.36884 8.24517 1.45486 8.32083C1.54088 8.39649 1.65163 8.43802 1.76618 8.4376H13.2357C13.3499 8.43756 13.4602 8.39582 13.5458 8.32021C13.6315 8.24459 13.6865 8.14032 13.7007 8.02697L13.9998 5.62506H14.0007ZM3.57089 0.527819C3.7027 0.363042 3.86991 0.23004 4.06011 0.13867C4.25031 0.0473012 4.45864 -9.30754e-05 4.66965 1.37228e-07H10.3303C10.5414 -9.30754e-05 10.7497 0.0473012 10.9399 0.13867C11.1301 0.23004 11.2973 0.363042 11.4291 0.527819L14.8979 4.86381C14.9369 4.91273 14.9656 4.96895 14.9826 5.02917C14.9995 5.08939 15.0041 5.15238 14.9963 5.21443L14.6307 8.14322C14.5882 8.48343 14.4228 8.79639 14.1658 9.02325C13.9087 9.25011 13.5776 9.37524 13.2347 9.37511H1.76525C1.42239 9.37524 1.09129 9.25011 0.834219 9.02325C0.577146 8.79639 0.411807 8.48343 0.369292 8.14322L0.00366318 5.21443C-0.00402089 5.15232 0.000813543 5.08929 0.0178813 5.02907C0.034949 4.96885 0.0639044 4.91266 0.103039 4.86381L3.57183 0.527819H3.57089ZM0.117102 10.472C0.161029 10.422 0.2151 10.3819 0.275719 10.3544C0.336337 10.327 0.402112 10.3127 0.468668 10.3126H5.62498C5.7493 10.3126 5.86853 10.362 5.95644 10.4499C6.04434 10.5378 6.09373 10.6571 6.09373 10.7814C6.09373 11.1543 6.24189 11.512 6.50562 11.7758C6.76934 12.0395 7.12703 12.1876 7.5 12.1876C7.87296 12.1876 8.23065 12.0395 8.49438 11.7758C8.7581 11.512 8.90626 11.1543 8.90626 10.7814C8.90626 10.6571 8.95565 10.5378 9.04356 10.4499C9.13146 10.362 9.25069 10.3126 9.37502 10.3126H14.5313C14.5978 10.3126 14.6635 10.3268 14.724 10.3541C14.7846 10.3815 14.8387 10.4214 14.8826 10.4712C14.9266 10.521 14.9595 10.5796 14.9791 10.6431C14.9987 10.7066 15.0046 10.7736 14.9963 10.8395L14.6307 13.7683C14.5882 14.1085 14.4228 14.4215 14.1658 14.6483C13.9087 14.8752 13.5776 15.0003 13.2347 15.0002H1.76525C1.42239 15.0003 1.09129 14.8752 0.834219 14.6483C0.577146 14.4215 0.411807 14.1085 0.369292 13.7683L0.00366318 10.8395C-0.00462977 10.7736 0.00119585 10.7066 0.0207535 10.6431C0.0403112 10.5796 0.0731537 10.5209 0.117102 10.4711V10.472ZM0.999299 11.2501L1.2993 13.652C1.31349 13.7655 1.36869 13.8699 1.45451 13.9456C1.54033 14.0212 1.65085 14.0629 1.76525 14.0627H13.2347C13.349 14.0626 13.4593 14.0209 13.5449 13.9453C13.6305 13.8697 13.6856 13.7654 13.6998 13.652L13.9998 11.2501H9.7969C9.68931 11.78 9.40186 12.2563 8.98326 12.5984C8.56465 12.9406 8.04064 13.1275 7.5 13.1275C6.95935 13.1275 6.43534 12.9406 6.01673 12.5984C5.59813 12.2563 5.31068 11.78 5.2031 11.2501H0.999299V11.2501Z" fill="black"/>
</svg>
