<svg width="327" height="64" viewBox="0 0 327 64" fill="none" xmlns="http://www.w3.org/2000/svg">
<path d="M0 0H327V54C327 59.5228 322.523 64 317 64H10C4.47716 64 0 59.5228 0 54V0Z" fill="#49556B"/>
<circle cx="279" cy="32" r="16" fill="#6B7D95"/>
<path d="M287 31.481L280.766 25V28.866H279.441C275.33 28.866 272 32.025 272 35.922V37.971L272.589 37.359C274.59 35.28 277.422 34.096 280.39 34.096H280.765V37.963L287 31.481Z" fill="#FEFFFF"/>
<path d="M197 22C191.478 22 187 26.477 187 32C187 36.237 189.636 39.855 193.356 41.312C193.268 40.521 193.189 39.307 193.391 38.444C193.573 37.664 194.563 33.474 194.563 33.474C194.563 33.474 194.264 32.874 194.264 31.988C194.264 30.598 195.07 29.56 196.074 29.56C196.926 29.56 197.338 30.2 197.338 30.968C197.338 31.826 196.793 33.108 196.51 34.298C196.274 35.293 197.01 36.105 197.99 36.105C199.768 36.105 201.134 34.231 201.134 31.525C201.134 29.132 199.414 27.457 196.957 27.457C194.112 27.457 192.442 29.592 192.442 31.797C192.442 32.656 192.773 33.578 193.187 34.078C193.222 34.1159 193.247 34.1624 193.26 34.2129C193.272 34.2634 193.27 34.3161 193.256 34.366L192.978 35.499C192.934 35.682 192.833 35.722 192.643 35.633C191.394 35.052 190.613 33.226 190.613 31.759C190.613 28.605 192.905 25.707 197.221 25.707C200.69 25.707 203.386 28.18 203.386 31.483C203.386 34.93 201.213 37.703 198.196 37.703C197.183 37.703 196.231 37.178 195.905 36.555L195.282 38.933C195.056 39.802 194.447 40.891 194.038 41.554C194.975 41.844 195.969 42 197 42C202.522 42 207 37.523 207 32C207 26.477 202.522 22 197 22Z" fill="white"/>
<path d="M171 25.924C170.251 26.256 169.457 26.4737 168.643 26.57C169.5 26.0576 170.141 25.2507 170.447 24.3C169.642 24.778 168.761 25.1148 167.842 25.296C167.458 24.8863 166.994 24.5598 166.479 24.3369C165.964 24.1139 165.408 23.9993 164.847 24C162.197 24 160.251 26.472 160.849 29.037C159.218 28.9556 157.622 28.5321 156.165 27.7938C154.708 27.0556 153.422 26.0193 152.392 24.752C151.868 25.6555 151.707 26.7247 151.943 27.7423C152.179 28.7598 152.794 29.6494 153.662 30.23C153.011 30.2096 152.374 30.0337 151.804 29.717C151.759 31.617 153.122 33.396 155.095 33.792C154.491 33.9561 153.857 33.98 153.242 33.862C153.504 34.6773 154.014 35.3903 154.702 35.9011C155.389 36.412 156.219 36.6951 157.075 36.711C155.355 38.0597 153.17 38.6708 151 38.41C152.876 39.6154 155.06 40.2552 157.29 40.253C164.908 40.253 169.212 33.819 168.953 28.048C169.756 27.467 170.449 26.7478 171 25.924Z" fill="white"/>
<path d="M113.842 22H95.1593C94.5187 22 94 22.494 94 23.104V40.897C94 41.506 94.5187 42 95.1593 42H105.219V34.255H102.48V31.237H105.217V29.01C105.217 26.427 106.874 25.02 109.294 25.02C110.453 25.02 111.449 25.102 111.74 25.139V27.839H110.062C108.745 27.839 108.491 28.436 108.491 29.309V31.237H111.629L111.22 34.255H108.49V42H113.843C114.481 42 115 41.506 115 40.896V23.104C115.001 22.494 114.482 22 113.842 22Z" fill="white"/>
<path d="M36.4595 36.165C37.0132 36.165 37.5008 36.0733 37.9225 35.89C38.3478 35.7067 38.6797 35.4445 38.918 35.1035C39.16 34.7625 39.281 34.3555 39.281 33.8825C39.281 33.5122 39.2132 33.206 39.0775 32.964C38.9455 32.722 38.7787 32.5277 38.577 32.381C38.3753 32.2307 38.17 32.1152 37.961 32.0345C37.752 31.9538 37.5723 31.8915 37.422 31.8475L35.827 31.3745C35.6143 31.3122 35.3907 31.2315 35.156 31.1325C34.925 31.0335 34.7288 30.896 34.5675 30.72C34.4098 30.544 34.331 30.3112 34.331 30.0215C34.331 29.7392 34.4153 29.4862 34.584 29.2625C34.7527 29.0352 34.9837 28.8573 35.277 28.729C35.574 28.597 35.915 28.5328 36.3 28.5365C36.6997 28.5365 37.0627 28.6117 37.389 28.762C37.7153 28.9123 37.983 29.1232 38.192 29.3945C38.4047 29.6658 38.5367 29.983 38.588 30.346L39.2425 30.2305C39.1655 29.7575 38.9932 29.3487 38.7255 29.004C38.4615 28.6593 38.1223 28.3917 37.708 28.201C37.2937 28.0103 36.8262 27.915 36.3055 27.915C35.7922 27.915 35.3357 28.0048 34.936 28.1845C34.5363 28.3605 34.2228 28.608 33.9955 28.927C33.7682 29.246 33.6545 29.6182 33.6545 30.0435C33.6545 30.5165 33.7993 30.9052 34.089 31.2095C34.3823 31.5138 34.793 31.7448 35.321 31.9025L37.312 32.4965C37.4917 32.5478 37.6842 32.623 37.8895 32.722C38.0948 32.821 38.2708 32.964 38.4175 33.151C38.5678 33.338 38.643 33.5892 38.643 33.9045C38.643 34.4032 38.4413 34.8028 38.038 35.1035C37.6347 35.4005 37.114 35.549 36.476 35.549C35.849 35.549 35.3137 35.3987 34.87 35.098C34.4263 34.7937 34.1348 34.3757 33.9955 33.844L33.3465 33.954C33.4418 34.405 33.6307 34.7973 33.913 35.131C34.199 35.461 34.5583 35.7158 34.991 35.8955C35.4273 36.0752 35.9168 36.165 36.4595 36.165ZM42.6001 36H43.2326V32.348H47.8196V36H48.4576V28.08H47.8196V31.732H43.2326V28.08H42.6001V36ZM51.6536 36H52.3246L53.0286 34.009H56.6696L57.3791 36H58.0501L55.2451 28.08H54.4586L51.6536 36ZM53.2376 33.4095L54.8436 28.861L56.4606 33.4095H53.2376ZM61.2378 36H61.8703V32.9145H64.6203L66.1163 36H66.8588L65.2638 32.7275C65.7074 32.5552 66.0503 32.2692 66.2923 31.8695C66.5343 31.4662 66.6553 31.0078 66.6553 30.4945C66.6553 30.0912 66.5783 29.7227 66.4243 29.389C66.2739 29.0517 66.0576 28.7712 65.7753 28.5475C65.4929 28.3238 65.1538 28.1827 64.7578 28.124C64.6551 28.1057 64.5598 28.0947 64.4718 28.091C64.3838 28.0837 64.3013 28.08 64.2243 28.08H61.2378V36ZM61.8703 32.293V28.696H64.2133C64.2756 28.696 64.3508 28.6997 64.4388 28.707C64.5268 28.7143 64.6148 28.7272 64.7028 28.7455C65.1318 28.8298 65.4526 29.0407 65.6653 29.378C65.8816 29.7153 65.9898 30.0875 65.9898 30.4945C65.9898 30.9015 65.8816 31.2737 65.6653 31.611C65.4526 31.9483 65.1318 32.161 64.7028 32.249C64.6148 32.2637 64.5268 32.2747 64.4388 32.282C64.3508 32.2893 64.2756 32.293 64.2133 32.293H61.8703ZM70.272 36H75.167V35.384H70.9045V32.3205H74.507V31.7045H70.9045V28.696H75.167V28.08H70.272V36Z" fill="#8490A6"/>
</svg>
