<svg width="248" height="66" viewBox="0 0 248 66" fill="none" xmlns="http://www.w3.org/2000/svg">
<rect width="248" height="55" rx="10" fill="#49546C"/>
<path d="M124.5 66L112.809 54.75H136.191L124.5 66Z" fill="#49546C"/>
<path d="M202 18C196.478 18 192 22.477 192 28C192 32.237 194.636 35.855 198.356 37.312C198.268 36.521 198.189 35.307 198.391 34.444C198.573 33.664 199.563 29.474 199.563 29.474C199.563 29.474 199.264 28.874 199.264 27.988C199.264 26.598 200.07 25.56 201.074 25.56C201.926 25.56 202.338 26.2 202.338 26.968C202.338 27.826 201.793 29.108 201.51 30.298C201.274 31.293 202.01 32.105 202.99 32.105C204.768 32.105 206.134 30.231 206.134 27.525C206.134 25.132 204.414 23.457 201.957 23.457C199.112 23.457 197.442 25.592 197.442 27.797C197.442 28.656 197.773 29.578 198.187 30.078C198.222 30.1159 198.247 30.1624 198.26 30.2129C198.272 30.2634 198.27 30.3161 198.256 30.366L197.978 31.499C197.934 31.682 197.833 31.722 197.643 31.633C196.394 31.052 195.613 29.226 195.613 27.759C195.613 24.605 197.905 21.707 202.221 21.707C205.69 21.707 208.386 24.18 208.386 27.483C208.386 30.93 206.213 33.703 203.196 33.703C202.183 33.703 201.231 33.178 200.905 32.555L200.282 34.933C200.056 35.802 199.447 36.891 199.038 37.554C199.975 37.844 200.969 38 202 38C207.522 38 212 33.523 212 28C212 22.477 207.522 18 202 18Z" fill="white"/>
<path d="M176 21.924C175.251 22.256 174.457 22.4737 173.643 22.57C174.5 22.0576 175.141 21.2507 175.447 20.3C174.642 20.778 173.761 21.1148 172.842 21.296C172.458 20.8863 171.994 20.5598 171.479 20.3369C170.964 20.1139 170.408 19.9993 169.847 20C167.197 20 165.251 22.472 165.849 25.037C164.218 24.9556 162.622 24.5321 161.165 23.7938C159.708 23.0556 158.422 22.0193 157.392 20.752C156.868 21.6555 156.707 22.7247 156.943 23.7423C157.179 24.7598 157.794 25.6494 158.662 26.23C158.011 26.2096 157.374 26.0337 156.804 25.717C156.759 27.617 158.122 29.396 160.095 29.792C159.491 29.9561 158.857 29.98 158.242 29.862C158.504 30.6773 159.014 31.3903 159.702 31.9011C160.389 32.412 161.219 32.6951 162.075 32.711C160.355 34.0597 158.17 34.6708 156 34.41C157.876 35.6154 160.06 36.2552 162.29 36.253C169.908 36.253 174.212 29.819 173.953 24.048C174.756 23.467 175.449 22.7478 176 21.924Z" fill="white"/>
<path d="M138.896 18H121.104C120.494 18 120 18.494 120 19.104V36.897C120 37.506 120.494 38 121.104 38H130.684V30.255H128.076V27.237H130.682V25.01C130.682 22.427 132.26 21.02 134.565 21.02C135.669 21.02 136.617 21.102 136.894 21.139V23.839H135.296C134.042 23.839 133.8 24.436 133.8 25.309V27.237H136.789L136.399 30.255H133.799V38H138.897C139.505 38 139.999 37.506 139.999 36.896V19.104C140 18.494 139.506 18 138.896 18Z" fill="white"/>
<path d="M41.4595 33.165C42.0132 33.165 42.5008 33.0733 42.9225 32.89C43.3478 32.7067 43.6797 32.4445 43.918 32.1035C44.16 31.7625 44.281 31.3555 44.281 30.8825C44.281 30.5122 44.2132 30.206 44.0775 29.964C43.9455 29.722 43.7787 29.5277 43.577 29.381C43.3753 29.2307 43.17 29.1152 42.961 29.0345C42.752 28.9538 42.5723 28.8915 42.422 28.8475L40.827 28.3745C40.6143 28.3122 40.3907 28.2315 40.156 28.1325C39.925 28.0335 39.7288 27.896 39.5675 27.72C39.4098 27.544 39.331 27.3112 39.331 27.0215C39.331 26.7392 39.4153 26.4862 39.584 26.2625C39.7527 26.0352 39.9837 25.8573 40.277 25.729C40.574 25.597 40.915 25.5328 41.3 25.5365C41.6997 25.5365 42.0627 25.6117 42.389 25.762C42.7153 25.9123 42.983 26.1232 43.192 26.3945C43.4047 26.6658 43.5367 26.983 43.588 27.346L44.2425 27.2305C44.1655 26.7575 43.9932 26.3487 43.7255 26.004C43.4615 25.6593 43.1223 25.3917 42.708 25.201C42.2937 25.0103 41.8262 24.915 41.3055 24.915C40.7922 24.915 40.3357 25.0048 39.936 25.1845C39.5363 25.3605 39.2228 25.608 38.9955 25.927C38.7682 26.246 38.6545 26.6182 38.6545 27.0435C38.6545 27.5165 38.7993 27.9052 39.089 28.2095C39.3823 28.5138 39.793 28.7448 40.321 28.9025L42.312 29.4965C42.4917 29.5478 42.6842 29.623 42.8895 29.722C43.0948 29.821 43.2708 29.964 43.4175 30.151C43.5678 30.338 43.643 30.5892 43.643 30.9045C43.643 31.4032 43.4413 31.8028 43.038 32.1035C42.6347 32.4005 42.114 32.549 41.476 32.549C40.849 32.549 40.3137 32.3987 39.87 32.098C39.4263 31.7937 39.1348 31.3757 38.9955 30.844L38.3465 30.954C38.4418 31.405 38.6307 31.7973 38.913 32.131C39.199 32.461 39.5583 32.7158 39.991 32.8955C40.4273 33.0752 40.9168 33.165 41.4595 33.165ZM47.6001 33H48.2326V29.348H52.8196V33H53.4576V25.08H52.8196V28.732H48.2326V25.08H47.6001V33ZM56.6536 33H57.3246L58.0286 31.009H61.6696L62.3791 33H63.0501L60.2451 25.08H59.4586L56.6536 33ZM58.2376 30.4095L59.8436 25.861L61.4606 30.4095H58.2376ZM66.2378 33H66.8703V29.9145H69.6203L71.1163 33H71.8588L70.2638 29.7275C70.7074 29.5552 71.0503 29.2692 71.2923 28.8695C71.5343 28.4662 71.6553 28.0078 71.6553 27.4945C71.6553 27.0912 71.5783 26.7227 71.4243 26.389C71.2739 26.0517 71.0576 25.7712 70.7753 25.5475C70.4929 25.3238 70.1538 25.1827 69.7578 25.124C69.6551 25.1057 69.5598 25.0947 69.4718 25.091C69.3838 25.0837 69.3013 25.08 69.2243 25.08H66.2378V33ZM66.8703 29.293V25.696H69.2133C69.2756 25.696 69.3508 25.6997 69.4388 25.707C69.5268 25.7143 69.6148 25.7272 69.7028 25.7455C70.1318 25.8298 70.4526 26.0407 70.6653 26.378C70.8816 26.7153 70.9898 27.0875 70.9898 27.4945C70.9898 27.9015 70.8816 28.2737 70.6653 28.611C70.4526 28.9483 70.1318 29.161 69.7028 29.249C69.6148 29.2637 69.5268 29.2747 69.4388 29.282C69.3508 29.2893 69.2756 29.293 69.2133 29.293H66.8703ZM75.272 33H80.167V32.384H75.9045V29.3205H79.507V28.7045H75.9045V25.696H80.167V25.08H75.272V33Z" fill="#8490A6"/>
</svg>
