<svg width="136" height="21" viewBox="0 0 136 21" fill="none" xmlns="http://www.w3.org/2000/svg">
<path d="M28.1714 16.6604V6.70728H30.981C31.8469 6.70728 32.6125 6.89868 33.2779 7.28149C33.9433 7.66431 34.456 8.2089 34.816 8.91528C35.1806 9.62166 35.3651 10.4329 35.3697 11.3489V11.9846C35.3697 12.9234 35.1874 13.746 34.8228 14.4524C34.4628 15.1588 33.9455 15.7011 33.2711 16.0793C32.6011 16.4576 31.8196 16.6513 30.9263 16.6604H28.1714ZM29.4839 7.78735V15.5872H30.8648C31.8765 15.5872 32.6627 15.2727 33.2232 14.6438C33.7883 14.0149 34.0709 13.1194 34.0709 11.9573V11.3762C34.0709 10.246 33.8043 9.36873 33.2711 8.74438C32.7424 8.11548 31.9905 7.79647 31.0152 7.78735H29.4839ZM40.23 16.7971C39.2274 16.7971 38.4117 16.469 37.7828 15.8127C37.1539 15.1519 36.8394 14.2701 36.8394 13.1672V12.9348C36.8394 12.2011 36.9784 11.5471 37.2564 10.9729C37.539 10.3941 37.9309 9.94295 38.4322 9.61938C38.938 9.29126 39.4849 9.1272 40.0728 9.1272C41.0344 9.1272 41.7818 9.44393 42.315 10.0774C42.8482 10.7109 43.1148 11.6178 43.1148 12.7981V13.3245H38.1041C38.1223 14.0536 38.3342 14.6438 38.7398 15.095C39.15 15.5416 39.6695 15.7649 40.2984 15.7649C40.745 15.7649 41.1233 15.6737 41.4332 15.4915C41.7431 15.3092 42.0142 15.0676 42.2466 14.7668L43.0191 15.3684C42.3993 16.3209 41.4696 16.7971 40.23 16.7971ZM40.0728 10.1663C39.5624 10.1663 39.134 10.3531 38.7877 10.7268C38.4413 11.0959 38.2271 11.6155 38.1451 12.2854H41.8502V12.1897C41.8137 11.5471 41.6405 11.0504 41.3306 10.6995C41.0207 10.344 40.6015 10.1663 40.0728 10.1663ZM48.8912 14.6985C48.8912 14.3567 48.7613 14.0924 48.5015 13.9055C48.2463 13.7141 47.7974 13.55 47.1548 13.4133C46.5168 13.2766 46.0087 13.1125 45.6304 12.9211C45.2567 12.7297 44.9787 12.5019 44.7964 12.2375C44.6187 11.9732 44.5298 11.6588 44.5298 11.2942C44.5298 10.6881 44.7851 10.1754 45.2955 9.7561C45.8104 9.33683 46.4667 9.1272 47.2642 9.1272C48.1028 9.1272 48.7818 9.34367 49.3013 9.77661C49.8254 10.2096 50.0875 10.7633 50.0875 11.4377H48.816C48.816 11.0914 48.6679 10.7929 48.3716 10.5422C48.08 10.2916 47.7108 10.1663 47.2642 10.1663C46.8039 10.1663 46.4439 10.2665 46.1841 10.467C45.9244 10.6676 45.7945 10.9296 45.7945 11.2532C45.7945 11.5585 45.9153 11.7887 46.1568 11.9436C46.3983 12.0986 46.8336 12.2467 47.4625 12.3879C48.0959 12.5292 48.6086 12.6978 49.0005 12.8938C49.3925 13.0898 49.6819 13.3267 49.8687 13.6047C50.0601 13.8782 50.1558 14.2131 50.1558 14.6096C50.1558 15.2704 49.8915 15.8014 49.3629 16.2024C48.8342 16.5989 48.1483 16.7971 47.3052 16.7971C46.7128 16.7971 46.1887 16.6923 45.733 16.4827C45.2772 16.273 44.9195 15.9814 44.6597 15.6077C44.4045 15.2294 44.2769 14.8215 44.2769 14.384H45.5416C45.5644 14.8079 45.733 15.1451 46.0474 15.3958C46.3664 15.6418 46.7857 15.7649 47.3052 15.7649C47.7838 15.7649 48.1666 15.6692 48.4537 15.4778C48.7453 15.2818 48.8912 15.0221 48.8912 14.6985ZM52.9927 9.26392L53.0269 10.0842C53.5692 9.44621 54.3007 9.1272 55.2213 9.1272C56.2558 9.1272 56.9599 9.52368 57.3336 10.3167C57.5797 9.96118 57.8987 9.67407 58.2906 9.45532C58.6871 9.23657 59.1542 9.1272 59.692 9.1272C61.3144 9.1272 62.1392 9.98625 62.1666 11.7043V16.6604H60.9019V11.7795C60.9019 11.2509 60.7811 10.8567 60.5396 10.5969C60.2981 10.3326 59.8925 10.2004 59.3228 10.2004C58.8534 10.2004 58.4638 10.3417 58.1539 10.6243C57.844 10.9023 57.664 11.2782 57.6138 11.7522V16.6604H56.3423V11.8137C56.3423 10.7382 55.816 10.2004 54.7632 10.2004C53.9338 10.2004 53.3664 10.5536 53.0611 11.26V16.6604H51.7964V9.26392H52.9927ZM68.647 16.6604C68.5741 16.5146 68.5149 16.2548 68.4693 15.8811C67.8814 16.4918 67.1796 16.7971 66.3638 16.7971C65.6347 16.7971 65.0354 16.592 64.566 16.1819C64.1011 15.7672 63.8687 15.2431 63.8687 14.6096C63.8687 13.8394 64.1604 13.2424 64.7437 12.8186C65.3316 12.3902 66.1565 12.176 67.2183 12.176H68.4488V11.595C68.4488 11.1529 68.3166 10.802 68.0523 10.5422C67.788 10.2779 67.3983 10.1458 66.8834 10.1458C66.4322 10.1458 66.0539 10.2597 65.7486 10.4875C65.4433 10.7154 65.2906 10.9911 65.2906 11.3147H64.0191C64.0191 10.9456 64.149 10.5901 64.4088 10.2483C64.6731 9.90194 65.0285 9.6285 65.4752 9.42798C65.9263 9.22746 66.4208 9.1272 66.9586 9.1272C67.8108 9.1272 68.4784 9.34139 68.9615 9.76978C69.4446 10.1936 69.6952 10.7792 69.7134 11.5266V14.9309C69.7134 15.6099 69.8 16.15 69.9732 16.551V16.6604H68.647ZM66.5484 15.6965C66.9449 15.6965 67.3209 15.594 67.6763 15.3889C68.0318 15.1838 68.2893 14.9172 68.4488 14.5891V13.0715H67.4576C65.9081 13.0715 65.1334 13.525 65.1334 14.4319C65.1334 14.8284 65.2655 15.1383 65.5298 15.3616C65.7942 15.5849 66.1337 15.6965 66.5484 15.6965ZM75.2711 10.3987C75.0797 10.3668 74.8723 10.3508 74.649 10.3508C73.8196 10.3508 73.2567 10.704 72.9605 11.4104V16.6604H71.6959V9.26392H72.9263L72.9468 10.1184C73.3616 9.4576 73.9494 9.1272 74.7105 9.1272C74.9566 9.1272 75.1435 9.1591 75.2711 9.2229V10.3987ZM79.2701 15.7649C79.7213 15.7649 80.1155 15.6282 80.4527 15.3547C80.7899 15.0813 80.9768 14.7395 81.0132 14.3293H82.2095C82.1867 14.7532 82.0409 15.1565 81.772 15.5393C81.5032 15.9221 81.1431 16.2275 80.692 16.4553C80.2453 16.6832 79.7714 16.7971 79.2701 16.7971C78.2629 16.7971 77.4608 16.4622 76.8638 15.7922C76.2714 15.1178 75.9752 14.1972 75.9752 13.0305V12.8186C75.9752 12.0986 76.1073 11.4583 76.3716 10.8977C76.636 10.3372 77.0142 9.90194 77.5064 9.59204C78.0032 9.28215 78.5888 9.1272 79.2632 9.1272C80.0927 9.1272 80.7808 9.37557 81.3277 9.87231C81.8791 10.3691 82.1731 11.0139 82.2095 11.8069H81.0132C80.9768 11.3284 80.7945 10.9364 80.4664 10.6311C80.1428 10.3212 79.7418 10.1663 79.2632 10.1663C78.6207 10.1663 78.1216 10.3987 77.7662 10.8635C77.4153 11.3238 77.2398 11.9915 77.2398 12.8665V13.1057C77.2398 13.9579 77.4153 14.6142 77.7662 15.0745C78.1171 15.5347 78.6184 15.7649 79.2701 15.7649ZM88.1978 16.6604C88.1249 16.5146 88.0657 16.2548 88.0201 15.8811C87.4322 16.4918 86.7304 16.7971 85.9146 16.7971C85.1854 16.7971 84.5862 16.592 84.1168 16.1819C83.6519 15.7672 83.4195 15.2431 83.4195 14.6096C83.4195 13.8394 83.7112 13.2424 84.2945 12.8186C84.8824 12.3902 85.7073 12.176 86.7691 12.176H87.9996V11.595C87.9996 11.1529 87.8674 10.802 87.6031 10.5422C87.3388 10.2779 86.9491 10.1458 86.4341 10.1458C85.983 10.1458 85.6047 10.2597 85.2994 10.4875C84.994 10.7154 84.8414 10.9911 84.8414 11.3147H83.5699C83.5699 10.9456 83.6998 10.5901 83.9595 10.2483C84.2239 9.90194 84.5793 9.6285 85.0259 9.42798C85.4771 9.22746 85.9716 9.1272 86.5093 9.1272C87.3616 9.1272 88.0292 9.34139 88.5123 9.76978C88.9953 10.1936 89.246 10.7792 89.2642 11.5266V14.9309C89.2642 15.6099 89.3508 16.15 89.524 16.551V16.6604H88.1978ZM86.0992 15.6965C86.4957 15.6965 86.8716 15.594 87.2271 15.3889C87.5826 15.1838 87.8401 14.9172 87.9996 14.5891V13.0715H87.0084C85.4589 13.0715 84.6841 13.525 84.6841 14.4319C84.6841 14.8284 84.8163 15.1383 85.0806 15.3616C85.345 15.5849 85.6845 15.6965 86.0992 15.6965ZM94.8218 10.3987C94.6304 10.3668 94.4231 10.3508 94.1998 10.3508C93.3703 10.3508 92.8075 10.704 92.5113 11.4104V16.6604H91.2466V9.26392H92.4771L92.4976 10.1184C92.9123 9.4576 93.5002 9.1272 94.2613 9.1272C94.5074 9.1272 94.6942 9.1591 94.8218 9.2229V10.3987ZM101.179 7.4729V9.26392H102.56V10.2415H101.179V14.8284C101.179 15.1246 101.241 15.3479 101.364 15.4983C101.487 15.6441 101.697 15.717 101.993 15.717C102.139 15.717 102.339 15.6897 102.594 15.635V16.6604C102.262 16.7515 101.938 16.7971 101.624 16.7971C101.058 16.7971 100.632 16.6262 100.345 16.2844C100.058 15.9426 99.9146 15.4573 99.9146 14.8284V10.2415H98.5679V9.26392H99.9146V7.4729H101.179ZM103.572 12.8938C103.572 12.1692 103.713 11.5175 103.996 10.9387C104.283 10.3599 104.679 9.91333 105.185 9.59888C105.696 9.28442 106.277 9.1272 106.928 9.1272C107.935 9.1272 108.749 9.47583 109.369 10.1731C109.993 10.8704 110.305 11.7978 110.305 12.9553V13.0442C110.305 13.7642 110.166 14.4114 109.888 14.9856C109.615 15.5553 109.221 15.9996 108.706 16.3186C108.195 16.6376 107.607 16.7971 106.942 16.7971C105.939 16.7971 105.126 16.4485 104.502 15.7512C103.882 15.054 103.572 14.1311 103.572 12.9827V12.8938ZM104.843 13.0442C104.843 13.8645 105.032 14.523 105.411 15.0198C105.794 15.5165 106.304 15.7649 106.942 15.7649C107.585 15.7649 108.095 15.5142 108.473 15.0129C108.851 14.5071 109.041 13.8007 109.041 12.8938C109.041 12.0826 108.847 11.4264 108.46 10.925C108.077 10.4192 107.566 10.1663 106.928 10.1663C106.304 10.1663 105.8 10.4146 105.418 10.9114C105.035 11.4081 104.843 12.1191 104.843 13.0442ZM111.584 12.9006C111.584 11.7659 111.852 10.8544 112.39 10.1663C112.928 9.47355 113.632 9.1272 114.503 9.1272C115.368 9.1272 116.054 9.42342 116.56 10.0159V6.1604H117.825V16.6604H116.663L116.601 15.8674C116.095 16.4872 115.391 16.7971 114.489 16.7971C113.632 16.7971 112.933 16.4462 112.39 15.7444C111.852 15.0426 111.584 14.1265 111.584 12.9963V12.9006ZM112.848 13.0442C112.848 13.8827 113.021 14.539 113.368 15.0129C113.714 15.4869 114.193 15.7239 114.803 15.7239C115.605 15.7239 116.191 15.3639 116.56 14.6438V11.2463C116.182 10.5491 115.601 10.2004 114.817 10.2004C114.197 10.2004 113.714 10.4397 113.368 10.9182C113.021 11.3967 112.848 12.1054 112.848 13.0442ZM119.459 12.8938C119.459 12.1692 119.6 11.5175 119.882 10.9387C120.169 10.3599 120.566 9.91333 121.072 9.59888C121.582 9.28442 122.163 9.1272 122.815 9.1272C123.822 9.1272 124.636 9.47583 125.255 10.1731C125.88 10.8704 126.192 11.7978 126.192 12.9553V13.0442C126.192 13.7642 126.053 14.4114 125.775 14.9856C125.502 15.5553 125.107 15.9996 124.592 16.3186C124.082 16.6376 123.494 16.7971 122.829 16.7971C121.826 16.7971 121.013 16.4485 120.388 15.7512C119.768 15.054 119.459 14.1311 119.459 12.9827V12.8938ZM120.73 13.0442C120.73 13.8645 120.919 14.523 121.297 15.0198C121.68 15.5165 122.191 15.7649 122.829 15.7649C123.471 15.7649 123.982 15.5142 124.36 15.0129C124.738 14.5071 124.927 13.8007 124.927 12.8938C124.927 12.0826 124.734 11.4264 124.346 10.925C123.963 10.4192 123.453 10.1663 122.815 10.1663C122.191 10.1663 121.687 10.4146 121.304 10.9114C120.921 11.4081 120.73 12.1191 120.73 13.0442ZM132.085 14.6985C132.085 14.3567 131.955 14.0924 131.695 13.9055C131.44 13.7141 130.991 13.55 130.348 13.4133C129.71 13.2766 129.202 13.1125 128.824 12.9211C128.45 12.7297 128.172 12.5019 127.99 12.2375C127.812 11.9732 127.723 11.6588 127.723 11.2942C127.723 10.6881 127.978 10.1754 128.489 9.7561C129.004 9.33683 129.66 9.1272 130.458 9.1272C131.296 9.1272 131.975 9.34367 132.495 9.77661C133.019 10.2096 133.281 10.7633 133.281 11.4377H132.009C132.009 11.0914 131.861 10.7929 131.565 10.5422C131.273 10.2916 130.904 10.1663 130.458 10.1663C129.997 10.1663 129.637 10.2665 129.378 10.467C129.118 10.6676 128.988 10.9296 128.988 11.2532C128.988 11.5585 129.109 11.7887 129.35 11.9436C129.592 12.0986 130.027 12.2467 130.656 12.3879C131.289 12.5292 131.802 12.6978 132.194 12.8938C132.586 13.0898 132.875 13.3267 133.062 13.6047C133.253 13.8782 133.349 14.2131 133.349 14.6096C133.349 15.2704 133.085 15.8014 132.556 16.2024C132.028 16.5989 131.342 16.7971 130.499 16.7971C129.906 16.7971 129.382 16.6923 128.926 16.4827C128.471 16.273 128.113 15.9814 127.853 15.6077C127.598 15.2294 127.47 14.8215 127.47 14.384H128.735C128.758 14.8079 128.926 15.1451 129.241 15.3958C129.56 15.6418 129.979 15.7649 130.499 15.7649C130.977 15.7649 131.36 15.6692 131.647 15.4778C131.939 15.2818 132.085 15.0221 132.085 14.6985Z" fill="#3871A7"/>
<rect x="0.397827" y="0.336304" width="20" height="20" rx="5" fill="#3871A7"/>
<path d="M4.87326 10.3363H15.9224" stroke="white" stroke-width="2"/>
</svg>
