<svg width="464" height="273" viewBox="0 0 464 273" fill="none" xmlns="http://www.w3.org/2000/svg">
<path opacity="0.3" d="M425.543 41.0609V89.1463L424.73 87.9356L366.41 1.16516L365.862 0.352295H398.181L398.726 1.16516L424.73 39.8497L425.543 41.0609Z" fill="#3871A7"/>
<path opacity="0.3" d="M195.342 195.793C200.824 212.289 198.899 227.779 198.899 227.779C198.899 227.779 188.087 216.521 182.605 200.025C177.123 183.528 179.048 168.038 179.048 168.038C179.048 168.038 189.861 179.295 195.342 195.793Z" fill="#3871A7"/>
<path opacity="0.3" d="M202.456 195.793C196.974 212.289 198.899 227.779 198.899 227.779C198.899 227.779 209.712 216.521 215.194 200.025C220.676 183.528 218.749 168.038 218.749 168.038C218.749 168.038 207.937 179.295 202.456 195.793Z" fill="#3871A7"/>
<path opacity="0.3" d="M204.663 195.971C205.031 213.351 198.619 227.582 198.619 227.582C198.619 227.582 191.612 213.635 191.244 196.254C190.877 178.874 197.289 164.643 197.289 164.643C197.289 164.643 204.296 178.59 204.663 195.971Z" fill="#3F3D56"/>
<path opacity="0.3" d="M198.615 228.629C207.178 228.629 214.117 228.248 214.117 227.778C214.117 227.309 207.178 226.928 198.615 226.928C190.054 226.928 183.113 227.309 183.113 227.778C183.113 228.248 190.054 228.629 198.615 228.629Z" fill="#3F3D56"/>
<path opacity="0.3" d="M50.8214 228.043C55.6792 228.043 59.6172 224.105 59.6172 219.247C59.6172 214.389 55.6792 210.452 50.8214 210.452C45.9637 210.452 42.0256 214.389 42.0256 219.247C42.0256 224.105 45.9637 228.043 50.8214 228.043Z" fill="#F2F2F2"/>
<path opacity="0.3" d="M52.435 205.018C49.2815 205.022 46.2586 206.277 44.0292 208.506C41.7998 210.737 40.546 213.76 40.5427 216.913C40.5427 216.979 40.5427 217.044 40.5467 217.109C40.5855 219.304 41.23 221.446 42.409 223.299C43.5881 225.152 45.2559 226.642 47.2285 227.607C47.9268 227.951 48.658 228.223 49.4111 228.419C51.3949 228.94 53.4792 228.94 55.463 228.419C56.2161 228.223 56.9473 227.951 57.6455 227.607C60.0641 226.428 62.0118 224.466 63.1709 222.038C64.3299 219.61 64.6317 216.86 64.027 214.239C63.4223 211.617 61.9469 209.279 59.8416 207.604C57.7362 205.928 55.1253 205.017 52.435 205.018ZM55.345 227.607C54.3971 227.868 53.4181 227.998 52.435 227.997C52.2399 227.997 52.0448 227.993 51.8538 227.981H51.8497C51.0647 227.942 50.2865 227.816 49.529 227.607C47.9276 227.169 46.4448 226.377 45.1894 225.29C43.934 224.203 42.9378 222.849 42.2741 221.328V221.323C41.3752 219.25 41.1315 216.953 41.5755 214.738C42.0196 212.522 43.1302 210.496 44.7585 208.93C46.3867 207.363 48.4549 206.333 50.6856 205.976C52.9164 205.618 55.2031 205.951 57.2393 206.93C59.2754 207.908 60.9637 209.486 62.0778 211.452C63.1918 213.417 63.6784 215.677 63.4723 217.926C63.2662 220.175 62.3773 222.309 60.9247 224.039C59.472 225.769 57.5252 227.014 55.345 227.607Z" fill="#3F3D56"/>
<path opacity="0.3" d="M152.423 159.482H86.5796V171.174H152.423V159.482Z" fill="#F2F2F2"/>
<path opacity="0.3" d="M357.672 50.1503H291.829V61.842H357.672V50.1503Z" fill="#F2F2F2"/>
<path opacity="0.3" d="M357.672 75.7557H291.829V87.4478H357.672V75.7557Z" fill="#F2F2F2"/>
<path opacity="0.3" d="M357.672 100.549H291.829V112.241H357.672V100.549Z" fill="#F2F2F2"/>
<path opacity="0.3" d="M357.672 125.341H291.829V137.033H357.672V125.341Z" fill="#F2F2F2"/>
<path opacity="0.3" d="M357.672 150.947H291.829V162.638H357.672V150.947Z" fill="#F2F2F2"/>
<path opacity="0.3" d="M357.672 176.552H291.829V188.243H357.672V176.552Z" fill="#F2F2F2"/>
<path opacity="0.3" d="M86.1731 155.322V171.579H173.963V155.322H86.1731ZM173.15 170.767H86.986V156.135H173.15V170.767Z" fill="#3F3D56"/>
<path opacity="0.3" d="M232.49 67.9385C234.735 67.9385 236.554 66.1189 236.554 63.8742C236.554 61.6296 234.735 59.8098 232.49 59.8098C230.246 59.8098 228.425 61.6296 228.425 63.8742C228.425 66.1189 230.246 67.9385 232.49 67.9385Z" fill="#3F3D56"/>
<path opacity="0.3" d="M232.49 93.1378C234.735 93.1378 236.554 91.3174 236.554 89.0729C236.554 86.8286 234.735 85.0089 232.49 85.0089C230.246 85.0089 228.425 86.8286 228.425 89.0729C228.425 91.3174 230.246 93.1378 232.49 93.1378Z" fill="#3F3D56"/>
<path opacity="0.3" d="M232.49 118.336C234.735 118.336 236.554 116.517 236.554 114.272C236.554 112.028 234.735 110.208 232.49 110.208C230.246 110.208 228.425 112.028 228.425 114.272C228.425 116.517 230.246 118.336 232.49 118.336Z" fill="#3F3D56"/>
<path opacity="0.3" d="M232.49 143.536C234.735 143.536 236.554 141.716 236.554 139.471C236.554 137.226 234.735 135.407 232.49 135.407C230.246 135.407 228.425 137.226 228.425 139.471C228.425 141.716 230.246 143.536 232.49 143.536Z" fill="#3F3D56"/>
<path opacity="0.3" d="M232.49 168.735C234.735 168.735 236.554 166.915 236.554 164.67C236.554 162.426 234.735 160.606 232.49 160.606C230.246 160.606 228.425 162.426 228.425 164.67C228.425 166.915 230.246 168.735 232.49 168.735Z" fill="#3F3D56"/>
<path opacity="0.3" d="M232.49 193.933C234.735 193.933 236.554 192.114 236.554 189.87C236.554 187.624 234.735 185.805 232.49 185.805C230.246 185.805 228.425 187.624 228.425 189.87C228.425 192.114 230.246 193.933 232.49 193.933Z" fill="#3F3D56"/>
<path opacity="0.3" d="M380.432 63.4678H269.07V64.2806H380.432V63.4678Z" fill="#3F3D56"/>
<path opacity="0.3" d="M380.432 88.6672H269.07V89.4797H380.432V88.6672Z" fill="#3F3D56"/>
<path opacity="0.3" d="M380.432 113.866H269.07V114.679H380.432V113.866Z" fill="#3F3D56"/>
<path opacity="0.3" d="M380.432 139.065H269.07V139.878H380.432V139.065Z" fill="#3F3D56"/>
<path opacity="0.3" d="M380.432 164.263H269.07V165.077H380.432V164.263Z" fill="#3F3D56"/>
<path opacity="0.3" d="M380.432 189.463H269.07V190.275H380.432V189.463Z" fill="#3F3D56"/>
<path opacity="0.3" d="M400.494 213.006L389.811 204.241L398.576 193.558L409.26 202.322L400.494 213.006ZM390.954 204.128L400.381 211.862L408.115 202.435L398.688 194.702L390.954 204.128Z" fill="#3F3D56"/>
<path opacity="0.3" d="M245.707 21.9211L235.651 13.672L227.402 23.7272L237.457 31.9763L245.707 21.9211Z" fill="#3871A7"/>
<path opacity="0.3" d="M184.124 89.0729C184.143 100.537 180.497 111.707 173.719 120.954C172.947 122.01 172.138 123.043 171.289 124.039C168.89 126.866 166.207 129.441 163.282 131.721C162.99 131.949 162.693 132.175 162.392 132.4C161.295 133.22 160.166 133.999 159.007 134.736C158.653 134.96 158.299 135.179 157.942 135.391C157.133 135.883 156.309 136.351 155.471 136.797C155.06 137.016 154.645 137.232 154.231 137.439C145.712 141.689 136.221 143.616 126.72 143.024C117.218 142.433 108.041 139.344 100.114 134.07C99.6914 133.794 99.2768 133.509 98.8663 133.216C98.0941 132.672 97.334 132.103 96.5943 131.517C95.9115 130.981 95.245 130.424 94.5906 129.855C91.1455 126.86 88.0934 123.44 85.5067 119.677C85.0028 118.943 84.5151 118.195 84.0436 117.434C79.6595 110.32 76.9846 102.285 76.2291 93.9622C75.4737 85.6391 76.6583 77.2543 79.6897 69.4664C82.7212 61.6784 87.517 54.6994 93.7005 49.0774C99.884 43.4555 107.286 39.3438 115.327 37.0653C123.368 34.7867 131.827 34.4034 140.041 35.9454C148.254 37.4875 155.999 40.9129 162.665 45.9526C169.331 50.9922 174.739 57.509 178.463 64.9908C182.186 72.4728 184.124 80.716 184.124 89.0729Z" fill="#3F3D56"/>
<path opacity="0.3" d="M128.032 86.4061C136.166 86.4061 142.759 79.8126 142.759 71.6793C142.759 63.5458 136.166 56.9524 128.032 56.9524C119.899 56.9524 113.305 63.5458 113.305 71.6793C113.305 79.8126 119.899 86.4061 128.032 86.4061Z" fill="#A0616A"/>
<path opacity="0.3" d="M117.907 78.7358C117.907 78.7358 122.817 89.7808 116.067 94.0765C109.317 98.3712 127.112 116.166 127.112 116.166L146.748 95.3034C146.748 95.3034 136.316 88.5539 138.157 77.5085L117.907 78.7358Z" fill="#A0616A"/>
<path opacity="0.3" d="M163.282 131.721C162.99 131.949 162.693 132.176 162.392 132.4C161.294 133.221 160.166 133.999 159.006 134.736C158.653 134.96 158.299 135.179 157.942 135.391L157.791 134.574L159.205 133.838L163.282 131.721Z" fill="#A0616A"/>
<path opacity="0.3" d="M157.942 135.391C158.299 135.179 158.653 134.96 159.007 134.736L159.019 134.574L159.205 133.838L166.997 103.282L143.379 92.4137L129.568 100.827L117.196 93.1982C117.196 93.1982 109.929 93.4626 108.088 95.3034C106.645 96.7472 99.5692 100.068 96.5616 101.441C95.7243 101.823 95.2041 102.055 95.2041 102.055C95.2041 102.055 95.6675 115.979 96.5942 131.517C97.3339 132.103 98.0938 132.672 98.8661 133.216C99.2766 133.509 99.6912 133.794 100.114 134.07C108.039 139.344 117.218 142.433 126.72 143.024C136.221 143.616 145.712 141.689 154.231 137.439L157.942 135.391Z" fill="#3871A7"/>
<path opacity="0.3" d="M100.114 101.441V134.07C99.6912 133.794 99.2766 133.509 98.8662 133.216C98.094 132.672 97.3339 132.103 96.5942 131.517C95.9113 130.981 95.2448 130.424 94.5905 129.855C91.1454 126.86 88.0932 123.44 85.5067 119.677C85.0026 118.943 84.5149 118.195 84.0435 117.434C84.4417 116.125 84.8888 114.68 85.3847 113.097C88.4533 103.282 95.2041 101.441 95.2041 101.441H100.114Z" fill="#3871A7"/>
<path opacity="0.3" d="M157.942 135.391C158.299 135.179 158.653 134.96 159.007 134.736C160.165 134.001 161.293 133.222 162.392 132.4C162.693 132.175 162.99 131.949 163.282 131.721C166.206 129.441 168.89 126.866 171.289 124.039C172.138 123.043 172.947 122.01 173.719 120.954C171.22 113.143 166.997 103.282 166.997 103.282L158.405 102.668C158.405 102.668 154.917 130.582 154.231 137.439L157.942 135.391Z" fill="#3871A7"/>
<path opacity="0.3" d="M119.003 54.6336C118.267 55.2607 117.497 55.849 116.7 56.3962C115.693 57.231 114.764 58.1541 113.922 59.1548L112.973 60.2179C112.165 61.1227 111.307 62.1552 111.341 63.3678C111.354 63.8176 111.492 64.2542 111.546 64.701C111.761 66.4736 110.678 68.4219 111.57 69.9687C111.828 70.416 112.226 70.7656 112.511 71.1966C112.872 71.7489 113.032 72.409 112.964 73.0657C113.922 73.1049 114.709 72.2461 115.009 71.3353C115.31 70.4243 115.269 69.4403 115.416 68.4924C115.563 67.5444 115.974 66.5406 116.835 66.1186C118.672 65.2181 120.783 67.5593 122.745 66.9758C124.114 66.5685 124.837 64.8706 126.237 64.5858C127.239 64.3821 128.204 64.9776 129.136 65.3996C130.067 65.8218 131.323 66.0172 131.982 65.2348C132.418 64.7167 132.465 63.8867 133.043 63.5346C133.736 63.1128 134.605 63.7001 135.129 64.3191C135.655 64.938 136.234 65.6949 137.046 65.6723C138.122 65.6424 138.946 64.2092 139.968 64.5492C141.12 64.9331 140.59 66.778 141.29 67.7716C141.881 68.6117 143.12 68.5622 144.137 68.4234C144.309 68.4408 144.483 68.4143 144.641 68.3466C144.8 68.2788 144.939 68.1719 145.045 68.0358C145.151 67.8997 145.221 67.7389 145.248 67.5686C145.275 67.3982 145.258 67.2237 145.199 67.0614L144.774 61.4233C144.773 61.0346 144.688 60.651 144.525 60.298C144.229 59.7617 143.616 59.4901 143.2 59.0412C142.322 58.0976 142.364 56.4432 141.275 55.757C140.709 55.4007 139.969 55.4114 139.407 55.0487C138.686 54.5837 138.454 53.6524 137.95 52.9591C137.228 51.9678 135.967 51.5083 134.746 51.3822C133.527 51.2561 132.296 51.4082 131.071 51.3682C128.579 51.287 126.088 50.5858 123.584 50.9963C121.399 51.3544 120.482 53.2079 119.003 54.6336Z" fill="#2F2E41"/>
<path opacity="0.3" d="M409.301 51.8462C410.239 51.8462 411.001 51.0845 411.001 50.1448C411.001 49.2051 410.239 48.4434 409.301 48.4434C408.361 48.4434 407.599 49.2051 407.599 50.1448C407.599 51.0845 408.361 51.8462 409.301 51.8462Z" fill="#3F3D56"/>
<path opacity="0.3" d="M397.514 32.1971C398.453 32.1971 399.215 31.1938 399.215 29.956C399.215 28.7184 398.453 27.7151 397.514 27.7151C396.574 27.7151 395.812 28.7184 395.812 29.956C395.812 31.1938 396.574 32.1971 397.514 32.1971Z" fill="#3F3D56"/>
<path opacity="0.3" d="M392.637 9.84315C393.577 9.84315 394.337 8.83976 394.337 7.60215C394.337 6.36454 393.577 5.36115 392.637 5.36115C391.697 5.36115 390.935 6.36454 390.935 7.60215C390.935 8.83976 391.697 9.84315 392.637 9.84315Z" fill="#3F3D56"/>
<path d="M13.7866 262.392C13.7866 261.368 13.4269 260.559 12.7075 259.967C11.9881 259.366 10.672 258.799 8.75928 258.266C6.84652 257.724 5.45003 257.136 4.56982 256.501C3.31722 255.604 2.69092 254.428 2.69092 252.972C2.69092 251.559 3.27067 250.412 4.43018 249.531C5.59814 248.643 7.08773 248.198 8.89893 248.198C10.1261 248.198 11.2222 248.435 12.187 248.909C13.1603 249.383 13.9136 250.044 14.4468 250.89C14.98 251.736 15.2466 252.68 15.2466 253.721H13.6724C13.6724 252.46 13.2407 251.448 12.3774 250.687C11.5142 249.917 10.3547 249.531 8.89893 249.531C7.48551 249.531 6.35986 249.849 5.52197 250.484C4.68408 251.11 4.26514 251.931 4.26514 252.947C4.26514 253.886 4.64176 254.652 5.39502 255.244C6.14827 255.837 7.35433 256.362 9.01318 256.819C10.672 257.267 11.9289 257.737 12.7837 258.228C13.6385 258.71 14.2817 259.29 14.7134 259.967C15.145 260.644 15.3608 261.444 15.3608 262.366C15.3608 263.822 14.7769 264.99 13.6089 265.87C12.4494 266.751 10.9175 267.191 9.01318 267.191C7.7098 267.191 6.51221 266.958 5.42041 266.492C4.33708 266.027 3.51188 265.375 2.94482 264.537C2.38623 263.699 2.10693 262.739 2.10693 261.656H3.66846C3.66846 262.959 4.15511 263.987 5.12842 264.74C6.10173 265.494 7.39665 265.87 9.01318 265.87C10.452 265.87 11.6073 265.553 12.479 264.918C13.3507 264.283 13.7866 263.441 13.7866 262.392ZM23.7017 267.191C22.5337 267.191 21.4757 266.903 20.5278 266.327C19.5884 265.752 18.8563 264.952 18.3315 263.928C17.8068 262.895 17.5444 261.74 17.5444 260.462V259.916C17.5444 258.596 17.7983 257.407 18.3062 256.349C18.8224 255.291 19.5376 254.462 20.4517 253.861C21.3657 253.251 22.356 252.947 23.4224 252.947C25.0897 252.947 26.41 253.518 27.3833 254.66C28.3651 255.795 28.856 257.348 28.856 259.32V260.17H19.0552V260.462C19.0552 262.019 19.4995 263.319 20.3882 264.36C21.2853 265.392 22.411 265.908 23.7651 265.908C24.5776 265.908 25.2928 265.76 25.9106 265.464C26.5369 265.168 27.104 264.694 27.6118 264.042L28.564 264.766C27.4468 266.382 25.826 267.191 23.7017 267.191ZM23.4224 254.241C22.2798 254.241 21.3149 254.66 20.5278 255.498C19.7492 256.336 19.2752 257.462 19.106 258.875H27.3452V258.71C27.3029 257.39 26.9263 256.315 26.2153 255.486C25.5044 254.656 24.5734 254.241 23.4224 254.241ZM33.5151 266.937H31.9917V247.437H33.5151V266.937ZM42.9731 267.191C41.8052 267.191 40.7472 266.903 39.7993 266.327C38.8599 265.752 38.1278 264.952 37.603 263.928C37.0783 262.895 36.8159 261.74 36.8159 260.462V259.916C36.8159 258.596 37.0698 257.407 37.5776 256.349C38.0939 255.291 38.8091 254.462 39.7231 253.861C40.6372 253.251 41.6274 252.947 42.6938 252.947C44.3612 252.947 45.6815 253.518 46.6548 254.66C47.6366 255.795 48.1274 257.348 48.1274 259.32V260.17H38.3267V260.462C38.3267 262.019 38.771 263.319 39.6597 264.36C40.5568 265.392 41.6825 265.908 43.0366 265.908C43.8491 265.908 44.5643 265.76 45.1821 265.464C45.8084 265.168 46.3755 264.694 46.8833 264.042L47.8354 264.766C46.7183 266.382 45.0975 267.191 42.9731 267.191ZM42.6938 254.241C41.5513 254.241 40.5864 254.66 39.7993 255.498C39.0207 256.336 38.5467 257.462 38.3774 258.875H46.6167V258.71C46.5744 257.39 46.1978 256.315 45.4868 255.486C44.7759 254.656 43.8449 254.241 42.6938 254.241ZM56.1636 265.908C57.2215 265.908 58.106 265.612 58.8169 265.02C59.5363 264.419 59.9256 263.644 59.9849 262.697H61.4448C61.4025 263.534 61.1401 264.3 60.6577 264.994C60.1753 265.68 59.5321 266.217 58.728 266.607C57.9325 266.996 57.0776 267.191 56.1636 267.191C54.3608 267.191 52.9305 266.564 51.8726 265.312C50.8231 264.059 50.2983 262.375 50.2983 260.259V259.802C50.2983 258.448 50.5353 257.25 51.0093 256.209C51.4832 255.168 52.1603 254.364 53.0405 253.797C53.9292 253.23 54.966 252.947 56.1509 252.947C57.6574 252.947 58.8973 253.395 59.8706 254.292C60.8524 255.189 61.3771 256.37 61.4448 257.834H59.9849C59.9172 256.759 59.5278 255.892 58.8169 255.232C58.1144 254.572 57.2257 254.241 56.1509 254.241C54.7798 254.241 53.7134 254.737 52.9517 255.727C52.1984 256.717 51.8218 258.105 51.8218 259.891V260.335C51.8218 262.087 52.1984 263.454 52.9517 264.436C53.7134 265.418 54.784 265.908 56.1636 265.908ZM69.5698 265.908C70.6278 265.908 71.5122 265.612 72.2231 265.02C72.9425 264.419 73.3319 263.644 73.3911 262.697H74.8511C74.8088 263.534 74.5464 264.3 74.064 264.994C73.5815 265.68 72.9383 266.217 72.1343 266.607C71.3387 266.996 70.4839 267.191 69.5698 267.191C67.7671 267.191 66.3368 266.564 65.2788 265.312C64.2293 264.059 63.7046 262.375 63.7046 260.259V259.802C63.7046 258.448 63.9416 257.25 64.4155 256.209C64.8895 255.168 65.5666 254.364 66.4468 253.797C67.3354 253.23 68.3722 252.947 69.5571 252.947C71.0636 252.947 72.3035 253.395 73.2769 254.292C74.2586 255.189 74.7834 256.37 74.8511 257.834H73.3911C73.3234 256.759 72.9341 255.892 72.2231 255.232C71.5207 254.572 70.632 254.241 69.5571 254.241C68.186 254.241 67.1196 254.737 66.3579 255.727C65.6047 256.717 65.228 258.105 65.228 259.891V260.335C65.228 262.087 65.6047 263.454 66.3579 264.436C67.1196 265.418 68.1903 265.908 69.5698 265.908ZM79.5991 266.937H78.0757V253.2H79.5991V266.937ZM77.8091 249.227C77.8091 248.939 77.9022 248.698 78.0884 248.503C78.2746 248.3 78.5285 248.198 78.8501 248.198C79.1717 248.198 79.4256 248.3 79.6118 248.503C79.8065 248.698 79.9038 248.939 79.9038 249.227C79.9038 249.515 79.8065 249.756 79.6118 249.95C79.4256 250.145 79.1717 250.242 78.8501 250.242C78.5285 250.242 78.2746 250.145 78.0884 249.95C77.9022 249.756 77.8091 249.515 77.8091 249.227ZM82.8999 259.865C82.8999 258.545 83.1538 257.356 83.6616 256.298C84.1779 255.24 84.9015 254.419 85.8325 253.835C86.772 253.243 87.8341 252.947 89.019 252.947C90.8472 252.947 92.3283 253.59 93.4624 254.876C94.5965 256.154 95.1636 257.851 95.1636 259.967V260.284C95.1636 261.613 94.9054 262.811 94.3892 263.877C93.8813 264.935 93.1619 265.752 92.231 266.327C91.3 266.903 90.2378 267.191 89.0444 267.191C87.2248 267.191 85.7437 266.552 84.6011 265.274C83.467 263.987 82.8999 262.286 82.8999 260.17V259.865ZM84.4233 260.284C84.4233 261.926 84.8465 263.276 85.6929 264.334C86.5477 265.384 87.6649 265.908 89.0444 265.908C90.4155 265.908 91.5243 265.384 92.3706 264.334C93.2254 263.276 93.6528 261.884 93.6528 260.157V259.865C93.6528 258.816 93.4582 257.855 93.0688 256.984C92.6795 256.112 92.1336 255.439 91.4312 254.965C90.7287 254.483 89.9246 254.241 89.019 254.241C87.6649 254.241 86.5604 254.775 85.7056 255.841C84.8507 256.899 84.4233 258.287 84.4233 260.005V260.284ZM99.7593 253.2L99.8101 255.549C100.326 254.703 100.97 254.059 101.74 253.619C102.51 253.171 103.361 252.947 104.292 252.947C105.764 252.947 106.86 253.361 107.58 254.191C108.299 255.02 108.663 256.264 108.671 257.923V266.937H107.161V257.91C107.152 256.683 106.89 255.769 106.374 255.168C105.866 254.567 105.049 254.267 103.923 254.267C102.984 254.267 102.15 254.563 101.422 255.156C100.703 255.74 100.17 256.531 99.8228 257.53V266.937H98.312V253.2H99.7593ZM117.926 267.191C116.758 267.191 115.7 266.903 114.752 266.327C113.813 265.752 113.081 264.952 112.556 263.928C112.031 262.895 111.769 261.74 111.769 260.462V259.916C111.769 258.596 112.023 257.407 112.531 256.349C113.047 255.291 113.762 254.462 114.676 253.861C115.59 253.251 116.581 252.947 117.647 252.947C119.314 252.947 120.635 253.518 121.608 254.66C122.59 255.795 123.081 257.348 123.081 259.32V260.17H113.28V260.462C113.28 262.019 113.724 263.319 114.613 264.36C115.51 265.392 116.636 265.908 117.99 265.908C118.802 265.908 119.517 265.76 120.135 265.464C120.762 265.168 121.329 264.694 121.836 264.042L122.789 264.766C121.671 266.382 120.051 267.191 117.926 267.191ZM117.647 254.241C116.504 254.241 115.54 254.66 114.752 255.498C113.974 256.336 113.5 257.462 113.331 258.875H121.57V258.71C121.528 257.39 121.151 256.315 120.44 255.486C119.729 254.656 118.798 254.241 117.647 254.241ZM141.197 265.198C140.283 266.526 138.823 267.191 136.817 267.191C135.353 267.191 134.24 266.767 133.478 265.921C132.716 265.066 132.327 263.805 132.31 262.138V253.2H133.821V261.948C133.821 264.563 134.879 265.87 136.995 265.87C139.195 265.87 140.587 264.961 141.171 263.141V253.2H142.695V266.937H141.222L141.197 265.198ZM148.103 253.2L148.154 255.549C148.67 254.703 149.313 254.059 150.083 253.619C150.854 253.171 151.704 252.947 152.635 252.947C154.108 252.947 155.204 253.361 155.923 254.191C156.643 255.02 157.007 256.264 157.015 257.923V266.937H155.504V257.91C155.496 256.683 155.234 255.769 154.717 255.168C154.209 254.567 153.393 254.267 152.267 254.267C151.328 254.267 150.494 254.563 149.766 255.156C149.047 255.74 148.514 256.531 148.167 257.53V266.937H146.656V253.2H148.103ZM178.318 260.208C178.318 262.35 177.844 264.051 176.896 265.312C175.948 266.564 174.679 267.191 173.087 267.191C171.208 267.191 169.77 266.531 168.771 265.21V272.218H167.26V253.2H168.669L168.746 255.143C169.736 253.679 171.17 252.947 173.049 252.947C174.691 252.947 175.978 253.569 176.909 254.813C177.848 256.057 178.318 257.783 178.318 259.992V260.208ZM176.794 259.942C176.794 258.19 176.435 256.806 175.715 255.79C174.996 254.775 173.993 254.267 172.707 254.267C171.776 254.267 170.976 254.491 170.307 254.94C169.639 255.388 169.126 256.04 168.771 256.895V263.484C169.135 264.271 169.655 264.872 170.333 265.286C171.01 265.701 171.809 265.908 172.732 265.908C174.01 265.908 175.004 265.401 175.715 264.385C176.435 263.361 176.794 261.88 176.794 259.942ZM187.014 267.191C185.846 267.191 184.788 266.903 183.84 266.327C182.901 265.752 182.169 264.952 181.644 263.928C181.119 262.895 180.857 261.74 180.857 260.462V259.916C180.857 258.596 181.111 257.407 181.619 256.349C182.135 255.291 182.85 254.462 183.764 253.861C184.678 253.251 185.668 252.947 186.735 252.947C188.402 252.947 189.722 253.518 190.696 254.66C191.678 255.795 192.168 257.348 192.168 259.32V260.17H182.368V260.462C182.368 262.019 182.812 263.319 183.701 264.36C184.598 265.392 185.723 265.908 187.078 265.908C187.89 265.908 188.605 265.76 189.223 265.464C189.849 265.168 190.417 264.694 190.924 264.042L191.876 264.766C190.759 266.382 189.139 267.191 187.014 267.191ZM186.735 254.241C185.592 254.241 184.627 254.66 183.84 255.498C183.062 256.336 182.588 257.462 182.418 258.875H190.658V258.71C190.615 257.39 190.239 256.315 189.528 255.486C188.817 254.656 187.886 254.241 186.735 254.241ZM201.474 254.495C201.153 254.436 200.81 254.406 200.446 254.406C199.498 254.406 198.694 254.673 198.034 255.206C197.382 255.731 196.917 256.497 196.637 257.504V266.937H195.126V253.2H196.612L196.637 255.384C197.441 253.759 198.732 252.947 200.509 252.947C200.932 252.947 201.267 253.002 201.512 253.112L201.474 254.495ZM204.8 266.937V254.445H202.515V253.2H204.8V251.791C204.8 250.327 205.198 249.193 205.994 248.389C206.789 247.576 207.911 247.17 209.358 247.17C210.492 247.17 211.66 247.42 212.862 247.919L212.608 249.227C211.575 248.778 210.526 248.554 209.459 248.554C207.369 248.554 206.324 249.642 206.324 251.817V253.2H209.536V254.445H206.324V266.937H204.8ZM213.687 266.937H212.164V253.2H213.687V266.937ZM219.552 266.937H218.029V247.437H219.552V266.937ZM241.058 260.208C241.058 262.35 240.584 264.051 239.636 265.312C238.688 266.564 237.419 267.191 235.828 267.191C233.949 267.191 232.51 266.531 231.511 265.21V272.218H230V253.2H231.41L231.486 255.143C232.476 253.679 233.911 252.947 235.79 252.947C237.431 252.947 238.718 253.569 239.649 254.813C240.588 256.057 241.058 257.783 241.058 259.992V260.208ZM239.535 259.942C239.535 258.19 239.175 256.806 238.456 255.79C237.736 254.775 236.733 254.267 235.447 254.267C234.516 254.267 233.716 254.491 233.047 254.94C232.379 255.388 231.867 256.04 231.511 256.895V263.484C231.875 264.271 232.396 264.872 233.073 265.286C233.75 265.701 234.55 265.908 235.472 265.908C236.75 265.908 237.745 265.401 238.456 264.385C239.175 263.361 239.535 261.88 239.535 259.942ZM253.106 266.937C252.954 266.505 252.856 265.866 252.814 265.02C252.281 265.714 251.599 266.251 250.77 266.632C249.949 267.004 249.077 267.191 248.155 267.191C246.834 267.191 245.764 266.823 244.943 266.086C244.13 265.35 243.724 264.419 243.724 263.293C243.724 261.956 244.278 260.898 245.387 260.119C246.504 259.341 248.057 258.951 250.046 258.951H252.801V257.39C252.801 256.408 252.497 255.638 251.887 255.079C251.286 254.512 250.406 254.229 249.247 254.229C248.189 254.229 247.313 254.5 246.619 255.041C245.925 255.583 245.578 256.235 245.578 256.996L244.054 256.984C244.054 255.892 244.562 254.948 245.578 254.153C246.593 253.349 247.842 252.947 249.323 252.947C250.855 252.947 252.061 253.332 252.941 254.102C253.83 254.864 254.287 255.93 254.312 257.301V263.801C254.312 265.13 254.452 266.124 254.731 266.784V266.937H253.106ZM248.333 265.845C249.348 265.845 250.254 265.6 251.049 265.109C251.853 264.618 252.437 263.962 252.801 263.141V260.119H250.084C248.569 260.136 247.385 260.416 246.53 260.957C245.675 261.49 245.248 262.227 245.248 263.166C245.248 263.936 245.531 264.575 246.098 265.083C246.674 265.591 247.418 265.845 248.333 265.845ZM264.722 254.495C264.401 254.436 264.058 254.406 263.694 254.406C262.746 254.406 261.942 254.673 261.282 255.206C260.63 255.731 260.165 256.497 259.885 257.504V266.937H258.375V253.2H259.86L259.885 255.384C260.689 253.759 261.98 252.947 263.757 252.947C264.181 252.947 264.515 253.002 264.76 253.112L264.722 254.495ZM275.297 266.937C275.145 266.505 275.048 265.866 275.005 265.02C274.472 265.714 273.791 266.251 272.961 266.632C272.14 267.004 271.269 267.191 270.346 267.191C269.026 267.191 267.955 266.823 267.134 266.086C266.322 265.35 265.916 264.419 265.916 263.293C265.916 261.956 266.47 260.898 267.579 260.119C268.696 259.341 270.249 258.951 272.238 258.951H274.993V257.39C274.993 256.408 274.688 255.638 274.079 255.079C273.478 254.512 272.597 254.229 271.438 254.229C270.38 254.229 269.504 254.5 268.81 255.041C268.116 255.583 267.769 256.235 267.769 256.996L266.246 256.984C266.246 255.892 266.753 254.948 267.769 254.153C268.785 253.349 270.033 252.947 271.514 252.947C273.046 252.947 274.252 253.332 275.132 254.102C276.021 254.864 276.478 255.93 276.503 257.301V263.801C276.503 265.13 276.643 266.124 276.922 266.784V266.937H275.297ZM270.524 265.845C271.54 265.845 272.445 265.6 273.241 265.109C274.045 264.618 274.629 263.962 274.993 263.141V260.119H272.276C270.761 260.136 269.576 260.416 268.721 260.957C267.866 261.49 267.439 262.227 267.439 263.166C267.439 263.936 267.722 264.575 268.29 265.083C268.865 265.591 269.61 265.845 270.524 265.845ZM291.167 264.842L295.343 253.2H296.905L291.776 266.937H290.544L285.39 253.2H286.952L291.167 264.842ZM304.547 267.191C303.379 267.191 302.321 266.903 301.374 266.327C300.434 265.752 299.702 264.952 299.177 263.928C298.653 262.895 298.39 261.74 298.39 260.462V259.916C298.39 258.596 298.644 257.407 299.152 256.349C299.668 255.291 300.383 254.462 301.297 253.861C302.211 253.251 303.202 252.947 304.268 252.947C305.935 252.947 307.256 253.518 308.229 254.66C309.211 255.795 309.702 257.348 309.702 259.32V260.17H299.901V260.462C299.901 262.019 300.345 263.319 301.234 264.36C302.131 265.392 303.257 265.908 304.611 265.908C305.423 265.908 306.139 265.76 306.756 265.464C307.383 265.168 307.95 264.694 308.458 264.042L309.41 264.766C308.292 266.382 306.672 267.191 304.547 267.191ZM304.268 254.241C303.125 254.241 302.161 254.66 301.374 255.498C300.595 256.336 300.121 257.462 299.952 258.875H308.191V258.71C308.149 257.39 307.772 256.315 307.061 255.486C306.35 254.656 305.419 254.241 304.268 254.241ZM319.007 254.495C318.686 254.436 318.343 254.406 317.979 254.406C317.031 254.406 316.227 254.673 315.567 255.206C314.915 255.731 314.45 256.497 314.17 257.504V266.937H312.66V253.2H314.145L314.17 255.384C314.974 253.759 316.265 252.947 318.042 252.947C318.466 252.947 318.8 253.002 319.045 253.112L319.007 254.495ZM329.443 266.937H327.919V247.437H329.443V266.937ZM332.744 259.865C332.744 258.545 332.998 257.356 333.505 256.298C334.022 255.24 334.745 254.419 335.676 253.835C336.616 253.243 337.678 252.947 338.863 252.947C340.691 252.947 342.172 253.59 343.306 254.876C344.44 256.154 345.007 257.851 345.007 259.967V260.284C345.007 261.613 344.749 262.811 344.233 263.877C343.725 264.935 343.006 265.752 342.075 266.327C341.144 266.903 340.082 267.191 338.888 267.191C337.069 267.191 335.587 266.552 334.445 265.274C333.311 263.987 332.744 262.286 332.744 260.17V259.865ZM334.267 260.284C334.267 261.926 334.69 263.276 335.537 264.334C336.391 265.384 337.509 265.908 338.888 265.908C340.259 265.908 341.368 265.384 342.214 264.334C343.069 263.276 343.497 261.884 343.497 260.157V259.865C343.497 258.816 343.302 257.855 342.913 256.984C342.523 256.112 341.977 255.439 341.275 254.965C340.572 254.483 339.768 254.241 338.863 254.241C337.509 254.241 336.404 254.775 335.549 255.841C334.694 256.899 334.267 258.287 334.267 260.005V260.284ZM356.382 263.446C356.382 262.692 356.078 262.087 355.468 261.63C354.867 261.173 353.958 260.818 352.739 260.564C351.52 260.301 350.572 260.005 349.895 259.675C349.226 259.337 348.727 258.926 348.397 258.444C348.075 257.961 347.915 257.377 347.915 256.692C347.915 255.608 348.367 254.715 349.273 254.013C350.179 253.302 351.338 252.947 352.751 252.947C354.283 252.947 355.511 253.327 356.433 254.089C357.364 254.842 357.83 255.828 357.83 257.047H356.306C356.306 256.243 355.968 255.574 355.291 255.041C354.622 254.508 353.776 254.241 352.751 254.241C351.753 254.241 350.949 254.466 350.339 254.914C349.738 255.354 349.438 255.93 349.438 256.641C349.438 257.326 349.688 257.86 350.187 258.24C350.695 258.613 351.613 258.956 352.942 259.269C354.279 259.582 355.278 259.916 355.938 260.272C356.607 260.627 357.102 261.055 357.423 261.554C357.745 262.053 357.906 262.658 357.906 263.369C357.906 264.529 357.436 265.456 356.497 266.15C355.566 266.844 354.347 267.191 352.84 267.191C351.241 267.191 349.942 266.806 348.943 266.035C347.953 265.257 347.458 264.275 347.458 263.09H348.981C349.04 263.979 349.413 264.673 350.098 265.172C350.792 265.663 351.706 265.908 352.84 265.908C353.898 265.908 354.753 265.676 355.405 265.21C356.056 264.745 356.382 264.156 356.382 263.446ZM376.492 265.198C375.578 266.526 374.118 267.191 372.112 267.191C370.648 267.191 369.535 266.767 368.773 265.921C368.011 265.066 367.622 263.805 367.605 262.138V253.2H369.116V261.948C369.116 264.563 370.174 265.87 372.29 265.87C374.49 265.87 375.882 264.961 376.466 263.141V253.2H377.99V266.937H376.517L376.492 265.198ZM390.177 263.446C390.177 262.692 389.873 262.087 389.263 261.63C388.662 261.173 387.752 260.818 386.534 260.564C385.315 260.301 384.367 260.005 383.69 259.675C383.021 259.337 382.522 258.926 382.192 258.444C381.87 257.961 381.709 257.377 381.709 256.692C381.709 255.608 382.162 254.715 383.068 254.013C383.973 253.302 385.133 252.947 386.546 252.947C388.078 252.947 389.306 253.327 390.228 254.089C391.159 254.842 391.625 255.828 391.625 257.047H390.101C390.101 256.243 389.763 255.574 389.085 255.041C388.417 254.508 387.57 254.241 386.546 254.241C385.548 254.241 384.744 254.466 384.134 254.914C383.533 255.354 383.233 255.93 383.233 256.641C383.233 257.326 383.483 257.86 383.982 258.24C384.49 258.613 385.408 258.956 386.737 259.269C388.074 259.582 389.073 259.916 389.733 260.272C390.402 260.627 390.897 261.055 391.218 261.554C391.54 262.053 391.701 262.658 391.701 263.369C391.701 264.529 391.231 265.456 390.292 266.15C389.361 266.844 388.142 267.191 386.635 267.191C385.036 267.191 383.736 266.806 382.738 266.035C381.748 265.257 381.252 264.275 381.252 263.09H382.776C382.835 263.979 383.208 264.673 383.893 265.172C384.587 265.663 385.501 265.908 386.635 265.908C387.693 265.908 388.548 265.676 389.2 265.21C389.851 264.745 390.177 264.156 390.177 263.446ZM403.964 265.198C403.05 266.526 401.59 267.191 399.584 267.191C398.12 267.191 397.007 266.767 396.246 265.921C395.484 265.066 395.095 263.805 395.078 262.138V253.2H396.588V261.948C396.588 264.563 397.646 265.87 399.762 265.87C401.963 265.87 403.355 264.961 403.939 263.141V253.2H405.462V266.937H403.99L403.964 265.198ZM418.094 266.937C417.942 266.505 417.845 265.866 417.802 265.02C417.269 265.714 416.588 266.251 415.758 266.632C414.937 267.004 414.066 267.191 413.143 267.191C411.823 267.191 410.752 266.823 409.931 266.086C409.119 265.35 408.712 264.419 408.712 263.293C408.712 261.956 409.267 260.898 410.375 260.119C411.493 259.341 413.046 258.951 415.035 258.951H417.79V257.39C417.79 256.408 417.485 255.638 416.875 255.079C416.275 254.512 415.394 254.229 414.235 254.229C413.177 254.229 412.301 254.5 411.607 255.041C410.913 255.583 410.566 256.235 410.566 256.996L409.042 256.984C409.042 255.892 409.55 254.948 410.566 254.153C411.582 253.349 412.83 252.947 414.311 252.947C415.843 252.947 417.049 253.332 417.929 254.102C418.818 254.864 419.275 255.93 419.3 257.301V263.801C419.3 265.13 419.44 266.124 419.719 266.784V266.937H418.094ZM413.321 265.845C414.336 265.845 415.242 265.6 416.038 265.109C416.842 264.618 417.426 263.962 417.79 263.141V260.119H415.073C413.558 260.136 412.373 260.416 411.518 260.957C410.663 261.49 410.236 262.227 410.236 263.166C410.236 263.936 410.519 264.575 411.086 265.083C411.662 265.591 412.407 265.845 413.321 265.845ZM429.71 254.495C429.389 254.436 429.046 254.406 428.682 254.406C427.734 254.406 426.93 254.673 426.27 255.206C425.618 255.731 425.153 256.497 424.874 257.504V266.937H423.363V253.2H424.848L424.874 255.384C425.678 253.759 426.968 252.947 428.746 252.947C429.169 252.947 429.503 253.002 429.749 253.112L429.71 254.495ZM433.824 266.937H432.3V253.2H433.824V266.937ZM432.034 249.227C432.034 248.939 432.127 248.698 432.313 248.503C432.499 248.3 432.753 248.198 433.075 248.198C433.396 248.198 433.65 248.3 433.836 248.503C434.031 248.698 434.128 248.939 434.128 249.227C434.128 249.515 434.031 249.756 433.836 249.95C433.65 250.145 433.396 250.242 433.075 250.242C432.753 250.242 432.499 250.145 432.313 249.95C432.127 249.756 432.034 249.515 432.034 249.227ZM437.125 259.865C437.125 258.545 437.378 257.356 437.886 256.298C438.403 255.24 439.126 254.419 440.057 253.835C440.997 253.243 442.059 252.947 443.244 252.947C445.072 252.947 446.553 253.59 447.687 254.876C448.821 256.154 449.388 257.851 449.388 259.967V260.284C449.388 261.613 449.13 262.811 448.614 263.877C448.106 264.935 447.387 265.752 446.456 266.327C445.525 266.903 444.462 267.191 443.269 267.191C441.449 267.191 439.968 266.552 438.826 265.274C437.692 263.987 437.125 262.286 437.125 260.17V259.865ZM438.648 260.284C438.648 261.926 439.071 263.276 439.917 264.334C440.772 265.384 441.889 265.908 443.269 265.908C444.64 265.908 445.749 265.384 446.595 264.334C447.45 263.276 447.877 261.884 447.877 260.157V259.865C447.877 258.816 447.683 257.855 447.293 256.984C446.904 256.112 446.358 255.439 445.656 254.965C444.953 254.483 444.149 254.241 443.244 254.241C441.889 254.241 440.785 254.775 439.93 255.841C439.075 256.899 438.648 258.287 438.648 260.005V260.284ZM460.763 263.446C460.763 262.692 460.458 262.087 459.849 261.63C459.248 261.173 458.338 260.818 457.12 260.564C455.901 260.301 454.953 260.005 454.276 259.675C453.607 259.337 453.108 258.926 452.778 258.444C452.456 257.961 452.295 257.377 452.295 256.692C452.295 255.608 452.748 254.715 453.654 254.013C454.559 253.302 455.719 252.947 457.132 252.947C458.664 252.947 459.891 253.327 460.814 254.089C461.745 254.842 462.21 255.828 462.21 257.047H460.687C460.687 256.243 460.348 255.574 459.671 255.041C459.003 254.508 458.156 254.241 457.132 254.241C456.134 254.241 455.33 254.466 454.72 254.914C454.119 255.354 453.819 255.93 453.819 256.641C453.819 257.326 454.069 257.86 454.568 258.24C455.076 258.613 455.994 258.956 457.323 259.269C458.66 259.582 459.659 259.916 460.319 260.272C460.987 260.627 461.483 261.055 461.804 261.554C462.126 262.053 462.287 262.658 462.287 263.369C462.287 264.529 461.817 265.456 460.877 266.15C459.946 266.844 458.728 267.191 457.221 267.191C455.622 267.191 454.322 266.806 453.324 266.035C452.333 265.257 451.838 264.275 451.838 263.09H453.362C453.421 263.979 453.793 264.673 454.479 265.172C455.173 265.663 456.087 265.908 457.221 265.908C458.279 265.908 459.134 265.676 459.786 265.21C460.437 264.745 460.763 264.156 460.763 263.446Z" fill="#7B7B7B"/>
</svg>
