<svg width="116" height="34" viewBox="0 0 116 34" fill="none" xmlns="http://www.w3.org/2000/svg">
<path d="M34.4348 7.70728L37.6888 15.8284L40.9427 7.70728H42.6448V17.6604H41.3323V13.7844L41.4554 9.60083L38.1878 17.6604H37.1829L33.9221 9.62134L34.052 13.7844V17.6604H32.7395V7.70728H34.4348ZM49.3304 17.6604C49.2574 17.5146 49.1982 17.2548 49.1526 16.8811C48.5647 17.4918 47.8629 17.7971 47.0471 17.7971C46.318 17.7971 45.7187 17.592 45.2493 17.1819C44.7845 16.7672 44.552 16.2431 44.552 15.6096C44.552 14.8394 44.8437 14.2424 45.427 13.8186C46.0149 13.3902 46.8398 13.176 47.9016 13.176H49.1321V12.595C49.1321 12.1529 48.9999 11.802 48.7356 11.5422C48.4713 11.2779 48.0817 11.1458 47.5667 11.1458C47.1155 11.1458 46.7373 11.2597 46.4319 11.4875C46.1266 11.7154 45.9739 11.9911 45.9739 12.3147H44.7024C44.7024 11.9456 44.8323 11.5901 45.0921 11.2483C45.3564 10.9019 45.7119 10.6285 46.1585 10.428C46.6096 10.2275 47.1041 10.1272 47.6419 10.1272C48.4941 10.1272 49.1617 10.3414 49.6448 10.7698C50.1279 11.1936 50.3785 11.7792 50.3968 12.5266V15.9309C50.3968 16.6099 50.4833 17.15 50.6565 17.551V17.6604H49.3304ZM47.2317 16.6965C47.6282 16.6965 48.0042 16.594 48.3596 16.3889C48.7151 16.1838 48.9726 15.9172 49.1321 15.5891V14.0715H48.1409C46.5914 14.0715 45.8167 14.525 45.8167 15.4319C45.8167 15.8284 45.9488 16.1383 46.2132 16.3616C46.4775 16.5849 46.817 16.6965 47.2317 16.6965ZM55.9544 11.3987C55.763 11.3668 55.5556 11.3508 55.3323 11.3508C54.5029 11.3508 53.9401 11.704 53.6438 12.4104V17.6604H52.3792V10.2639H53.6096L53.6302 11.1184C54.0449 10.4576 54.6328 10.1272 55.3938 10.1272C55.6399 10.1272 55.8268 10.1591 55.9544 10.2229V11.3987ZM59.9534 16.7649C60.4046 16.7649 60.7988 16.6282 61.136 16.3547C61.4733 16.0813 61.6601 15.7395 61.6966 15.3293H62.8929C62.8701 15.7532 62.7242 16.1565 62.4554 16.5393C62.1865 16.9221 61.8264 17.2275 61.3753 17.4553C60.9287 17.6832 60.4547 17.7971 59.9534 17.7971C58.9462 17.7971 58.1442 17.4622 57.5471 16.7922C56.9547 16.1178 56.6585 15.1972 56.6585 14.0305V13.8186C56.6585 13.0986 56.7906 12.4583 57.055 11.8977C57.3193 11.3372 57.6975 10.9019 58.1897 10.592C58.6865 10.2821 59.2721 10.1272 59.9466 10.1272C60.776 10.1272 61.4641 10.3756 62.011 10.8723C62.5624 11.3691 62.8564 12.0139 62.8929 12.8069H61.6966C61.6601 12.3284 61.4778 11.9364 61.1497 11.6311C60.8261 11.3212 60.4251 11.1663 59.9466 11.1663C59.304 11.1663 58.805 11.3987 58.4495 11.8635C58.0986 12.3238 57.9231 12.9915 57.9231 13.8665V14.1057C57.9231 14.9579 58.0986 15.6142 58.4495 16.0745C58.8004 16.5347 59.3017 16.7649 59.9534 16.7649ZM68.8811 17.6604C68.8082 17.5146 68.749 17.2548 68.7034 16.8811C68.1155 17.4918 67.4137 17.7971 66.5979 17.7971C65.8688 17.7971 65.2695 17.592 64.8001 17.1819C64.3352 16.7672 64.1028 16.2431 64.1028 15.6096C64.1028 14.8394 64.3945 14.2424 64.9778 13.8186C65.5657 13.3902 66.3906 13.176 67.4524 13.176H68.6829V12.595C68.6829 12.1529 68.5507 11.802 68.2864 11.5422C68.0221 11.2779 67.6324 11.1458 67.1175 11.1458C66.6663 11.1458 66.288 11.2597 65.9827 11.4875C65.6774 11.7154 65.5247 11.9911 65.5247 12.3147H64.2532C64.2532 11.9456 64.3831 11.5901 64.6429 11.2483C64.9072 10.9019 65.2626 10.6285 65.7093 10.428C66.1604 10.2275 66.6549 10.1272 67.1927 10.1272C68.0449 10.1272 68.7125 10.3414 69.1956 10.7698C69.6787 11.1936 69.9293 11.7792 69.9475 12.5266V15.9309C69.9475 16.6099 70.0341 17.15 70.2073 17.551V17.6604H68.8811ZM66.7825 16.6965C67.179 16.6965 67.555 16.594 67.9104 16.3889C68.2659 16.1838 68.5234 15.9172 68.6829 15.5891V14.0715H67.6917C66.1422 14.0715 65.3675 14.525 65.3675 15.4319C65.3675 15.8284 65.4996 16.1383 65.7639 16.3616C66.0283 16.5849 66.3678 16.6965 66.7825 16.6965ZM75.5052 11.3987C75.3138 11.3668 75.1064 11.3508 74.8831 11.3508C74.0537 11.3508 73.4908 11.704 73.1946 12.4104V17.6604H71.93V10.2639H73.1604L73.1809 11.1184C73.5957 10.4576 74.1835 10.1272 74.9446 10.1272C75.1907 10.1272 75.3776 10.1591 75.5052 10.2229V11.3987ZM81.8626 8.4729V10.2639H83.2434V11.2415H81.8626V15.8284C81.8626 16.1246 81.9241 16.3479 82.0471 16.4983C82.1702 16.6441 82.3798 16.717 82.6761 16.717C82.8219 16.717 83.0224 16.6897 83.2776 16.635V17.6604C82.9449 17.7515 82.6214 17.7971 82.3069 17.7971C81.7418 17.7971 81.3157 17.6262 81.0286 17.2844C80.7415 16.9426 80.5979 16.4573 80.5979 15.8284V11.2415H79.2513V10.2639H80.5979V8.4729H81.8626ZM84.2552 13.8938C84.2552 13.1692 84.3964 12.5175 84.679 11.9387C84.9661 11.3599 85.3626 10.9133 85.8684 10.5989C86.3789 10.2844 86.9599 10.1272 87.6116 10.1272C88.6188 10.1272 89.4322 10.4758 90.052 11.1731C90.6764 11.8704 90.9886 12.7978 90.9886 13.9553V14.0442C90.9886 14.7642 90.8496 15.4114 90.5716 15.9856C90.2981 16.5553 89.9039 16.9996 89.3889 17.3186C88.8785 17.6376 88.2906 17.7971 87.6253 17.7971C86.6227 17.7971 85.8092 17.4485 85.1848 16.7512C84.5651 16.054 84.2552 15.1311 84.2552 13.9827V13.8938ZM85.5266 14.0442C85.5266 14.8645 85.7158 15.523 86.094 16.0198C86.4768 16.5165 86.9873 16.7649 87.6253 16.7649C88.2679 16.7649 88.7783 16.5142 89.1565 16.0129C89.5348 15.5071 89.7239 14.8007 89.7239 13.8938C89.7239 13.0826 89.5302 12.4264 89.1429 11.925C88.76 11.4192 88.2496 11.1663 87.6116 11.1663C86.9873 11.1663 86.4837 11.4146 86.1009 11.9114C85.718 12.4081 85.5266 13.1191 85.5266 14.0442ZM92.2669 13.9006C92.2669 12.7659 92.5358 11.8544 93.0735 11.1663C93.6113 10.4736 94.3154 10.1272 95.1858 10.1272C96.0517 10.1272 96.7376 10.4234 97.2434 11.0159V7.1604H98.5081V17.6604H97.346L97.2845 16.8674C96.7786 17.4872 96.0745 17.7971 95.1721 17.7971C94.3154 17.7971 93.6158 17.4462 93.0735 16.7444C92.5358 16.0426 92.2669 15.1265 92.2669 13.9963V13.9006ZM93.5315 14.0442C93.5315 14.8827 93.7047 15.539 94.0511 16.0129C94.3974 16.4869 94.8759 16.7239 95.4866 16.7239C96.2887 16.7239 96.8743 16.3639 97.2434 15.6438V12.2463C96.8652 11.5491 96.2841 11.2004 95.5003 11.2004C94.8805 11.2004 94.3974 11.4397 94.0511 11.9182C93.7047 12.3967 93.5315 13.1054 93.5315 14.0442ZM100.142 13.8938C100.142 13.1692 100.283 12.5175 100.566 11.9387C100.853 11.3599 101.249 10.9133 101.755 10.5989C102.266 10.2844 102.847 10.1272 103.498 10.1272C104.505 10.1272 105.319 10.4758 105.939 11.1731C106.563 11.8704 106.875 12.7978 106.875 13.9553V14.0442C106.875 14.7642 106.736 15.4114 106.458 15.9856C106.185 16.5553 105.791 16.9996 105.276 17.3186C104.765 17.6376 104.177 17.7971 103.512 17.7971C102.509 17.7971 101.696 17.4485 101.072 16.7512C100.452 16.054 100.142 15.1311 100.142 13.9827V13.8938ZM101.413 14.0442C101.413 14.8645 101.602 15.523 101.981 16.0198C102.364 16.5165 102.874 16.7649 103.512 16.7649C104.155 16.7649 104.665 16.5142 105.043 16.0129C105.421 15.5071 105.611 14.8007 105.611 13.8938C105.611 13.0826 105.417 12.4264 105.03 11.925C104.647 11.4192 104.136 11.1663 103.498 11.1663C102.874 11.1663 102.37 11.4146 101.988 11.9114C101.605 12.4081 101.413 13.1191 101.413 14.0442ZM112.768 15.6985C112.768 15.3567 112.638 15.0924 112.378 14.9055C112.123 14.7141 111.674 14.55 111.032 14.4133C110.394 14.2766 109.885 14.1125 109.507 13.9211C109.133 13.7297 108.855 13.5019 108.673 13.2375C108.495 12.9732 108.407 12.6588 108.407 12.2942C108.407 11.6881 108.662 11.1754 109.172 10.7561C109.687 10.3368 110.343 10.1272 111.141 10.1272C111.979 10.1272 112.658 10.3437 113.178 10.7766C113.702 11.2096 113.964 11.7633 113.964 12.4377H112.693C112.693 12.0914 112.545 11.7929 112.248 11.5422C111.957 11.2916 111.588 11.1663 111.141 11.1663C110.681 11.1663 110.321 11.2665 110.061 11.467C109.801 11.6676 109.671 11.9296 109.671 12.2532C109.671 12.5585 109.792 12.7887 110.033 12.9436C110.275 13.0986 110.71 13.2467 111.339 13.3879C111.973 13.5292 112.485 13.6978 112.877 13.8938C113.269 14.0898 113.559 14.3267 113.745 14.6047C113.937 14.8782 114.033 15.2131 114.033 15.6096C114.033 16.2704 113.768 16.8014 113.24 17.2024C112.711 17.5989 112.025 17.7971 111.182 17.7971C110.589 17.7971 110.065 17.6923 109.61 17.4827C109.154 17.273 108.796 16.9814 108.536 16.6077C108.281 16.2294 108.154 15.8215 108.154 15.384H109.418C109.441 15.8079 109.61 16.1451 109.924 16.3958C110.243 16.6418 110.662 16.7649 111.182 16.7649C111.66 16.7649 112.043 16.6692 112.33 16.4778C112.622 16.2818 112.768 16.0221 112.768 15.6985Z" fill="#3871A7"/>
<circle cx="11.83" cy="11.8335" r="11" fill="#3871A7"/>
<path d="M8.21545 8.26771L11.3532 12.6604L21.237 5.44373" stroke="white" stroke-width="2"/>
<path d="M24.5192 2.67847L21.0677 5.50252" stroke="#3871A7" stroke-width="2"/>
<ellipse cx="22.83" cy="22.8334" rx="10.8374" ry="10.2186" fill="white"/>
<path d="M21.0358 19.9684H23.3669V21.944H21.0358V24.6168H18.8825V21.944H16.5446V19.9684H18.8825V17.3707H21.0358V19.9684Z" fill="#3871A7"/>
</svg>
