<svg width="60" height="16" viewBox="0 0 60 16" fill="none" xmlns="http://www.w3.org/2000/svg">
<rect x="20.0835" y="3.69086" width="24" height="10.4286" rx="5.21429" stroke="#C7C7C7"/>
<rect x="21.0835" y="4.83368" width="12" height="8.14286" rx="4.07143" fill="#D9B355" stroke="#D9B355"/>
<path d="M3.56482 5.60352L3.60583 6.5332C4.17094 5.82227 4.90922 5.4668 5.82068 5.4668C7.38383 5.4668 8.17224 6.34863 8.18591 8.1123V13H6.92126V8.10547C6.91671 7.57227 6.79366 7.17806 6.55212 6.92285C6.31514 6.66764 5.94372 6.54004 5.43787 6.54004C5.02771 6.54004 4.66768 6.64941 4.35779 6.86816C4.04789 7.08691 3.80635 7.37402 3.63318 7.72949V13H2.36853V5.60352H3.56482ZM9.75818 9.2334C9.75818 8.50879 9.89945 7.8571 10.182 7.27832C10.4691 6.69954 10.8656 6.25293 11.3715 5.93848C11.8819 5.62402 12.4629 5.4668 13.1146 5.4668C14.1218 5.4668 14.9353 5.81543 15.5551 6.5127C16.1794 7.20996 16.4916 8.13737 16.4916 9.29492V9.38379C16.4916 10.1038 16.3526 10.751 16.0746 11.3252C15.8011 11.8949 15.4069 12.3392 14.892 12.6582C14.3816 12.9772 13.7937 13.1367 13.1283 13.1367C12.1257 13.1367 11.3122 12.7881 10.6879 12.0908C10.0681 11.3936 9.75818 10.4707 9.75818 9.32227V9.2334ZM11.0297 9.38379C11.0297 10.2041 11.2188 10.8626 11.597 11.3594C11.9799 11.8561 12.4903 12.1045 13.1283 12.1045C13.7709 12.1045 14.2813 11.8538 14.6595 11.3525C15.0378 10.8467 15.2269 10.1403 15.2269 9.2334C15.2269 8.4222 15.0332 7.76595 14.6459 7.26465C14.2631 6.75879 13.7526 6.50586 13.1146 6.50586C12.4903 6.50586 11.9867 6.75423 11.6039 7.25098C11.2211 7.74772 11.0297 8.45866 11.0297 9.38379Z" fill="black"/>
<path d="M52.9653 11.0381C52.9653 10.6963 52.8354 10.432 52.5756 10.2451C52.3204 10.0537 51.8715 9.88965 51.2289 9.75293C50.5909 9.61621 50.0828 9.45215 49.7045 9.26074C49.3308 9.06934 49.0528 8.84147 48.8705 8.57715C48.6928 8.31283 48.6039 7.99837 48.6039 7.63379C48.6039 7.02767 48.8591 6.51497 49.3696 6.0957C49.8845 5.67643 50.5408 5.4668 51.3383 5.4668C52.1768 5.4668 52.8559 5.68327 53.3754 6.11621C53.8995 6.54915 54.1615 7.10286 54.1615 7.77734H52.8901C52.8901 7.43099 52.7419 7.13249 52.4457 6.88184C52.1541 6.63118 51.7849 6.50586 51.3383 6.50586C50.878 6.50586 50.518 6.60612 50.2582 6.80664C49.9985 7.00716 49.8686 7.26921 49.8686 7.59277C49.8686 7.89811 49.9893 8.12826 50.2309 8.2832C50.4724 8.43815 50.9076 8.58626 51.5365 8.72754C52.17 8.86882 52.6827 9.03743 53.0746 9.2334C53.4666 9.42936 53.7559 9.66634 53.9428 9.94434C54.1342 10.2178 54.2299 10.5527 54.2299 10.9492C54.2299 11.61 53.9656 12.141 53.4369 12.542C52.9083 12.9385 52.2224 13.1367 51.3793 13.1367C50.7869 13.1367 50.2628 13.0319 49.8071 12.8223C49.3513 12.6126 48.9936 12.321 48.7338 11.9473C48.4786 11.569 48.351 11.1611 48.351 10.7236H49.6156C49.6384 11.1475 49.8071 11.4847 50.1215 11.7354C50.4405 11.9814 50.8598 12.1045 51.3793 12.1045C51.8578 12.1045 52.2406 12.0088 52.5278 11.8174C52.8194 11.6214 52.9653 11.3617 52.9653 11.0381ZM57.2514 13H55.9867V5.60352H57.2514V13ZM55.8842 3.6416C55.8842 3.43652 55.9457 3.26335 56.0688 3.12207C56.1964 2.98079 56.3832 2.91016 56.6293 2.91016C56.8754 2.91016 57.0623 2.98079 57.1899 3.12207C57.3175 3.26335 57.3813 3.43652 57.3813 3.6416C57.3813 3.84668 57.3175 4.01758 57.1899 4.1543C57.0623 4.29102 56.8754 4.35938 56.6293 4.35938C56.3832 4.35938 56.1964 4.29102 56.0688 4.1543C55.9457 4.01758 55.8842 3.84668 55.8842 3.6416Z" fill="black"/>
</svg>
