<svg width="60" height="17" viewBox="0 0 60 17" fill="none" xmlns="http://www.w3.org/2000/svg">
<rect x="20.0835" y="4.56409" width="24" height="10.4286" rx="5.21429" stroke="#C7C7C7"/>
<rect x="31.0835" y="5.70691" width="12" height="8.14286" rx="4.07143" fill="#D9B355" stroke="#D9B355"/>
<path d="M3.79299 6.47675L3.83401 7.40643C4.39911 6.6955 5.13739 6.34003 6.04885 6.34003C7.612 6.34003 8.40042 7.22186 8.41409 8.98553V13.8732H7.14944V8.9787C7.14488 8.4455 7.02183 8.05129 6.7803 7.79608C6.54332 7.54087 6.1719 7.41327 5.66604 7.41327C5.25588 7.41327 4.89586 7.52264 4.58596 7.74139C4.27607 7.96014 4.03453 8.24725 3.86135 8.60272V13.8732H2.5967V6.47675H3.79299ZM9.98635 10.1066C9.98635 9.38202 10.1276 8.73033 10.4102 8.15155C10.6973 7.57277 11.0938 7.12616 11.5996 6.81171C12.1101 6.49725 12.6911 6.34003 13.3428 6.34003C14.35 6.34003 15.1634 6.68866 15.7832 7.38593C16.4076 8.08319 16.7198 9.0106 16.7198 10.1682V10.257C16.7198 10.9771 16.5808 11.6242 16.3028 12.1984C16.0293 12.7681 15.6351 13.2124 15.1201 13.5314C14.6097 13.8504 14.0218 14.0099 13.3565 14.0099C12.3539 14.0099 11.5404 13.6613 10.916 12.9641C10.2962 12.2668 9.98635 11.3439 9.98635 10.1955V10.1066ZM11.2578 10.257C11.2578 11.0773 11.447 11.7359 11.8252 12.2326C12.208 12.7293 12.7184 12.9777 13.3565 12.9777C13.999 12.9777 14.5095 12.7271 14.8877 12.2258C15.266 11.7199 15.4551 11.0135 15.4551 10.1066C15.4551 9.29543 15.2614 8.63918 14.874 8.13788C14.4912 7.63202 13.9808 7.37909 13.3428 7.37909C12.7184 7.37909 12.2149 7.62746 11.8321 8.12421C11.4492 8.62095 11.2578 9.33189 11.2578 10.257Z" fill="black"/>
<path d="M53.623 11.9113C53.623 11.5695 53.4931 11.3052 53.2333 11.1183C52.9781 10.9269 52.5292 10.7629 51.8867 10.6262C51.2486 10.4894 50.7405 10.3254 50.3622 10.134C49.9886 9.94257 49.7106 9.7147 49.5283 9.45038C49.3505 9.18606 49.2617 8.8716 49.2617 8.50702C49.2617 7.9009 49.5169 7.3882 50.0273 6.96893C50.5423 6.54966 51.1985 6.34003 51.996 6.34003C52.8346 6.34003 53.5136 6.5565 54.0331 6.98944C54.5572 7.42238 54.8193 7.97609 54.8193 8.65057H53.5478C53.5478 8.30422 53.3997 8.00572 53.1035 7.75507C52.8118 7.50441 52.4427 7.37909 51.996 7.37909C51.5358 7.37909 51.1757 7.47935 50.916 7.67987C50.6562 7.88039 50.5263 8.14244 50.5263 8.466C50.5263 8.77134 50.6471 9.00149 50.8886 9.15643C51.1302 9.31138 51.5654 9.45949 52.1943 9.60077C52.8277 9.74205 53.3404 9.91066 53.7324 10.1066C54.1243 10.3026 54.4137 10.5396 54.6005 10.8176C54.7919 11.091 54.8876 11.426 54.8876 11.8224C54.8876 12.4833 54.6233 13.0142 54.0947 13.4152C53.566 13.8117 52.8802 14.0099 52.0371 14.0099C51.4446 14.0099 50.9205 13.9051 50.4648 13.6955C50.0091 13.4859 49.6513 13.1942 49.3915 12.8205C49.1363 12.4422 49.0087 12.0344 49.0087 11.5969H50.2734C50.2962 12.0207 50.4648 12.3579 50.7792 12.6086C51.0983 12.8547 51.5175 12.9777 52.0371 12.9777C52.5156 12.9777 52.8984 12.882 53.1855 12.6906C53.4772 12.4946 53.623 12.2349 53.623 11.9113ZM57.9091 13.8732H56.6445V6.47675H57.9091V13.8732ZM56.5419 4.51483C56.5419 4.30975 56.6035 4.13658 56.7265 3.9953C56.8541 3.85402 57.041 3.78339 57.2871 3.78339C57.5331 3.78339 57.72 3.85402 57.8476 3.9953C57.9752 4.13658 58.039 4.30975 58.039 4.51483C58.039 4.71991 57.9752 4.89081 57.8476 5.02753C57.72 5.16425 57.5331 5.2326 57.2871 5.2326C57.041 5.2326 56.8541 5.16425 56.7265 5.02753C56.6035 4.89081 56.5419 4.71991 56.5419 4.51483Z" fill="black"/>
</svg>
