<svg width="50" height="51" viewBox="0 0 50 51" fill="none" xmlns="http://www.w3.org/2000/svg">
<path d="M0 3.67755L3.10833 0.569214L12.6851 7.40755C13.0884 7.69543 13.417 8.07556 13.6436 8.51623C13.8701 8.9569 13.988 9.44534 13.9875 9.94084V10.1584C13.9872 10.5671 14.0675 10.9718 14.2237 11.3495C14.38 11.7271 14.6092 12.0702 14.8982 12.3591L32.6375 30.0984L35.4785 29.1503C36.0261 28.9682 36.6136 28.9421 37.1753 29.0749C37.7369 29.2078 38.2504 29.4943 38.6584 29.9026L49.0899 40.3341C49.6726 40.917 50 41.7075 50 42.5317C50 43.3559 49.6726 44.1464 49.0899 44.7293L44.1601 49.6591C43.5772 50.2419 42.7867 50.5692 41.9625 50.5692C41.1383 50.5692 40.3478 50.2419 39.7649 49.6591L29.3333 39.2276C28.9251 38.8196 28.6385 38.3061 28.5057 37.7445C28.3728 37.1829 28.399 36.5953 28.5811 36.0477L29.5292 33.2067L11.7899 15.4675C11.2071 14.8845 10.4166 14.5569 9.59232 14.5567H9.37163C8.87666 14.5568 8.38883 14.4386 7.94874 14.2121C7.50865 13.9855 7.12902 13.6572 6.84144 13.2543L0 3.67755ZM35.292 33.6605C35.0002 33.3687 34.6044 33.2048 34.1917 33.2048C33.779 33.2048 33.3832 33.3687 33.0913 33.6605C32.7995 33.9524 32.6355 34.3482 32.6355 34.7609C32.6355 35.1736 32.7995 35.5694 33.0913 35.8612L42.4163 45.1862C42.7082 45.4781 43.104 45.642 43.5167 45.642C43.9294 45.642 44.3252 45.4781 44.617 45.1862C44.9089 44.8944 45.0728 44.4986 45.0728 44.0859C45.0728 43.6732 44.9089 43.2774 44.617 42.9855L35.292 33.6605Z" fill="black"/>
</svg>
