<svg width="50" height="51" viewBox="0 0 50 51" fill="none" xmlns="http://www.w3.org/2000/svg">
<path d="M24.9992 6.30396C25.4135 6.30396 25.8108 6.46853 26.1038 6.76148C26.3967 7.05443 26.5613 7.45175 26.5613 7.86605V12.5523C26.5613 12.9666 26.3967 13.3639 26.1038 13.6569C25.8108 13.9498 25.4135 14.1144 24.9992 14.1144C24.5849 14.1144 24.1876 13.9498 23.8947 13.6569C23.6017 13.3639 23.4371 12.9666 23.4371 12.5523V7.86605C23.4371 7.45175 23.6017 7.05443 23.8947 6.76148C24.1876 6.46853 24.5849 6.30396 24.9992 6.30396ZM11.6652 11.715C11.9582 11.4222 12.3554 11.2577 12.7696 11.2577C13.1838 11.2577 13.5811 11.4222 13.874 11.715L16.7326 14.5705C17.026 14.8639 17.1908 15.2617 17.1908 15.6765C17.1908 16.0913 17.026 16.4891 16.7326 16.7825C16.4393 17.0758 16.0415 17.2406 15.6267 17.2406C15.2119 17.2406 14.814 17.0758 14.5207 16.7825L11.6652 13.9238C11.3724 13.6309 11.2079 13.2336 11.2079 12.8194C11.2079 12.4052 11.3724 12.008 11.6652 11.715ZM6.25415 25.049C6.25415 24.6347 6.41873 24.2374 6.71168 23.9445C7.00462 23.6515 7.40195 23.4869 7.81624 23.4869H12.7712C13.1855 23.4869 13.5828 23.6515 13.8758 23.9445C14.1687 24.2374 14.3333 24.6347 14.3333 25.049C14.3333 25.4633 14.1687 25.8607 13.8758 26.1536C13.5828 26.4466 13.1855 26.6111 12.7712 26.6111H7.81624C7.40195 26.6111 7.00462 26.4466 6.71168 26.1536C6.41873 25.8607 6.25415 25.4633 6.25415 25.049ZM35.9339 25.049C35.9339 24.6347 36.0984 24.2374 36.3914 23.9445C36.6843 23.6515 37.0817 23.4869 37.4959 23.4869H42.1822C42.5965 23.4869 42.9938 23.6515 43.2868 23.9445C43.5797 24.2374 43.7443 24.6347 43.7443 25.049C43.7443 25.4633 43.5797 25.8607 43.2868 26.1536C42.9938 26.4466 42.5965 26.6111 42.1822 26.6111H37.4959C37.0817 26.6111 36.6843 26.4466 36.3914 26.1536C36.0984 25.8607 35.9339 25.4633 35.9339 25.049ZM38.2895 11.7838C38.0731 11.5685 37.7835 11.4425 37.4785 11.4309C37.1734 11.4193 36.8752 11.523 36.643 11.7213L23.584 22.8934C23.2832 23.1509 23.0395 23.4684 22.8685 23.8256C22.6976 24.1827 22.6031 24.5717 22.5912 24.9675C22.5793 25.3633 22.6502 25.7572 22.7994 26.124C22.9485 26.4908 23.1727 26.8224 23.4574 27.0975C23.7422 27.3727 24.0813 27.5853 24.453 27.7218C24.8247 27.8583 25.2208 27.9156 25.616 27.8901C26.0111 27.8646 26.3966 27.7568 26.7477 27.5737C27.0988 27.3906 27.4077 27.1362 27.6548 26.8267L38.3832 13.4021C38.5699 13.1684 38.6638 12.8742 38.6471 12.5756C38.6304 12.277 38.5042 11.9951 38.2926 11.7838H38.2895Z" fill="black"/>
<path fill-rule="evenodd" clip-rule="evenodd" d="M20.8253 49.6957C17.5885 49.1475 14.4913 47.9672 11.7106 46.2221C8.92988 44.4771 6.52013 42.2013 4.61891 39.525C0.779232 34.1198 -0.755978 27.4107 0.351011 20.8735C1.458 14.3364 5.11651 8.50681 10.5217 4.66713C15.9269 0.82745 22.636 -0.70776 29.1731 0.399228C35.7107 1.50622 41.5407 5.16489 45.3806 10.5704C49.2206 15.9759 50.756 22.6854 49.649 29.2229C48.542 35.7604 44.8833 41.5905 39.4779 45.4304C34.0724 49.2704 27.3629 50.8058 20.8253 49.6988V49.6957ZM6.25102 36.3148C11.9485 33.0181 18.4167 31.2871 24.9992 31.2974C31.8287 31.2974 38.2333 33.125 43.7474 36.3148C45.7403 32.9964 46.8167 29.2086 46.8667 25.3381C46.9167 21.4676 45.9385 17.6532 44.032 14.2845C42.1256 10.9157 39.3591 8.11335 36.0153 6.16353C32.6715 4.21372 28.87 3.18635 24.9992 3.18635C21.1284 3.18635 17.327 4.21372 13.9832 6.16353C10.6393 8.11335 7.87289 10.9157 5.96643 14.2845C4.05997 17.6532 3.08179 21.4676 3.13179 25.3381C3.18179 29.2086 4.25818 32.9964 6.25102 36.3148Z" fill="black"/>
</svg>
