<svg width="50" height="51" viewBox="0 0 50 51" fill="none" xmlns="http://www.w3.org/2000/svg">
<path fill-rule="evenodd" clip-rule="evenodd" d="M34.3745 47.4443C37.6897 47.4443 40.8691 46.1273 43.2133 43.7831C45.5575 41.4389 46.8744 38.2595 46.8744 34.9443C46.8744 31.6291 45.5575 28.4497 43.2133 26.1055C40.8691 23.7613 37.6897 22.4443 34.3745 22.4443C31.0593 22.4443 27.8799 23.7613 25.5357 26.1055C23.1915 28.4497 21.8745 31.6291 21.8745 34.9443C21.8745 38.2595 23.1915 41.4389 25.5357 43.7831C27.8799 46.1273 31.0593 47.4443 34.3745 47.4443ZM49.9994 34.9443C49.9994 39.0883 48.3532 43.0626 45.423 45.9928C42.4927 48.9231 38.5185 50.5693 34.3745 50.5693C30.2305 50.5693 26.2562 48.9231 23.326 45.9928C20.3957 43.0626 18.7495 39.0883 18.7495 34.9443C18.7495 30.8003 20.3957 26.826 23.326 23.8958C26.2562 20.9655 30.2305 19.3193 34.3745 19.3193C38.5185 19.3193 42.4927 20.9655 45.423 23.8958C48.3532 26.826 49.9994 30.8003 49.9994 34.9443Z" fill="black"/>
<path d="M29.4934 37.8942C29.6402 39.7567 31.1121 41.2067 33.7527 41.3817V42.7567H34.9246V41.3723C37.659 41.1817 39.2558 39.7192 39.2558 37.6004C39.2558 35.6692 38.0371 34.6754 35.8496 34.1629L34.9246 33.9442V30.1942C36.0996 30.3286 36.8433 30.9692 37.0215 31.8567H39.0777C38.9308 30.0598 37.3902 28.6567 34.9246 28.5036V27.1317H33.7527V28.538C31.4184 28.7661 29.8309 30.1692 29.8309 32.1567C29.8309 33.9129 31.0121 35.0317 32.9777 35.4879L33.7527 35.6786V39.6536C32.5527 39.4723 31.7559 38.8098 31.5777 37.8942H29.4902H29.4934ZM33.7434 33.6629C32.5902 33.3973 31.9652 32.8504 31.9652 32.0317C31.9652 31.113 32.6402 30.4255 33.7527 30.2255V33.6629H33.7434ZM35.0933 35.9942C36.4965 36.3192 37.1402 36.8442 37.1402 37.7723C37.1402 38.8317 36.3371 39.5567 34.9246 39.6911V35.9567L35.0933 35.9942Z" fill="black"/>
<path d="M3.1245 0.569336C2.2957 0.569336 1.50085 0.898575 0.914801 1.48463C0.328751 2.07067 -0.000488281 2.86553 -0.000488281 3.69433L-0.000488281 28.6943C-0.000488281 29.5231 0.328751 30.3179 0.914801 30.904C1.50085 31.49 2.2957 31.8193 3.1245 31.8193H15.8838C16.0651 30.7443 16.337 29.7005 16.6901 28.6943H9.37449C9.37449 27.0367 8.71601 25.447 7.54391 24.2749C6.37181 23.1028 4.7821 22.4443 3.1245 22.4443V9.94431C4.7821 9.94431 6.37181 9.28583 7.54391 8.11374C8.71601 6.94164 9.37449 5.35193 9.37449 3.69433H40.6244C40.6244 5.35193 41.2829 6.94164 42.455 8.11374C43.6271 9.28583 45.2168 9.94431 46.8744 9.94431V20.9693C48.0619 22.0318 49.115 23.2443 49.9994 24.5755V3.69433C49.9994 2.86553 49.6702 2.07067 49.0841 1.48463C48.4981 0.898575 47.7032 0.569336 46.8744 0.569336L3.1245 0.569336Z" fill="black"/>
<path d="M31.2432 16.4536L31.2495 16.1943C31.2488 15.118 30.9703 14.0601 30.4408 13.1231C29.9113 12.1861 29.1488 11.4017 28.2271 10.8459C27.3055 10.2901 26.2559 9.9817 25.1801 9.95061C24.1042 9.91951 23.0386 10.1668 22.0864 10.6684C21.1342 11.1701 20.3277 11.9091 19.7449 12.814C19.1622 13.7188 18.823 14.7588 18.7602 15.8333C18.6974 16.9077 18.9131 17.9802 19.3864 18.9468C19.8598 19.9134 20.5747 20.7413 21.462 21.3505C24.1612 18.7795 27.5675 17.0742 31.2432 16.4536Z" fill="black"/>
</svg>
