<svg width="102" height="102" viewBox="0 0 102 102" fill="none" xmlns="http://www.w3.org/2000/svg">
<path d="M6.98193 0.963832L0.731934 7.21383L14.4819 26.4701C15.0608 27.281 15.8251 27.9417 16.7112 28.3973C17.5972 28.8528 18.5794 29.0899 19.5757 29.0888H20.0132C20.8349 29.0882 21.6487 29.2496 22.408 29.5638C23.1673 29.8781 23.8572 30.3389 24.4382 30.9201L41.1569 47.6388L24.8007 64.2263C22.0031 63.4028 19.0522 63.2426 16.1819 63.7582C13.3116 64.2739 10.601 65.4513 8.26505 67.197C5.92909 68.9428 4.03206 71.2089 2.72446 73.8155C1.41685 76.4221 0.734635 79.2976 0.731934 82.2138C0.73568 84.9009 1.31696 87.5559 2.43638 89.9987C3.5558 92.4416 5.18722 94.6153 7.2201 96.3726C9.25297 98.1298 11.6398 99.4296 14.2189 100.184C16.798 100.938 19.5091 101.129 22.1685 100.744C24.8279 100.359 27.3734 99.4071 29.6327 97.9523C31.892 96.4976 33.8122 94.5742 35.2632 92.3125C36.7143 90.0509 37.6622 87.5037 38.0428 84.8437C38.4235 82.1837 38.2279 79.4729 37.4694 76.8951L54.0569 60.5388L60.1069 66.5888L58.2007 72.3013C57.8344 73.4024 57.7819 74.5837 58.049 75.713C58.3161 76.8422 58.8924 77.8748 59.7132 78.6951L80.6882 99.6701C81.8602 100.842 83.4497 101.5 85.1069 101.5C86.7642 101.5 88.3536 100.842 89.5257 99.6701L99.4382 89.7576C100.61 88.5855 101.268 86.9961 101.268 85.3388C101.268 83.6816 100.61 82.0921 99.4382 80.9201L78.4632 59.9451C77.6429 59.1243 76.6103 58.548 75.4811 58.2809C74.3518 58.0138 73.1705 58.0663 72.0694 58.4326L66.3569 60.3388L60.3569 54.3388L77.1069 37.8201C79.8856 38.5618 82.7975 38.6555 85.6181 38.0939C88.4387 37.5323 91.0927 36.3305 93.3753 34.581C95.658 32.8316 97.5084 30.5813 98.7839 28.0036C100.059 25.4259 100.726 22.5898 100.732 19.7138C100.732 18.0326 100.513 16.4013 100.094 14.8576L86.7194 28.2388L75.7319 25.9638L73.4569 14.9826L86.8382 1.60133C83.655 0.745465 80.3025 0.743868 77.1185 1.5967C73.9345 2.44953 71.0316 4.12666 68.7025 6.45902C66.3733 8.79138 64.7001 11.6965 63.8516 14.8817C63.0031 18.0668 63.0092 21.4193 63.8694 24.6013L47.3694 41.3388L30.6882 24.6701C29.516 23.4983 28.8573 21.9088 28.8569 20.2513V19.8076C28.857 18.8123 28.6194 17.8314 28.164 16.9465C27.7085 16.0617 27.0482 15.2983 26.2382 14.7201L6.98193 0.963832ZM67.2694 67.5013C67.5597 67.2103 67.9046 66.9794 68.2842 66.8219C68.6639 66.6643 69.0709 66.5832 69.4819 66.5832C69.893 66.5832 70.3 66.6643 70.6796 66.8219C71.0593 66.9794 71.4042 67.2103 71.6944 67.5013L90.4444 86.2513C90.735 86.5419 90.9655 86.8868 91.1227 87.2664C91.28 87.6461 91.3609 88.0529 91.3609 88.4638C91.3609 88.8747 91.28 89.2816 91.1227 89.6612C90.9655 90.0408 90.735 90.3858 90.4444 90.6763C90.1539 90.9669 89.809 91.1974 89.4293 91.3546C89.0497 91.5118 88.6428 91.5928 88.2319 91.5928C87.821 91.5928 87.4142 91.5118 87.0345 91.3546C86.6549 91.1974 86.31 90.9669 86.0194 90.6763L67.2694 71.9263C66.9784 71.636 66.7475 71.2912 66.59 70.9115C66.4324 70.5319 66.3513 70.1249 66.3513 69.7138C66.3513 69.3028 66.4324 68.8958 66.59 68.5161C66.7475 68.1365 66.9784 67.7916 67.2694 67.5013ZM19.4819 69.7138L22.4257 71.2263L25.7319 71.3888L27.5257 74.1701L30.3069 75.9638L30.4694 79.2701L31.9819 82.2138L30.4694 85.1576L30.3069 88.4638L27.5257 90.2576L25.7319 93.0388L22.4257 93.2013L19.4819 94.7138L16.5382 93.2013L13.2319 93.0388L11.4382 90.2576L8.65693 88.4638L8.49443 85.1576L6.98193 82.2138L8.49443 79.2701L8.65693 75.9638L11.4382 74.1701L13.2319 71.3888L16.5382 71.2263L19.4819 69.7138Z" fill="#292929"/>
</svg>
