<svg width="87" height="97" viewBox="0 0 87 97" fill="none" xmlns="http://www.w3.org/2000/svg">
<path d="M20.5873 47.4089C20.4728 37.855 29.5789 35.3136 34.1462 35.2372L34.3452 6.21369C34.4578 2.12082 37.6464 1.12934 39.2266 1.14521C49.8094 1.17509 72.0329 1.21692 76.264 1.14521C80.4952 1.07349 81.5953 4.5027 81.6165 6.22627V87.9397C85.5361 87.8968 86.3933 90.3598 86.3319 91.5966V96.1058H28.6549V91.5201C28.7575 87.9029 32.4396 87.6404 34.2678 87.9613L34.1462 41.3108C28.6478 41.457 26.8649 45.4371 26.6607 47.4089L27.2727 76.1388C27.608 80.5822 25.7471 89.3419 15.6214 88.8337C5.49579 88.3255 2.99429 78.7969 3.00925 74.0961V39.2952C0.481228 38.1506 0.0176659 35.8153 0.101887 34.7908C0.0307035 15.6581 6.84706 6.54811 10.2641 4.38469C12.9095 1.02954 18.8124 0.089217 21.4331 0.0384518H24.5807C26.2704 -0.0672161 29.6119 0.900791 29.4597 5.61816C29.3075 10.3355 26.1436 11.6156 24.5807 11.666L21.4331 12.014C13.1414 13.0839 11.7518 28.3829 11.9706 33.2712C12.1457 37.1818 10.1511 38.9166 9.13189 39.2952V76.1388C9.13189 77.2902 10.074 82.8376 15.6214 82.8376C20.0594 82.8376 21.2387 78.3717 21.2736 76.1388C21.0925 70.5429 20.7017 56.9627 20.5873 47.4089Z" fill="#D9B355"/>
<path d="M43.2145 53.2329V61.7767C43.3939 62.7122 44.3796 64.569 46.8864 64.512C49.3932 64.4551 50.0073 62.6647 50.0011 61.7767V53.2329C49.894 52.1656 49.0265 50.0309 46.4135 50.0309C43.8004 50.0309 43.192 52.1656 43.2145 53.2329Z" fill="white"/>
<path d="M40.9836 27.2984V12.869C40.9836 10.2891 43.276 9.7655 44.4222 9.82619C51.7502 9.81812 67.1133 9.80681 69.9421 9.82619C72.7709 9.84556 73.3346 12.1109 73.2629 13.2411C73.2713 16.6011 73.283 24.007 73.2629 26.7498C73.2427 29.4927 71.3385 30.1476 70.3889 30.1322C62.7058 30.163 46.6679 30.2062 43.9815 30.1322C41.2952 30.0583 40.8636 28.2122 40.9836 27.2984Z" fill="white"/>
</svg>
