<svg width="100" height="101" viewBox="0 0 100 101" fill="none" xmlns="http://www.w3.org/2000/svg">
<path d="M16.6318 7.31395C16.6318 9.15576 15.9002 10.9221 14.5978 12.2245C13.2954 13.5269 11.5291 14.2585 9.68724 14.2585C7.84543 14.2585 6.07905 13.5269 4.77669 12.2245C3.47433 10.9221 2.74268 9.15576 2.74268 7.31395C2.74268 5.47214 3.47433 3.70576 4.77669 2.4034C6.07905 1.10104 7.84543 0.369385 9.68724 0.369385C11.5291 0.369385 13.2954 1.10104 14.5978 2.4034C15.9002 3.70576 16.6318 5.47214 16.6318 7.31395Z" fill="#D9B355"/>
<path d="M22.188 7.315C22.192 10.0156 21.3174 12.6442 19.6963 14.804C27.0048 17.1707 34.3354 20.1152 39.1689 25.3653C39.2341 25.4371 39.3132 25.4949 39.4013 25.5355C39.4895 25.576 39.5849 25.5983 39.6818 25.6012C39.7788 25.604 39.8753 25.5873 39.9657 25.5521C40.056 25.5168 40.1384 25.4637 40.2078 25.3959C42.4999 23.146 45.061 21.1876 47.8329 19.5652C47.9211 19.5145 47.9971 19.445 48.0554 19.3616C48.1137 19.2782 48.1528 19.1829 48.1701 19.0827C48.1873 18.9824 48.1822 18.8795 48.1551 18.7814C48.1281 18.6834 48.0797 18.5924 48.0135 18.5152C41.4856 11.0928 31.9854 7.9039 22.0658 5.55664C22.1463 6.13165 22.188 6.71777 22.188 7.315Z" fill="#D9B355"/>
<path d="M13.1098 19.343C12.0209 19.6485 10.8737 19.8152 9.68756 19.8152C7.20418 19.8152 4.89025 19.093 2.94577 17.843L0.234609 48.849L0.00682634 55.3491C-0.0907823 58.1337 0.861311 60.8532 2.6744 62.9688C4.48749 65.0845 7.02925 66.4417 9.7959 66.7715L10.2987 66.8326C12.4579 67.0894 14.645 66.707 16.5889 65.7328C18.5329 64.7586 20.1483 63.2354 21.235 61.352L27.3351 50.7796C27.403 50.662 27.4349 50.527 27.4268 50.3915C27.4188 50.2559 27.3712 50.1257 27.2899 50.0169C27.2086 49.9081 27.0972 49.8255 26.9694 49.7794C26.8417 49.7333 26.7032 49.7256 26.5712 49.7574L21.6433 50.9518C21.5745 50.97 21.5033 50.9775 21.4322 50.9741L14.0265 50.4907L9.22088 49.9185C9.12857 49.9076 9.03939 49.8783 8.95862 49.8323C8.87784 49.7863 8.80712 49.7246 8.75065 49.6507C8.69418 49.5769 8.6531 49.4925 8.62985 49.4025C8.60661 49.3125 8.60167 49.2187 8.61532 49.1268L13.1071 19.3402L13.1098 19.343Z" fill="#D9B355"/>
<path fill-rule="evenodd" clip-rule="evenodd" d="M69.7278 19.8148C52.0359 19.8148 37.4273 33.6344 36.4439 51.2986L35.58 66.8822C35.5589 67.2594 35.6149 67.637 35.7446 67.9918C35.8744 68.3466 36.0751 68.6712 36.3346 68.9458C36.5941 69.2204 36.9069 69.4391 37.2538 69.5887C37.6007 69.7382 37.9745 69.8154 38.3523 69.8156H98.4922C98.6841 69.8155 98.8739 69.7756 99.0497 69.6984C99.2254 69.6213 99.3832 69.5086 99.5132 69.3674C99.6432 69.2262 99.7425 69.0595 99.8049 68.878C99.8672 68.6965 99.8913 68.5041 99.8756 68.3128L98.2367 48.6347C98.1496 47.5932 97.6743 46.6225 96.9051 45.9151C96.1359 45.2076 95.1289 44.815 94.0838 44.8152H83.4558C83.4221 44.8155 83.3895 44.8036 83.3639 44.7816C83.3384 44.7596 83.3217 44.7291 83.317 44.6957L80.528 24.6065C80.3436 23.2781 79.6849 22.0613 78.6735 21.1806C77.6621 20.2999 76.3663 19.8148 75.0251 19.8148H69.7278ZM70.9223 31.5233C70.9029 31.1735 70.7466 30.8454 70.4872 30.6099C70.2278 30.3745 69.8862 30.2505 69.5362 30.2649C57.686 30.8649 48.1636 39.6707 47.433 51.7486L47.3358 53.357C47.3228 53.5736 47.3608 53.7903 47.4467 53.9896C47.5326 54.1889 47.664 54.3653 47.8304 54.5047C47.9967 54.644 48.1934 54.7424 48.4047 54.7921C48.616 54.8417 48.8359 54.8411 49.0469 54.7904L65.1722 50.8958C66.2028 50.5486 67.2917 50.3681 68.3889 50.3681H71.4779C71.5729 50.3683 71.667 50.3489 71.7543 50.3113C71.8416 50.2736 71.9202 50.2185 71.9853 50.1492C72.0504 50.0799 72.1006 49.998 72.1328 49.9086C72.1649 49.8191 72.1784 49.724 72.1723 49.6292L70.9223 31.5233Z" fill="#D9B355"/>
<path fill-rule="evenodd" clip-rule="evenodd" d="M30.5542 87.8703C30.5542 84.5551 31.8712 81.3756 34.2154 79.0313C36.5597 76.6871 39.7391 75.3701 43.0544 75.3701H87.4996C89.1411 75.3701 90.7666 75.6934 92.2832 76.3216C93.7998 76.9498 95.1778 77.8706 96.3386 79.0313C97.4993 80.1921 98.4201 81.5701 99.0483 83.0867C99.6765 84.6033 99.9998 86.2288 99.9998 87.8703C99.9998 89.5119 99.6765 91.1374 99.0483 92.654C98.4201 94.1706 97.4993 95.5486 96.3386 96.7093C95.1778 97.8701 93.7998 98.7908 92.2832 99.419C90.7666 100.047 89.1411 100.371 87.4996 100.371H43.0544C39.7391 100.371 36.5597 99.0536 34.2154 96.7093C31.8712 94.3651 30.5542 91.1856 30.5542 87.8703ZM52.7768 87.8703C52.7768 88.4175 52.669 88.9593 52.4596 89.4649C52.2502 89.9704 51.9433 90.4297 51.5564 90.8167C51.1695 91.2036 50.7101 91.5105 50.2046 91.7199C49.6991 91.9293 49.1572 92.0371 48.6101 92.0371C48.0629 92.0371 47.521 91.9293 47.0155 91.7199C46.51 91.5105 46.0506 91.2036 45.6637 90.8167C45.2768 90.4297 44.9699 89.9704 44.7605 89.4649C44.5511 88.9593 44.4433 88.4175 44.4433 87.8703C44.4433 86.7652 44.8823 85.7054 45.6637 84.924C46.4451 84.1426 47.505 83.7036 48.6101 83.7036C49.7151 83.7036 50.775 84.1426 51.5564 84.924C52.3378 85.7054 52.7768 86.7652 52.7768 87.8703ZM65.277 92.0371C66.3821 92.0371 67.4419 91.5981 68.2233 90.8167C69.0047 90.0352 69.4437 88.9754 69.4437 87.8703C69.4437 86.7652 69.0047 85.7054 68.2233 84.924C67.4419 84.1426 66.3821 83.7036 65.277 83.7036C64.1719 83.7036 63.1121 84.1426 62.3307 84.924C61.5493 85.7054 61.1103 86.7652 61.1103 87.8703C61.1103 88.9754 61.5493 90.0352 62.3307 90.8167C63.1121 91.5981 64.1719 92.0371 65.277 92.0371ZM86.1107 87.8703C86.1107 88.9754 85.6717 90.0352 84.8903 90.8167C84.1088 91.5981 83.049 92.0371 81.9439 92.0371C80.8388 92.0371 79.779 91.5981 78.9976 90.8167C78.2162 90.0352 77.7772 88.9754 77.7772 87.8703C77.7772 86.7652 78.2162 85.7054 78.9976 84.924C79.779 84.1426 80.8388 83.7036 81.9439 83.7036C83.049 83.7036 84.1088 84.1426 84.8903 84.924C85.6717 85.7054 86.1107 86.7652 86.1107 87.8703Z" fill="#D9B355"/>
</svg>
