<svg width="51" height="51" viewBox="0 0 51 51" fill="none" xmlns="http://www.w3.org/2000/svg">
<path fill-rule="evenodd" clip-rule="evenodd" d="M25.5106 10.6761C30.0133 10.6777 34.3942 11.9554 37.9972 14.318C41.6003 16.6807 44.2314 20.001 45.4966 23.7816C46.7618 27.5623 46.5929 31.5999 45.0152 35.2895C43.4376 38.9792 40.5361 42.1223 36.7453 44.2482C32.9546 46.3741 28.4786 47.3683 23.9879 47.0819C19.4971 46.7955 15.2332 45.2439 11.835 42.6595C8.43671 40.075 6.08692 36.5969 5.13758 32.7461C4.18823 28.8953 4.69043 24.879 6.56895 21.2988C6.77342 20.8636 6.77752 20.376 6.58042 19.9381C6.38332 19.5002 6.00027 19.146 5.51146 18.9496C5.02265 18.7532 4.46596 18.7298 3.95789 18.8844C3.44982 19.0389 3.02976 19.3594 2.78562 19.7787C0.531494 24.0751 -0.0709 28.8949 1.06866 33.516C2.20823 38.1371 5.0284 42.3108 9.10676 45.4119C13.1851 48.513 18.3021 50.3746 23.6913 50.7178C29.0804 51.0611 34.4516 49.8674 39.0003 47.3158C43.549 44.7641 47.0303 40.9917 48.9228 36.5638C50.8153 32.1358 51.0171 27.2905 49.498 22.7538C47.9788 18.217 44.8205 14.233 40.4961 11.3985C36.1717 8.56398 30.914 7.03155 25.5106 7.03075V10.6761Z" fill="black"/>
<path d="M25.5106 16.0203V1.68658C25.5105 1.51341 25.4541 1.34385 25.3478 1.19774C25.2416 1.05163 25.09 0.935029 24.9107 0.861589C24.7315 0.788149 24.532 0.76091 24.3357 0.783061C24.1394 0.805212 23.9544 0.875837 23.8023 0.986666L13.969 8.15352C13.469 8.51806 13.469 9.18882 13.969 9.55336L23.8023 16.7202C23.9544 16.831 24.1394 16.9017 24.3357 16.9238C24.532 16.946 24.7315 16.9187 24.9107 16.8453C25.09 16.7719 25.2416 16.6553 25.3478 16.5091C25.4541 16.363 25.5105 16.1935 25.5106 16.0203Z" fill="black"/>
</svg>
