<svg width="94" height="101" viewBox="0 0 94 101" fill="none" xmlns="http://www.w3.org/2000/svg">
<path d="M91.3693 50.1761C91.3693 63.6495 87.957 75.7523 82.5458 84.4229C77.1168 93.122 69.8735 98.1058 62.2086 98.1058C54.5436 98.1058 47.3003 93.122 41.8713 84.4229C36.4601 75.7523 33.0479 63.6495 33.0479 50.1761C33.0479 36.7027 36.4601 24.5999 41.8713 15.9294C47.3003 7.23028 54.5436 2.2464 62.2086 2.2464C69.8735 2.2464 77.1168 7.23028 82.5458 15.9294C87.957 24.5999 91.3693 36.7027 91.3693 50.1761Z" stroke="#D9B355" stroke-width="4"/>
<path d="M32.7792 0.23645H63.0038C41.1707 2.29027 33.5028 34.0832 32.3979 49.7229C30.2567 60.7809 37.7284 76.9263 41.7319 83.6167C45.0507 95.6225 59.4003 98.8805 66.1603 99.0088L62.8751 100.009H32.7425C25.5509 99.1967 18.9047 94.5092 16.4806 92.2669L21.7563 88.8851L26.536 91.9062H27.4378L31.8117 88.8851L36.6365 91.9062H37.5835L41.7319 88.8851L39.8381 86.0443L37.0424 88.1185L32.3979 85.2326H31.3608L26.8967 88.1185L22.2072 85.2326H21.3054L14.0005 89.5614C9.74386 85.3048 7.77786 81.4449 7.32694 80.0471L11.791 75.6732L16.4806 80.0471H17.7431L21.8916 76.079L26.536 80.0471H27.6633L30.5041 75.6732L35.5093 77.8827L33.7056 73.4186L30.5041 71.8404H29.467L26.536 75.6732L22.4327 71.8404H21.2152L16.8864 76.079L12.3321 71.8404H11.3401L5.74873 76.8907C4.1615 74.1852 3.49415 71.7653 3.35887 70.8935L8.6346 62.777L13.1438 66.745H14.0005L18.2842 62.3711L23.1992 66.745H24.1461L28.4299 62.3711L31.5863 65.0316L30.7746 60.0264L29.0611 58.5383H27.9338L23.4247 62.777L19.0239 58.5383H18.0112L13.5265 62.777L8.86006 58.5383H7.73277L2.19627 66.5004C0.761159 63.2384 0.309257 53.7519 0.262695 49.4164L8.35466 53.5709L9.22267 53.3539L13.5265 49.3683L18.0112 53.3539H19.0239L23.6533 48.923L30.2753 52.6487V48.923C28.1859 47.6121 23.9999 44.9904 23.9714 44.9904H23.0978L18.5392 49.3683L13.3139 44.9904L8.07632 49.7229L0.386384 45.626V43.8952L8.37562 35.9005L13.3139 40.2584L18.405 35.9005L23.7888 40.2584L28.5978 35.9005L31.1246 38.1794L31.9243 34.4212L28.5978 31.6225L23.535 35.9005L18.405 31.4626L13.4511 35.9005L8.37562 31.6225L1.22411 38.4357C1.81346 32.3419 4.8911 24.9703 6.35626 22.0463L13.4511 26.8919L18.405 23.722L23.535 26.8919L28.5978 23.722L33.8658 26.3218L35.0745 23.2887L28.3613 20.069L23.7888 23.1119L18.405 20.069L13.3139 23.1119L7.93027 18.8986L9.51022 16.0897L24.7251 11.9348L30.1674 15.2704L35.1415 12.2274L39.9401 14.1585L41.6371 11.5252L35.1415 8.36516L30.1674 11.2326L25.3689 8.36516L12.6117 11.9348C18.3232 3.18039 28.4365 0.488226 32.7792 0.23645Z" fill="#D9B355"/>
<path d="M45.5985 29.0018C43.1461 34.1056 39.7127 49.6147 45.5985 70.8214C50.2265 63.9865 56.7058 46.0537 45.5985 29.0018Z" fill="#D9B355"/>
<path d="M47.0889 25.3159C61.6597 47.0017 53.16 67.1289 47.0889 74.4819C56.9612 91.4526 67.6716 86.5841 71.7927 82.0286C78.4987 72.022 88.8615 46.6701 76.6645 25.3159C64.4675 3.96162 51.8653 16.4183 47.0889 25.3159Z" fill="#D9B355"/>
</svg>
