<svg width="450" height="451" viewBox="0 0 450 451" fill="none" xmlns="http://www.w3.org/2000/svg">
<rect y="0.439209" width="450" height="450" rx="10" fill="white"/>
<path d="M150.059 224.689H145.664V203.361H150.059V224.689ZM159.888 203.361L165.366 218.83L170.815 203.361H176.587V224.689H172.178V218.859L172.617 208.796L166.86 224.689H163.843L158.101 208.81L158.54 218.859V224.689H154.145V203.361H159.888ZM192.729 220.295H185.024L183.56 224.689H178.887L186.826 203.361H190.898L198.882 224.689H194.209L192.729 220.295ZM186.211 216.735H191.543L188.862 208.752L186.211 216.735ZM217.427 221.994C216.636 222.941 215.518 223.678 214.072 224.206C212.627 224.723 211.025 224.982 209.268 224.982C207.422 224.982 205.801 224.582 204.404 223.781C203.018 222.97 201.943 221.799 201.182 220.265C200.43 218.732 200.044 216.93 200.024 214.86V213.41C200.024 211.281 200.381 209.44 201.094 207.887C201.816 206.325 202.852 205.134 204.199 204.313C205.557 203.483 207.144 203.068 208.96 203.068C211.489 203.068 213.467 203.674 214.893 204.885C216.318 206.086 217.163 207.839 217.427 210.143H213.149C212.954 208.923 212.52 208.029 211.846 207.463C211.182 206.896 210.264 206.613 209.092 206.613C207.598 206.613 206.46 207.175 205.679 208.298C204.897 209.421 204.502 211.091 204.492 213.307V214.67C204.492 216.906 204.917 218.595 205.767 219.738C206.616 220.881 207.861 221.452 209.502 221.452C211.152 221.452 212.329 221.1 213.032 220.397V216.72H209.033V213.483H217.427V221.994ZM233.833 215.446H225.395V221.159H235.298V224.689H221.001V203.361H235.269V206.921H225.395V212.004H233.833V215.446ZM255.22 224.689H250.825L242.27 210.656V224.689H237.876V203.361H242.27L250.84 217.424V203.361H255.22V224.689ZM283.872 224.689H279.478L270.923 210.656V224.689H266.528V203.361H270.923L279.492 217.424V203.361H283.872V224.689ZM305.229 214.509C305.229 216.608 304.858 218.449 304.116 220.031C303.374 221.613 302.31 222.834 300.923 223.693C299.546 224.552 297.964 224.982 296.177 224.982C294.409 224.982 292.832 224.557 291.445 223.708C290.059 222.858 288.984 221.647 288.223 220.075C287.461 218.493 287.075 216.677 287.065 214.626V213.571C287.065 211.471 287.441 209.626 288.193 208.034C288.955 206.432 290.024 205.207 291.401 204.357C292.788 203.498 294.37 203.068 296.147 203.068C297.925 203.068 299.502 203.498 300.879 204.357C302.266 205.207 303.335 206.432 304.087 208.034C304.849 209.626 305.229 211.467 305.229 213.556V214.509ZM300.776 213.542C300.776 211.305 300.376 209.606 299.575 208.444C298.774 207.282 297.632 206.701 296.147 206.701C294.673 206.701 293.535 207.277 292.734 208.429C291.934 209.572 291.528 211.252 291.519 213.469V214.509C291.519 216.686 291.919 218.376 292.72 219.577C293.52 220.778 294.673 221.379 296.177 221.379C297.651 221.379 298.784 220.802 299.575 219.65C300.366 218.488 300.767 216.799 300.776 214.582V213.542ZM142.383 259.689V238.361H148.945C150.82 238.361 152.495 238.786 153.97 239.635C155.454 240.475 156.611 241.677 157.441 243.239C158.271 244.792 158.687 246.559 158.687 248.542V249.523C158.687 251.506 158.276 253.268 157.456 254.811C156.645 256.354 155.498 257.551 154.014 258.4C152.529 259.25 150.854 259.679 148.989 259.689H142.383ZM146.777 241.921V256.159H148.901C150.62 256.159 151.934 255.597 152.842 254.474C153.75 253.351 154.214 251.745 154.233 249.655V248.527C154.233 246.359 153.784 244.719 152.886 243.605C151.987 242.482 150.674 241.921 148.945 241.921H146.777ZM166.567 259.689H162.173V238.361H166.567V259.689ZM181.714 254.094C181.714 253.263 181.421 252.629 180.835 252.189C180.249 251.74 179.194 251.271 177.671 250.783C176.147 250.285 174.941 249.797 174.053 249.318C171.631 248.01 170.42 246.247 170.42 244.03C170.42 242.878 170.742 241.852 171.387 240.954C172.041 240.046 172.974 239.338 174.185 238.83C175.405 238.322 176.772 238.068 178.286 238.068C179.81 238.068 181.167 238.346 182.358 238.903C183.55 239.45 184.473 240.226 185.127 241.232C185.791 242.238 186.123 243.381 186.123 244.66H181.729C181.729 243.683 181.421 242.927 180.806 242.389C180.19 241.843 179.326 241.569 178.213 241.569C177.139 241.569 176.304 241.799 175.708 242.258C175.112 242.707 174.814 243.302 174.814 244.045C174.814 244.738 175.161 245.319 175.854 245.788C176.558 246.257 177.588 246.696 178.945 247.106C181.445 247.858 183.267 248.791 184.409 249.904C185.552 251.017 186.123 252.404 186.123 254.064C186.123 255.91 185.425 257.36 184.028 258.415C182.632 259.46 180.752 259.982 178.389 259.982C176.748 259.982 175.254 259.684 173.906 259.089C172.559 258.483 171.528 257.658 170.815 256.613C170.112 255.568 169.761 254.357 169.761 252.98H174.17C174.17 255.334 175.576 256.51 178.389 256.51C179.434 256.51 180.249 256.301 180.835 255.881C181.421 255.451 181.714 254.855 181.714 254.094ZM193.506 252.175V259.689H189.111V238.361H197.432C199.033 238.361 200.439 238.654 201.65 239.24C202.871 239.826 203.809 240.661 204.463 241.745C205.117 242.819 205.444 244.045 205.444 245.422C205.444 247.511 204.727 249.162 203.291 250.373C201.865 251.574 199.888 252.175 197.358 252.175H193.506ZM193.506 248.615H197.432C198.594 248.615 199.478 248.342 200.083 247.795C200.698 247.248 201.006 246.467 201.006 245.451C201.006 244.406 200.698 243.561 200.083 242.917C199.468 242.272 198.618 241.94 197.534 241.921H193.506V248.615ZM225.996 249.509C225.996 251.608 225.625 253.449 224.883 255.031C224.141 256.613 223.076 257.834 221.689 258.693C220.312 259.552 218.73 259.982 216.943 259.982C215.176 259.982 213.599 259.557 212.212 258.708C210.825 257.858 209.751 256.647 208.989 255.075C208.228 253.493 207.842 251.677 207.832 249.626V248.571C207.832 246.471 208.208 244.626 208.96 243.034C209.722 241.432 210.791 240.207 212.168 239.357C213.555 238.498 215.137 238.068 216.914 238.068C218.691 238.068 220.269 238.498 221.645 239.357C223.032 240.207 224.102 241.432 224.854 243.034C225.615 244.626 225.996 246.467 225.996 248.556V249.509ZM221.543 248.542C221.543 246.305 221.143 244.606 220.342 243.444C219.541 242.282 218.398 241.701 216.914 241.701C215.439 241.701 214.302 242.277 213.501 243.429C212.7 244.572 212.295 246.252 212.285 248.469V249.509C212.285 251.686 212.686 253.376 213.486 254.577C214.287 255.778 215.439 256.379 216.943 256.379C218.418 256.379 219.551 255.802 220.342 254.65C221.133 253.488 221.533 251.799 221.543 249.582V248.542ZM246.533 259.689H242.139L233.584 245.656V259.689H229.189V238.361H233.584L242.153 252.424V238.361H246.533V259.689ZM255.044 259.689H250.649V238.361H255.044V259.689ZM259.131 259.689V238.361H266.602C269.189 238.361 271.152 238.859 272.49 239.855C273.828 240.842 274.497 242.292 274.497 244.206C274.497 245.251 274.229 246.174 273.691 246.974C273.154 247.765 272.407 248.346 271.45 248.718C272.544 248.991 273.403 249.543 274.028 250.373C274.663 251.203 274.98 252.219 274.98 253.42C274.98 255.47 274.326 257.023 273.018 258.078C271.709 259.133 269.844 259.67 267.422 259.689H259.131ZM263.525 250.402V256.159H267.29C268.325 256.159 269.131 255.915 269.707 255.427C270.293 254.928 270.586 254.245 270.586 253.376C270.586 251.423 269.575 250.431 267.554 250.402H263.525ZM263.525 247.297H266.777C268.994 247.258 270.103 246.374 270.103 244.645C270.103 243.678 269.819 242.985 269.253 242.565C268.696 242.135 267.812 241.921 266.602 241.921H263.525V247.297ZM282.686 256.159H292.017V259.689H278.291V238.361H282.686V256.159ZM307.383 250.446H298.945V256.159H308.848V259.689H294.551V238.361H308.818V241.921H298.945V247.004H307.383V250.446Z" fill="#C7C7C7"/>
<path d="M246.875 134.189C247.704 134.189 248.499 134.518 249.085 135.105C249.671 135.691 250 136.485 250 137.314V140.439H256.375C257.78 140.44 259.166 140.757 260.432 141.366C261.697 141.975 262.81 142.861 263.687 143.958L272.944 155.52C274.276 157.184 275.001 159.252 275 161.383V174.814C275 177.301 274.012 179.685 272.254 181.443C270.496 183.201 268.111 184.189 265.625 184.189H262.5C262.5 187.504 261.183 190.684 258.839 193.028C256.495 195.372 253.315 196.689 250 196.689C246.685 196.689 243.505 195.372 241.161 193.028C238.817 190.684 237.5 187.504 237.5 184.189H206.25C206.25 187.504 204.933 190.684 202.589 193.028C200.245 195.372 197.065 196.689 193.75 196.689C190.435 196.689 187.255 195.372 184.911 193.028C182.567 190.684 181.25 187.504 181.25 184.189C179.592 184.189 178.003 183.531 176.831 182.359C175.658 181.187 175 179.597 175 177.939V171.689H243.75V137.314C243.75 136.485 244.079 135.691 244.665 135.105C245.251 134.518 246.046 134.189 246.875 134.189ZM193.75 177.939C192.092 177.939 190.503 178.598 189.331 179.77C188.158 180.942 187.5 182.532 187.5 184.189C187.5 185.847 188.158 187.437 189.331 188.609C190.503 189.781 192.092 190.439 193.75 190.439C195.408 190.439 196.997 189.781 198.169 188.609C199.342 187.437 200 185.847 200 184.189C200 182.532 199.342 180.942 198.169 179.77C196.997 178.598 195.408 177.939 193.75 177.939ZM250 177.939C248.342 177.939 246.753 178.598 245.581 179.77C244.408 180.942 243.75 182.532 243.75 184.189C243.75 185.847 244.408 187.437 245.581 188.609C246.753 189.781 248.342 190.439 250 190.439C251.658 190.439 253.247 189.781 254.419 188.609C255.592 187.437 256.25 185.847 256.25 184.189C256.25 182.532 255.592 180.942 254.419 179.77C253.247 178.598 251.658 177.939 250 177.939ZM260.825 177.939H265.625C266.454 177.939 267.249 177.61 267.835 177.024C268.421 176.438 268.75 175.643 268.75 174.814V161.377C268.749 160.668 268.506 159.98 268.063 159.427L258.812 147.864C258.52 147.498 258.149 147.203 257.728 146.999C257.306 146.796 256.843 146.69 256.375 146.689H250V171.689C252.194 171.689 254.35 172.267 256.25 173.364C258.15 174.461 259.728 176.039 260.825 177.939Z" fill="#C7C7C7"/>
</svg>
