<svg width="50" height="51" viewBox="0 0 50 51" fill="none" xmlns="http://www.w3.org/2000/svg">
<path d="M24.999 47.1997C19.1974 47.1997 13.6334 44.895 9.53106 40.7927C5.4287 36.6903 3.12402 31.1263 3.12402 25.3247C3.12402 19.5231 5.4287 13.9591 9.53106 9.85675C13.6334 5.75439 19.1974 3.44971 24.999 3.44971C30.8006 3.44971 36.3646 5.75439 40.467 9.85675C44.5693 13.9591 46.874 19.5231 46.874 25.3247C46.874 31.1263 44.5693 36.6903 40.467 40.7927C36.3646 44.895 30.8006 47.1997 24.999 47.1997ZM24.999 50.3247C31.6294 50.3247 37.9883 47.6908 42.6767 43.0024C47.3651 38.314 49.999 31.9551 49.999 25.3247C49.999 18.6943 47.3651 12.3354 42.6767 7.64704C37.9883 2.95863 31.6294 0.324707 24.999 0.324707C18.3686 0.324707 12.0098 2.95863 7.32135 7.64704C2.63294 12.3354 -0.000976562 18.6943 -0.000976562 25.3247C-0.000976562 31.9551 2.63294 38.314 7.32135 43.0024C12.0098 47.6908 18.3686 50.3247 24.999 50.3247Z" fill="black"/>
<path d="M27.9051 20.9122L20.7489 21.8091L20.4926 22.9966L21.8989 23.256C22.8176 23.4747 22.9989 23.806 22.7989 24.7216L20.4926 35.5591C19.8864 38.3622 20.8207 39.681 23.0176 39.681C24.7208 39.681 26.6989 38.8935 27.5958 37.8122L27.8707 36.5122C27.2457 37.0622 26.3332 37.281 25.727 37.281C24.8676 37.281 24.5551 36.6778 24.777 35.6153L27.9051 20.9122ZM28.1239 14.3872C28.1239 15.216 27.7946 16.0109 27.2086 16.5969C26.6225 17.183 25.8277 17.5122 24.9989 17.5122C24.1701 17.5122 23.3752 17.183 22.7892 16.5969C22.2031 16.0109 21.8739 15.216 21.8739 14.3872C21.8739 13.5584 22.2031 12.7635 22.7892 12.1775C23.3752 11.5914 24.1701 11.2622 24.9989 11.2622C25.8277 11.2622 26.6225 11.5914 27.2086 12.1775C27.7946 12.7635 28.1239 13.5584 28.1239 14.3872Z" fill="black"/>
</svg>
