<svg width="501" height="98" viewBox="0 0 501 98" fill="none" xmlns="http://www.w3.org/2000/svg">
<path d="M244.982 46.8155H267.626C268.037 46.3355 271.739 38.552 273.539 34.7202V25.3164C271.721 19.4233 267.453 19.5696 265.546 20.3793C263.414 16.179 259.538 17.1141 257.866 18.1067C255.609 14.596 251.753 16.1737 250.108 17.4015V4.94133C245.594 -2.64449 241.401 1.78057 239.868 4.94133V23.6214L237.066 21.5559C236.923 21.3719 236.011 21.0856 233.508 21.4128C231.005 21.74 229.872 23.7987 229.618 24.7872C229.531 25.6938 229.409 27.6491 229.618 28.2171C229.828 28.7852 230.135 29.1285 230.262 29.2292C236.426 31.5292 241.21 41.1891 242.13 43.9491C242.866 46.1571 244.338 46.78 244.982 46.8155Z" fill="#BBBBBB" stroke="#BBBBBB"/>
<rect x="242.438" y="48.9558" width="27.7009" height="11.3552" rx="3" fill="#C4C4C4"/>
<ellipse cx="264.679" cy="54.6334" rx="2.71218" ry="2.60372" fill="white"/>
<path d="M3.8916 93.3463H1.67676V80.5494H3.8916V93.3463ZM8.76039 83.8365L8.82191 84.9352C9.52504 84.0856 10.4479 83.6608 11.5905 83.6608C13.5709 83.6608 14.5788 84.7946 14.6139 87.0621V93.3463H12.4782V87.1852C12.4782 86.5817 12.3463 86.1364 12.0827 85.8492C11.8248 85.5563 11.4 85.4098 10.8082 85.4098C9.94691 85.4098 9.30531 85.7994 8.88344 86.5787V93.3463H6.7477V83.8365H8.76039ZM16.7845 88.5211C16.7845 87.0446 17.1302 85.8668 17.8216 84.9879C18.5188 84.1031 19.4417 83.6608 20.5901 83.6608C21.6741 83.6608 22.5266 84.0387 23.1477 84.7946L23.2444 83.8365H25.1692V93.0563C25.1692 94.3043 24.7796 95.2887 24.0003 96.0094C23.2268 96.7301 22.1809 97.0905 20.8626 97.0905C20.1653 97.0905 19.4827 96.944 18.8147 96.651C18.1526 96.3639 17.6487 95.986 17.303 95.5172L18.3138 94.234C18.97 95.0133 19.7786 95.403 20.7395 95.403C21.4485 95.403 22.0081 95.2096 22.4182 94.8229C22.8284 94.442 23.0335 93.8795 23.0335 93.1354V92.4938C22.4182 93.1793 21.5979 93.5221 20.5725 93.5221C19.4593 93.5221 18.5481 93.0797 17.8391 92.1949C17.136 91.3102 16.7845 90.0856 16.7845 88.5211ZM18.9114 88.7057C18.9114 89.6608 19.1048 90.4137 19.4915 90.9645C19.8841 91.5094 20.4261 91.7819 21.1175 91.7819C21.9788 91.7819 22.6175 91.4127 23.0335 90.6744V86.4908C22.6292 85.7701 21.9964 85.4098 21.135 85.4098C20.4319 85.4098 19.8841 85.6881 19.4915 86.2448C19.1048 86.8014 18.9114 87.6217 18.9114 88.7057ZM32.7099 85.7877C32.4286 85.7408 32.1386 85.7174 31.8398 85.7174C30.8612 85.7174 30.2021 86.0924 29.8622 86.8424V93.3463H27.7265V83.8365H29.7655L29.8183 84.9C30.3339 84.0739 31.0487 83.6608 31.9628 83.6608C32.2675 83.6608 32.5195 83.7018 32.7187 83.7838L32.7099 85.7877ZM38.4312 93.5221C37.0777 93.5221 35.9791 93.0973 35.1353 92.2477C34.2974 91.3922 33.8785 90.2555 33.8785 88.8375V88.5739C33.8785 87.6246 34.0601 86.778 34.4234 86.0338C34.7925 85.2838 35.3082 84.7008 35.9703 84.2848C36.6324 83.8688 37.3707 83.6608 38.1851 83.6608C39.48 83.6608 40.4791 84.0739 41.1822 84.9C41.8912 85.7262 42.2457 86.8951 42.2457 88.4069V89.2682H36.0318C36.0962 90.0533 36.357 90.6744 36.814 91.1315C37.2769 91.5885 37.857 91.817 38.5543 91.817C39.5328 91.817 40.3296 91.4215 40.9449 90.6305L42.0962 91.7291C41.7154 92.2975 41.2056 92.7399 40.567 93.0563C39.9341 93.3668 39.2222 93.5221 38.4312 93.5221ZM38.1763 85.3746C37.5904 85.3746 37.1158 85.5797 36.7525 85.9899C36.3951 86.4 36.1666 86.9713 36.067 87.7037H40.1363V87.5455C40.0894 86.8307 39.899 86.2916 39.565 85.9283C39.231 85.5592 38.7681 85.3746 38.1763 85.3746ZM49.6018 90.7623C49.6018 90.3815 49.4436 90.0914 49.1271 89.8922C48.8166 89.693 48.298 89.5172 47.5715 89.3649C46.8449 89.2125 46.2385 89.0192 45.7521 88.7848C44.6857 88.2692 44.1525 87.5221 44.1525 86.5436C44.1525 85.7233 44.4982 85.0377 45.1896 84.4869C45.8811 83.9362 46.76 83.6608 47.8264 83.6608C48.9631 83.6608 49.8801 83.942 50.5773 84.5045C51.2805 85.067 51.632 85.7965 51.632 86.693H49.4963C49.4963 86.2828 49.3439 85.943 49.0393 85.6735C48.7346 85.3981 48.3303 85.2604 47.8264 85.2604C47.3576 85.2604 46.9738 85.3688 46.675 85.5856C46.382 85.8024 46.2355 86.0924 46.2355 86.4557C46.2355 86.7838 46.3732 87.0387 46.6486 87.2203C46.924 87.402 47.4807 87.5865 48.3186 87.774C49.1564 87.9557 49.8127 88.1754 50.2873 88.4332C50.7678 88.6852 51.1223 88.9899 51.3508 89.3473C51.5852 89.7047 51.7023 90.1383 51.7023 90.6481C51.7023 91.5035 51.3479 92.1979 50.6389 92.7311C49.9299 93.2584 49.0012 93.5221 47.8527 93.5221C47.0734 93.5221 46.3791 93.3815 45.7697 93.1002C45.1604 92.819 44.6857 92.4323 44.3459 91.9401C44.0061 91.4479 43.8361 90.9176 43.8361 90.3492H45.9104C45.9396 90.8531 46.1301 91.2428 46.4816 91.5182C46.8332 91.7877 47.299 91.9225 47.8791 91.9225C48.4416 91.9225 48.8693 91.817 49.1623 91.6061C49.4553 91.3893 49.6018 91.108 49.6018 90.7623ZM58.118 93.5221C56.7645 93.5221 55.6659 93.0973 54.8221 92.2477C53.9842 91.3922 53.5653 90.2555 53.5653 88.8375V88.5739C53.5653 87.6246 53.7469 86.778 54.1102 86.0338C54.4793 85.2838 54.995 84.7008 55.6571 84.2848C56.3192 83.8688 57.0575 83.6608 57.8719 83.6608C59.1668 83.6608 60.1659 84.0739 60.869 84.9C61.578 85.7262 61.9325 86.8951 61.9325 88.4069V89.2682H55.7186C55.783 90.0533 56.0438 90.6744 56.5008 91.1315C56.9637 91.5885 57.5438 91.817 58.2411 91.817C59.2196 91.817 60.0164 91.4215 60.6317 90.6305L61.783 91.7291C61.4022 92.2975 60.8924 92.7399 60.2537 93.0563C59.6209 93.3668 58.909 93.5221 58.118 93.5221ZM57.8631 85.3746C57.2772 85.3746 56.8026 85.5797 56.4393 85.9899C56.0819 86.4 55.8534 86.9713 55.7537 87.7037H59.8231V87.5455C59.7762 86.8307 59.5858 86.2916 59.2518 85.9283C58.9178 85.5592 58.4549 85.3746 57.8631 85.3746ZM71.0724 93.3463H68.9366V79.8463H71.0724V93.3463ZM73.366 88.5035C73.366 87.5719 73.5505 86.734 73.9197 85.9899C74.2888 85.2399 74.8074 84.6656 75.4753 84.2672C76.1433 83.8629 76.9109 83.6608 77.7781 83.6608C79.0613 83.6608 80.1013 84.0739 80.8982 84.9C81.7009 85.7262 82.1345 86.8219 82.199 88.1871L82.2078 88.6881C82.2078 89.6256 82.0261 90.4635 81.6628 91.2018C81.3054 91.9401 80.7898 92.5114 80.116 92.9156C79.448 93.3199 78.6746 93.5221 77.7957 93.5221C76.4539 93.5221 75.3787 93.0768 74.5701 92.1862C73.7673 91.2897 73.366 90.0973 73.366 88.609V88.5035ZM75.5017 88.6881C75.5017 89.6666 75.7039 90.4342 76.1082 90.9908C76.5125 91.5416 77.075 91.817 77.7957 91.817C78.5164 91.817 79.0759 91.5358 79.4744 90.9733C79.8787 90.4108 80.0808 89.5875 80.0808 88.5035C80.0808 87.5426 79.8728 86.7809 79.4568 86.2184C79.0466 85.6559 78.4871 85.3746 77.7781 85.3746C77.0808 85.3746 76.5271 85.653 76.117 86.2096C75.7068 86.7604 75.5017 87.5865 75.5017 88.6881ZM89.7045 90.7623C89.7045 90.3815 89.5463 90.0914 89.2299 89.8922C88.9193 89.693 88.4008 89.5172 87.6742 89.3649C86.9477 89.2125 86.3412 89.0192 85.8549 88.7848C84.7885 88.2692 84.2553 87.5221 84.2553 86.5436C84.2553 85.7233 84.601 85.0377 85.2924 84.4869C85.9838 83.9362 86.8627 83.6608 87.9291 83.6608C89.0658 83.6608 89.9828 83.942 90.6801 84.5045C91.3832 85.067 91.7348 85.7965 91.7348 86.693H89.599C89.599 86.2828 89.4467 85.943 89.142 85.6735C88.8373 85.3981 88.433 85.2604 87.9291 85.2604C87.4604 85.2604 87.0766 85.3688 86.7777 85.5856C86.4848 85.8024 86.3383 86.0924 86.3383 86.4557C86.3383 86.7838 86.476 87.0387 86.7514 87.2203C87.0268 87.402 87.5834 87.5865 88.4213 87.774C89.2592 87.9557 89.9154 88.1754 90.39 88.4332C90.8705 88.6852 91.225 88.9899 91.4535 89.3473C91.6879 89.7047 91.8051 90.1383 91.8051 90.6481C91.8051 91.5035 91.4506 92.1979 90.7416 92.7311C90.0326 93.2584 89.1039 93.5221 87.9555 93.5221C87.1762 93.5221 86.4818 93.3815 85.8725 93.1002C85.2631 92.819 84.7885 92.4323 84.4486 91.9401C84.1088 91.4479 83.9389 90.9176 83.9389 90.3492H86.0131C86.0424 90.8531 86.2328 91.2428 86.5844 91.5182C86.9359 91.7877 87.4018 91.9225 87.9818 91.9225C88.5443 91.9225 88.9721 91.817 89.265 91.6061C89.558 91.3893 89.7045 91.108 89.7045 90.7623ZM99.4421 93.3463V85.4186H97.9919V83.8365H99.4421V83.1862C99.4479 82.442 99.6061 81.8033 99.9167 81.2701C100.227 80.7369 100.667 80.3356 101.235 80.066C101.803 79.7965 102.486 79.6617 103.283 79.6617C103.752 79.6617 104.2 79.7115 104.628 79.8112C105.061 79.9108 105.509 80.0367 105.972 80.1891L105.647 81.9557C104.839 81.6744 104.1 81.5338 103.432 81.5338C102.782 81.5338 102.31 81.6774 102.017 81.9645C101.724 82.2457 101.578 82.6705 101.578 83.2389V83.8365H103.45V85.4186H101.578V93.3463H99.4421ZM106.983 93.3463H104.847V83.8365H106.983V93.3463ZM111.984 93.3463H109.848V79.8463H111.984V93.3463ZM117.353 81.525V83.8365H119.032V85.4186H117.353V90.7272C117.353 91.0905 117.424 91.3541 117.564 91.5182C117.711 91.6764 117.969 91.7555 118.338 91.7555C118.584 91.7555 118.833 91.7262 119.085 91.6676V93.3199C118.599 93.4547 118.13 93.5221 117.679 93.5221C116.038 93.5221 115.218 92.6168 115.218 90.8063V85.4186H113.653V83.8365H115.218V81.525H117.353ZM126.01 85.7877C125.729 85.7408 125.439 85.7174 125.14 85.7174C124.162 85.7174 123.503 86.0924 123.163 86.8424V93.3463H121.027V83.8365H123.066L123.119 84.9C123.634 84.0739 124.349 83.6608 125.263 83.6608C125.568 83.6608 125.82 83.7018 126.019 83.7838L126.01 85.7877ZM127.003 88.5035C127.003 87.5719 127.188 86.734 127.557 85.9899C127.926 85.2399 128.445 84.6656 129.113 84.2672C129.781 83.8629 130.548 83.6608 131.415 83.6608C132.698 83.6608 133.739 84.0739 134.535 84.9C135.338 85.7262 135.772 86.8219 135.836 88.1871L135.845 88.6881C135.845 89.6256 135.663 90.4635 135.3 91.2018C134.943 91.9401 134.427 92.5114 133.753 92.9156C133.085 93.3199 132.312 93.5221 131.433 93.5221C130.091 93.5221 129.016 93.0768 128.207 92.1862C127.405 91.2897 127.003 90.0973 127.003 88.609V88.5035ZM129.139 88.6881C129.139 89.6666 129.341 90.4342 129.745 90.9908C130.15 91.5416 130.712 91.817 131.433 91.817C132.154 91.817 132.713 91.5358 133.112 90.9733C133.516 90.4108 133.718 89.5875 133.718 88.5035C133.718 87.5426 133.51 86.7809 133.094 86.2184C132.684 85.6559 132.124 85.3746 131.415 85.3746C130.718 85.3746 130.164 85.653 129.754 86.2096C129.344 86.7604 129.139 87.5865 129.139 88.6881ZM143.342 90.7623C143.342 90.3815 143.183 90.0914 142.867 89.8922C142.557 89.693 142.038 89.5172 141.311 89.3649C140.585 89.2125 139.978 89.0192 139.492 88.7848C138.426 88.2692 137.892 87.5221 137.892 86.5436C137.892 85.7233 138.238 85.0377 138.93 84.4869C139.621 83.9362 140.5 83.6608 141.566 83.6608C142.703 83.6608 143.62 83.942 144.317 84.5045C145.02 85.067 145.372 85.7965 145.372 86.693H143.236C143.236 86.2828 143.084 85.943 142.779 85.6735C142.474 85.3981 142.07 85.2604 141.566 85.2604C141.098 85.2604 140.714 85.3688 140.415 85.5856C140.122 85.8024 139.975 86.0924 139.975 86.4557C139.975 86.7838 140.113 87.0387 140.389 87.2203C140.664 87.402 141.221 87.5865 142.058 87.774C142.896 87.9557 143.553 88.1754 144.027 88.4332C144.508 88.6852 144.862 88.9899 145.091 89.3473C145.325 89.7047 145.442 90.1383 145.442 90.6481C145.442 91.5035 145.088 92.1979 144.379 92.7311C143.67 93.2584 142.741 93.5221 141.593 93.5221C140.813 93.5221 140.119 93.3815 139.51 93.1002C138.9 92.819 138.426 92.4323 138.086 91.9401C137.746 91.4479 137.576 90.9176 137.576 90.3492H139.65C139.68 90.8531 139.87 91.2428 140.222 91.5182C140.573 91.7877 141.039 91.9225 141.619 91.9225C142.182 91.9225 142.609 91.817 142.902 91.6061C143.195 91.3893 143.342 91.108 143.342 90.7623ZM160.84 88.6881C160.84 90.1588 160.506 91.3336 159.838 92.2125C159.17 93.0856 158.274 93.5221 157.149 93.5221C156.106 93.5221 155.271 93.1793 154.644 92.4938V97.0026H152.508V83.8365H154.477L154.565 84.8033C155.192 84.0416 156.044 83.6608 157.122 83.6608C158.282 83.6608 159.191 84.0944 159.847 84.9615C160.509 85.8229 160.84 87.0211 160.84 88.5563V88.6881ZM158.713 88.5035C158.713 87.5543 158.523 86.8014 158.142 86.2448C157.767 85.6881 157.228 85.4098 156.525 85.4098C155.652 85.4098 155.025 85.7701 154.644 86.4908V90.7096C155.03 91.4479 155.663 91.817 156.542 91.817C157.222 91.817 157.752 91.5446 158.133 90.9996C158.52 90.4489 158.713 89.6168 158.713 88.5035ZM168.697 93.3463C168.603 93.1647 168.521 92.8688 168.451 92.4586C167.771 93.1676 166.939 93.5221 165.955 93.5221C165 93.5221 164.221 93.2496 163.617 92.7047C163.013 92.1598 162.712 91.486 162.712 90.6832C162.712 89.6696 163.087 88.8932 163.837 88.3541C164.593 87.8092 165.671 87.5367 167.071 87.5367H168.381V86.9127C168.381 86.4205 168.243 86.028 167.968 85.735C167.692 85.4362 167.273 85.2867 166.711 85.2867C166.224 85.2867 165.826 85.4098 165.515 85.6559C165.205 85.8961 165.05 86.2037 165.05 86.5787H162.914C162.914 86.0573 163.087 85.5709 163.432 85.1198C163.778 84.6627 164.247 84.3053 164.839 84.0475C165.436 83.7897 166.101 83.6608 166.834 83.6608C167.947 83.6608 168.835 83.942 169.497 84.5045C170.159 85.0612 170.499 85.8463 170.516 86.86V91.149C170.516 92.0045 170.637 92.6871 170.877 93.1969V93.3463H168.697ZM166.35 91.8082C166.772 91.8082 167.168 91.7057 167.537 91.5006C167.912 91.2955 168.193 91.0201 168.381 90.6744V88.8815H167.229C166.438 88.8815 165.844 89.0192 165.445 89.2946C165.047 89.5699 164.847 89.9596 164.847 90.4635C164.847 90.8737 164.982 91.2018 165.252 91.4479C165.527 91.6881 165.893 91.8082 166.35 91.8082ZM178.092 85.7877C177.811 85.7408 177.521 85.7174 177.222 85.7174C176.244 85.7174 175.584 86.0924 175.245 86.8424V93.3463H173.109V83.8365H175.148L175.201 84.9C175.716 84.0739 176.431 83.6608 177.345 83.6608C177.65 83.6608 177.902 83.7018 178.101 83.7838L178.092 85.7877ZM185.22 93.3463C185.126 93.1647 185.044 92.8688 184.974 92.4586C184.294 93.1676 183.462 93.5221 182.478 93.5221C181.523 93.5221 180.743 93.2496 180.14 92.7047C179.536 92.1598 179.234 91.486 179.234 90.6832C179.234 89.6696 179.609 88.8932 180.359 88.3541C181.115 87.8092 182.193 87.5367 183.594 87.5367H184.903V86.9127C184.903 86.4205 184.766 86.028 184.49 85.735C184.215 85.4362 183.796 85.2867 183.233 85.2867C182.747 85.2867 182.349 85.4098 182.038 85.6559C181.728 85.8961 181.572 86.2037 181.572 86.5787H179.437C179.437 86.0573 179.609 85.5709 179.955 85.1198C180.301 84.6627 180.77 84.3053 181.361 84.0475C181.959 83.7897 182.624 83.6608 183.357 83.6608C184.47 83.6608 185.357 83.942 186.02 84.5045C186.682 85.0612 187.022 85.8463 187.039 86.86V91.149C187.039 92.0045 187.159 92.6871 187.399 93.1969V93.3463H185.22ZM182.873 91.8082C183.295 91.8082 183.691 91.7057 184.06 91.5006C184.435 91.2955 184.716 91.0201 184.903 90.6744V88.8815H183.752C182.961 88.8815 182.366 89.0192 181.968 89.2946C181.569 89.5699 181.37 89.9596 181.37 90.4635C181.37 90.8737 181.505 91.2018 181.774 91.4479C182.05 91.6881 182.416 91.8082 182.873 91.8082ZM198.385 91.817C198.918 91.817 199.361 91.6617 199.712 91.3512C200.064 91.0406 200.251 90.6569 200.275 90.1998H202.287C202.264 90.7916 202.079 91.3453 201.734 91.861C201.388 92.3707 200.919 92.775 200.327 93.0739C199.736 93.3727 199.097 93.5221 198.411 93.5221C197.081 93.5221 196.027 93.0914 195.247 92.2301C194.468 91.3688 194.078 90.1793 194.078 88.6617V88.442C194.078 86.9948 194.465 85.8375 195.239 84.9703C196.012 84.0973 197.067 83.6608 198.403 83.6608C199.534 83.6608 200.453 83.9918 201.162 84.6539C201.877 85.3102 202.252 86.1744 202.287 87.2467H200.275C200.251 86.7018 200.064 86.2535 199.712 85.902C199.367 85.5504 198.924 85.3746 198.385 85.3746C197.694 85.3746 197.161 85.6266 196.786 86.1305C196.411 86.6285 196.22 87.3873 196.214 88.4069V88.7496C196.214 89.7809 196.399 90.5514 196.768 91.0612C197.143 91.5651 197.682 91.817 198.385 91.817ZM203.86 88.5035C203.86 87.5719 204.045 86.734 204.414 85.9899C204.783 85.2399 205.302 84.6656 205.97 84.2672C206.638 83.8629 207.405 83.6608 208.272 83.6608C209.556 83.6608 210.596 84.0739 211.393 84.9C212.195 85.7262 212.629 86.8219 212.693 88.1871L212.702 88.6881C212.702 89.6256 212.521 90.4635 212.157 91.2018C211.8 91.9401 211.284 92.5114 210.61 92.9156C209.942 93.3199 209.169 93.5221 208.29 93.5221C206.948 93.5221 205.873 93.0768 205.064 92.1862C204.262 91.2897 203.86 90.0973 203.86 88.609V88.5035ZM205.996 88.6881C205.996 89.6666 206.198 90.4342 206.603 90.9908C207.007 91.5416 207.569 91.817 208.29 91.817C209.011 91.817 209.57 91.5358 209.969 90.9733C210.373 90.4108 210.575 89.5875 210.575 88.5035C210.575 87.5426 210.367 86.7809 209.951 86.2184C209.541 85.6559 208.981 85.3746 208.272 85.3746C207.575 85.3746 207.021 85.653 206.611 86.2096C206.201 86.7604 205.996 87.5865 205.996 88.6881ZM216.85 83.8365L216.912 84.9352C217.615 84.0856 218.538 83.6608 219.68 83.6608C221.661 83.6608 222.669 84.7946 222.704 87.0621V93.3463H220.568V87.1852C220.568 86.5817 220.436 86.1364 220.173 85.8492C219.915 85.5563 219.49 85.4098 218.898 85.4098C218.037 85.4098 217.395 85.7994 216.973 86.5787V93.3463H214.838V83.8365H216.85ZM230.578 90.7623C230.578 90.3815 230.42 90.0914 230.104 89.8922C229.793 89.693 229.275 89.5172 228.548 89.3649C227.822 89.2125 227.215 89.0192 226.729 88.7848C225.662 88.2692 225.129 87.5221 225.129 86.5436C225.129 85.7233 225.475 85.0377 226.166 84.4869C226.858 83.9362 227.737 83.6608 228.803 83.6608C229.94 83.6608 230.857 83.942 231.554 84.5045C232.257 85.067 232.609 85.7965 232.609 86.693H230.473C230.473 86.2828 230.321 85.943 230.016 85.6735C229.711 85.3981 229.307 85.2604 228.803 85.2604C228.334 85.2604 227.95 85.3688 227.652 85.5856C227.359 85.8024 227.212 86.0924 227.212 86.4557C227.212 86.7838 227.35 87.0387 227.625 87.2203C227.901 87.402 228.457 87.5865 229.295 87.774C230.133 87.9557 230.789 88.1754 231.264 88.4332C231.744 88.6852 232.099 88.9899 232.327 89.3473C232.562 89.7047 232.679 90.1383 232.679 90.6481C232.679 91.5035 232.324 92.1979 231.616 92.7311C230.907 93.2584 229.978 93.5221 228.829 93.5221C228.05 93.5221 227.356 93.3815 226.746 93.1002C226.137 92.819 225.662 92.4323 225.323 91.9401C224.983 91.4479 224.813 90.9176 224.813 90.3492H226.887C226.916 90.8531 227.107 91.2428 227.458 91.5182C227.81 91.7877 228.276 91.9225 228.856 91.9225C229.418 91.9225 229.846 91.817 230.139 91.6061C230.432 91.3893 230.578 91.108 230.578 90.7623ZM240.668 92.4147C240.041 93.153 239.15 93.5221 237.996 93.5221C236.965 93.5221 236.183 93.2203 235.649 92.6168C235.122 92.0133 234.858 91.1403 234.858 89.9977V83.8365H236.994V89.9713C236.994 91.1783 237.495 91.7819 238.497 91.7819C239.534 91.7819 240.234 91.4098 240.598 90.6656V83.8365H242.733V93.3463H240.721L240.668 92.4147ZM247.541 93.3463H245.405V79.8463H247.541V93.3463ZM252.91 81.525V83.8365H254.589V85.4186H252.91V90.7272C252.91 91.0905 252.981 91.3541 253.121 91.5182C253.268 91.6764 253.526 91.7555 253.895 91.7555C254.141 91.7555 254.39 91.7262 254.642 91.6676V93.3199C254.155 93.4547 253.687 93.5221 253.236 93.5221C251.595 93.5221 250.775 92.6168 250.775 90.8063V85.4186H249.21V83.8365H250.775V81.525H252.91ZM262.27 93.3463C262.177 93.1647 262.095 92.8688 262.024 92.4586C261.345 93.1676 260.513 93.5221 259.528 93.5221C258.573 93.5221 257.794 93.2496 257.19 92.7047C256.587 92.1598 256.285 91.486 256.285 90.6832C256.285 89.6696 256.66 88.8932 257.41 88.3541C258.166 87.8092 259.244 87.5367 260.644 87.5367H261.954V86.9127C261.954 86.4205 261.816 86.028 261.541 85.735C261.265 85.4362 260.847 85.2867 260.284 85.2867C259.798 85.2867 259.399 85.4098 259.089 85.6559C258.778 85.8961 258.623 86.2037 258.623 86.5787H256.487C256.487 86.0573 256.66 85.5709 257.006 85.1198C257.351 84.6627 257.82 84.3053 258.412 84.0475C259.01 83.7897 259.675 83.6608 260.407 83.6608C261.52 83.6608 262.408 83.942 263.07 84.5045C263.732 85.0612 264.072 85.8463 264.09 86.86V91.149C264.09 92.0045 264.21 92.6871 264.45 93.1969V93.3463H262.27ZM259.924 91.8082C260.346 91.8082 260.741 91.7057 261.11 91.5006C261.485 91.2955 261.766 91.0201 261.954 90.6744V88.8815H260.803C260.012 88.8815 259.417 89.0192 259.018 89.2946C258.62 89.5699 258.421 89.9596 258.421 90.4635C258.421 90.8737 258.556 91.2018 258.825 91.4479C259.1 91.6881 259.467 91.8082 259.924 91.8082ZM271.665 85.7877C271.384 85.7408 271.094 85.7174 270.795 85.7174C269.817 85.7174 269.158 86.0924 268.818 86.8424V93.3463H266.682V83.8365H268.721L268.774 84.9C269.29 84.0739 270.004 83.6608 270.918 83.6608C271.223 83.6608 271.475 83.7018 271.674 83.7838L271.665 85.7877ZM280.489 93.3463H278.353V79.8463H280.489V93.3463ZM288.865 93.3463C288.771 93.1647 288.689 92.8688 288.619 92.4586C287.939 93.1676 287.107 93.5221 286.122 93.5221C285.167 93.5221 284.388 93.2496 283.785 92.7047C283.181 92.1598 282.879 91.486 282.879 90.6832C282.879 89.6696 283.254 88.8932 284.004 88.3541C284.76 87.8092 285.838 87.5367 287.239 87.5367H288.548V86.9127C288.548 86.4205 288.411 86.028 288.135 85.735C287.86 85.4362 287.441 85.2867 286.878 85.2867C286.392 85.2867 285.994 85.4098 285.683 85.6559C285.372 85.8961 285.217 86.2037 285.217 86.5787H283.081C283.081 86.0573 283.254 85.5709 283.6 85.1198C283.946 84.6627 284.414 84.3053 285.006 84.0475C285.604 83.7897 286.269 83.6608 287.001 83.6608C288.115 83.6608 289.002 83.942 289.664 84.5045C290.327 85.0612 290.666 85.8463 290.684 86.86V91.149C290.684 92.0045 290.804 92.6871 291.044 93.1969V93.3463H288.865ZM286.518 91.8082C286.94 91.8082 287.335 91.7057 287.704 91.5006C288.079 91.2955 288.361 91.0201 288.548 90.6744V88.8815H287.397C286.606 88.8815 286.011 89.0192 285.613 89.2946C285.214 89.5699 285.015 89.9596 285.015 90.4635C285.015 90.8737 285.15 91.2018 285.419 91.4479C285.695 91.6881 286.061 91.8082 286.518 91.8082ZM298.611 90.7623C298.611 90.3815 298.453 90.0914 298.137 89.8922C297.826 89.693 297.308 89.5172 296.581 89.3649C295.855 89.2125 295.248 89.0192 294.762 88.7848C293.695 88.2692 293.162 87.5221 293.162 86.5436C293.162 85.7233 293.508 85.0377 294.199 84.4869C294.891 83.9362 295.77 83.6608 296.836 83.6608C297.973 83.6608 298.89 83.942 299.587 84.5045C300.29 85.067 300.642 85.7965 300.642 86.693H298.506C298.506 86.2828 298.354 85.943 298.049 85.6735C297.744 85.3981 297.34 85.2604 296.836 85.2604C296.367 85.2604 295.983 85.3688 295.685 85.5856C295.392 85.8024 295.245 86.0924 295.245 86.4557C295.245 86.7838 295.383 87.0387 295.658 87.2203C295.934 87.402 296.49 87.5865 297.328 87.774C298.166 87.9557 298.822 88.1754 299.297 88.4332C299.777 88.6852 300.132 88.9899 300.36 89.3473C300.595 89.7047 300.712 90.1383 300.712 90.6481C300.712 91.5035 300.357 92.1979 299.648 92.7311C298.939 93.2584 298.011 93.5221 296.862 93.5221C296.083 93.5221 295.389 93.3815 294.779 93.1002C294.17 92.819 293.695 92.4323 293.355 91.9401C293.016 91.4479 292.846 90.9176 292.846 90.3492H294.92C294.949 90.8531 295.14 91.2428 295.491 91.5182C295.843 91.7877 296.309 91.9225 296.889 91.9225C297.451 91.9225 297.879 91.817 298.172 91.6061C298.465 91.3893 298.611 91.108 298.611 90.7623ZM307.382 88.5035C307.382 87.5719 307.567 86.734 307.936 85.9899C308.305 85.2399 308.824 84.6656 309.492 84.2672C310.159 83.8629 310.927 83.6608 311.794 83.6608C313.077 83.6608 314.117 84.0739 314.914 84.9C315.717 85.7262 316.151 86.8219 316.215 88.1871L316.224 88.6881C316.224 89.6256 316.042 90.4635 315.679 91.2018C315.322 91.9401 314.806 92.5114 314.132 92.9156C313.464 93.3199 312.691 93.5221 311.812 93.5221C310.47 93.5221 309.395 93.0768 308.586 92.1862C307.784 91.2897 307.382 90.0973 307.382 88.609V88.5035ZM309.518 88.6881C309.518 89.6666 309.72 90.4342 310.124 90.9908C310.529 91.5416 311.091 91.817 311.812 91.817C312.533 91.817 313.092 91.5358 313.491 90.9733C313.895 90.4108 314.097 89.5875 314.097 88.5035C314.097 87.5426 313.889 86.7809 313.473 86.2184C313.063 85.6559 312.503 85.3746 311.794 85.3746C311.097 85.3746 310.543 85.653 310.133 86.2096C309.723 86.7604 309.518 87.5865 309.518 88.6881ZM312.383 79.8463H314.818L312.383 82.5094H310.669L312.383 79.8463ZM323.369 85.7877C323.088 85.7408 322.798 85.7174 322.499 85.7174C321.52 85.7174 320.861 86.0924 320.521 86.8424V93.3463H318.386V83.8365H320.425L320.478 84.9C320.993 84.0739 321.708 83.6608 322.622 83.6608C322.927 83.6608 323.179 83.7018 323.378 83.7838L323.369 85.7877ZM324.503 88.5211C324.503 87.0563 324.842 85.8815 325.522 84.9967C326.202 84.1061 327.113 83.6608 328.255 83.6608C329.263 83.6608 330.078 84.0123 330.699 84.7155V79.8463H332.835V93.3463H330.901L330.796 92.3619C330.157 93.1354 329.304 93.5221 328.238 93.5221C327.125 93.5221 326.222 93.0739 325.531 92.1774C324.845 91.2809 324.503 90.0621 324.503 88.5211ZM326.638 88.7057C326.638 89.6725 326.823 90.4283 327.192 90.9733C327.567 91.5123 328.097 91.7819 328.783 91.7819C329.656 91.7819 330.295 91.3922 330.699 90.6129V86.5524C330.306 85.7906 329.673 85.4098 328.8 85.4098C328.109 85.4098 327.576 85.6852 327.201 86.236C326.826 86.7809 326.638 87.6041 326.638 88.7057ZM339.611 93.5221C338.257 93.5221 337.158 93.0973 336.315 92.2477C335.477 91.3922 335.058 90.2555 335.058 88.8375V88.5739C335.058 87.6246 335.24 86.778 335.603 86.0338C335.972 85.2838 336.488 84.7008 337.15 84.2848C337.812 83.8688 338.55 83.6608 339.365 83.6608C340.659 83.6608 341.658 84.0739 342.362 84.9C343.071 85.7262 343.425 86.8951 343.425 88.4069V89.2682H337.211C337.276 90.0533 337.536 90.6744 337.993 91.1315C338.456 91.5885 339.036 91.817 339.734 91.817C340.712 91.817 341.509 91.4215 342.124 90.6305L343.276 91.7291C342.895 92.2975 342.385 92.7399 341.746 93.0563C341.114 93.3668 340.402 93.5221 339.611 93.5221ZM339.356 85.3746C338.77 85.3746 338.295 85.5797 337.932 85.9899C337.574 86.4 337.346 86.9713 337.246 87.7037H341.316V87.5455C341.269 86.8307 341.078 86.2916 340.744 85.9283C340.41 85.5592 339.948 85.3746 339.356 85.3746ZM347.432 83.8365L347.494 84.9352C348.197 84.0856 349.12 83.6608 350.263 83.6608C352.243 83.6608 353.251 84.7946 353.286 87.0621V93.3463H351.15V87.1852C351.15 86.5817 351.018 86.1364 350.755 85.8492C350.497 85.5563 350.072 85.4098 349.48 85.4098C348.619 85.4098 347.977 85.7994 347.556 86.5787V93.3463H345.42V83.8365H347.432ZM360.018 93.5221C358.665 93.5221 357.566 93.0973 356.722 92.2477C355.884 91.3922 355.465 90.2555 355.465 88.8375V88.5739C355.465 87.6246 355.647 86.778 356.01 86.0338C356.379 85.2838 356.895 84.7008 357.557 84.2848C358.219 83.8688 358.958 83.6608 359.772 83.6608C361.067 83.6608 362.066 84.0739 362.769 84.9C363.478 85.7262 363.833 86.8951 363.833 88.4069V89.2682H357.619C357.683 90.0533 357.944 90.6744 358.401 91.1315C358.864 91.5885 359.444 91.817 360.141 91.817C361.12 91.817 361.917 91.4215 362.532 90.6305L363.683 91.7291C363.302 92.2975 362.793 92.7399 362.154 93.0563C361.521 93.3668 360.809 93.5221 360.018 93.5221ZM359.763 85.3746C359.177 85.3746 358.703 85.5797 358.339 85.9899C357.982 86.4 357.753 86.9713 357.654 87.7037H361.723V87.5455C361.676 86.8307 361.486 86.2916 361.152 85.9283C360.818 85.5592 360.355 85.3746 359.763 85.3746ZM371.189 90.7623C371.189 90.3815 371.03 90.0914 370.714 89.8922C370.403 89.693 369.885 89.5172 369.158 89.3649C368.432 89.2125 367.825 89.0192 367.339 88.7848C366.273 88.2692 365.739 87.5221 365.739 86.5436C365.739 85.7233 366.085 85.0377 366.777 84.4869C367.468 83.9362 368.347 83.6608 369.413 83.6608C370.55 83.6608 371.467 83.942 372.164 84.5045C372.867 85.067 373.219 85.7965 373.219 86.693H371.083C371.083 86.2828 370.931 85.943 370.626 85.6735C370.321 85.3981 369.917 85.2604 369.413 85.2604C368.944 85.2604 368.561 85.3688 368.262 85.5856C367.969 85.8024 367.822 86.0924 367.822 86.4557C367.822 86.7838 367.96 87.0387 368.236 87.2203C368.511 87.402 369.068 87.5865 369.905 87.774C370.743 87.9557 371.4 88.1754 371.874 88.4332C372.355 88.6852 372.709 88.9899 372.938 89.3473C373.172 89.7047 373.289 90.1383 373.289 90.6481C373.289 91.5035 372.935 92.1979 372.226 92.7311C371.517 93.2584 370.588 93.5221 369.44 93.5221C368.66 93.5221 367.966 93.3815 367.357 93.1002C366.747 92.819 366.273 92.4323 365.933 91.9401C365.593 91.4479 365.423 90.9176 365.423 90.3492H367.497C367.527 90.8531 367.717 91.2428 368.069 91.5182C368.42 91.7877 368.886 91.9225 369.466 91.9225C370.028 91.9225 370.456 91.817 370.749 91.6061C371.042 91.3893 371.189 91.108 371.189 90.7623ZM379.959 88.5211C379.959 87.0563 380.299 85.8815 380.979 84.9967C381.659 84.1061 382.57 83.6608 383.712 83.6608C384.72 83.6608 385.535 84.0123 386.156 84.7155V79.8463H388.291V93.3463H386.358L386.252 92.3619C385.614 93.1354 384.761 93.5221 383.695 93.5221C382.581 93.5221 381.679 93.0739 380.988 92.1774C380.302 91.2809 379.959 90.0621 379.959 88.5211ZM382.095 88.7057C382.095 89.6725 382.28 90.4283 382.649 90.9733C383.024 91.5123 383.554 91.7819 384.24 91.7819C385.113 91.7819 385.751 91.3922 386.156 90.6129V86.5524C385.763 85.7906 385.13 85.4098 384.257 85.4098C383.566 85.4098 383.033 85.6852 382.658 86.236C382.283 86.7809 382.095 87.6041 382.095 88.7057ZM395.067 93.5221C393.714 93.5221 392.615 93.0973 391.772 92.2477C390.934 91.3922 390.515 90.2555 390.515 88.8375V88.5739C390.515 87.6246 390.696 86.778 391.06 86.0338C391.429 85.2838 391.944 84.7008 392.607 84.2848C393.269 83.8688 394.007 83.6608 394.821 83.6608C396.116 83.6608 397.115 84.0739 397.818 84.9C398.527 85.7262 398.882 86.8951 398.882 88.4069V89.2682H392.668C392.733 90.0533 392.993 90.6744 393.45 91.1315C393.913 91.5885 394.493 91.817 395.191 91.817C396.169 91.817 396.966 91.4215 397.581 90.6305L398.733 91.7291C398.352 92.2975 397.842 92.7399 397.203 93.0563C396.57 93.3668 395.858 93.5221 395.067 93.5221ZM394.813 85.3746C394.227 85.3746 393.752 85.5797 393.389 85.9899C393.031 86.4 392.803 86.9713 392.703 87.7037H396.773V87.5455C396.726 86.8307 396.535 86.2916 396.201 85.9283C395.867 85.5592 395.404 85.3746 394.813 85.3746ZM406.501 93.3463V85.4186H405.051V83.8365H406.501V82.9664C406.501 81.9117 406.794 81.0973 407.38 80.5231C407.966 79.9489 408.786 79.6617 409.841 79.6617C410.216 79.6617 410.615 79.7145 411.036 79.8199L410.984 81.4899C410.749 81.443 410.477 81.4196 410.166 81.4196C409.147 81.4196 408.637 81.944 408.637 82.9928V83.8365H410.571V85.4186H408.637V93.3463H406.501ZM418.173 93.3463C418.079 93.1647 417.997 92.8688 417.927 92.4586C417.247 93.1676 416.415 93.5221 415.431 93.5221C414.476 93.5221 413.696 93.2496 413.093 92.7047C412.489 92.1598 412.188 91.486 412.188 90.6832C412.188 89.6696 412.562 88.8932 413.312 88.3541C414.068 87.8092 415.146 87.5367 416.547 87.5367H417.856V86.9127C417.856 86.4205 417.719 86.028 417.443 85.735C417.168 85.4362 416.749 85.2867 416.187 85.2867C415.7 85.2867 415.302 85.4098 414.991 85.6559C414.681 85.8961 414.525 86.2037 414.525 86.5787H412.39C412.39 86.0573 412.562 85.5709 412.908 85.1198C413.254 84.6627 413.723 84.3053 414.314 84.0475C414.912 83.7897 415.577 83.6608 416.31 83.6608C417.423 83.6608 418.311 83.942 418.973 84.5045C419.635 85.0612 419.975 85.8463 419.992 86.86V91.149C419.992 92.0045 420.112 92.6871 420.353 93.1969V93.3463H418.173ZM415.826 91.8082C416.248 91.8082 416.644 91.7057 417.013 91.5006C417.388 91.2955 417.669 91.0201 417.856 90.6744V88.8815H416.705C415.914 88.8815 415.319 89.0192 414.921 89.2946C414.522 89.5699 414.323 89.9596 414.323 90.4635C414.323 90.8737 414.458 91.2018 414.728 91.4479C415.003 91.6881 415.369 91.8082 415.826 91.8082ZM426.496 91.817C427.029 91.817 427.471 91.6617 427.823 91.3512C428.174 91.0406 428.362 90.6569 428.385 90.1998H430.398C430.375 90.7916 430.19 91.3453 429.844 91.861C429.499 92.3707 429.03 92.775 428.438 93.0739C427.846 93.3727 427.208 93.5221 426.522 93.5221C425.192 93.5221 424.137 93.0914 423.358 92.2301C422.579 91.3688 422.189 90.1793 422.189 88.6617V88.442C422.189 86.9948 422.576 85.8375 423.349 84.9703C424.123 84.0973 425.177 83.6608 426.513 83.6608C427.644 83.6608 428.564 83.9918 429.273 84.6539C429.988 85.3102 430.363 86.1744 430.398 87.2467H428.385C428.362 86.7018 428.174 86.2535 427.823 85.902C427.477 85.5504 427.035 85.3746 426.496 85.3746C425.804 85.3746 425.271 85.6266 424.896 86.1305C424.521 86.6285 424.331 87.3873 424.325 88.4069V88.7496C424.325 89.7809 424.509 90.5514 424.879 91.0612C425.254 91.5651 425.793 91.817 426.496 91.817ZM435.047 81.525V83.8365H436.726V85.4186H435.047V90.7272C435.047 91.0905 435.117 91.3541 435.258 91.5182C435.405 91.6764 435.662 91.7555 436.032 91.7555C436.278 91.7555 436.527 91.7262 436.779 91.6676V93.3199C436.292 93.4547 435.824 93.5221 435.372 93.5221C433.732 93.5221 432.911 92.6168 432.911 90.8063V85.4186H431.347V83.8365H432.911V81.525H435.047ZM444.486 92.4147C443.859 93.153 442.969 93.5221 441.814 93.5221C440.783 93.5221 440.001 93.2203 439.468 92.6168C438.94 92.0133 438.677 91.1403 438.677 89.9977V83.8365H440.812V89.9713C440.812 91.1783 441.313 91.7819 442.315 91.7819C443.352 91.7819 444.053 91.4098 444.416 90.6656V83.8365H446.552V93.3463H444.539L444.486 92.4147ZM454.066 85.7877C453.785 85.7408 453.495 85.7174 453.196 85.7174C452.217 85.7174 451.558 86.0924 451.218 86.8424V93.3463H449.083V83.8365H451.122L451.174 84.9C451.69 84.0739 452.405 83.6608 453.319 83.6608C453.624 83.6608 453.876 83.7018 454.075 83.7838L454.066 85.7877ZM461.194 93.3463C461.1 93.1647 461.018 92.8688 460.947 92.4586C460.268 93.1676 459.436 93.5221 458.451 93.5221C457.496 93.5221 456.717 93.2496 456.113 92.7047C455.51 92.1598 455.208 91.486 455.208 90.6832C455.208 89.6696 455.583 88.8932 456.333 88.3541C457.089 87.8092 458.167 87.5367 459.568 87.5367H460.877V86.9127C460.877 86.4205 460.739 86.028 460.464 85.735C460.189 85.4362 459.77 85.2867 459.207 85.2867C458.721 85.2867 458.322 85.4098 458.012 85.6559C457.701 85.8961 457.546 86.2037 457.546 86.5787H455.41C455.41 86.0573 455.583 85.5709 455.929 85.1198C456.275 84.6627 456.743 84.3053 457.335 84.0475C457.933 83.7897 458.598 83.6608 459.33 83.6608C460.444 83.6608 461.331 83.942 461.993 84.5045C462.655 85.0612 462.995 85.8463 463.013 86.86V91.149C463.013 92.0045 463.133 92.6871 463.373 93.1969V93.3463H461.194ZM458.847 91.8082C459.269 91.8082 459.664 91.7057 460.033 91.5006C460.408 91.2955 460.69 91.0201 460.877 90.6744V88.8815H459.726C458.935 88.8815 458.34 89.0192 457.942 89.2946C457.543 89.5699 457.344 89.9596 457.344 90.4635C457.344 90.8737 457.479 91.2018 457.748 91.4479C458.024 91.6881 458.39 91.8082 458.847 91.8082ZM469.516 91.817C470.05 91.817 470.492 91.6617 470.844 91.3512C471.195 91.0406 471.383 90.6569 471.406 90.1998H473.419C473.395 90.7916 473.211 91.3453 472.865 91.861C472.519 92.3707 472.051 92.775 471.459 93.0739C470.867 93.3727 470.228 93.5221 469.543 93.5221C468.213 93.5221 467.158 93.0914 466.379 92.2301C465.599 91.3688 465.21 90.1793 465.21 88.6617V88.442C465.21 86.9948 465.597 85.8375 466.37 84.9703C467.143 84.0973 468.198 83.6608 469.534 83.6608C470.665 83.6608 471.585 83.9918 472.294 84.6539C473.009 85.3102 473.384 86.1744 473.419 87.2467H471.406C471.383 86.7018 471.195 86.2535 470.844 85.902C470.498 85.5504 470.056 85.3746 469.516 85.3746C468.825 85.3746 468.292 85.6266 467.917 86.1305C467.542 86.6285 467.351 87.3873 467.346 88.4069V88.7496C467.346 89.7809 467.53 90.5514 467.899 91.0612C468.274 91.5651 468.813 91.817 469.516 91.817ZM477.664 93.3463H475.528V83.8365H477.664V93.3463ZM475.396 81.3668C475.396 81.0387 475.499 80.7662 475.704 80.5494C475.915 80.3326 476.213 80.2242 476.6 80.2242C476.987 80.2242 477.286 80.3326 477.497 80.5494C477.707 80.7662 477.813 81.0387 477.813 81.3668C477.813 81.6891 477.707 81.9586 477.497 82.1754C477.286 82.3864 476.987 82.4918 476.6 82.4918C476.213 82.4918 475.915 82.3864 475.704 82.1754C475.499 81.9586 475.396 81.6891 475.396 81.3668ZM479.957 88.5035C479.957 87.5719 480.142 86.734 480.511 85.9899C480.88 85.2399 481.399 84.6656 482.067 84.2672C482.734 83.8629 483.502 83.6608 484.369 83.6608C485.652 83.6608 486.693 84.0739 487.489 84.9C488.292 85.7262 488.726 86.8219 488.79 88.1871L488.799 88.6881C488.799 89.6256 488.617 90.4635 488.254 91.2018C487.897 91.9401 487.381 92.5114 486.707 92.9156C486.039 93.3199 485.266 93.5221 484.387 93.5221C483.045 93.5221 481.97 93.0768 481.161 92.1862C480.359 91.2897 479.957 90.0973 479.957 88.609V88.5035ZM482.093 88.6881C482.093 89.6666 482.295 90.4342 482.699 90.9908C483.104 91.5416 483.666 91.817 484.387 91.817C485.108 91.817 485.667 91.5358 486.066 90.9733C486.47 90.4108 486.672 89.5875 486.672 88.5035C486.672 87.5426 486.464 86.7809 486.048 86.2184C485.638 85.6559 485.078 85.3746 484.369 85.3746C483.672 85.3746 483.118 85.653 482.708 86.2096C482.298 86.7604 482.093 87.5865 482.093 88.6881ZM484.958 79.8463H487.393L484.958 82.5094H483.244L484.958 79.8463ZM492.947 83.8365L493.009 84.9352C493.712 84.0856 494.635 83.6608 495.777 83.6608C497.758 83.6608 498.765 84.7946 498.801 87.0621V93.3463H496.665V87.1852C496.665 86.5817 496.533 86.1364 496.269 85.8492C496.011 85.5563 495.587 85.4098 494.995 85.4098C494.134 85.4098 493.492 85.7994 493.07 86.5787V93.3463H490.934V83.8365H492.947Z" fill="#BBBBBB"/>
</svg>
