<svg width="22" height="29" viewBox="0 0 22 29" fill="none" xmlns="http://www.w3.org/2000/svg">
<path d="M12.8074 0.525146H0.540527V28.3148H21.9697V9.08164H12.8074V0.525146Z" fill="#69A7DB"/>
<path d="M14.625 7.34006V0.525146L21.9701 7.34006H14.625Z" fill="#69A7DB"/>
<path d="M7.70961 20.1453C7.75578 20.0145 7.81011 19.8656 7.8715 19.703M10.0685 15.4275C11.2073 14.1667 10.4752 11.4012 10.5159 11.0351C10.5565 10.6691 8.15699 12.9873 10.0685 15.4275ZM10.0685 15.4275C10.7463 16.4172 12.159 18.4046 12.3867 18.4372C12.6714 18.4778 13.1595 20.43 17.0638 20.1453C20.9682 19.8606 13.8509 17.7864 12.1834 18.8032C10.5159 19.82 10.8412 19.1286 7.18089 20.7554C3.52054 22.3822 4.41537 23.4803 4.33403 23.8057C4.25269 24.131 7.70961 22.2602 7.70961 21.2028C7.70961 20.3568 7.81754 19.8504 7.8715 19.703M10.0685 15.4275C9.26089 16.3217 8.35099 18.4325 7.8715 19.703" stroke="white"/>
</svg>
