<svg width="24" height="24" viewBox="0 0 24 24" fill="none" xmlns="http://www.w3.org/2000/svg">
<path d="M0.782227 0.401001H18.7822C21.5437 0.401001 23.7822 2.63958 23.7822 5.401V18.401C23.7822 21.1624 21.5437 23.401 18.7822 23.401H0.782227V0.401001Z" fill="#2267A0"/>
<rect x="5.56348" y="10.2467" width="13.2224" height="8.83635" fill="white"/>
<path d="M12.8486 13.8795H14.9639V15.4088H12.8486V17.7994H11.2373V15.4088H9.11621V13.8795H11.2373V11.5885H12.8486V13.8795Z" fill="#2267A0"/>
<path d="M5.56348 7.51477C5.56348 6.96249 6.01119 6.51477 6.56348 6.51477H17.7859C18.3382 6.51477 18.7859 6.96249 18.7859 7.51477V8.80093H5.56348V7.51477Z" fill="white"/>
<rect x="8.52832" y="5.1178" width="1.37251" height="1.39697" fill="white"/>
<rect x="14.4097" y="5.1178" width="1.37251" height="1.39697" fill="white"/>
</svg>
