<svg width="22" height="29" viewBox="0 0 22 29" fill="none" xmlns="http://www.w3.org/2000/svg">
<path d="M12.6389 0.254517H0.37207V28.0442H21.8012V8.81101H12.6389V0.254517Z" fill="#57DA1A"/>
<path d="M14.4561 7.06943V0.254517L21.8011 7.06943H14.4561Z" fill="#57DA1A"/>
<path d="M7.54067 19.8747C7.58683 19.7439 7.64117 19.595 7.70256 19.4324M9.89956 15.1569C11.0383 13.8961 10.3063 11.1305 10.3469 10.7645C10.3876 10.3985 7.98804 12.7167 9.89956 15.1569ZM9.89956 15.1569C10.5774 16.1465 11.99 18.134 12.2178 18.1665C12.5025 18.2072 12.9905 20.1594 16.8949 19.8747C20.7993 19.59 13.6819 17.5158 12.0144 18.5326C10.3469 19.5493 10.6723 18.8579 7.01194 20.4847C3.35159 22.1116 4.24642 23.2097 4.16508 23.535C4.08374 23.8604 7.54067 21.9896 7.54067 20.9321C7.54067 20.0862 7.64859 19.5798 7.70256 19.4324M9.89956 15.1569C9.09194 16.051 8.18204 18.1619 7.70256 19.4324" stroke="white"/>
</svg>
