<svg width="27" height="31" viewBox="0 0 27 31" fill="none" xmlns="http://www.w3.org/2000/svg">
<path d="M21.3705 16.2299H25.84V21.9918V27.7538C25.8939 28.3462 25.5386 29.6063 23.6861 29.9078C23.617 29.9191 23.5335 29.9296 23.4365 29.9396C20.9322 30.1963 9.41228 30.0288 3.76154 29.9078C2.91785 29.7642 1.23047 29.1324 1.23047 27.7538V2.12109L3.76154 3.95198L5.69997 2.12109L7.63858 3.95198L9.46949 2.12109L11.3542 3.95198L13.4006 2.12109L15.1776 3.95198L17.0085 2.12109L19.0548 4.22123L21.3705 2.12109V16.2299Z" fill="#ECF7FF"/>
<path d="M21.3705 16.2299H25.84V21.9918V27.7538C25.8939 28.3462 25.5386 29.6063 23.6861 29.9078C23.617 29.9191 23.5335 29.9296 23.4365 29.9396M23.4365 29.9396C20.9322 30.1963 9.41228 30.0288 3.76154 29.9078C2.91785 29.7642 1.23047 29.1324 1.23047 27.7538C1.23047 26.3752 1.23047 10.0909 1.23047 2.12109L3.76154 3.95198L5.69997 2.12109L7.63858 3.95198L9.46949 2.12109L11.3542 3.95198L13.4006 2.12109L15.1776 3.95198L17.0085 2.12109L19.0548 4.22123L21.3705 2.12109V27.7538C21.3478 28.493 21.7292 29.965 23.4365 29.9396Z" stroke="#92A7BF"/>
<path d="M21.5327 16.6951H25.4127V27.5788C25.4127 28.6502 24.5442 29.5188 23.4727 29.5188V29.5188C22.4013 29.5188 21.5327 28.6502 21.5327 27.5788V16.6951Z" fill="#91B3D0"/>
<path d="M9.07568 11.8696H6.60156V10.8457H9.07568V11.8696ZM13.0791 12.4146C13.0791 12.1743 13.0117 11.9839 12.877 11.8433C12.7451 11.6997 12.5195 11.5679 12.2002 11.4478C11.8809 11.3276 11.6055 11.209 11.374 11.0918C11.1426 10.9717 10.9434 10.8354 10.7764 10.6831C10.6123 10.5278 10.4834 10.3462 10.3896 10.1382C10.2988 9.93018 10.2534 9.68262 10.2534 9.39551C10.2534 8.90039 10.4116 8.49463 10.728 8.17822C11.0444 7.86182 11.4648 7.67725 11.9893 7.62451V6.68408H12.6924V7.6377C13.2109 7.71094 13.6167 7.92773 13.9097 8.28809C14.2026 8.64551 14.3491 9.10986 14.3491 9.68115H13.0791C13.0791 9.32959 13.0059 9.06738 12.8594 8.89453C12.7158 8.71875 12.5225 8.63086 12.2793 8.63086C12.0391 8.63086 11.853 8.69971 11.7212 8.8374C11.5894 8.97217 11.5234 9.15967 11.5234 9.3999C11.5234 9.62256 11.5879 9.80127 11.7168 9.93604C11.8457 10.0708 12.0845 10.2085 12.4331 10.3491C12.7847 10.4897 13.0732 10.623 13.2988 10.749C13.5244 10.8721 13.7148 11.0127 13.8701 11.1709C14.0254 11.3262 14.144 11.5049 14.2261 11.707C14.3081 11.9062 14.3491 12.1392 14.3491 12.4058C14.3491 12.9038 14.1938 13.3081 13.8833 13.6187C13.5728 13.9292 13.145 14.1123 12.6001 14.168V15.0425H11.9014V14.1724C11.3008 14.1079 10.835 13.8955 10.5039 13.5352C10.1758 13.1719 10.0117 12.6899 10.0117 12.0894H11.2817C11.2817 12.438 11.3638 12.7061 11.5278 12.8936C11.6948 13.0781 11.9336 13.1704 12.2441 13.1704C12.502 13.1704 12.7056 13.103 12.855 12.9683C13.0044 12.8306 13.0791 12.646 13.0791 12.4146ZM17.7329 11.8696H15.2588V10.8457H17.7329V11.8696Z" fill="#92A7BF"/>
<line x1="8.78613" y1="17.4052" x2="18.2897" y2="17.4052" stroke="#92A7BF"/>
<line x1="6.11816" y1="17.4052" x2="7.11816" y2="17.4052" stroke="#92A7BF"/>
<line x1="6.11816" y1="24.7258" x2="7.11816" y2="24.7258" stroke="#92A7BF"/>
<line x1="6.11816" y1="21.0248" x2="7.11816" y2="21.0248" stroke="#92A7BF"/>
<line x1="8.78613" y1="24.7258" x2="18.2897" y2="24.7258" stroke="#92A7BF"/>
<line x1="8.78613" y1="21.0248" x2="18.2897" y2="21.0248" stroke="#92A7BF"/>
</svg>
