<svg width="26" height="28" viewBox="0 0 26 28" fill="none" xmlns="http://www.w3.org/2000/svg">
<path d="M0.676758 10.4275H25.4863V24.4373C25.4863 26.0942 24.1432 27.4373 22.4863 27.4373H3.67676C2.0199 27.4373 0.676758 26.0942 0.676758 24.4373V10.4275Z" fill="#4F4F4F"/>
<rect x="3.95605" y="13.2764" width="4" height="4" fill="#F7F7F7"/>
<rect x="18.1533" y="20.2771" width="4" height="4" fill="#F7F7F7"/>
<rect x="18.1533" y="13.2764" width="4" height="4" fill="#F7F7F7"/>
<rect x="3.95605" y="20.2771" width="4" height="4" fill="#F7F7F7"/>
<rect x="11.0547" y="20.2771" width="4" height="4" fill="#F7F7F7"/>
<rect x="11.0547" y="13.2764" width="4" height="4" fill="#F7F7F7"/>
<path d="M0.676758 6.2887C0.676758 4.63184 2.0199 3.2887 3.67676 3.2887H22.4863C24.1432 3.2887 25.4863 4.63184 25.4863 6.2887V8.31232H0.676758V6.2887Z" fill="#4F4F4F"/>
<rect x="5.95605" y="0.292236" width="3.7987" height="2.99646" fill="#4F4F4F"/>
<rect x="16.3545" y="0.292236" width="3.7987" height="2.99646" fill="#4F4F4F"/>
</svg>
