<svg width="36" height="26" viewBox="0 0 36 26" fill="none" xmlns="http://www.w3.org/2000/svg">
<rect x="0.427734" y="0.246582" width="34.7556" height="25.2364" rx="3" fill="#4F4F4F"/>
<line x1="24.7373" y1="15.1116" x2="31.7147" y2="15.1116" stroke="#F7F7F7" stroke-width="2"/>
<line x1="15.7353" y1="10.1346" x2="31.7143" y2="10.1346" stroke="#F7F7F7" stroke-width="2"/>
<line x1="15.7354" y1="15.1116" x2="22.7127" y2="15.1116" stroke="#F7F7F7" stroke-width="2"/>
<path d="M10.1348 14.0851C10.1348 13.7648 10.0449 13.5109 9.86523 13.3234C9.68945 13.132 9.38867 12.9562 8.96289 12.796C8.53711 12.6359 8.16992 12.4777 7.86133 12.3214C7.55273 12.1613 7.28711 11.9796 7.06445 11.7765C6.8457 11.5695 6.67383 11.3273 6.54883 11.0499C6.42773 10.7726 6.36719 10.4425 6.36719 10.0597C6.36719 9.39954 6.57812 8.85852 7 8.43665C7.42188 8.01477 7.98242 7.76868 8.68164 7.69836V6.44446H9.61914V7.71594C10.3105 7.8136 10.8516 8.10266 11.2422 8.58313C11.6328 9.05969 11.8281 9.67883 11.8281 10.4406H10.1348C10.1348 9.9718 10.0371 9.62219 9.8418 9.39172C9.65039 9.15735 9.39258 9.04016 9.06836 9.04016C8.74805 9.04016 8.5 9.13196 8.32422 9.31555C8.14844 9.49524 8.06055 9.74524 8.06055 10.0656C8.06055 10.3624 8.14648 10.6007 8.31836 10.7804C8.49023 10.9601 8.80859 11.1437 9.27344 11.3312C9.74219 11.5187 10.127 11.6964 10.4277 11.8644C10.7285 12.0284 10.9824 12.2159 11.1895 12.4269C11.3965 12.6339 11.5547 12.8722 11.6641 13.1417C11.7734 13.4073 11.8281 13.7179 11.8281 14.0734C11.8281 14.7374 11.6211 15.2765 11.207 15.6906C10.793 16.1046 10.2227 16.3488 9.49609 16.423V17.589H8.56445V16.4288C7.76367 16.3429 7.14258 16.0597 6.70117 15.5792C6.26367 15.0948 6.04492 14.4523 6.04492 13.6515H7.73828C7.73828 14.1163 7.84766 14.4738 8.06641 14.7238C8.28906 14.9698 8.60742 15.0929 9.02148 15.0929C9.36523 15.0929 9.63672 15.0031 9.83594 14.8234C10.0352 14.6398 10.1348 14.3937 10.1348 14.0851Z" fill="#F7F7F7"/>
</svg>
