<svg width="890" height="656" viewBox="0 0 890 656" fill="none" xmlns="http://www.w3.org/2000/svg">
<path d="M81.748 589.261L61.5898 602.959L88.8406 643.061L70.7554 655.35L0.0295401 551.271L36.6289 526.4C48.6381 518.24 59.7368 514.634 69.9249 515.582C80.113 516.531 88.6722 522.104 95.6023 532.302C100.33 539.26 102.605 546.247 102.428 553.265C102.266 560.202 100.04 566.973 95.7521 573.579L148.612 601.085L149.244 602.015L129.872 615.179L81.748 589.261ZM51.729 588.448L70.3146 575.818C76.4145 571.673 80.1438 566.91 81.5024 561.528C82.8287 556.099 81.6783 550.716 78.0513 545.378C74.2625 539.802 69.7353 536.575 64.4698 535.694C59.252 534.782 53.4655 536.415 47.1102 540.594L28.0242 553.564L51.729 588.448ZM191.369 505.469L148.622 534.517L170.384 566.542L220.351 532.588L230.163 547.027L162.111 593.271L91.385 489.192L158.937 443.288L168.846 457.87L119.38 491.485L138.907 520.221L181.654 491.173L191.369 505.469ZM301.281 449.17C307.778 460.987 309.574 472.445 306.668 483.545C303.729 494.598 296.327 504.156 284.461 512.22C276.169 517.854 267.526 520.871 258.532 521.271C249.554 521.59 240.888 519.294 232.534 514.382C224.181 509.47 216.678 502.273 210.026 492.791L203.42 483.069C196.749 473.252 192.611 463.421 191.005 453.575C189.4 443.729 190.461 434.579 194.19 426.124C197.966 417.637 204.119 410.495 212.65 404.698C224.135 396.893 235.501 393.732 246.749 395.215C257.996 396.697 268.062 402.745 276.945 413.357L258.931 425.598C252.989 418.699 247.138 414.804 241.377 413.912C235.631 412.94 229.375 414.754 222.608 419.352C214.745 424.695 210.652 431.691 210.329 440.34C210.021 448.908 213.592 458.776 221.042 469.945L227.308 479.166C234.951 490.413 242.782 497.631 250.8 500.82C258.866 503.977 266.784 502.916 274.551 497.637C281.652 492.812 285.905 487.589 287.309 481.967C288.714 476.345 287.366 469.493 283.268 461.411L301.281 449.17ZM423.167 415.874L405.154 428.115L373.725 381.865L327.19 413.488L358.618 459.737L340.533 472.027L269.807 367.947L287.892 355.658L317.329 398.977L363.865 367.354L334.428 324.035L352.442 311.794L423.167 415.874ZM487.691 336.605L447.374 364.001L455.406 393.966L436.606 406.741L405.196 275.945L421.423 264.919L531.536 342.233L512.664 355.057L487.691 336.605ZM442.54 345.97L472.706 325.471L428.284 292.545L442.54 345.97ZM550.603 308.169L606.217 270.378L616.029 284.817L538.541 337.473L530.575 325.75L531.552 211.399L478.082 247.733L468.173 233.15L543.588 181.903L551.36 193.341L550.603 308.169ZM674.405 209.726L634.088 237.122L642.12 267.087L623.32 279.862L591.91 149.066L608.137 138.04L718.25 215.354L699.378 228.178L674.405 209.726ZM629.254 219.091L659.42 198.592L614.998 165.666L629.254 219.091ZM730.116 207.291L659.39 103.211L690.128 82.3238C699.326 76.0738 708.867 72.5853 718.753 71.8585C728.686 71.0994 738.165 73.1568 747.189 78.0309C756.214 82.905 764.029 90.203 770.635 99.9247L774.181 105.143C780.885 115.008 784.801 125.025 785.93 135.195C787.106 145.332 785.425 154.903 780.886 163.909C776.395 172.882 769.456 180.558 760.068 186.938L730.116 207.291ZM687.385 105.504L738.389 180.562L750.184 172.547C759.667 166.102 764.927 158.209 765.963 148.867C767.014 139.445 763.815 129.15 756.365 117.981L752.43 112.191C744.755 100.897 736.439 93.9391 727.483 91.3177C718.526 88.6963 709.378 90.5592 700.037 96.9064L687.385 105.504ZM875.307 36.5288C882.237 46.727 886.562 56.8844 888.282 67.001C889.969 77.0699 888.933 86.4119 885.174 95.0268C881.43 103.562 875.293 110.728 866.763 116.524C858.328 122.256 849.406 125.324 839.997 125.727C830.603 126.049 821.504 123.629 812.701 118.465C803.945 113.269 796.16 105.707 789.344 95.7797L785.361 89.9181C778.463 79.7675 774.162 69.5939 772.458 59.3973C770.801 49.1683 771.844 39.7863 775.588 31.2514C779.347 22.6365 785.468 15.4468 793.951 9.68255C802.434 3.91827 811.332 0.867031 820.646 0.528843C829.975 0.110617 839.033 2.52338 847.821 7.76714C856.577 12.9632 864.427 20.6204 871.372 30.7386L875.307 36.5288ZM853.53 43.3856C845.693 31.853 837.494 24.5026 828.932 21.3343C820.418 18.1337 812.158 19.2536 804.152 24.694C796.336 30.0049 792.301 37.24 792.047 46.3992C791.808 55.4784 795.445 65.6499 802.96 76.9137L807.041 82.9183C814.813 94.3556 823.036 101.69 831.71 104.921C840.432 108.12 848.748 107.031 856.659 101.656C864.665 96.2153 868.74 88.9878 868.884 79.9734C869.076 70.9266 865.188 60.5416 857.222 48.8183L853.53 43.3856Z" fill="#FF0000" fill-opacity="0.6"/>
</svg>
