<svg width="15" height="16" viewBox="0 0 15 16" fill="none" xmlns="http://www.w3.org/2000/svg">
<path d="M9.65893 2.21812C10.5501 3.11033 11.1078 4.28147 11.2389 5.53564C11.3699 6.78982 11.0663 8.05096 10.3789 9.10812C10.4989 9.20812 10.5989 9.31812 10.7389 9.41812C10.9389 9.57812 11.2089 9.77812 11.5489 10.0081C11.8889 10.2481 12.1089 10.3981 12.2089 10.4781C12.6289 10.7881 12.9389 11.0481 13.1489 11.2581C13.4689 11.5781 13.7489 11.9081 13.9889 12.2581C14.2389 12.6081 14.4289 12.9481 14.5789 13.2981C14.7189 13.6481 14.7889 13.9781 14.7589 14.2981C14.7389 14.6181 14.6189 14.8881 14.3989 15.1081C14.1789 15.3281 13.9089 15.4481 13.5889 15.4681C13.2789 15.4881 12.9389 15.4281 12.5989 15.2781C12.2489 15.1381 11.8989 14.9381 11.5589 14.6881C11.2089 14.4481 10.8789 14.1681 10.5589 13.8481C10.3489 13.6381 10.0889 13.3281 9.78893 12.9181C9.68893 12.7881 9.53893 12.5681 9.31893 12.2581C9.09893 11.9381 8.91893 11.6881 8.75893 11.4781C8.59893 11.2781 8.46893 11.1281 8.31893 10.9781C7.28097 11.5216 6.09664 11.7196 4.93834 11.5434C3.78004 11.3671 2.70823 10.8258 1.87893 9.99812C-0.261074 7.84812 -0.261074 4.35812 1.87893 2.21812C2.38955 1.70689 2.99593 1.30132 3.66341 1.02461C4.33089 0.747897 5.04636 0.605469 5.76893 0.605469C6.49149 0.605469 7.20696 0.747897 7.87444 1.02461C8.54192 1.30132 9.1483 1.70689 9.65893 2.21812ZM8.24893 8.57812C8.90221 7.92006 9.26883 7.0304 9.26883 6.10312C9.26883 5.17585 8.90221 4.28619 8.24893 3.62812C7.92425 3.30248 7.53851 3.04412 7.1138 2.86783C6.68909 2.69154 6.23377 2.6008 5.77393 2.6008C5.31408 2.6008 4.85876 2.69154 4.43405 2.86783C4.00935 3.04412 3.6236 3.30248 3.29893 3.62812C2.97329 3.9528 2.71492 4.33854 2.53863 4.76325C2.36234 5.18796 2.2716 5.64328 2.2716 6.10312C2.2716 6.56297 2.36234 7.01829 2.53863 7.443C2.71492 7.8677 2.97329 8.25345 3.29893 8.57812C3.6236 8.90376 4.00935 9.16213 4.43405 9.33842C4.85876 9.51471 5.31408 9.60545 5.77393 9.60545C6.23377 9.60545 6.68909 9.51471 7.1138 9.33842C7.53851 9.16213 7.92425 8.90376 8.24893 8.57812Z" fill="#C7C7C7"/>
</svg>
