<svg width="1900" height="700" viewBox="0 0 1900 700" fill="none" xmlns="http://www.w3.org/2000/svg">
<g clip-path="url(#clip0)">
<rect width="1900" height="700" rx="50" fill="url(#paint0_linear)"/>
<line x1="1308.5" y1="-0.00357653" x2="1309.5" y2="699.996" stroke="white" stroke-width="5" stroke-dasharray="20 20"/>
<g filter="url(#filter0_d)">
<path d="M459 357.116C455.4 353.116 452.167 329.116 451 317.616L326.5 316.616C316.1 328.216 307.833 331.449 305 331.616C300.2 332.816 298.333 321.116 298 315.116C228.333 313.282 88.7 309.616 87.5 309.616C86.3 309.616 83.3333 307.616 82 306.616C89.6 295.816 108.167 289.116 116.5 287.116L437.5 280.116L426.5 256.616H419C418.2 256.616 418.667 252.949 419 251.116L285.5 247.616C286.7 244.016 301 235.116 308 231.116C312.8 228.316 397 221.949 438.5 219.116C462.5 195.916 482.167 195.449 489 198.116L469.5 221.616L546.5 242.616C551.7 249.816 546 253.949 542.5 255.116L488 252.116L510 277.116L670.5 272.616C677.7 263.816 694.167 259.616 701.5 258.616L1107.5 38.1156C1141.5 20.9156 1190.33 31.949 1210.5 39.6156L1229.5 52.1156L1253 55.6156C1317 66.0156 1300.67 111.949 1284.5 133.616C1275.3 150.816 1198 195.449 1160.5 215.616L1020 280.116L1086 287.116C1133.6 261.916 1155.5 282.949 1160.5 296.616L1217 305.116L1198.5 317.116L1168.5 318.616C1169 329.616 1163.5 336.116 1163.5 338.116C1140.3 371.716 1085.17 378.449 1060.5 377.616L1022 382.116C1007.2 379.716 1007.17 368.449 1009 363.116L1015.5 354.616C991.9 357.816 963.333 342.282 952 334.116C946.4 335.316 896.667 338.282 872.5 339.616L675 413.116C605.5 448.116 482 432.616 479 432.616C435 430.616 455.667 410.116 471.5 400.116L459 357.116Z" fill="white" fill-opacity="0.66" shape-rendering="crispEdges"/>
</g>
<circle cx="1595" cy="350" r="240" stroke="#1493F7" stroke-width="20"/>
<path d="M1368.29 380.263L1372.65 398.772L1388.98 400.95C1392.61 399.498 1401.39 394.199 1407.49 384.618C1415.11 372.642 1427.09 398.772 1423.82 400.95C1421.21 402.692 1429.99 412.564 1434.71 417.282L1453.22 429.258C1469.77 445.808 1456.48 450.671 1447.77 451.034C1443.42 446.679 1433.62 455.026 1429.26 459.744C1423.84 478.002 1428.4 493.861 1435.56 505.696C1441.12 512.074 1447 518.532 1453.22 525.071C1637.88 650.498 1762.43 519.264 1801.63 437.968L1783.12 440.146C1783.85 445.59 1785.3 457.131 1785.3 459.744C1785.3 463.01 1790.74 466.277 1775.5 470.632C1763.3 474.116 1758.08 453.211 1756.99 442.324C1757.71 438.694 1758.73 428.605 1756.99 417.282C1754.81 403.127 1703.64 366.109 1698.19 382.441C1693.84 395.506 1711.62 406.757 1721.06 410.749H1726.5C1742.18 412.491 1733.04 420.185 1726.5 423.814L1701.46 429.258C1701.46 445.808 1692.02 441.235 1687.31 436.88C1686.22 434.702 1682.08 427.081 1674.24 414.015C1664.44 397.684 1674.24 384.618 1678.6 368.286C1682.95 351.955 1674.24 345.422 1656.82 337.801C1639.4 330.179 1642.67 323.646 1636.13 310.581C1630.91 300.129 1615.81 306.226 1608.91 310.581C1598.46 328.002 1586.41 329.453 1581.69 328.002C1554.69 316.678 1568.99 297.153 1579.52 288.805H1600.2C1608.19 289.168 1622.85 288.152 1617.62 281.184C1611.09 272.474 1639.4 277.918 1639.4 280.095C1639.4 281.837 1651.01 287.354 1656.82 289.894H1667.71C1679.03 289.894 1681.86 283.362 1681.86 280.095L1674.24 265.941C1672.43 265.578 1669.45 263.328 1672.06 257.231C1675.33 249.609 1665.53 232.189 1659 240.899C1653.77 247.867 1640.13 255.416 1633.96 258.32C1612.18 261.586 1618.71 231.1 1633.96 232.189C1649.2 233.278 1670.97 224.567 1672.06 222.39C1673.15 220.212 1675.33 218.035 1687.31 215.857C1696.89 214.115 1707.27 220.938 1711.26 224.567C1712.71 231.1 1715.18 245.254 1713.44 249.609C1711.7 253.964 1717.79 257.231 1721.06 258.32C1733.4 257.594 1758.29 256.36 1759.17 257.231C1760.25 258.32 1785.3 252.876 1779.85 247.432C1775.5 243.077 1781.67 230.374 1785.3 224.567C1811.85 278.912 1852.3 397.673 1801.63 437.968C1762.43 519.264 1637.88 650.498 1453.22 525.071C1448.03 521.453 1441.03 514.752 1435.56 505.696C1311.11 363.016 1346.81 260.725 1423.13 195.93C1425.52 193.246 1427.81 191.023 1429.26 189.726C1429.42 189.963 1429.59 190.208 1429.78 190.459C1473.07 155.931 1527.65 132.766 1573.52 120.481C1573.99 120.085 1574.53 119.918 1575.16 120.044C1574.62 120.188 1574.07 120.334 1573.52 120.481C1569.96 123.495 1570.81 139.769 1570.81 140.731C1570.81 141.82 1572.98 152.708 1575.16 159.241C1577.34 165.773 1574.07 177.75 1569.72 177.75C1565.36 177.75 1563.19 185.371 1557.74 189.726C1553.39 193.211 1554.47 197.711 1555.56 199.525C1557.74 202.429 1563.62 210.196 1569.72 218.035C1577.34 227.834 1574.07 235.455 1562.1 237.633C1550.12 239.81 1555.56 237.633 1541.41 238.722C1530.09 239.593 1530.88 229.648 1532.7 224.567C1533.43 223.116 1535.53 218.035 1538.14 209.325C1540.76 200.614 1535.6 199.163 1532.7 199.525H1509.83C1496.77 197.348 1498.42 206.058 1497.86 206.058C1501.34 219.124 1495.68 231.1 1492.41 235.455C1494.59 244.165 1459.75 241.988 1466.28 221.301C1471.51 204.752 1463.38 199.888 1458.66 199.525C1444.5 204.524 1433.86 195.976 1429.78 190.459C1427.53 192.252 1425.32 194.075 1423.13 195.93C1420.17 199.256 1417.04 203.29 1415.11 207.147C1410.76 215.857 1423.82 209.325 1429.26 223.479C1434.71 237.633 1411.84 251.787 1407.49 246.343C1403.13 240.899 1380.27 261.586 1393.34 285.539C1406.4 309.492 1402.05 329.09 1393.34 331.268C1386.37 333.01 1383.17 340.704 1382.45 344.333C1393.77 361.754 1377.73 375.545 1368.29 380.263Z" fill="#1493F7"/>
<path d="M1575.16 120.044C1569.72 118.956 1570.81 139.643 1570.81 140.731C1570.81 141.82 1572.98 152.708 1575.16 159.241C1577.34 165.773 1574.07 177.75 1569.72 177.75C1565.36 177.75 1563.19 185.371 1557.74 189.726C1553.39 193.211 1554.47 197.711 1555.56 199.525C1557.74 202.429 1563.62 210.196 1569.72 218.035C1577.34 227.834 1574.07 235.455 1562.1 237.633C1550.12 239.81 1555.56 237.633 1541.41 238.722C1530.09 239.593 1530.88 229.648 1532.7 224.567C1533.43 223.116 1535.53 218.035 1538.14 209.325C1540.76 200.614 1535.6 199.163 1532.7 199.525H1509.83C1496.77 197.348 1498.42 206.058 1497.86 206.058C1501.34 219.124 1495.68 231.1 1492.41 235.455C1494.59 244.165 1459.75 241.988 1466.28 221.301C1471.51 204.752 1463.38 199.888 1458.66 199.525C1443.85 204.752 1432.89 195.17 1429.26 189.726C1426 192.63 1418.59 200.179 1415.11 207.147C1410.76 215.857 1423.82 209.324 1429.26 223.479C1434.71 237.633 1411.84 251.787 1407.49 246.343C1403.13 240.899 1380.27 261.586 1393.34 285.539C1406.4 309.492 1402.05 329.09 1393.34 331.268C1386.37 333.01 1383.17 340.704 1382.45 344.333C1393.77 361.754 1377.73 375.545 1368.29 380.263L1372.65 398.772L1388.98 400.95C1392.61 399.498 1401.39 394.199 1407.49 384.618C1415.11 372.642 1427.09 398.772 1423.82 400.95C1421.21 402.692 1429.99 412.564 1434.71 417.282L1453.22 429.258C1469.77 445.808 1456.48 450.671 1447.77 451.034C1443.42 446.679 1433.62 455.026 1429.26 459.744C1419.68 491.972 1441.24 516.724 1453.22 525.071M1575.16 120.044C1579.52 120.916 1599.48 120.407 1608.91 120.044M1575.16 120.044C1440.04 155.631 1226.49 286.457 1453.22 525.071M1801.63 437.968L1783.12 440.146C1783.85 445.59 1785.3 457.131 1785.3 459.744C1785.3 463.01 1790.74 466.277 1775.5 470.632C1763.3 474.116 1758.08 453.211 1756.99 442.324C1757.71 438.694 1758.73 428.605 1756.99 417.282C1754.81 403.127 1703.64 366.109 1698.19 382.441C1693.84 395.506 1711.62 406.757 1721.06 410.749H1726.5C1742.18 412.491 1733.04 420.185 1726.5 423.814L1701.46 429.258C1701.46 445.808 1692.02 441.235 1687.31 436.88C1686.22 434.702 1682.08 427.081 1674.24 414.015C1664.44 397.684 1674.24 384.618 1678.6 368.286C1682.95 351.955 1674.24 345.422 1656.82 337.801C1639.4 330.179 1642.67 323.646 1636.13 310.581C1630.91 300.129 1615.81 306.226 1608.91 310.581C1598.46 328.002 1586.41 329.453 1581.69 328.002C1554.69 316.678 1568.99 297.153 1579.52 288.805H1600.2C1608.19 289.168 1622.85 288.152 1617.62 281.184C1611.09 272.474 1639.4 277.918 1639.4 280.095C1639.4 281.837 1651.01 287.354 1656.82 289.894C1655.73 289.894 1656.38 289.894 1667.71 289.894C1679.03 289.894 1681.86 283.362 1681.86 280.095L1674.24 265.941C1672.43 265.578 1669.45 263.328 1672.06 257.231C1675.33 249.609 1665.53 232.189 1659 240.899C1653.77 247.867 1640.13 255.416 1633.96 258.32C1612.18 261.586 1618.71 231.1 1633.96 232.189C1649.2 233.278 1670.97 224.567 1672.06 222.39C1673.15 220.212 1675.33 218.035 1687.31 215.857C1696.89 214.115 1707.27 220.938 1711.26 224.567C1712.71 231.1 1715.18 245.254 1713.44 249.609C1711.7 253.964 1717.79 257.231 1721.06 258.32C1733.4 257.594 1758.29 256.36 1759.17 257.231C1760.25 258.32 1785.3 252.876 1779.85 247.432C1775.5 243.077 1781.67 230.374 1785.3 224.567C1811.85 278.912 1852.3 397.673 1801.63 437.968ZM1801.63 437.968C1762.43 519.264 1637.88 650.498 1453.22 525.071" stroke="#1493F7" stroke-width="20"/>
<path d="M1553.64 533.748C1556.12 555.297 1576.77 552.396 1586.79 548.252C1586.79 545.766 1601.29 531.331 1608.54 524.425C1616.83 519.245 1633.41 505.984 1633.41 494.381C1633.41 482.778 1641.7 476.424 1645.84 474.697L1673.81 465.373C1675.54 464.683 1678.99 462.265 1678.99 458.122C1678.99 453.978 1660.34 443.963 1651.02 439.474C1646.53 430.15 1637.97 410.259 1639.62 405.286C1641.7 399.07 1638.59 396.998 1637.55 389.747C1636.52 382.495 1591.97 370.063 1584.72 369.027C1578.91 368.198 1557.44 356.25 1547.42 350.379C1536.02 346.235 1517.38 377.315 1518.41 382.495C1519.24 386.639 1511.85 396.653 1508.05 401.142C1500.59 401.142 1498.73 408.049 1498.73 411.502C1494.59 415.646 1523.25 427.733 1538.1 433.258C1543.28 432.567 1556.54 435.952 1568.14 455.014C1579.74 474.076 1569.52 487.82 1562.96 492.309C1558.82 497.144 1551.15 512.2 1553.64 533.748Z" fill="#1493F7"/>
<path d="M1673.02 501.616C1663.55 506.642 1670.39 512.785 1674.99 515.228H1695.7C1698.85 515.228 1700.96 508.946 1701.61 505.805C1703.19 503.292 1700.3 497.777 1698.66 495.334C1698.98 492.891 1699.64 485.701 1699.64 476.486C1699.64 467.272 1693.07 469.855 1689.78 472.298L1684.85 488.004C1684.85 490.447 1682.49 496.59 1673.02 501.616Z" fill="#1493F7"/>
<path d="M253.244 590.32L258.566 559.168H274.338L261.887 612H247.971L239.23 580.652L230.441 612H216.525L204.074 559.168H219.846L225.07 591.053L233.469 559.168H244.943L253.244 590.32ZM325.9 590.32L331.223 559.168H346.994L334.543 612H320.627L311.887 580.652L303.098 612H289.182L276.73 559.168H292.502L297.727 591.053L306.125 559.168H317.6L325.9 590.32ZM398.557 590.32L403.879 559.168H419.65L407.199 612H393.283L384.543 580.652L375.754 612H361.838L349.387 559.168H365.158L370.383 591.053L378.781 559.168H390.256L398.557 590.32ZM429.709 596.033C432.313 596.033 434.478 596.814 436.203 598.377C437.928 599.907 438.791 601.876 438.791 604.285C438.791 606.694 437.928 608.68 436.203 610.242C434.478 611.772 432.313 612.537 429.709 612.537C427.072 612.537 424.891 611.756 423.166 610.193C421.473 608.631 420.627 606.661 420.627 604.285C420.627 601.909 421.473 599.939 423.166 598.377C424.891 596.814 427.072 596.033 429.709 596.033ZM490.939 598.719H467.453L463.352 612H445.041L471.115 540.906H487.229L513.498 612H495.09L490.939 598.719ZM471.555 585.486H486.838L479.172 560.828L471.555 585.486ZM543.527 612.977C535.422 612.977 528.863 610.568 523.85 605.75C518.837 600.9 516.33 594.601 516.33 586.854V585.486C516.33 580.083 517.323 575.314 519.309 571.18C521.327 567.046 524.257 563.855 528.098 561.609C531.939 559.331 536.496 558.191 541.77 558.191C549.191 558.191 555.051 560.503 559.348 565.125C563.645 569.715 565.793 576.128 565.793 584.363V590.76H533.078C533.664 593.722 534.95 596.049 536.936 597.742C538.921 599.435 541.493 600.281 544.65 600.281C549.859 600.281 553.928 598.458 556.857 594.812L564.377 603.699C562.326 606.531 559.413 608.794 555.637 610.486C551.893 612.146 547.857 612.977 543.527 612.977ZM541.672 570.887C536.854 570.887 533.99 574.077 533.078 580.457H549.68V579.188C549.745 576.551 549.077 574.516 547.678 573.084C546.278 571.619 544.276 570.887 541.672 570.887ZM604.416 574.061L598.996 573.67C593.82 573.67 590.5 575.298 589.035 578.553V612H572.58V559.168H588.01L588.547 565.955C591.314 560.779 595.171 558.191 600.119 558.191C601.877 558.191 603.407 558.387 604.709 558.777L604.416 574.061ZM606.516 585.096C606.516 579.822 607.541 575.135 609.592 571.033C611.643 566.899 614.589 563.725 618.43 561.512C622.271 559.298 626.779 558.191 631.955 558.191C639.865 558.191 646.099 560.649 650.656 565.564C655.214 570.447 657.492 577.104 657.492 585.535V586.121C657.492 594.357 655.197 600.9 650.607 605.75C646.05 610.568 639.865 612.977 632.053 612.977C624.533 612.977 618.495 610.73 613.938 606.238C609.38 601.714 606.923 595.594 606.564 587.879L606.516 585.096ZM622.971 586.121C622.971 591.004 623.736 594.585 625.266 596.863C626.796 599.142 629.058 600.281 632.053 600.281C637.912 600.281 640.907 595.773 641.037 586.756V585.096C641.037 575.623 638.01 570.887 631.955 570.887C626.454 570.887 623.475 574.972 623.02 583.143L622.971 586.121ZM682.102 612H665.598V537H682.102V612ZM709.641 612H693.137V559.168H709.641V612ZM692.16 545.545C692.16 543.201 693.007 541.281 694.699 539.783C696.392 538.286 698.589 537.537 701.291 537.537C703.993 537.537 706.19 538.286 707.883 539.783C709.576 541.281 710.422 543.201 710.422 545.545C710.422 547.889 709.576 549.809 707.883 551.307C706.19 552.804 703.993 553.553 701.291 553.553C698.589 553.553 696.392 552.804 694.699 551.307C693.007 549.809 692.16 547.889 692.16 545.545ZM734.934 559.168L735.471 565.369C739.117 560.584 744.146 558.191 750.559 558.191C756.06 558.191 760.161 559.835 762.863 563.123C765.598 566.411 767.014 571.359 767.111 577.967V612H750.607V578.65C750.607 575.981 750.07 574.028 748.996 572.791C747.922 571.521 745.969 570.887 743.137 570.887C739.914 570.887 737.521 572.156 735.959 574.695V612H719.504V559.168H734.934ZM801.828 612.977C793.723 612.977 787.163 610.568 782.15 605.75C777.137 600.9 774.631 594.601 774.631 586.854V585.486C774.631 580.083 775.624 575.314 777.609 571.18C779.628 567.046 782.557 563.855 786.398 561.609C790.24 559.331 794.797 558.191 800.07 558.191C807.492 558.191 813.352 560.503 817.648 565.125C821.945 569.715 824.094 576.128 824.094 584.363V590.76H791.379C791.965 593.722 793.251 596.049 795.236 597.742C797.222 599.435 799.794 600.281 802.951 600.281C808.16 600.281 812.229 598.458 815.158 594.812L822.678 603.699C820.627 606.531 817.714 608.794 813.938 610.486C810.194 612.146 806.158 612.977 801.828 612.977ZM799.973 570.887C795.155 570.887 792.29 574.077 791.379 580.457H807.98V579.188C808.046 576.551 807.378 574.516 805.979 573.084C804.579 571.619 802.577 570.887 799.973 570.887ZM860.52 612C859.934 610.926 859.413 609.347 858.957 607.264C855.93 611.072 851.698 612.977 846.262 612.977C841.281 612.977 837.049 611.479 833.566 608.484C830.083 605.457 828.342 601.665 828.342 597.107C828.342 591.378 830.458 587.049 834.689 584.119C838.921 581.189 845.074 579.725 853.146 579.725H858.225V576.941C858.225 572.091 856.125 569.666 851.926 569.666C848.02 569.666 846.066 571.587 846.066 575.428H829.611C829.611 570.317 831.776 566.167 836.105 562.977C840.467 559.786 846.018 558.191 852.756 558.191C859.494 558.191 864.816 559.835 868.723 563.123C872.629 566.411 874.631 570.919 874.729 576.648V600.037C874.794 604.887 875.542 608.598 876.975 611.17V612H860.52ZM850.217 601.258C852.268 601.258 853.96 600.818 855.295 599.939C856.662 599.061 857.639 598.068 858.225 596.961V588.514H853.439C847.71 588.514 844.846 591.085 844.846 596.229C844.846 597.726 845.35 598.947 846.359 599.891C847.368 600.802 848.654 601.258 850.217 601.258ZM894.064 596.033C896.669 596.033 898.833 596.814 900.559 598.377C902.284 599.907 903.146 601.876 903.146 604.285C903.146 606.694 902.284 608.68 900.559 610.242C898.833 611.772 896.669 612.537 894.064 612.537C891.428 612.537 889.247 611.756 887.521 610.193C885.829 608.631 884.982 606.661 884.982 604.285C884.982 601.909 885.829 599.939 887.521 598.377C889.247 596.814 891.428 596.033 894.064 596.033ZM936.496 600.281C938.807 600.281 940.598 599.663 941.867 598.426C943.137 597.156 943.755 595.398 943.723 593.152H959.152C959.152 598.947 957.069 603.699 952.902 607.41C948.768 611.121 943.43 612.977 936.887 612.977C929.204 612.977 923.15 610.568 918.723 605.75C914.296 600.932 912.082 594.259 912.082 585.73V585.047C912.082 579.708 913.059 575.005 915.012 570.936C916.997 566.834 919.846 563.693 923.557 561.512C927.268 559.298 931.662 558.191 936.74 558.191C943.609 558.191 949.061 560.096 953.098 563.904C957.134 567.713 959.152 572.872 959.152 579.383H943.723C943.723 576.648 943.055 574.549 941.721 573.084C940.386 571.619 938.596 570.887 936.35 570.887C932.085 570.887 929.595 573.605 928.879 579.041C928.651 580.766 928.537 583.143 928.537 586.17C928.537 591.476 929.172 595.154 930.441 597.205C931.711 599.256 933.729 600.281 936.496 600.281ZM964.035 585.096C964.035 579.822 965.061 575.135 967.111 571.033C969.162 566.899 972.108 563.725 975.949 561.512C979.79 559.298 984.299 558.191 989.475 558.191C997.385 558.191 1003.62 560.649 1008.18 565.564C1012.73 570.447 1015.01 577.104 1015.01 585.535V586.121C1015.01 594.357 1012.72 600.9 1008.13 605.75C1003.57 610.568 997.385 612.977 989.572 612.977C982.053 612.977 976.014 610.73 971.457 606.238C966.9 601.714 964.442 595.594 964.084 587.879L964.035 585.096ZM980.49 586.121C980.49 591.004 981.255 594.585 982.785 596.863C984.315 599.142 986.577 600.281 989.572 600.281C995.432 600.281 998.426 595.773 998.557 586.756V585.096C998.557 575.623 995.529 570.887 989.475 570.887C983.973 570.887 980.995 574.972 980.539 583.143L980.49 586.121ZM1037.81 559.168L1038.35 565.369C1042.1 560.584 1047.12 558.191 1053.44 558.191C1060.11 558.191 1064.62 560.844 1066.96 566.15C1070.55 560.844 1075.72 558.191 1082.49 558.191C1093.2 558.191 1098.7 564.669 1099 577.625V612H1082.49V578.65C1082.49 575.949 1082.04 573.979 1081.12 572.742C1080.21 571.505 1078.55 570.887 1076.14 570.887C1072.89 570.887 1070.46 572.335 1068.87 575.232L1068.92 575.916V612H1052.41V578.748C1052.41 575.981 1051.97 573.979 1051.1 572.742C1050.22 571.505 1048.54 570.887 1046.07 570.887C1042.91 570.887 1040.5 572.335 1038.84 575.232V612H1022.38V559.168H1037.81Z" fill="white"/>
</g>
<defs>
<filter id="filter0_d" x="-8" y="29" width="1307.09" height="655.035" filterUnits="userSpaceOnUse" color-interpolation-filters="sRGB">
<feFlood flood-opacity="0" result="BackgroundImageFix"/>
<feColorMatrix in="SourceAlpha" type="matrix" values="0 0 0 0 0 0 0 0 0 0 0 0 0 0 0 0 0 0 127 0" result="hardAlpha"/>
<feOffset dx="-80" dy="238"/>
<feGaussianBlur stdDeviation="5"/>
<feComposite in2="hardAlpha" operator="out"/>
<feColorMatrix type="matrix" values="0 0 0 0 0 0 0 0 0 0 0 0 0 0 0 0 0 0 0.41 0"/>
<feBlend mode="normal" in2="BackgroundImageFix" result="effect1_dropShadow"/>
<feBlend mode="normal" in="SourceGraphic" in2="effect1_dropShadow" result="shape"/>
</filter>
<linearGradient id="paint0_linear" x1="0" y1="0" x2="1900" y2="700" gradientUnits="userSpaceOnUse">
<stop stop-color="#0085FF"/>
<stop offset="0.0001" stop-color="#0A8CFB"/>
<stop offset="0.49267" stop-color="#62CCDB"/>
<stop offset="1" stop-color="#F1FBFC"/>
</linearGradient>
<clipPath id="clip0">
<rect width="1900" height="700" rx="50" fill="white"/>
</clipPath>
</defs>
</svg>
