<svg width="31" height="31" viewBox="0 0 31 31" fill="none" xmlns="http://www.w3.org/2000/svg">
<path d="M15.5225 28.5693C12.0415 28.5693 8.7031 27.1865 6.24168 24.7251C3.78027 22.2637 2.39746 18.9253 2.39746 15.4443C2.39746 11.9634 3.78027 8.62497 6.24168 6.16356C8.7031 3.70214 12.0415 2.31934 15.5225 2.31934C19.0034 2.31934 22.3418 3.70214 24.8032 6.16356C27.2647 8.62497 28.6475 11.9634 28.6475 15.4443C28.6475 18.9253 27.2647 22.2637 24.8032 24.7251C22.3418 27.1865 19.0034 28.5693 15.5225 28.5693ZM15.5225 30.4443C19.5007 30.4443 23.316 28.864 26.1291 26.0509C28.9421 23.2379 30.5225 19.4226 30.5225 15.4443C30.5225 11.4661 28.9421 7.65078 26.1291 4.83773C23.316 2.02469 19.5007 0.444336 15.5225 0.444336C11.5442 0.444336 7.72891 2.02469 4.91586 4.83773C2.10281 7.65078 0.522461 11.4661 0.522461 15.4443C0.522461 19.4226 2.10281 23.2379 4.91586 26.0509C7.72891 28.864 11.5442 30.4443 15.5225 30.4443Z" fill="black" stroke="black" stroke-width="0.5"/>
<path d="M14.335 14.2568H8.95996C8.64502 14.2568 8.34297 14.3819 8.12027 14.6046C7.89757 14.8273 7.77246 15.1294 7.77246 15.4443C7.77246 15.7593 7.89757 16.0613 8.12027 16.284C8.34297 16.5067 8.64502 16.6318 8.95996 16.6318H14.335V22.0068C14.335 22.3218 14.4601 22.6238 14.6828 22.8465C14.9055 23.0692 15.2075 23.1943 15.5225 23.1943C15.8374 23.1943 16.1395 23.0692 16.3622 22.8465C16.5849 22.6238 16.71 22.3218 16.71 22.0068V16.6318H22.085C22.3999 16.6318 22.702 16.5067 22.9247 16.284C23.1474 16.0613 23.2725 15.7593 23.2725 15.4443C23.2725 15.1294 23.1474 14.8273 22.9247 14.6046C22.702 14.3819 22.3999 14.2568 22.085 14.2568H16.71V8.88184C16.71 8.56689 16.5849 8.26485 16.3622 8.04215C16.1395 7.81945 15.8374 7.69434 15.5225 7.69434C15.2075 7.69434 14.9055 7.81945 14.6828 8.04215C14.4601 8.26485 14.335 8.56689 14.335 8.88184V14.2568Z" fill="black" stroke="black" stroke-width="0.5"/>
</svg>
