<svg width="18" height="18" viewBox="0 0 18 18" fill="none" xmlns="http://www.w3.org/2000/svg">
<path d="M12.3738 11.5592C13.2815 10.3204 13.6881 8.78447 13.5122 7.25874C13.3362 5.73301 12.5907 4.32997 11.4249 3.33034C10.259 2.3307 8.75869 1.80818 7.22414 1.86732C5.68959 1.92645 4.23395 2.56288 3.14845 3.64927C2.06294 4.73567 1.42762 6.19191 1.36959 7.72666C1.31156 9.26141 1.8351 10.7615 2.83547 11.9268C3.83583 13.092 5.23925 13.8366 6.76495 14.0115C8.29065 14.1863 9.82612 13.7786 11.0641 12.8699H11.0632C11.0913 12.9074 11.1213 12.943 11.1551 12.9777L14.7643 16.5873C14.9401 16.7633 15.1786 16.8621 15.4272 16.8622C15.6759 16.8623 15.9145 16.7636 16.0904 16.5878C16.2663 16.412 16.3651 16.1735 16.3652 15.9248C16.3653 15.6761 16.2666 15.4375 16.0908 15.2616L12.4816 11.652C12.4481 11.6181 12.412 11.5867 12.3738 11.5583V11.5592ZM12.6157 7.95521C12.6157 8.63238 12.4823 9.30292 12.2232 9.92855C11.9641 10.5542 11.5843 11.1226 11.1055 11.6015C10.6267 12.0803 10.0583 12.4601 9.43273 12.7193C8.80717 12.9784 8.1367 13.1118 7.4596 13.1118C6.78249 13.1118 6.11202 12.9784 5.48646 12.7193C4.8609 12.4601 4.2925 12.0803 3.81371 11.6015C3.33493 11.1226 2.95514 10.5542 2.69602 9.92855C2.43691 9.30292 2.30354 8.63238 2.30354 7.95521C2.30354 6.58759 2.84677 5.276 3.81371 4.30895C4.78066 3.3419 6.09213 2.79862 7.4596 2.79862C8.82707 2.79862 10.1385 3.3419 11.1055 4.30895C12.0724 5.276 12.6157 6.58759 12.6157 7.95521Z" fill="white" stroke="white" stroke-width="2"/>
</svg>
