<svg width="188" height="25" viewBox="0 0 188 25" fill="none" xmlns="http://www.w3.org/2000/svg">
<g clip-path="url(#clip0)">
<path d="M176 24.5C182.627 24.5 188 19.1274 188 12.5C188 5.87258 182.627 0.5 176 0.5C169.373 0.5 164 5.87258 164 12.5C164 19.1274 169.373 24.5 176 24.5Z" fill="#FF7979"/>
<path d="M177 7.5C177 6.94772 176.552 6.5 176 6.5C175.448 6.5 175 6.94772 175 7.5V14.5C175 15.0523 175.448 15.5 176 15.5C176.552 15.5 177 15.0523 177 14.5V7.5Z" fill="white"/>
<path d="M177 18.5C177 17.9477 176.552 17.5 176 17.5C175.448 17.5 175 17.9477 175 18.5C175 19.0523 175.448 19.5 176 19.5C176.552 19.5 177 19.0523 177 18.5Z" fill="white"/>
</g>
<path d="M4.70435 15.7432L8.74438 7.54688H10.1936L5.05298 17.5H3.91821L1.90161 7.54688H3.24829L4.70435 15.7432ZM11.8999 17.6367C10.9793 17.6185 10.2592 17.279 9.7397 16.6182C9.22017 15.9574 9.00142 15.112 9.08345 14.082L9.11763 13.7881C9.1951 13.0544 9.41157 12.3844 9.76704 11.7783C10.1271 11.1722 10.5646 10.7165 11.0795 10.4111C11.5945 10.1012 12.1505 9.95312 12.7475 9.9668C13.5086 9.98503 14.1056 10.238 14.5385 10.7256C14.9715 11.2132 15.2084 11.874 15.2495 12.708C15.2631 13.0042 15.254 13.3005 15.2221 13.5967L15.1469 14.1641H10.3139C10.2319 14.834 10.3413 15.4036 10.642 15.873C10.9474 16.3424 11.4008 16.5863 12.0024 16.6045C12.7316 16.6227 13.406 16.2946 14.0258 15.6201L14.7368 16.2217C14.4269 16.6683 14.0258 17.0192 13.5336 17.2744C13.046 17.5251 12.5014 17.6458 11.8999 17.6367ZM12.686 10.999C12.1756 10.9854 11.729 11.1585 11.3461 11.5186C10.9679 11.8786 10.6671 12.4141 10.4438 13.125L14.0395 13.1318L14.0668 13.0225C14.1398 12.4482 14.0463 11.972 13.7866 11.5938C13.5314 11.2109 13.1645 11.0127 12.686 10.999ZM19.861 11.2314L19.2799 11.1699C18.487 11.1699 17.8626 11.5277 17.4069 12.2432L16.4977 17.5H15.2604L16.5456 10.1035L17.7418 10.0967L17.5573 10.958C18.0814 10.2699 18.6989 9.9349 19.4098 9.95312C19.5602 9.95312 19.7562 9.9873 19.9977 10.0557L19.861 11.2314ZM20.5624 17.5H19.3319L20.617 10.1035H21.8475L20.5624 17.5ZM21.5809 7.40332C21.7905 7.39421 21.9637 7.45801 22.1004 7.59473C22.2417 7.72689 22.3124 7.90234 22.3124 8.12109C22.3078 8.33529 22.2372 8.51074 22.1004 8.64746C21.9683 8.78418 21.7951 8.8571 21.5809 8.86621C21.3667 8.87533 21.1913 8.8138 21.0545 8.68164C20.9178 8.54948 20.8517 8.3763 20.8563 8.16211C20.8609 7.94792 20.9292 7.77018 21.0614 7.62891C21.1935 7.48763 21.3667 7.41243 21.5809 7.40332ZM22.2959 17.5L23.4102 11.0811H22.2754L22.4463 10.1035L23.5811 10.0967L23.6768 9.41309C23.7999 8.5791 24.1348 7.93424 24.6817 7.47852C25.2058 7.04557 25.8666 6.83366 26.6641 6.84277C26.9877 6.85189 27.2999 6.89746 27.6006 6.97949C27.906 7.05697 28.2181 7.15039 28.5372 7.25977L28.2364 8.33984C27.7214 8.10742 27.211 7.98665 26.7051 7.97754C25.6615 7.95931 25.0622 8.46973 24.9073 9.50879L24.8184 10.1035H26.2881L26.1172 11.0811H24.6543L23.5401 17.5H22.2959ZM27.4229 17.5H26.1788L27.4639 10.1035H28.7081L27.4229 17.5ZM31.8977 16.6113C32.3398 16.6204 32.7385 16.4928 33.094 16.2285C33.4495 15.9596 33.6819 15.6087 33.7913 15.1758L34.9602 15.1689C34.8918 15.6338 34.705 16.0576 34.3997 16.4404C34.0989 16.8232 33.7183 17.1217 33.2581 17.3359C32.7978 17.5501 32.3261 17.6504 31.843 17.6367C31.2278 17.6276 30.706 17.4681 30.2776 17.1582C29.8538 16.8438 29.5416 16.4085 29.3411 15.8525C29.1405 15.292 29.0722 14.6631 29.136 13.9658L29.1702 13.624C29.2568 12.9131 29.4641 12.2773 29.7922 11.7168C30.1204 11.1562 30.5487 10.721 31.0774 10.4111C31.606 10.0967 32.1894 9.94857 32.8274 9.9668C33.6021 9.98503 34.2219 10.2448 34.6868 10.7461C35.1516 11.2474 35.384 11.8831 35.384 12.6533L34.2288 12.6465C34.2196 12.1634 34.0852 11.7738 33.8254 11.4775C33.5657 11.1768 33.2148 11.0173 32.7727 10.999C32.1301 10.9854 31.5946 11.2246 31.1663 11.7168C30.7424 12.209 30.4781 12.8971 30.3733 13.7812L30.3528 13.959C30.3254 14.2507 30.3209 14.5514 30.3391 14.8613C30.371 15.3945 30.5214 15.8161 30.7903 16.126C31.0592 16.4359 31.4283 16.5977 31.8977 16.6113ZM39.7768 17.5C39.7449 17.3678 39.729 17.238 39.729 17.1104L39.7495 16.7207C39.0704 17.3496 38.3504 17.6549 37.5893 17.6367C36.9376 17.6276 36.4067 17.4225 35.9965 17.0215C35.5909 16.6159 35.4064 16.11 35.4428 15.5039C35.4884 14.7201 35.8302 14.1094 36.4682 13.6719C37.1108 13.2298 37.9539 13.0088 38.9975 13.0088L40.2895 13.0156L40.3715 12.4277C40.4171 11.9857 40.3305 11.637 40.1118 11.3818C39.8976 11.1221 39.574 10.9876 39.1411 10.9785C38.7172 10.9694 38.3413 11.0742 38.0131 11.293C37.6896 11.5072 37.4913 11.792 37.4184 12.1475L36.1743 12.1543C36.2153 11.7214 36.3839 11.3385 36.6801 11.0059C36.9764 10.6686 37.3569 10.4089 37.8217 10.2266C38.2866 10.0397 38.7674 9.95085 39.2641 9.95996C40.0343 9.97819 40.6336 10.2129 41.062 10.6641C41.4903 11.1107 41.6704 11.7054 41.602 12.4482L41.0004 16.1123L40.9663 16.6387C40.9571 16.8893 40.9845 17.1377 41.0483 17.3838L41.0346 17.5H39.7768ZM37.8354 16.543C38.2319 16.5521 38.6056 16.4587 38.9565 16.2627C39.312 16.0622 39.6173 15.7865 39.8725 15.4355L40.1391 13.9111L39.2026 13.9043C38.4233 13.9043 37.8263 14.0273 37.4116 14.2734C36.9969 14.5195 36.7622 14.8682 36.7075 15.3193C36.6665 15.6657 36.7462 15.9551 36.9467 16.1875C37.1518 16.4154 37.448 16.5339 37.8354 16.543ZM46.0877 17.5H44.8573L46.6756 7H47.9129L46.0877 17.5ZM51.5196 9.9668C52.1394 9.97591 52.6703 10.1445 53.1124 10.4727C53.5544 10.8008 53.8803 11.2542 54.0899 11.833C54.3041 12.4072 54.377 13.0361 54.3086 13.7197L54.295 13.8701C54.2084 14.5902 53.9942 15.2419 53.6524 15.8252C53.3106 16.404 52.8685 16.8551 52.3262 17.1787C51.7839 17.5023 51.1892 17.6549 50.542 17.6367C49.9268 17.6276 49.3959 17.459 48.9493 17.1309C48.5072 16.8027 48.1836 16.3561 47.9786 15.791C47.7735 15.2259 47.7006 14.6038 47.7598 13.9248C47.8282 13.1592 48.0355 12.471 48.3819 11.8604C48.7282 11.2497 49.1726 10.778 49.7149 10.4453C50.2618 10.1081 50.8633 9.94857 51.5196 9.9668ZM49.004 13.9316C48.9721 14.2188 48.9721 14.5173 49.004 14.8271C49.0495 15.3649 49.209 15.7933 49.4825 16.1123C49.7605 16.4313 50.1296 16.5977 50.5899 16.6113C51 16.625 51.3783 16.5247 51.7247 16.3105C52.071 16.0918 52.3627 15.7637 52.5997 15.3262C52.8366 14.8887 52.9893 14.4033 53.0577 13.8701C53.0941 13.4508 53.101 13.0977 53.0782 12.8105C53.0235 12.2591 52.8571 11.8239 52.5792 11.5049C52.3012 11.1859 51.932 11.0173 51.4717 10.999C50.8337 10.9854 50.2914 11.236 49.8448 11.751C49.3982 12.266 49.1224 12.9404 49.0176 13.7744L49.004 13.9316ZM59.1116 15.4971C59.1799 14.9867 58.8997 14.6266 58.2708 14.417L56.9856 14.041C55.901 13.6673 55.3769 13.0475 55.4133 12.1816C55.4452 11.5299 55.7415 10.9967 56.302 10.582C56.8671 10.1628 57.5302 9.95768 58.2913 9.9668C59.0387 9.97591 59.6448 10.1947 60.1096 10.623C60.579 11.0469 60.8046 11.6006 60.7864 12.2842L59.5559 12.2773C59.565 11.9082 59.4488 11.6074 59.2073 11.375C58.9657 11.1426 58.6444 11.0218 58.2434 11.0127C57.815 11.0036 57.4459 11.1084 57.136 11.3271C56.8489 11.5322 56.6825 11.8011 56.637 12.1338C56.5777 12.5622 56.8398 12.8743 57.4231 13.0703L58.0452 13.2412C58.8928 13.46 59.4944 13.7448 59.8499 14.0957C60.2053 14.4466 60.3694 14.8818 60.342 15.4014C60.3147 15.8617 60.1643 16.2627 59.8909 16.6045C59.6174 16.9463 59.2528 17.2083 58.7971 17.3906C58.3414 17.5684 57.856 17.6504 57.3411 17.6367C56.5572 17.6276 55.9101 17.3997 55.3997 16.9531C54.8892 16.502 54.6431 15.9232 54.6614 15.2168L55.8987 15.2236C55.8987 15.6383 56.0308 15.971 56.2952 16.2217C56.5595 16.4723 56.9218 16.5977 57.3821 16.5977C57.8333 16.6068 58.2229 16.5133 58.551 16.3174C58.8792 16.1169 59.066 15.8434 59.1116 15.4971ZM63.987 13.7881C64.0781 13.0361 64.2855 12.3571 64.609 11.751C64.9326 11.1449 65.3314 10.6914 65.8053 10.3906C66.2793 10.0898 66.8011 9.94629 67.3708 9.95996C68.1956 9.97819 68.8291 10.279 69.2711 10.8623L69.9821 7H71.2194L69.401 17.5H68.2731L68.403 16.707C67.8196 17.3451 67.0996 17.6549 66.2428 17.6367C65.5592 17.6185 65.0146 17.3519 64.609 16.8369C64.2034 16.3174 63.9847 15.6224 63.9528 14.752C63.9391 14.4831 63.9505 14.1618 63.987 13.7881ZM65.1764 14.499C65.1627 15.1507 65.279 15.6566 65.525 16.0166C65.7711 16.3766 66.1312 16.5612 66.6051 16.5703C67.3206 16.6022 67.9564 16.2422 68.5124 15.4902L69.1002 12.0723C68.8268 11.3978 68.3301 11.0514 67.61 11.0332C67.1224 11.0195 66.6917 11.1676 66.318 11.4775C65.9489 11.7829 65.6663 12.2135 65.4704 12.7695C65.279 13.321 65.181 13.8975 65.1764 14.499ZM75.1815 17.5C75.1496 17.3678 75.1336 17.238 75.1336 17.1104L75.1542 16.7207C74.4751 17.3496 73.7551 17.6549 72.994 17.6367C72.3423 17.6276 71.8114 17.4225 71.4012 17.0215C70.9956 16.6159 70.8111 16.11 70.8475 15.5039C70.8931 14.7201 71.2349 14.1094 71.8729 13.6719C72.5155 13.2298 73.3586 13.0088 74.4022 13.0088L75.6942 13.0156L75.7762 12.4277C75.8218 11.9857 75.7352 11.637 75.5165 11.3818C75.3023 11.1221 74.9787 10.9876 74.5458 10.9785C74.1219 10.9694 73.7459 11.0742 73.4178 11.293C73.0943 11.5072 72.896 11.792 72.8231 12.1475L71.579 12.1543C71.62 11.7214 71.7886 11.3385 72.0848 11.0059C72.381 10.6686 72.7616 10.4089 73.2264 10.2266C73.6913 10.0397 74.1721 9.95085 74.6688 9.95996C75.439 9.97819 76.0383 10.2129 76.4667 10.6641C76.895 11.1107 77.0751 11.7054 77.0067 12.4482L76.4051 16.1123L76.3709 16.6387C76.3618 16.8893 76.3892 17.1377 76.453 17.3838L76.4393 17.5H75.1815ZM73.2401 16.543C73.6366 16.5521 74.0103 16.4587 74.3612 16.2627C74.7167 16.0622 75.022 15.7865 75.2772 15.4355L75.5438 13.9111L74.6073 13.9043C73.828 13.9043 73.231 14.0273 72.8163 14.2734C72.4015 14.5195 72.1668 14.8682 72.1122 15.3193C72.0711 15.6657 72.1509 15.9551 72.3514 16.1875C72.5565 16.4154 72.8527 16.5339 73.2401 16.543ZM80.6885 8.3125L80.3741 10.1035H81.7207L81.5499 11.0811H80.21L79.4375 15.6816C79.4239 15.8001 79.4216 15.9095 79.4307 16.0098C79.4626 16.3652 79.6563 16.543 80.0118 16.543C80.1622 16.543 80.3627 16.5202 80.6133 16.4746L80.5176 17.5068C80.2214 17.5889 79.9206 17.6299 79.6153 17.6299C79.1231 17.6208 78.754 17.4408 78.5079 17.0898C78.2618 16.7344 78.1661 16.2581 78.2207 15.6611L78.9727 11.0811H77.667L77.8379 10.1035H79.1436L79.4581 8.3125H80.6885ZM85.2043 9.9668C85.8241 9.97591 86.3551 10.1445 86.7971 10.4727C87.2392 10.8008 87.565 11.2542 87.7747 11.833C87.9889 12.4072 88.0618 13.0361 87.9934 13.7197L87.9797 13.8701C87.8931 14.5902 87.679 15.2419 87.3372 15.8252C86.9954 16.404 86.5533 16.8551 86.011 17.1787C85.4687 17.5023 84.8739 17.6549 84.2268 17.6367C83.6116 17.6276 83.0806 17.459 82.634 17.1309C82.192 16.8027 81.8684 16.3561 81.6633 15.791C81.4583 15.2259 81.3853 14.6038 81.4446 13.9248C81.5129 13.1592 81.7203 12.471 82.0667 11.8604C82.413 11.2497 82.8573 10.778 83.3997 10.4453C83.9465 10.1081 84.5481 9.94857 85.2043 9.9668ZM82.6887 13.9316C82.6568 14.2188 82.6568 14.5173 82.6887 14.8271C82.7343 15.3649 82.8938 15.7933 83.1672 16.1123C83.4452 16.4313 83.8144 16.5977 84.2747 16.6113C84.6848 16.625 85.0631 16.5247 85.4094 16.3105C85.7558 16.0918 86.0474 15.7637 86.2844 15.3262C86.5214 14.8887 86.6741 14.4033 86.7424 13.8701C86.7789 13.4508 86.7857 13.0977 86.7629 12.8105C86.7083 12.2591 86.5419 11.8239 86.2639 11.5049C85.9859 11.1859 85.6168 11.0173 85.1565 10.999C84.5185 10.9854 83.9762 11.236 83.5295 11.751C83.0829 12.266 82.8072 12.9404 82.7024 13.7744L82.6887 13.9316ZM92.7963 15.4971C92.8647 14.9867 92.5844 14.6266 91.9555 14.417L90.6704 14.041C89.5857 13.6673 89.0616 13.0475 89.0981 12.1816C89.13 11.5299 89.4262 10.9967 89.9868 10.582C90.5519 10.1628 91.215 9.95768 91.976 9.9668C92.7234 9.97591 93.3295 10.1947 93.7944 10.623C94.2638 11.0469 94.4894 11.6006 94.4711 12.2842L93.2407 12.2773C93.2498 11.9082 93.1336 11.6074 92.892 11.375C92.6505 11.1426 92.3292 11.0218 91.9282 11.0127C91.4998 11.0036 91.1307 11.1084 90.8208 11.3271C90.5336 11.5322 90.3673 11.8011 90.3217 12.1338C90.2625 12.5622 90.5245 12.8743 91.1079 13.0703L91.7299 13.2412C92.5776 13.46 93.1792 13.7448 93.5346 14.0957C93.8901 14.4466 94.0542 14.8818 94.0268 15.4014C93.9995 15.8617 93.8491 16.2627 93.5756 16.6045C93.3022 16.9463 92.9376 17.2083 92.4819 17.3906C92.0262 17.5684 91.5408 17.6504 91.0258 17.6367C90.242 17.6276 89.5948 17.3997 89.0844 16.9531C88.574 16.502 88.3279 15.9232 88.3461 15.2168L89.5835 15.2236C89.5835 15.6383 89.7156 15.971 89.9799 16.2217C90.2443 16.4723 90.6066 16.5977 91.0668 16.5977C91.518 16.6068 91.9077 16.5133 92.2358 16.3174C92.5639 16.1169 92.7508 15.8434 92.7963 15.4971ZM98.6561 17.5H97.4256L98.7108 10.1035H99.9413L98.6561 17.5ZM99.6747 7.40332C99.8843 7.39421 100.057 7.45801 100.194 7.59473C100.335 7.72689 100.406 7.90234 100.406 8.12109C100.402 8.33529 100.331 8.51074 100.194 8.64746C100.062 8.78418 99.8889 8.8571 99.6747 8.86621C99.4605 8.87533 99.285 8.8138 99.1483 8.68164C99.0116 8.54948 98.9455 8.3763 98.9501 8.16211C98.9546 7.94792 99.023 7.77018 99.1551 7.62891C99.2873 7.48763 99.4605 7.41243 99.6747 7.40332ZM102.434 10.0967L102.256 11.0332C102.921 10.304 103.678 9.94857 104.525 9.9668C105.223 9.98503 105.738 10.2266 106.07 10.6914C106.403 11.1562 106.526 11.8102 106.439 12.6533L105.633 17.5H104.396L105.209 12.6328C105.236 12.4095 105.239 12.2021 105.216 12.0107C105.138 11.3727 104.762 11.0469 104.088 11.0332C103.345 11.0195 102.693 11.416 102.133 12.2227L101.217 17.5H99.9795L101.265 10.1035L102.434 10.0967ZM107.202 13.7881C107.312 12.9814 107.528 12.2819 107.852 11.6895C108.18 11.0924 108.576 10.6527 109.041 10.3701C109.511 10.083 110.023 9.94629 110.579 9.95996C111.436 9.97819 112.083 10.3018 112.521 10.9307L112.767 10.1035H113.902L112.671 17.3428C112.539 18.2861 112.156 19.0404 111.523 19.6055C110.889 20.1751 110.108 20.4463 109.178 20.4189C108.677 20.4098 108.196 20.2913 107.736 20.0635C107.28 19.8356 106.92 19.5234 106.656 19.127L107.36 18.3682C107.806 19.029 108.396 19.3685 109.13 19.3867C109.718 19.4049 110.215 19.2409 110.62 18.8945C111.031 18.5482 111.302 18.056 111.434 17.418L111.571 16.7617C110.969 17.3633 110.265 17.6549 109.458 17.6367C108.998 17.623 108.597 17.5 108.255 17.2676C107.918 17.0306 107.656 16.6911 107.469 16.249C107.282 15.8024 107.18 15.3057 107.161 14.7588C107.152 14.4899 107.166 14.1663 107.202 13.7881ZM108.399 14.4922C108.385 15.1439 108.497 15.6497 108.734 16.0098C108.975 16.3652 109.337 16.5521 109.821 16.5703C110.559 16.5885 111.195 16.2262 111.728 15.4834L112.309 12.0859C112.035 11.4115 111.541 11.0605 110.825 11.0332C110.156 11.015 109.604 11.2884 109.171 11.8535C108.743 12.4186 108.49 13.182 108.412 14.1436L108.399 14.4922ZM118.438 11.2314L117.857 11.1699C117.064 11.1699 116.44 11.5277 115.984 12.2432L115.075 17.5H113.837L115.123 10.1035L116.319 10.0967L116.134 10.958C116.658 10.2699 117.276 9.9349 117.987 9.95312C118.137 9.95312 118.333 9.9873 118.575 10.0557L118.438 11.2314ZM120.862 17.6367C119.941 17.6185 119.221 17.279 118.702 16.6182C118.182 15.9574 117.964 15.112 118.046 14.082L118.08 13.7881C118.157 13.0544 118.374 12.3844 118.729 11.7783C119.089 11.1722 119.527 10.7165 120.042 10.4111C120.557 10.1012 121.113 9.95312 121.71 9.9668C122.471 9.98503 123.068 10.238 123.501 10.7256C123.934 11.2132 124.171 11.874 124.212 12.708C124.225 13.0042 124.216 13.3005 124.184 13.5967L124.109 14.1641H119.276C119.194 14.834 119.303 15.4036 119.604 15.873C119.909 16.3424 120.363 16.5863 120.965 16.6045C121.694 16.6227 122.368 16.2946 122.988 15.6201L123.699 16.2217C123.389 16.6683 122.988 17.0192 122.496 17.2744C122.008 17.5251 121.464 17.6458 120.862 17.6367ZM121.648 10.999C121.138 10.9854 120.691 11.1585 120.308 11.5186C119.93 11.8786 119.629 12.4141 119.406 13.125L123.002 13.1318L123.029 13.0225C123.102 12.4482 123.008 11.972 122.749 11.5938C122.493 11.2109 122.127 11.0127 121.648 10.999ZM128.803 15.4971C128.871 14.9867 128.591 14.6266 127.962 14.417L126.677 14.041C125.592 13.6673 125.068 13.0475 125.104 12.1816C125.136 11.5299 125.432 10.9967 125.993 10.582C126.558 10.1628 127.221 9.95768 127.982 9.9668C128.73 9.97591 129.336 10.1947 129.801 10.623C130.27 11.0469 130.496 11.6006 130.477 12.2842L129.247 12.2773C129.256 11.9082 129.14 11.6074 128.898 11.375C128.657 11.1426 128.335 11.0218 127.934 11.0127C127.506 11.0036 127.137 11.1084 126.827 11.3271C126.54 11.5322 126.374 11.8011 126.328 12.1338C126.269 12.5622 126.531 12.8743 127.114 13.0703L127.736 13.2412C128.584 13.46 129.185 13.7448 129.541 14.0957C129.896 14.4466 130.06 14.8818 130.033 15.4014C130.006 15.8617 129.855 16.2627 129.582 16.6045C129.308 16.9463 128.944 17.2083 128.488 17.3906C128.032 17.5684 127.547 17.6504 127.032 17.6367C126.248 17.6276 125.601 17.3997 125.091 16.9531C124.58 16.502 124.334 15.9232 124.352 15.2168L125.59 15.2236C125.59 15.6383 125.722 15.971 125.986 16.2217C126.251 16.4723 126.613 16.5977 127.073 16.5977C127.524 16.6068 127.914 16.5133 128.242 16.3174C128.57 16.1169 128.757 15.8434 128.803 15.4971ZM135.116 17.5C135.084 17.3678 135.068 17.238 135.068 17.1104L135.089 16.7207C134.41 17.3496 133.69 17.6549 132.929 17.6367C132.277 17.6276 131.746 17.4225 131.336 17.0215C130.93 16.6159 130.746 16.11 130.782 15.5039C130.828 14.7201 131.17 14.1094 131.808 13.6719C132.45 13.2298 133.293 13.0088 134.337 13.0088L135.629 13.0156L135.711 12.4277C135.757 11.9857 135.67 11.637 135.451 11.3818C135.237 11.1221 134.913 10.9876 134.481 10.9785C134.057 10.9694 133.681 11.0742 133.353 11.293C133.029 11.5072 132.831 11.792 132.758 12.1475L131.514 12.1543C131.555 11.7214 131.723 11.3385 132.02 11.0059C132.316 10.6686 132.696 10.4089 133.161 10.2266C133.626 10.0397 134.107 9.95085 134.604 9.95996C135.374 9.97819 135.973 10.2129 136.401 10.6641C136.83 11.1107 137.01 11.7054 136.941 12.4482L136.34 16.1123L136.306 16.6387C136.297 16.8893 136.324 17.1377 136.388 17.3838L136.374 17.5H135.116ZM133.175 16.543C133.571 16.5521 133.945 16.4587 134.296 16.2627C134.651 16.0622 134.957 15.7865 135.212 15.4355L135.479 13.9111L134.542 13.9043C133.763 13.9043 133.166 14.0273 132.751 14.2734C132.336 14.5195 132.102 14.8682 132.047 15.3193C132.006 15.6657 132.086 15.9551 132.286 16.1875C132.491 16.4154 132.787 16.5339 133.175 16.543ZM137.711 13.7881C137.802 13.0361 138.01 12.3571 138.333 11.751C138.657 11.1449 139.056 10.6914 139.53 10.3906C140.003 10.0898 140.525 9.94629 141.095 9.95996C141.92 9.97819 142.553 10.279 142.995 10.8623L143.706 7H144.944L143.125 17.5H141.997L142.127 16.707C141.544 17.3451 140.824 17.6549 139.967 17.6367C139.283 17.6185 138.739 17.3519 138.333 16.8369C137.928 16.3174 137.709 15.6224 137.677 14.752C137.663 14.4831 137.675 14.1618 137.711 13.7881ZM138.901 14.499C138.887 15.1507 139.003 15.6566 139.249 16.0166C139.495 16.3766 139.855 16.5612 140.329 16.5703C141.045 16.6022 141.681 16.2422 142.237 15.4902L142.824 12.0723C142.551 11.3978 142.054 11.0514 141.334 11.0332C140.847 11.0195 140.416 11.1676 140.042 11.4775C139.673 11.7829 139.391 12.2135 139.195 12.7695C139.003 13.321 138.905 13.8975 138.901 14.499ZM148.489 9.9668C149.109 9.97591 149.639 10.1445 150.081 10.4727C150.524 10.8008 150.849 11.2542 151.059 11.833C151.273 12.4072 151.346 13.0361 151.278 13.7197L151.264 13.8701C151.178 14.5902 150.963 15.2419 150.622 15.8252C150.28 16.404 149.838 16.8551 149.295 17.1787C148.753 17.5023 148.158 17.6549 147.511 17.6367C146.896 17.6276 146.365 17.459 145.918 17.1309C145.476 16.8027 145.153 16.3561 144.948 15.791C144.743 15.2259 144.67 14.6038 144.729 13.9248C144.797 13.1592 145.005 12.471 145.351 11.8604C145.697 11.2497 146.142 10.778 146.684 10.4453C147.231 10.1081 147.832 9.94857 148.489 9.9668ZM145.973 13.9316C145.941 14.2188 145.941 14.5173 145.973 14.8271C146.019 15.3649 146.178 15.7933 146.452 16.1123C146.73 16.4313 147.099 16.5977 147.559 16.6113C147.969 16.625 148.347 16.5247 148.694 16.3105C149.04 16.0918 149.332 15.7637 149.569 15.3262C149.806 14.8887 149.958 14.4033 150.027 13.8701C150.063 13.4508 150.07 13.0977 150.047 12.8105C149.993 12.2591 149.826 11.8239 149.548 11.5049C149.27 11.1859 148.901 11.0173 148.441 10.999C147.803 10.9854 147.261 11.236 146.814 11.751C146.367 12.266 146.092 12.9404 145.987 13.7744L145.973 13.9316ZM156.081 15.4971C156.149 14.9867 155.869 14.6266 155.24 14.417L153.955 14.041C152.87 13.6673 152.346 13.0475 152.382 12.1816C152.414 11.5299 152.711 10.9967 153.271 10.582C153.836 10.1628 154.499 9.95768 155.26 9.9668C156.008 9.97591 156.614 10.1947 157.079 10.623C157.548 11.0469 157.774 11.6006 157.756 12.2842L156.525 12.2773C156.534 11.9082 156.418 11.6074 156.176 11.375C155.935 11.1426 155.614 11.0218 155.213 11.0127C154.784 11.0036 154.415 11.1084 154.105 11.3271C153.818 11.5322 153.652 11.8011 153.606 12.1338C153.547 12.5622 153.809 12.8743 154.392 13.0703L155.014 13.2412C155.862 13.46 156.464 13.7448 156.819 14.0957C157.174 14.4466 157.339 14.8818 157.311 15.4014C157.284 15.8617 157.133 16.2627 156.86 16.6045C156.587 16.9463 156.222 17.2083 155.766 17.3906C155.311 17.5684 154.825 17.6504 154.31 17.6367C153.526 17.6276 152.879 17.3997 152.369 16.9531C151.858 16.502 151.612 15.9232 151.631 15.2168L152.868 15.2236C152.868 15.6383 153 15.971 153.264 16.2217C153.529 16.4723 153.891 16.5977 154.351 16.5977C154.802 16.6068 155.192 16.5133 155.52 16.3174C155.848 16.1169 156.035 15.8434 156.081 15.4971Z" fill="#FF7979"/>
<defs>
<clipPath id="clip0">
<rect width="24" height="24" fill="white" transform="translate(164 0.5)"/>
</clipPath>
</defs>
</svg>
