<svg width="224" height="25" viewBox="0 0 224 25" fill="none" xmlns="http://www.w3.org/2000/svg">
<g clip-path="url(#clip0)">
<path d="M212 24.5C218.627 24.5 224 19.1274 224 12.5C224 5.87258 218.627 0.5 212 0.5C205.373 0.5 200 5.87258 200 12.5C200 19.1274 205.373 24.5 212 24.5Z" fill="#FF7979"/>
<path d="M213 7.5C213 6.94772 212.552 6.5 212 6.5C211.448 6.5 211 6.94772 211 7.5V14.5C211 15.0523 211.448 15.5 212 15.5C212.552 15.5 213 15.0523 213 14.5V7.5Z" fill="white"/>
<path d="M213 18.5C213 17.9477 212.552 17.5 212 17.5C211.448 17.5 211 17.9477 211 18.5C211 19.0523 211.448 19.5 212 19.5C212.552 19.5 213 19.0523 213 18.5Z" fill="white"/>
</g>
<path d="M7.59418 12.8994H3.41058L2.79535 16.4268H7.66254L7.47113 17.5H1.32562L3.05511 7.54688H9.13226L8.94086 8.62695H4.14886L3.59515 11.8262H7.77875L7.59418 12.8994ZM12.8073 15.4971C12.8756 14.9867 12.5953 14.6266 11.9664 14.417L10.6813 14.041C9.59665 13.6673 9.07256 13.0475 9.10902 12.1816C9.14092 11.5299 9.43715 10.9967 9.99769 10.582C10.5628 10.1628 11.2259 9.95768 11.987 9.9668C12.7343 9.97591 13.3405 10.1947 13.8053 10.623C14.2747 11.0469 14.5003 11.6006 14.4821 12.2842L13.2516 12.2773C13.2607 11.9082 13.1445 11.6074 12.903 11.375C12.6614 11.1426 12.3401 11.0218 11.9391 11.0127C11.5107 11.0036 11.1416 11.1084 10.8317 11.3271C10.5446 11.5322 10.3782 11.8011 10.3327 12.1338C10.2734 12.5622 10.5355 12.8743 11.1188 13.0703L11.7409 13.2412C12.5885 13.46 13.1901 13.7448 13.5455 14.0957C13.901 14.4466 14.0651 14.8818 14.0377 15.4014C14.0104 15.8617 13.86 16.2627 13.5866 16.6045C13.3131 16.9463 12.9485 17.2083 12.4928 17.3906C12.0371 17.5684 11.5517 17.6504 11.0368 17.6367C10.2529 17.6276 9.60577 17.3997 9.09535 16.9531C8.58493 16.502 8.33884 15.9232 8.35707 15.2168L9.59437 15.2236C9.59437 15.6383 9.72653 15.971 9.99086 16.2217C10.2552 16.4723 10.6175 16.5977 11.0778 16.5977C11.5289 16.6068 11.9186 16.5133 12.2467 16.3174C12.5748 16.1169 12.7617 15.8434 12.8073 15.4971ZM17.8631 8.3125L17.5487 10.1035H18.8953L18.7245 11.0811H17.3846L16.6121 15.6816C16.5985 15.8001 16.5962 15.9095 16.6053 16.0098C16.6372 16.3652 16.8309 16.543 17.1864 16.543C17.3368 16.543 17.5373 16.5202 17.7879 16.4746L17.6922 17.5068C17.396 17.5889 17.0952 17.6299 16.7899 17.6299C16.2977 17.6208 15.9286 17.4408 15.6825 17.0898C15.4364 16.7344 15.3407 16.2581 15.3953 15.6611L16.1473 11.0811H14.8416L15.0125 10.1035H16.3182L16.6327 8.3125H17.8631ZM21.6065 17.6367C20.6859 17.6185 19.9659 17.279 19.4463 16.6182C18.9268 15.9574 18.708 15.112 18.7901 14.082L18.8243 13.7881C18.9017 13.0544 19.1182 12.3844 19.4737 11.7783C19.8337 11.1722 20.2712 10.7165 20.7862 10.4111C21.3011 10.1012 21.8571 9.95312 22.4541 9.9668C23.2152 9.98503 23.8122 10.238 24.2452 10.7256C24.6781 11.2132 24.9151 11.874 24.9561 12.708C24.9698 13.0042 24.9606 13.3005 24.9287 13.5967L24.8536 14.1641H20.0205C19.9385 14.834 20.0479 15.4036 20.3487 15.873C20.654 16.3424 21.1075 16.5863 21.709 16.6045C22.4382 16.6227 23.1127 16.2946 23.7325 15.6201L24.4434 16.2217C24.1335 16.6683 23.7325 17.0192 23.2403 17.2744C22.7526 17.5251 22.208 17.6458 21.6065 17.6367ZM22.3926 10.999C21.8822 10.9854 21.4356 11.1585 21.0528 11.5186C20.6745 11.8786 20.3737 12.4141 20.1504 13.125L23.7461 13.1318L23.7735 13.0225C23.8464 12.4482 23.753 11.972 23.4932 11.5938C23.238 11.2109 22.8711 11.0127 22.3926 10.999ZM30.8227 16.6113C31.2648 16.6204 31.6635 16.4928 32.019 16.2285C32.3745 15.9596 32.6069 15.6087 32.7162 15.1758L33.8852 15.1689C33.8168 15.6338 33.63 16.0576 33.3246 16.4404C33.0239 16.8232 32.6433 17.1217 32.183 17.3359C31.7228 17.5501 31.2511 17.6504 30.768 17.6367C30.1528 17.6276 29.631 17.4681 29.2026 17.1582C28.7787 16.8438 28.4666 16.4085 28.2661 15.8525C28.0655 15.292 27.9972 14.6631 28.061 13.9658L28.0952 13.624C28.1817 12.9131 28.3891 12.2773 28.7172 11.7168C29.0453 11.1562 29.4737 10.721 30.0024 10.4111C30.531 10.0967 31.1144 9.94857 31.7524 9.9668C32.5271 9.98503 33.1469 10.2448 33.6118 10.7461C34.0766 11.2474 34.309 11.8831 34.309 12.6533L33.1537 12.6465C33.1446 12.1634 33.0102 11.7738 32.7504 11.4775C32.4907 11.1768 32.1398 11.0173 31.6977 10.999C31.0551 10.9854 30.5196 11.2246 30.0912 11.7168C29.6674 12.209 29.4031 12.8971 29.2983 13.7812L29.2778 13.959C29.2504 14.2507 29.2459 14.5514 29.2641 14.8613C29.296 15.3945 29.4464 15.8161 29.7153 16.126C29.9842 16.4359 30.3533 16.5977 30.8227 16.6113ZM38.7018 17.5C38.6699 17.3678 38.6539 17.238 38.6539 17.1104L38.6744 16.7207C37.9954 17.3496 37.2754 17.6549 36.5143 17.6367C35.8626 17.6276 35.3317 17.4225 34.9215 17.0215C34.5159 16.6159 34.3314 16.11 34.3678 15.5039C34.4134 14.7201 34.7552 14.1094 35.3932 13.6719C36.0358 13.2298 36.8789 13.0088 37.9225 13.0088L39.2145 13.0156L39.2965 12.4277C39.3421 11.9857 39.2555 11.637 39.0368 11.3818C38.8226 11.1221 38.499 10.9876 38.0661 10.9785C37.6422 10.9694 37.2662 11.0742 36.9381 11.293C36.6146 11.5072 36.4163 11.792 36.3434 12.1475L35.0993 12.1543C35.1403 11.7214 35.3089 11.3385 35.6051 11.0059C35.9013 10.6686 36.2819 10.4089 36.7467 10.2266C37.2116 10.0397 37.6924 9.95085 38.1891 9.95996C38.9593 9.97819 39.5586 10.2129 39.9869 10.6641C40.4153 11.1107 40.5953 11.7054 40.527 12.4482L39.9254 16.1123L39.8912 16.6387C39.8821 16.8893 39.9095 17.1377 39.9733 17.3838L39.9596 17.5H38.7018ZM36.7604 16.543C37.1569 16.5521 37.5306 16.4587 37.8815 16.2627C38.2369 16.0622 38.5423 15.7865 38.7975 15.4355L39.0641 13.9111L38.1276 13.9043C37.3483 13.9043 36.7513 14.0273 36.3366 14.2734C35.9218 14.5195 35.6871 14.8682 35.6325 15.3193C35.5914 15.6657 35.6712 15.9551 35.8717 16.1875C36.0768 16.4154 36.373 16.5339 36.7604 16.543ZM43.3817 10.0967L43.2244 10.9238C43.8442 10.2676 44.5939 9.94857 45.4735 9.9668C45.9429 9.97591 46.3394 10.083 46.6629 10.2881C46.9911 10.4932 47.2166 10.7826 47.3397 11.1562C48.0324 10.3451 48.8504 9.94857 49.7938 9.9668C50.5321 9.98503 51.0767 10.2334 51.4276 10.7119C51.7785 11.1904 51.9084 11.833 51.8172 12.6396L51.0037 17.5H49.7733L50.5799 12.626C50.6073 12.389 50.6073 12.1725 50.5799 11.9766C50.4933 11.3568 50.0877 11.04 49.3631 11.0264C48.9119 11.0173 48.5018 11.1585 48.1327 11.4502C47.7681 11.7373 47.5334 12.1156 47.4286 12.585L46.5877 17.5H45.3436L46.1639 12.6328C46.2231 12.127 46.1457 11.7373 45.9315 11.4639C45.7218 11.1904 45.3937 11.0492 44.9471 11.04C44.1769 11.0218 43.564 11.3727 43.1082 12.0928L42.1717 17.5H40.9344L42.2196 10.1035L43.3817 10.0967ZM58.917 13.8359C58.8259 14.5879 58.6231 15.2646 58.3086 15.8662C57.9942 16.4678 57.6045 16.9189 57.1397 17.2197C56.6748 17.516 56.1599 17.6572 55.5948 17.6436C54.738 17.6253 54.0817 17.3359 53.626 16.7754L52.9629 20.3438H51.7256L53.503 10.1035L54.6241 10.0967L54.4873 10.9238C55.098 10.2676 55.8295 9.94857 56.6817 9.9668C57.3926 9.98503 57.9463 10.2471 58.3428 10.7529C58.7393 11.2588 58.9489 11.9561 58.9717 12.8447C58.9763 13.1364 58.9649 13.4189 58.9375 13.6924L58.917 13.8359ZM57.7002 13.6924L57.7344 13.1182C57.7344 12.4528 57.6068 11.9447 57.3516 11.5938C57.1009 11.2383 56.7364 11.0514 56.2579 11.0332C55.5424 11.015 54.9248 11.3545 54.4053 12.0518L53.7832 15.5996C54.0612 16.2559 54.5603 16.5931 55.2803 16.6113C55.8955 16.625 56.4174 16.3857 56.8457 15.8936C57.2787 15.3968 57.5635 14.6631 57.7002 13.6924ZM63.3235 9.9668C63.9433 9.97591 64.4742 10.1445 64.9162 10.4727C65.3583 10.8008 65.6842 11.2542 65.8938 11.833C66.108 12.4072 66.1809 13.0361 66.1125 13.7197L66.0989 13.8701C66.0123 14.5902 65.7981 15.2419 65.4563 15.8252C65.1145 16.404 64.6724 16.8551 64.1301 17.1787C63.5878 17.5023 62.9931 17.6549 62.3459 17.6367C61.7307 17.6276 61.1998 17.459 60.7532 17.1309C60.3111 16.8027 59.9875 16.3561 59.7825 15.791C59.5774 15.2259 59.5045 14.6038 59.5637 13.9248C59.6321 13.1592 59.8394 12.471 60.1858 11.8604C60.5321 11.2497 60.9765 10.778 61.5188 10.4453C62.0657 10.1081 62.6672 9.94857 63.3235 9.9668ZM60.8078 13.9316C60.7759 14.2188 60.7759 14.5173 60.8078 14.8271C60.8534 15.3649 61.0129 15.7933 61.2864 16.1123C61.5644 16.4313 61.9335 16.5977 62.3938 16.6113C62.8039 16.625 63.1822 16.5247 63.5286 16.3105C63.8749 16.0918 64.1666 15.7637 64.4036 15.3262C64.6405 14.8887 64.7932 14.4033 64.8616 13.8701C64.898 13.4508 64.9049 13.0977 64.8821 12.8105C64.8274 12.2591 64.661 11.8239 64.383 11.5049C64.1051 11.1859 63.7359 11.0173 63.2756 10.999C62.6376 10.9854 62.0953 11.236 61.6487 11.751C61.2021 12.266 60.9263 12.9404 60.8215 13.7744L60.8078 13.9316ZM71.5211 10.0967L71.3434 11.0332C72.0088 10.304 72.7653 9.94857 73.6129 9.9668C74.3102 9.98503 74.8252 10.2266 75.1579 10.6914C75.4905 11.1562 75.6136 11.8102 75.527 12.6533L74.7204 17.5H73.483L74.2965 12.6328C74.3239 12.4095 74.3261 12.2021 74.3034 12.0107C74.2259 11.3727 73.8499 11.0469 73.1754 11.0332C72.4326 11.0195 71.7809 11.416 71.2204 12.2227L70.3043 17.5H69.067L70.3522 10.1035L71.5211 10.0967ZM80.036 9.9668C80.6558 9.97591 81.1867 10.1445 81.6287 10.4727C82.0708 10.8008 82.3966 11.2542 82.6063 11.833C82.8205 12.4072 82.8934 13.0361 82.825 13.7197L82.8114 13.8701C82.7248 14.5902 82.5106 15.2419 82.1688 15.8252C81.827 16.404 81.3849 16.8551 80.8426 17.1787C80.3003 17.5023 79.7056 17.6549 79.0584 17.6367C78.4432 17.6276 77.9123 17.459 77.4657 17.1309C77.0236 16.8027 76.7 16.3561 76.495 15.791C76.2899 15.2259 76.217 14.6038 76.2762 13.9248C76.3446 13.1592 76.5519 12.471 76.8983 11.8604C77.2446 11.2497 77.689 10.778 78.2313 10.4453C78.7782 10.1081 79.3797 9.94857 80.036 9.9668ZM77.5203 13.9316C77.4884 14.2188 77.4884 14.5173 77.5203 14.8271C77.5659 15.3649 77.7254 15.7933 77.9989 16.1123C78.2769 16.4313 78.646 16.5977 79.1063 16.6113C79.5164 16.625 79.8947 16.5247 80.2411 16.3105C80.5874 16.0918 80.8791 15.7637 81.1161 15.3262C81.353 14.8887 81.5057 14.4033 81.5741 13.8701C81.6105 13.4508 81.6174 13.0977 81.5946 12.8105C81.5399 12.2591 81.3735 11.8239 81.0955 11.5049C80.8175 11.1859 80.4484 11.0173 79.9881 10.999C79.3501 10.9854 78.8078 11.236 78.3612 11.751C77.9146 12.266 77.6388 12.9404 77.534 13.7744L77.5203 13.9316ZM92.4787 13.8359C92.3876 14.5879 92.1848 15.2646 91.8703 15.8662C91.5559 16.4678 91.1662 16.9189 90.7014 17.2197C90.2366 17.516 89.7216 17.6572 89.1565 17.6436C88.2997 17.6253 87.6435 17.3359 87.1877 16.7754L86.5246 20.3438H85.2873L87.0647 10.1035L88.1858 10.0967L88.0491 10.9238C88.6597 10.2676 89.3912 9.94857 90.2434 9.9668C90.9543 9.98503 91.508 10.2471 91.9045 10.7529C92.301 11.2588 92.5106 11.9561 92.5334 12.8447C92.538 13.1364 92.5266 13.4189 92.4993 13.6924L92.4787 13.8359ZM91.2619 13.6924L91.2961 13.1182C91.2961 12.4528 91.1685 11.9447 90.9133 11.5938C90.6627 11.2383 90.2981 11.0514 89.8196 11.0332C89.1041 11.015 88.4866 11.3545 87.967 12.0518L87.345 15.5996C87.623 16.2559 88.122 16.5931 88.842 16.6113C89.4573 16.625 89.9791 16.3857 90.4075 15.8936C90.8404 15.3968 91.1252 14.6631 91.2619 13.6924ZM97.4731 16.7686C96.8943 17.3656 96.1583 17.6549 95.2651 17.6367C94.5587 17.6185 94.0346 17.3656 93.6928 16.8779C93.3556 16.3903 93.2302 15.7249 93.3168 14.8818L94.1098 10.1035H95.3471L94.5473 14.9023C94.5245 15.1029 94.52 15.2988 94.5336 15.4902C94.5564 15.8184 94.6544 16.0758 94.8276 16.2627C95.0008 16.4495 95.2423 16.5498 95.5522 16.5635C96.4363 16.5908 97.1199 16.2331 97.603 15.4902L98.5327 10.1035H99.77L98.4848 17.5H97.3159L97.4731 16.7686ZM102.837 17.6367C101.916 17.6185 101.196 17.279 100.676 16.6182C100.157 15.9574 99.9381 15.112 100.02 14.082L100.054 13.7881C100.132 13.0544 100.348 12.3844 100.704 11.7783C101.064 11.1722 101.501 10.7165 102.016 10.4111C102.531 10.1012 103.087 9.95312 103.684 9.9668C104.445 9.98503 105.042 10.238 105.475 10.7256C105.908 11.2132 106.145 11.874 106.186 12.708C106.2 13.0042 106.191 13.3005 106.159 13.5967L106.084 14.1641H101.251C101.169 14.834 101.278 15.4036 101.579 15.873C101.884 16.3424 102.338 16.5863 102.939 16.6045C103.668 16.6227 104.343 16.2946 104.963 15.6201L105.673 16.2217C105.364 16.6683 104.963 17.0192 104.47 17.2744C103.983 17.5251 103.438 17.6458 102.837 17.6367ZM103.623 10.999C103.112 10.9854 102.666 11.1585 102.283 11.5186C101.905 11.8786 101.604 12.4141 101.381 13.125L104.976 13.1318L105.004 13.0225C105.076 12.4482 104.983 11.972 104.723 11.5938C104.468 11.2109 104.101 11.0127 103.623 10.999ZM106.553 13.7881C106.644 13.0361 106.851 12.3571 107.175 11.751C107.498 11.1449 107.897 10.6914 108.371 10.3906C108.845 10.0898 109.367 9.94629 109.936 9.95996C110.761 9.97819 111.395 10.279 111.837 10.8623L112.548 7H113.785L111.967 17.5H110.839L110.969 16.707C110.385 17.3451 109.665 17.6549 108.808 17.6367C108.125 17.6185 107.58 17.3519 107.175 16.8369C106.769 16.3174 106.55 15.6224 106.518 14.752C106.505 14.4831 106.516 14.1618 106.553 13.7881ZM107.742 14.499C107.728 15.1507 107.845 15.6566 108.091 16.0166C108.337 16.3766 108.697 16.5612 109.171 16.5703C109.886 16.6022 110.522 16.2422 111.078 15.4902L111.666 12.0723C111.392 11.3978 110.896 11.0514 110.176 11.0332C109.688 11.0195 109.257 11.1676 108.884 11.4775C108.514 11.7829 108.232 12.2135 108.036 12.7695C107.845 13.321 107.747 13.8975 107.742 14.499ZM116.421 17.6367C115.5 17.6185 114.78 17.279 114.261 16.6182C113.741 15.9574 113.522 15.112 113.605 14.082L113.639 13.7881C113.716 13.0544 113.933 12.3844 114.288 11.7783C114.648 11.1722 115.086 10.7165 115.601 10.4111C116.116 10.1012 116.672 9.95312 117.269 9.9668C118.03 9.98503 118.627 10.238 119.06 10.7256C119.493 11.2132 119.73 11.874 119.771 12.708C119.784 13.0042 119.775 13.3005 119.743 13.5967L119.668 14.1641H114.835C114.753 14.834 114.862 15.4036 115.163 15.873C115.468 16.3424 115.922 16.5863 116.523 16.6045C117.253 16.6227 117.927 16.2946 118.547 15.6201L119.258 16.2217C118.948 16.6683 118.547 17.0192 118.055 17.2744C117.567 17.5251 117.022 17.6458 116.421 17.6367ZM117.207 10.999C116.697 10.9854 116.25 11.1585 115.867 11.5186C115.489 11.8786 115.188 12.4141 114.965 13.125L118.561 13.1318L118.588 13.0225C118.661 12.4482 118.567 11.972 118.308 11.5938C118.052 11.2109 117.686 11.0127 117.207 10.999ZM126.3 9.95996C127.134 9.97819 127.77 10.2767 128.207 10.8555L128.433 10.1035H129.575L127.797 20.3438H126.567L127.237 16.8164C126.644 17.3815 125.956 17.6549 125.172 17.6367C124.48 17.6276 123.926 17.3656 123.511 16.8506C123.096 16.3356 122.873 15.6406 122.841 14.7656C122.814 14.2005 122.88 13.6058 123.039 12.9814C123.199 12.3525 123.436 11.8057 123.75 11.3408C124.069 10.8714 124.445 10.5205 124.878 10.2881C125.311 10.0557 125.785 9.94629 126.3 9.95996ZM124.113 13.9316L124.079 14.5059C124.065 15.1667 124.183 15.6816 124.434 16.0508C124.689 16.4154 125.054 16.6022 125.528 16.6113C126.225 16.6296 126.843 16.2969 127.38 15.6133L128.023 11.9766C127.722 11.3431 127.23 11.0173 126.546 10.999C125.922 10.9854 125.396 11.2246 124.967 11.7168C124.539 12.209 124.254 12.9473 124.113 13.9316ZM134.302 16.7686C133.724 17.3656 132.988 17.6549 132.094 17.6367C131.388 17.6185 130.864 17.3656 130.522 16.8779C130.185 16.3903 130.06 15.7249 130.146 14.8818L130.939 10.1035H132.176L131.377 14.9023C131.354 15.1029 131.349 15.2988 131.363 15.4902C131.386 15.8184 131.484 16.0758 131.657 16.2627C131.83 16.4495 132.072 16.5498 132.381 16.5635C133.266 16.5908 133.949 16.2331 134.432 15.4902L135.362 10.1035H136.599L135.314 17.5H134.145L134.302 16.7686ZM139.666 17.6367C138.745 17.6185 138.025 17.279 137.506 16.6182C136.986 15.9574 136.767 15.112 136.849 14.082L136.884 13.7881C136.961 13.0544 137.178 12.3844 137.533 11.7783C137.893 11.1722 138.331 10.7165 138.846 10.4111C139.361 10.1012 139.917 9.95312 140.514 9.9668C141.275 9.98503 141.872 10.238 142.305 10.7256C142.737 11.2132 142.974 11.874 143.015 12.708C143.029 13.0042 143.02 13.3005 142.988 13.5967L142.913 14.1641H138.08C137.998 14.834 138.107 15.4036 138.408 15.873C138.713 16.3424 139.167 16.5863 139.768 16.6045C140.498 16.6227 141.172 16.2946 141.792 15.6201L142.503 16.2217C142.193 16.6683 141.792 17.0192 141.3 17.2744C140.812 17.5251 140.267 17.6458 139.666 17.6367ZM140.452 10.999C139.942 10.9854 139.495 11.1585 139.112 11.5186C138.734 11.8786 138.433 12.4141 138.21 13.125L141.806 13.1318L141.833 13.0225C141.906 12.4482 141.812 11.972 141.553 11.5938C141.297 11.2109 140.931 11.0127 140.452 10.999ZM143.382 13.7881C143.473 13.0361 143.68 12.3571 144.004 11.751C144.328 11.1449 144.726 10.6914 145.2 10.3906C145.674 10.0898 146.196 9.94629 146.766 9.95996C147.591 9.97819 148.224 10.279 148.666 10.8623L149.377 7H150.614L148.796 17.5H147.668L147.798 16.707C147.215 17.3451 146.494 17.6549 145.638 17.6367C144.954 17.6185 144.41 17.3519 144.004 16.8369C143.598 16.3174 143.38 15.6224 143.348 14.752C143.334 14.4831 143.345 14.1618 143.382 13.7881ZM144.571 14.499C144.558 15.1507 144.674 15.6566 144.92 16.0166C145.166 16.3766 145.526 16.5612 146 16.5703C146.716 16.6022 147.351 16.2422 147.907 15.4902L148.495 12.0723C148.222 11.3978 147.725 11.0514 147.005 11.0332C146.517 11.0195 146.087 11.1676 145.713 11.4775C145.344 11.7829 145.061 12.2135 144.865 12.7695C144.674 13.321 144.576 13.8975 144.571 14.499ZM154.576 17.5C154.544 17.3678 154.529 17.238 154.529 17.1104L154.549 16.7207C153.87 17.3496 153.15 17.6549 152.389 17.6367C151.737 17.6276 151.206 17.4225 150.796 17.0215C150.391 16.6159 150.206 16.11 150.242 15.5039C150.288 14.7201 150.63 14.1094 151.268 13.6719C151.91 13.2298 152.753 13.0088 153.797 13.0088L155.089 13.0156L155.171 12.4277C155.217 11.9857 155.13 11.637 154.911 11.3818C154.697 11.1221 154.374 10.9876 153.941 10.9785C153.517 10.9694 153.141 11.0742 152.813 11.293C152.489 11.5072 152.291 11.792 152.218 12.1475L150.974 12.1543C151.015 11.7214 151.183 11.3385 151.48 11.0059C151.776 10.6686 152.156 10.4089 152.621 10.2266C153.086 10.0397 153.567 9.95085 154.064 9.95996C154.834 9.97819 155.433 10.2129 155.862 10.6641C156.29 11.1107 156.47 11.7054 156.402 12.4482L155.8 16.1123L155.766 16.6387C155.757 16.8893 155.784 17.1377 155.848 17.3838L155.834 17.5H154.576ZM152.635 16.543C153.031 16.5521 153.405 16.4587 153.756 16.2627C154.112 16.0622 154.417 15.7865 154.672 15.4355L154.939 13.9111L154.002 13.9043C153.223 13.9043 152.626 14.0273 152.211 14.2734C151.796 14.5195 151.562 14.8682 151.507 15.3193C151.466 15.6657 151.546 15.9551 151.746 16.1875C151.951 16.4154 152.248 16.5339 152.635 16.543ZM161.416 11.2314L160.835 11.1699C160.042 11.1699 159.418 11.5277 158.962 12.2432L158.053 17.5H156.816L158.101 10.1035L159.297 10.0967L159.113 10.958C159.637 10.2699 160.254 9.9349 160.965 9.95312C161.116 9.95312 161.312 9.9873 161.553 10.0557L161.416 11.2314ZM166.196 15.7705L168.862 10.1035H170.168L166.442 17.5H165.499L164.05 10.1035H165.266L166.196 15.7705ZM173.87 17.5C173.838 17.3678 173.822 17.238 173.822 17.1104L173.843 16.7207C173.164 17.3496 172.444 17.6549 171.683 17.6367C171.031 17.6276 170.5 17.4225 170.09 17.0215C169.684 16.6159 169.5 16.11 169.536 15.5039C169.582 14.7201 169.924 14.1094 170.562 13.6719C171.204 13.2298 172.047 13.0088 173.091 13.0088L174.383 13.0156L174.465 12.4277C174.51 11.9857 174.424 11.637 174.205 11.3818C173.991 11.1221 173.667 10.9876 173.234 10.9785C172.811 10.9694 172.435 11.0742 172.106 11.293C171.783 11.5072 171.585 11.792 171.512 12.1475L170.268 12.1543C170.309 11.7214 170.477 11.3385 170.773 11.0059C171.07 10.6686 171.45 10.4089 171.915 10.2266C172.38 10.0397 172.861 9.95085 173.357 9.95996C174.128 9.97819 174.727 10.2129 175.155 10.6641C175.584 11.1107 175.764 11.7054 175.695 12.4482L175.094 16.1123L175.06 16.6387C175.05 16.8893 175.078 17.1377 175.142 17.3838L175.128 17.5H173.87ZM171.929 16.543C172.325 16.5521 172.699 16.4587 173.05 16.2627C173.405 16.0622 173.711 15.7865 173.966 15.4355L174.232 13.9111L173.296 13.9043C172.517 13.9043 171.92 14.0273 171.505 14.2734C171.09 14.5195 170.855 14.8682 170.801 15.3193C170.76 15.6657 170.84 15.9551 171.04 16.1875C171.245 16.4154 171.541 16.5339 171.929 16.543ZM179.234 16.6113C179.676 16.6204 180.074 16.4928 180.43 16.2285C180.785 15.9596 181.018 15.6087 181.127 15.1758L182.296 15.1689C182.228 15.6338 182.041 16.0576 181.736 16.4404C181.435 16.8232 181.054 17.1217 180.594 17.3359C180.134 17.5501 179.662 17.6504 179.179 17.6367C178.564 17.6276 178.042 17.4681 177.614 17.1582C177.19 16.8438 176.878 16.4085 176.677 15.8525C176.476 15.292 176.408 14.6631 176.472 13.9658L176.506 13.624C176.593 12.9131 176.8 12.2773 177.128 11.7168C177.456 11.1562 177.885 10.721 178.413 10.4111C178.942 10.0967 179.525 9.94857 180.163 9.9668C180.938 9.98503 181.558 10.2448 182.023 10.7461C182.488 11.2474 182.72 11.8831 182.72 12.6533L181.565 12.6465C181.556 12.1634 181.421 11.7738 181.161 11.4775C180.902 11.1768 180.551 11.0173 180.109 10.999C179.466 10.9854 178.931 11.2246 178.502 11.7168C178.078 12.209 177.814 12.8971 177.709 13.7812L177.689 13.959C177.661 14.2507 177.657 14.5514 177.675 14.8613C177.707 15.3945 177.857 15.8161 178.126 16.126C178.395 16.4359 178.764 16.5977 179.234 16.6113ZM183.927 17.5H182.697L183.982 10.1035H185.212L183.927 17.5ZM184.946 7.40332C185.155 7.39421 185.329 7.45801 185.465 7.59473C185.607 7.72689 185.677 7.90234 185.677 8.12109C185.673 8.33529 185.602 8.51074 185.465 8.64746C185.333 8.78418 185.16 8.8571 184.946 8.86621C184.732 8.87533 184.556 8.8138 184.419 8.68164C184.283 8.54948 184.217 8.3763 184.221 8.16211C184.226 7.94792 184.294 7.77018 184.426 7.62891C184.558 7.48763 184.732 7.41243 184.946 7.40332ZM189.359 9.9668C189.979 9.97591 190.51 10.1445 190.952 10.4727C191.394 10.8008 191.72 11.2542 191.929 11.833C192.144 12.4072 192.216 13.0361 192.148 13.7197L192.134 13.8701C192.048 14.5902 191.834 15.2419 191.492 15.8252C191.15 16.404 190.708 16.8551 190.166 17.1787C189.623 17.5023 189.029 17.6549 188.381 17.6367C187.766 17.6276 187.235 17.459 186.789 17.1309C186.347 16.8027 186.023 16.3561 185.818 15.791C185.613 15.2259 185.54 14.6038 185.599 13.9248C185.668 13.1592 185.875 12.471 186.221 11.8604C186.568 11.2497 187.012 10.778 187.554 10.4453C188.101 10.1081 188.703 9.94857 189.359 9.9668ZM186.843 13.9316C186.811 14.2188 186.811 14.5173 186.843 14.8271C186.889 15.3649 187.048 15.7933 187.322 16.1123C187.6 16.4313 187.969 16.5977 188.429 16.6113C188.839 16.625 189.218 16.5247 189.564 16.3105C189.91 16.0918 190.202 15.7637 190.439 15.3262C190.676 14.8887 190.829 14.4033 190.897 13.8701C190.934 13.4508 190.94 13.0977 190.918 12.8105C190.863 12.2591 190.697 11.8239 190.419 11.5049C190.141 11.1859 189.771 11.0173 189.311 10.999C188.673 10.9854 188.131 11.236 187.684 11.751C187.238 12.266 186.962 12.9404 186.857 13.7744L186.843 13.9316Z" fill="#FF7979"/>
<defs>
<clipPath id="clip0">
<rect width="24" height="24" fill="white" transform="translate(200 0.5)"/>
</clipPath>
</defs>
</svg>
