<svg width="31" height="31" viewBox="0 0 31 31" fill="none" xmlns="http://www.w3.org/2000/svg">
<circle cx="15.5" cy="15.5" r="15" fill="white" stroke="#C9D3F6"/>
<path d="M9.02922 19.5V12.5C9.02922 10.5 10.6959 10 11.5292 10H19.5292C21.5292 10 22.0292 11.6667 22.0292 12.5V19.5C22.0292 21.5 20.3625 22 19.5292 22H12.5292C9.32922 22 8.86255 20.3333 9.02922 19.5Z" stroke="#4E7CEB" stroke-width="2"/>
<path d="M16.6093 14.0034H14.8289C12.5379 13.9321 13.0485 14.9958 13.0485 16.6498C13.0485 18.3038 14.8289 17.973 16.6093 17.973C18.0336 17.973 18.0929 17.0909 17.9446 16.6498V14.9958C17.9446 14.2019 17.0544 14.0034 16.6093 14.0034Z" stroke="#4E7CEB" stroke-width="2"/>
</svg>
