<svg width="31" height="31" viewBox="0 0 31 31" fill="none" xmlns="http://www.w3.org/2000/svg">
<circle cx="15.5" cy="15.5" r="15" fill="white" stroke="#C9D3F6"/>
<path d="M20.5035 15.046C21.3035 21.846 14.2722 22.1667 10.7722 21.5C10.4921 21.4466 10.2172 21.3471 9.97061 21.2361C9.68409 21.2392 9.44161 21.1694 9.27225 21C8.65941 20.3872 9.16315 20.8728 9.97061 21.2361C11.0375 21.2248 12.7152 20.2029 13.5035 19.546C9.90348 17.946 10.0035 14.2127 10.5035 12.546C13.7035 17.346 15.8368 14.546 16.5035 12.546C17.3035 9.74602 19.5035 11.3794 20.5035 12.546L23.0035 13.546L20.5035 15.046Z" fill="#4E7CEB"/>
<path d="M10.7722 21.5C14.2722 22.1667 21.3035 21.846 20.5035 15.046L23.0035 13.546L20.5035 12.546C19.5035 11.3794 17.3035 9.74602 16.5035 12.546C15.8368 14.546 13.7035 17.346 10.5035 12.546C10.0035 14.2127 9.90348 17.946 13.5035 19.546C12.5035 20.3794 10.0722 21.8 9.27225 21C8.47225 20.2 9.57499 21.272 10.7722 21.5Z" stroke="#4E7CEB"/>
</svg>
