<svg width="205" height="13" viewBox="0 0 205 13" fill="none" xmlns="http://www.w3.org/2000/svg">
<path d="M5.395 10.13C4.49367 10.13 3.66167 9.909 2.899 9.467C2.145 9.025 1.547 8.427 1.105 7.673C0.663 6.91033 0.442 6.07833 0.442 5.177C0.442 4.28433 0.663 3.461 1.105 2.707C1.547 1.94433 2.145 1.342 2.899 0.899999C3.66167 0.449333 4.49367 0.224 5.395 0.224C6.28767 0.224 7.111 0.449333 7.865 0.899999C8.62767 1.342 9.23 1.94433 9.672 2.707C10.1227 3.461 10.348 4.28433 10.348 5.177C10.348 6.07833 10.1227 6.91033 9.672 7.673C9.23 8.427 8.62767 9.025 7.865 9.467C7.111 9.909 6.28767 10.13 5.395 10.13ZM5.395 9.441C6.15767 9.441 6.85967 9.26333 7.501 8.908C8.151 8.55267 8.66667 8.05433 9.048 7.413C9.42933 6.763 9.62 6.01767 9.62 5.177C9.62 4.345 9.42933 3.604 9.048 2.954C8.66667 2.304 8.151 1.80133 7.501 1.446C6.85967 1.082 6.15767 0.899999 5.395 0.899999C4.62367 0.899999 3.913 1.082 3.263 1.446C2.62167 1.80133 2.11033 2.304 1.729 2.954C1.35633 3.604 1.17 4.345 1.17 5.177C1.17 6.01767 1.35633 6.763 1.729 7.413C2.11033 8.05433 2.62167 8.55267 3.263 8.908C3.90433 9.26333 4.615 9.441 5.395 9.441ZM5.421 2.343C6.279 2.343 6.97667 2.76333 7.514 3.604C7.54 3.66467 7.527 3.708 7.475 3.734L6.955 3.929H6.929C6.89433 3.929 6.864 3.903 6.838 3.851C6.46533 3.26167 6.01033 2.967 5.473 2.967C4.953 2.967 4.53267 3.16633 4.212 3.565C3.89133 3.955 3.731 4.475 3.731 5.125C3.731 5.78367 3.89133 6.31233 4.212 6.711C4.54133 7.101 4.966 7.296 5.486 7.296C5.81533 7.296 6.11 7.20933 6.37 7.036C6.63 6.854 6.84667 6.61133 7.02 6.308C7.03733 6.26467 7.08067 6.26033 7.15 6.295L7.527 6.451C7.57033 6.46833 7.58333 6.51167 7.566 6.581C7.332 6.98833 7.033 7.31767 6.669 7.569C6.305 7.81167 5.889 7.933 5.421 7.933C4.93567 7.933 4.50233 7.816 4.121 7.582C3.74833 7.348 3.45367 7.023 3.237 6.607C3.029 6.18233 2.925 5.697 2.925 5.151C2.925 4.605 3.029 4.11967 3.237 3.695C3.45367 3.27033 3.75267 2.941 4.134 2.707C4.51533 2.46433 4.94433 2.343 5.421 2.343ZM17.7304 0.224C18.2764 0.224 18.8007 0.345333 19.3034 0.588C19.8147 0.830666 20.235 1.15567 20.5644 1.563C20.9024 1.96167 21.1017 2.39067 21.1624 2.85L21.1754 2.915C21.1754 2.967 21.1407 2.993 21.0714 2.993L20.3174 3.058H20.2784C20.2524 3.058 20.2307 3.04933 20.2134 3.032C20.2047 3.006 20.2004 2.97567 20.2004 2.941C20.0617 2.35167 19.7714 1.88367 19.3294 1.537C18.896 1.18167 18.3717 1.004 17.7564 1.004C16.7857 1.004 16.0447 1.35933 15.5334 2.07C15.022 2.78067 14.7664 3.825 14.7664 5.203C14.7664 6.54633 15.022 7.569 15.5334 8.271C16.0534 8.973 16.8247 9.324 17.8474 9.324C18.4887 9.324 19.0174 9.168 19.4334 8.856C19.858 8.544 20.2004 8.05867 20.4604 7.4C20.4777 7.36533 20.5167 7.35233 20.5774 7.361L21.2144 7.53C21.2577 7.54733 21.275 7.595 21.2664 7.673C21.1277 8.12367 20.898 8.53533 20.5774 8.908C20.2567 9.28067 19.8537 9.57967 19.3684 9.805C18.8917 10.0217 18.363 10.13 17.7824 10.13C16.9417 10.13 16.218 9.935 15.6114 9.545C15.0047 9.14633 14.541 8.57867 14.2204 7.842C13.8997 7.09667 13.7394 6.21267 13.7394 5.19C13.7394 4.15867 13.8954 3.27033 14.2074 2.525C14.528 1.77967 14.9874 1.212 15.5854 0.822C16.192 0.423333 16.907 0.224 17.7304 0.224ZM25.4543 10.13C24.813 10.13 24.2453 9.98267 23.7513 9.688C23.266 9.38467 22.889 8.96867 22.6203 8.44C22.3516 7.90267 22.2173 7.28733 22.2173 6.594C22.2173 5.892 22.3516 5.268 22.6203 4.722C22.8976 4.16733 23.2833 3.73833 23.7773 3.435C24.2713 3.13167 24.8346 2.98 25.4673 2.98C26.1 2.98 26.659 3.13167 27.1443 3.435C27.6383 3.73833 28.0196 4.163 28.2883 4.709C28.557 5.255 28.6913 5.87467 28.6913 6.568C28.6913 7.26133 28.557 7.881 28.2883 8.427C28.0196 8.96433 27.6383 9.38467 27.1443 9.688C26.659 9.98267 26.0956 10.13 25.4543 10.13ZM25.4803 9.441C26.2083 9.441 26.776 9.18533 27.1833 8.674C27.5993 8.154 27.8073 7.452 27.8073 6.568C27.8073 5.684 27.595 4.97767 27.1703 4.449C26.7543 3.92033 26.1866 3.656 25.4673 3.656C24.7393 3.656 24.163 3.92033 23.7383 4.449C23.3136 4.97767 23.1013 5.684 23.1013 6.568C23.1013 7.452 23.3136 8.154 23.7383 8.674C24.163 9.18533 24.7436 9.441 25.4803 9.441ZM30.7018 3.11C30.8058 3.11 30.8578 3.16633 30.8578 3.279V3.877C30.8578 3.955 30.8752 3.994 30.9098 3.994C30.9445 3.994 30.9835 3.97233 31.0268 3.929C31.0528 3.903 31.1482 3.80333 31.3128 3.63C31.4862 3.45667 31.7288 3.305 32.0408 3.175C32.3615 3.045 32.7125 2.98 33.0938 2.98C33.6485 2.98 34.1425 3.11 34.5758 3.37C35.0178 3.63 35.3645 4.02 35.6158 4.54C35.8672 5.06 35.9928 5.69267 35.9928 6.438C35.9928 7.18333 35.8672 7.83767 35.6158 8.401C35.3645 8.95567 35.0092 9.38467 34.5498 9.688C34.0905 9.98267 33.5575 10.13 32.9508 10.13C32.5608 10.13 32.2055 10.0693 31.8848 9.948C31.5728 9.82667 31.3042 9.67067 31.0788 9.48C31.0095 9.428 30.9618 9.402 30.9358 9.402C30.9012 9.402 30.8838 9.45833 30.8838 9.571V11.989C30.8838 12.093 30.8362 12.145 30.7408 12.145H30.1558C30.0692 12.145 30.0258 12.0973 30.0258 12.002V3.292C30.0258 3.22267 30.0388 3.175 30.0648 3.149C30.0908 3.123 30.1385 3.11 30.2078 3.11H30.7018ZM30.8838 8.544C31.1872 8.84733 31.4905 9.077 31.7938 9.233C32.0972 9.389 32.4222 9.467 32.7688 9.467C33.4708 9.467 34.0342 9.207 34.4588 8.687C34.8922 8.15833 35.1088 7.42167 35.1088 6.477C35.1088 5.541 34.8922 4.83467 34.4588 4.358C34.0342 3.88133 33.5012 3.643 32.8598 3.643C32.4872 3.643 32.1492 3.72533 31.8458 3.89C31.5512 4.05467 31.3172 4.267 31.1438 4.527C30.9705 4.77833 30.8838 5.02533 30.8838 5.268V8.544ZM37.6666 12.145C37.3633 12.145 37.1509 12.1363 37.0296 12.119C36.9083 12.1017 36.8476 12.0583 36.8476 11.989V11.612C36.8476 11.5513 36.8693 11.508 36.9126 11.482C36.9646 11.4647 37.0686 11.456 37.2246 11.456H38.0306C38.2386 11.456 38.4293 11.3737 38.6026 11.209C38.7846 11.0443 38.9276 10.8363 39.0316 10.585C39.1356 10.3423 39.1876 10.1083 39.1876 9.883C39.1876 9.74433 39.1703 9.62733 39.1356 9.532L36.6656 3.305C36.6569 3.28767 36.6526 3.26167 36.6526 3.227C36.6526 3.149 36.7003 3.11 36.7956 3.11H37.3806C37.4759 3.11 37.5366 3.15333 37.5626 3.24L39.6426 8.583C39.6686 8.661 39.7033 8.7 39.7466 8.7C39.7986 8.7 39.8419 8.64367 39.8766 8.531L41.9046 3.227C41.9479 3.149 42.0043 3.11 42.0736 3.11H42.5416C42.5936 3.11 42.6283 3.12733 42.6456 3.162C42.6716 3.19667 42.6759 3.23133 42.6586 3.266L39.7466 10.767C39.5386 11.287 39.2699 11.6467 38.9406 11.846C38.6199 12.0453 38.1953 12.145 37.6666 12.145ZM43.8999 10C43.7959 10 43.7439 9.948 43.7439 9.844V3.253C43.7439 3.15767 43.7872 3.11 43.8739 3.11H44.4329C44.5109 3.11 44.5499 3.15333 44.5499 3.24V4.098C44.5499 4.14133 44.5629 4.16733 44.5889 4.176C44.6149 4.18467 44.6452 4.17167 44.6799 4.137C45.0352 3.73833 45.3775 3.448 45.7069 3.266C46.0362 3.07533 46.3699 2.98 46.7079 2.98C46.8725 2.98 46.9895 2.993 47.0589 3.019C47.1369 3.03633 47.1759 3.07533 47.1759 3.136V3.734C47.1759 3.79467 47.1412 3.825 47.0719 3.825C46.8379 3.799 46.6689 3.786 46.5649 3.786C46.3049 3.786 46.0189 3.86833 45.7069 4.033C45.3949 4.189 45.1305 4.39267 44.9139 4.644C44.7059 4.89533 44.6019 5.14667 44.6019 5.398V9.844C44.6019 9.948 44.5455 10 44.4329 10H43.8999ZM49.1008 1.537C49.1008 1.615 49.0878 1.67567 49.0618 1.719C49.0358 1.75367 48.9838 1.771 48.9058 1.771H48.3078C48.2385 1.771 48.1908 1.75367 48.1648 1.719C48.1475 1.68433 48.1388 1.63233 48.1388 1.563V0.548999C48.1388 0.418999 48.1951 0.353999 48.3078 0.353999H48.9318C49.0445 0.353999 49.1008 0.414666 49.1008 0.535999V1.537ZM49.0488 9.805C49.0488 9.883 49.0358 9.935 49.0098 9.961C48.9838 9.987 48.9275 10 48.8408 10H48.3598C48.2991 10 48.2558 9.99133 48.2298 9.974C48.2038 9.948 48.1908 9.90467 48.1908 9.844V3.266C48.1908 3.20533 48.1995 3.16633 48.2168 3.149C48.2428 3.123 48.2818 3.11 48.3338 3.11H48.9058C48.9578 3.11 48.9925 3.123 49.0098 3.149C49.0358 3.16633 49.0488 3.20533 49.0488 3.266V9.805ZM56.8413 3.045C56.9366 3.045 57.0016 3.06233 57.0363 3.097C57.0709 3.123 57.0883 3.17067 57.0883 3.24V3.565C57.0883 3.643 57.0709 3.70367 57.0363 3.747C57.0016 3.78167 56.9409 3.799 56.8543 3.799C56.5769 3.799 56.3473 3.84233 56.1653 3.929C56.0526 3.98967 55.9746 4.04167 55.9313 4.085C55.8966 4.12833 55.8879 4.176 55.9053 4.228C55.9226 4.26267 55.9529 4.332 55.9963 4.436C56.0396 4.54 56.0743 4.657 56.1003 4.787C56.1263 4.90833 56.1393 5.04267 56.1393 5.19C56.1393 5.80533 55.9053 6.308 55.4373 6.698C54.9779 7.088 54.2976 7.283 53.3963 7.283C52.7549 7.283 52.2913 7.33933 52.0053 7.452C51.7279 7.56467 51.5893 7.70333 51.5893 7.868C51.5893 8.01533 51.6846 8.12367 51.8753 8.193C52.0746 8.25367 52.4083 8.297 52.8763 8.323L54.5013 8.414C55.2206 8.45733 55.7536 8.635 56.1003 8.947C56.4556 9.25033 56.6333 9.66633 56.6333 10.195C56.6333 10.8537 56.3473 11.365 55.7753 11.729C55.2119 12.093 54.4146 12.275 53.3833 12.275C52.3259 12.275 51.5156 12.1103 50.9523 11.781C50.3976 11.4603 50.1203 11.001 50.1203 10.403C50.1203 9.79633 50.5189 9.285 51.3163 8.869C51.3683 8.843 51.3943 8.82133 51.3943 8.804C51.3943 8.778 51.3683 8.752 51.3163 8.726C50.9523 8.57 50.7703 8.33167 50.7703 8.011C50.7703 7.829 50.8483 7.66 51.0043 7.504C51.1689 7.33933 51.4116 7.205 51.7323 7.101C51.7756 7.08367 51.7973 7.062 51.7973 7.036C51.7973 7.00133 51.7713 6.971 51.7193 6.945C51.3553 6.74567 51.0823 6.503 50.9003 6.217C50.7269 5.931 50.6403 5.58867 50.6403 5.19C50.6403 4.50533 50.8916 3.97233 51.3943 3.591C51.8969 3.201 52.5989 3.006 53.5003 3.006C54.3149 3.006 54.9519 3.201 55.4113 3.591C55.4546 3.62567 55.4979 3.643 55.5413 3.643C55.5933 3.643 55.6366 3.62567 55.6713 3.591C56.0959 3.227 56.4859 3.045 56.8413 3.045ZM53.4093 6.672C54.6833 6.672 55.3203 6.17367 55.3203 5.177C55.3203 4.67433 55.1599 4.28867 54.8393 4.02C54.5186 3.75133 54.0419 3.617 53.4093 3.617C52.7939 3.617 52.3129 3.75567 51.9663 4.033C51.6283 4.31033 51.4593 4.69167 51.4593 5.177C51.4593 5.65367 51.6283 6.022 51.9663 6.282C52.3043 6.542 52.7853 6.672 53.4093 6.672ZM52.2133 9.051C52.0573 9.04233 51.8753 9.09433 51.6673 9.207C51.4593 9.311 51.2816 9.46267 51.1343 9.662C50.9869 9.85267 50.9133 10.0693 50.9133 10.312C50.9133 10.754 51.1343 11.092 51.5763 11.326C52.0183 11.56 52.6596 11.677 53.5003 11.677C55.0343 11.677 55.8013 11.2133 55.8013 10.286C55.8013 9.948 55.6929 9.688 55.4763 9.506C55.2683 9.31533 54.9216 9.207 54.4363 9.181L52.2133 9.051ZM58.307 10C58.203 10 58.151 9.948 58.151 9.844V0.497C58.151 0.401666 58.1944 0.353999 58.281 0.353999H58.84C58.9267 0.353999 58.97 0.397333 58.97 0.483999V3.994C58.97 4.098 59.009 4.111 59.087 4.033C59.607 3.65167 60.036 3.383 60.374 3.227C60.7207 3.06233 61.1064 2.98 61.531 2.98C62.207 2.98 62.7227 3.15767 63.078 3.513C63.442 3.85967 63.624 4.332 63.624 4.93V9.831C63.624 9.94367 63.572 10 63.468 10H62.922C62.818 10 62.766 9.948 62.766 9.844V5.151C62.766 4.18033 62.285 3.695 61.323 3.695C60.9244 3.695 60.5604 3.77733 60.231 3.942C59.9104 4.10667 59.503 4.39267 59.009 4.8V9.844C59.009 9.948 58.9527 10 58.84 10H58.307ZM66.8617 3.773C66.7924 3.773 66.7577 3.80767 66.7577 3.877V8.245C66.7577 8.66967 66.8184 8.95567 66.9397 9.103C67.0697 9.25033 67.2821 9.324 67.5767 9.324H68.5257C68.6124 9.324 68.6557 9.36733 68.6557 9.454V9.805C68.6557 9.87433 68.6124 9.922 68.5257 9.948C68.3177 9.98267 67.9407 10 67.3947 10C66.8574 10 66.4717 9.87867 66.2377 9.636C66.0124 9.38467 65.8997 8.98167 65.8997 8.427V3.89C65.8997 3.812 65.8607 3.773 65.7827 3.773H64.6777C64.5997 3.773 64.5607 3.73833 64.5607 3.669V3.214C64.5607 3.14467 64.5954 3.11 64.6647 3.11H65.8217C65.8651 3.11 65.8954 3.07533 65.9127 3.006L66.0427 0.926C66.0427 0.822 66.0817 0.77 66.1597 0.77H66.6277C66.7231 0.77 66.7707 0.826333 66.7707 0.939V3.006C66.7707 3.07533 66.8011 3.11 66.8617 3.11H68.5777C68.6471 3.11 68.6817 3.14467 68.6817 3.214V3.669C68.6817 3.73833 68.6427 3.773 68.5647 3.773H66.8617ZM79.2871 3.123C79.2871 4.04167 78.9794 4.73067 78.3641 5.19C77.7488 5.64933 76.9211 5.879 75.8811 5.879H73.5931C73.5151 5.879 73.4761 5.918 73.4761 5.996V9.844C73.4761 9.948 73.4241 10 73.3201 10H72.6441C72.5488 10 72.5011 9.95233 72.5011 9.857V0.51C72.5011 0.449333 72.5098 0.410333 72.5271 0.393C72.5531 0.367 72.5921 0.353999 72.6441 0.353999H75.7511C76.8344 0.353999 77.6924 0.583666 78.3251 1.043C78.9664 1.49367 79.2871 2.187 79.2871 3.123ZM78.2731 3.084C78.2731 2.382 78.0521 1.87933 77.6101 1.576C77.1768 1.27267 76.5441 1.121 75.7121 1.121H73.6321C73.5281 1.121 73.4761 1.16867 73.4761 1.264V4.943C73.4761 5.047 73.5151 5.099 73.5931 5.099H75.8031C76.5831 5.099 77.1898 4.93867 77.6231 4.618C78.0564 4.28867 78.2731 3.77733 78.2731 3.084ZM81.6221 1.537C81.6221 1.615 81.6091 1.67567 81.5831 1.719C81.5571 1.75367 81.5051 1.771 81.4271 1.771H80.8291C80.7598 1.771 80.7121 1.75367 80.6861 1.719C80.6688 1.68433 80.6601 1.63233 80.6601 1.563V0.548999C80.6601 0.418999 80.7165 0.353999 80.8291 0.353999H81.4531C81.5658 0.353999 81.6221 0.414666 81.6221 0.535999V1.537ZM81.5701 9.805C81.5701 9.883 81.5571 9.935 81.5311 9.961C81.5051 9.987 81.4488 10 81.3621 10H80.8811C80.8205 10 80.7771 9.99133 80.7511 9.974C80.7251 9.948 80.7121 9.90467 80.7121 9.844V3.266C80.7121 3.20533 80.7208 3.16633 80.7381 3.149C80.7641 3.123 80.8031 3.11 80.8551 3.11H81.4271C81.4791 3.11 81.5138 3.123 81.5311 3.149C81.5571 3.16633 81.5701 3.20533 81.5701 3.266V9.805ZM83.4996 10C83.3956 10 83.3436 9.948 83.3436 9.844V3.253C83.3436 3.15767 83.3869 3.11 83.4736 3.11H84.0326C84.1193 3.11 84.1626 3.15333 84.1626 3.24V4.007C84.1626 4.111 84.2016 4.124 84.2796 4.046C84.7996 3.66467 85.2286 3.39167 85.5666 3.227C85.9133 3.06233 86.2989 2.98 86.7236 2.98C87.3909 2.98 87.9066 3.15767 88.2706 3.513C88.6346 3.85967 88.8166 4.32767 88.8166 4.917V9.831C88.8166 9.94367 88.7646 10 88.6606 10H88.1146C88.0106 10 87.9586 9.948 87.9586 9.844V5.151C87.9586 4.18033 87.4776 3.695 86.5156 3.695C86.1169 3.695 85.7529 3.77733 85.4236 3.942C85.1029 4.10667 84.6956 4.39267 84.2016 4.8V9.844C84.2016 9.948 84.1453 10 84.0326 10H83.4996ZM96.5263 3.045C96.6217 3.045 96.6867 3.06233 96.7213 3.097C96.756 3.123 96.7733 3.17067 96.7733 3.24V3.565C96.7733 3.643 96.756 3.70367 96.7213 3.747C96.6867 3.78167 96.626 3.799 96.5393 3.799C96.262 3.799 96.0323 3.84233 95.8503 3.929C95.7377 3.98967 95.6597 4.04167 95.6163 4.085C95.5817 4.12833 95.573 4.176 95.5903 4.228C95.6077 4.26267 95.638 4.332 95.6813 4.436C95.7247 4.54 95.7593 4.657 95.7853 4.787C95.8113 4.90833 95.8243 5.04267 95.8243 5.19C95.8243 5.80533 95.5903 6.308 95.1223 6.698C94.663 7.088 93.9827 7.283 93.0813 7.283C92.44 7.283 91.9763 7.33933 91.6903 7.452C91.413 7.56467 91.2743 7.70333 91.2743 7.868C91.2743 8.01533 91.3697 8.12367 91.5603 8.193C91.7597 8.25367 92.0933 8.297 92.5613 8.323L94.1863 8.414C94.9057 8.45733 95.4387 8.635 95.7853 8.947C96.1407 9.25033 96.3183 9.66633 96.3183 10.195C96.3183 10.8537 96.0323 11.365 95.4603 11.729C94.897 12.093 94.0997 12.275 93.0683 12.275C92.011 12.275 91.2007 12.1103 90.6373 11.781C90.0827 11.4603 89.8053 11.001 89.8053 10.403C89.8053 9.79633 90.204 9.285 91.0013 8.869C91.0533 8.843 91.0793 8.82133 91.0793 8.804C91.0793 8.778 91.0533 8.752 91.0013 8.726C90.6373 8.57 90.4553 8.33167 90.4553 8.011C90.4553 7.829 90.5333 7.66 90.6893 7.504C90.854 7.33933 91.0967 7.205 91.4173 7.101C91.4607 7.08367 91.4823 7.062 91.4823 7.036C91.4823 7.00133 91.4563 6.971 91.4043 6.945C91.0403 6.74567 90.7673 6.503 90.5853 6.217C90.412 5.931 90.3253 5.58867 90.3253 5.19C90.3253 4.50533 90.5767 3.97233 91.0793 3.591C91.582 3.201 92.284 3.006 93.1853 3.006C94 3.006 94.637 3.201 95.0963 3.591C95.1397 3.62567 95.183 3.643 95.2263 3.643C95.2783 3.643 95.3217 3.62567 95.3563 3.591C95.781 3.227 96.171 3.045 96.5263 3.045ZM93.0943 6.672C94.3683 6.672 95.0053 6.17367 95.0053 5.177C95.0053 4.67433 94.845 4.28867 94.5243 4.02C94.2037 3.75133 93.727 3.617 93.0943 3.617C92.479 3.617 91.998 3.75567 91.6513 4.033C91.3133 4.31033 91.1443 4.69167 91.1443 5.177C91.1443 5.65367 91.3133 6.022 91.6513 6.282C91.9893 6.542 92.4703 6.672 93.0943 6.672ZM91.8983 9.051C91.7423 9.04233 91.5603 9.09433 91.3523 9.207C91.1443 9.311 90.9667 9.46267 90.8193 9.662C90.672 9.85267 90.5983 10.0693 90.5983 10.312C90.5983 10.754 90.8193 11.092 91.2613 11.326C91.7033 11.56 92.3447 11.677 93.1853 11.677C94.7193 11.677 95.4863 11.2133 95.4863 10.286C95.4863 9.948 95.378 9.688 95.1613 9.506C94.9533 9.31533 94.6067 9.207 94.1213 9.181L91.8983 9.051ZM98.6031 9.818C98.6031 9.88733 98.5857 9.935 98.5511 9.961C98.5251 9.987 98.4687 10 98.3821 10H97.6411C97.5284 10 97.4721 9.948 97.4721 9.844V8.856C97.4721 8.76067 97.5111 8.713 97.5891 8.713H98.4861C98.5641 8.713 98.6031 8.75633 98.6031 8.843V9.818ZM102.114 10C102.07 10 102.036 9.987 102.01 9.961C101.992 9.92633 101.992 9.87867 102.01 9.818L105.403 0.523C105.429 0.462333 105.459 0.418999 105.494 0.393C105.528 0.367 105.576 0.353999 105.637 0.353999H106.417C106.564 0.353999 106.655 0.410333 106.69 0.523L110.044 9.818C110.052 9.83533 110.057 9.857 110.057 9.883C110.057 9.961 110.018 10 109.94 10H109.264C109.16 10 109.095 9.961 109.069 9.883L108.107 7.205C108.081 7.13567 108.033 7.101 107.964 7.101H104.012C103.942 7.101 103.895 7.13567 103.869 7.205L102.881 9.896C102.863 9.96533 102.807 10 102.712 10H102.114ZM107.678 6.308C107.764 6.308 107.795 6.26033 107.769 6.165L106.092 1.55C106.066 1.472 106.035 1.433 106.001 1.433C105.966 1.433 105.931 1.47633 105.897 1.563L104.194 6.178C104.176 6.21267 104.168 6.23867 104.168 6.256C104.168 6.29067 104.202 6.308 104.272 6.308H107.678ZM112.225 9.805C112.225 9.883 112.212 9.935 112.186 9.961C112.16 9.987 112.108 10 112.03 10H111.536C111.476 10 111.432 9.99133 111.406 9.974C111.38 9.948 111.367 9.90467 111.367 9.844L111.38 0.51C111.38 0.449333 111.389 0.410333 111.406 0.393C111.424 0.367 111.458 0.353999 111.51 0.353999H112.095C112.182 0.353999 112.225 0.406 112.225 0.51V9.805ZM114.857 9.805C114.857 9.883 114.844 9.935 114.818 9.961C114.792 9.987 114.74 10 114.662 10H114.168C114.107 10 114.064 9.99133 114.038 9.974C114.012 9.948 113.999 9.90467 113.999 9.844L114.012 0.51C114.012 0.449333 114.02 0.410333 114.038 0.393C114.055 0.367 114.09 0.353999 114.142 0.353999H114.727C114.813 0.353999 114.857 0.406 114.857 0.51V9.805ZM119.215 10C119.111 10 119.059 9.948 119.059 9.844V3.253C119.059 3.15767 119.102 3.11 119.189 3.11H119.748C119.826 3.11 119.865 3.15333 119.865 3.24V4.098C119.865 4.14133 119.878 4.16733 119.904 4.176C119.93 4.18467 119.96 4.17167 119.995 4.137C120.35 3.73833 120.692 3.448 121.022 3.266C121.351 3.07533 121.685 2.98 122.023 2.98C122.187 2.98 122.304 2.993 122.374 3.019C122.452 3.03633 122.491 3.07533 122.491 3.136V3.734C122.491 3.79467 122.456 3.825 122.387 3.825C122.153 3.799 121.984 3.786 121.88 3.786C121.62 3.786 121.334 3.86833 121.022 4.033C120.71 4.189 120.445 4.39267 120.229 4.644C120.021 4.89533 119.917 5.14667 119.917 5.398V9.844C119.917 9.948 119.86 10 119.748 10H119.215ZM124.415 1.537C124.415 1.615 124.402 1.67567 124.376 1.719C124.35 1.75367 124.298 1.771 124.22 1.771H123.622C123.553 1.771 123.505 1.75367 123.479 1.719C123.462 1.68433 123.453 1.63233 123.453 1.563V0.548999C123.453 0.418999 123.51 0.353999 123.622 0.353999H124.246C124.359 0.353999 124.415 0.414666 124.415 0.535999V1.537ZM124.363 9.805C124.363 9.883 124.35 9.935 124.324 9.961C124.298 9.987 124.242 10 124.155 10H123.674C123.614 10 123.57 9.99133 123.544 9.974C123.518 9.948 123.505 9.90467 123.505 9.844V3.266C123.505 3.20533 123.514 3.16633 123.531 3.149C123.557 3.123 123.596 3.11 123.648 3.11H124.22C124.272 3.11 124.307 3.123 124.324 3.149C124.35 3.16633 124.363 3.20533 124.363 3.266V9.805ZM132.156 3.045C132.251 3.045 132.316 3.06233 132.351 3.097C132.386 3.123 132.403 3.17067 132.403 3.24V3.565C132.403 3.643 132.386 3.70367 132.351 3.747C132.316 3.78167 132.256 3.799 132.169 3.799C131.892 3.799 131.662 3.84233 131.48 3.929C131.367 3.98967 131.289 4.04167 131.246 4.085C131.211 4.12833 131.203 4.176 131.22 4.228C131.237 4.26267 131.268 4.332 131.311 4.436C131.354 4.54 131.389 4.657 131.415 4.787C131.441 4.90833 131.454 5.04267 131.454 5.19C131.454 5.80533 131.22 6.308 130.752 6.698C130.293 7.088 129.612 7.283 128.711 7.283C128.07 7.283 127.606 7.33933 127.32 7.452C127.043 7.56467 126.904 7.70333 126.904 7.868C126.904 8.01533 126.999 8.12367 127.19 8.193C127.389 8.25367 127.723 8.297 128.191 8.323L129.816 8.414C130.535 8.45733 131.068 8.635 131.415 8.947C131.77 9.25033 131.948 9.66633 131.948 10.195C131.948 10.8537 131.662 11.365 131.09 11.729C130.527 12.093 129.729 12.275 128.698 12.275C127.641 12.275 126.83 12.1103 126.267 11.781C125.712 11.4603 125.435 11.001 125.435 10.403C125.435 9.79633 125.834 9.285 126.631 8.869C126.683 8.843 126.709 8.82133 126.709 8.804C126.709 8.778 126.683 8.752 126.631 8.726C126.267 8.57 126.085 8.33167 126.085 8.011C126.085 7.829 126.163 7.66 126.319 7.504C126.484 7.33933 126.726 7.205 127.047 7.101C127.09 7.08367 127.112 7.062 127.112 7.036C127.112 7.00133 127.086 6.971 127.034 6.945C126.67 6.74567 126.397 6.503 126.215 6.217C126.042 5.931 125.955 5.58867 125.955 5.19C125.955 4.50533 126.206 3.97233 126.709 3.591C127.212 3.201 127.914 3.006 128.815 3.006C129.63 3.006 130.267 3.201 130.726 3.591C130.769 3.62567 130.813 3.643 130.856 3.643C130.908 3.643 130.951 3.62567 130.986 3.591C131.411 3.227 131.801 3.045 132.156 3.045ZM128.724 6.672C129.998 6.672 130.635 6.17367 130.635 5.177C130.635 4.67433 130.475 4.28867 130.154 4.02C129.833 3.75133 129.357 3.617 128.724 3.617C128.109 3.617 127.628 3.75567 127.281 4.033C126.943 4.31033 126.774 4.69167 126.774 5.177C126.774 5.65367 126.943 6.022 127.281 6.282C127.619 6.542 128.1 6.672 128.724 6.672ZM127.528 9.051C127.372 9.04233 127.19 9.09433 126.982 9.207C126.774 9.311 126.596 9.46267 126.449 9.662C126.302 9.85267 126.228 10.0693 126.228 10.312C126.228 10.754 126.449 11.092 126.891 11.326C127.333 11.56 127.974 11.677 128.815 11.677C130.349 11.677 131.116 11.2133 131.116 10.286C131.116 9.948 131.008 9.688 130.791 9.506C130.583 9.31533 130.236 9.207 129.751 9.181L127.528 9.051ZM133.622 10C133.518 10 133.466 9.948 133.466 9.844V0.497C133.466 0.401666 133.509 0.353999 133.596 0.353999H134.155C134.241 0.353999 134.285 0.397333 134.285 0.483999V3.994C134.285 4.098 134.324 4.111 134.402 4.033C134.922 3.65167 135.351 3.383 135.689 3.227C136.035 3.06233 136.421 2.98 136.846 2.98C137.522 2.98 138.037 3.15767 138.393 3.513C138.757 3.85967 138.939 4.332 138.939 4.93V9.831C138.939 9.94367 138.887 10 138.783 10H138.237C138.133 10 138.081 9.948 138.081 9.844V5.151C138.081 4.18033 137.6 3.695 136.638 3.695C136.239 3.695 135.875 3.77733 135.546 3.942C135.225 4.10667 134.818 4.39267 134.324 4.8V9.844C134.324 9.948 134.267 10 134.155 10H133.622ZM142.176 3.773C142.107 3.773 142.072 3.80767 142.072 3.877V8.245C142.072 8.66967 142.133 8.95567 142.254 9.103C142.384 9.25033 142.597 9.324 142.891 9.324H143.84C143.927 9.324 143.97 9.36733 143.97 9.454V9.805C143.97 9.87433 143.927 9.922 143.84 9.948C143.632 9.98267 143.255 10 142.709 10C142.172 10 141.786 9.87867 141.552 9.636C141.327 9.38467 141.214 8.98167 141.214 8.427V3.89C141.214 3.812 141.175 3.773 141.097 3.773H139.992C139.914 3.773 139.875 3.73833 139.875 3.669V3.214C139.875 3.14467 139.91 3.11 139.979 3.11H141.136C141.18 3.11 141.21 3.07533 141.227 3.006L141.357 0.926C141.357 0.822 141.396 0.77 141.474 0.77H141.942C142.038 0.77 142.085 0.826333 142.085 0.939V3.006C142.085 3.07533 142.116 3.11 142.176 3.11H143.892C143.962 3.11 143.996 3.14467 143.996 3.214V3.669C143.996 3.73833 143.957 3.773 143.879 3.773H142.176ZM149.222 4.566C149.032 4.28 148.767 4.05467 148.429 3.89C148.1 3.72533 147.719 3.643 147.285 3.643C146.774 3.643 146.354 3.75133 146.024 3.968C145.695 4.18467 145.53 4.475 145.53 4.839C145.53 5.05567 145.613 5.255 145.777 5.437C145.951 5.61033 146.25 5.762 146.674 5.892L148.364 6.412C148.91 6.568 149.318 6.79767 149.586 7.101C149.855 7.39567 149.989 7.74667 149.989 8.154C149.989 8.53533 149.868 8.87767 149.625 9.181C149.391 9.47567 149.066 9.70967 148.65 9.883C148.234 10.0477 147.766 10.13 147.246 10.13C146.596 10.13 146.016 10 145.504 9.74C144.993 9.47133 144.629 9.12033 144.412 8.687C144.395 8.65233 144.386 8.62633 144.386 8.609C144.386 8.57433 144.404 8.544 144.438 8.518L144.854 8.271C144.889 8.25367 144.915 8.245 144.932 8.245C144.958 8.245 144.989 8.26233 145.023 8.297C145.5 9.06833 146.232 9.454 147.22 9.454C147.775 9.454 148.234 9.34567 148.598 9.129C148.971 8.90367 149.157 8.609 149.157 8.245C149.157 7.985 149.049 7.764 148.832 7.582C148.616 7.39133 148.26 7.22667 147.766 7.088L146.44 6.698C145.816 6.52467 145.37 6.29933 145.101 6.022C144.841 5.736 144.711 5.39367 144.711 4.995C144.711 4.59633 144.82 4.24533 145.036 3.942C145.262 3.63867 145.569 3.40467 145.959 3.24C146.349 3.06667 146.796 2.98 147.298 2.98C147.853 2.98 148.351 3.08833 148.793 3.305C149.244 3.513 149.591 3.80767 149.833 4.189C149.885 4.24967 149.881 4.29733 149.82 4.332L149.378 4.592C149.352 4.60933 149.322 4.618 149.287 4.618C149.261 4.60933 149.24 4.592 149.222 4.566ZM153.91 10C153.806 10 153.754 9.948 153.754 9.844V3.253C153.754 3.15767 153.798 3.11 153.884 3.11H154.443C154.521 3.11 154.56 3.15333 154.56 3.24V4.098C154.56 4.14133 154.573 4.16733 154.599 4.176C154.625 4.18467 154.656 4.17167 154.69 4.137C155.046 3.73833 155.388 3.448 155.717 3.266C156.047 3.07533 156.38 2.98 156.718 2.98C156.883 2.98 157 2.993 157.069 3.019C157.147 3.03633 157.186 3.07533 157.186 3.136V3.734C157.186 3.79467 157.152 3.825 157.082 3.825C156.848 3.799 156.679 3.786 156.575 3.786C156.315 3.786 156.029 3.86833 155.717 4.033C155.405 4.189 155.141 4.39267 154.924 4.644C154.716 4.89533 154.612 5.14667 154.612 5.398V9.844C154.612 9.948 154.556 10 154.443 10H153.91ZM158.53 6.945C158.53 7.387 158.638 7.803 158.855 8.193C159.071 8.57433 159.362 8.87767 159.726 9.103C160.098 9.32833 160.501 9.441 160.935 9.441C161.871 9.441 162.581 9.064 163.067 8.31C163.093 8.26667 163.119 8.245 163.145 8.245C163.171 8.23633 163.201 8.24067 163.236 8.258L163.678 8.505C163.704 8.52233 163.717 8.544 163.717 8.57C163.725 8.596 163.717 8.62633 163.691 8.661C163.37 9.16367 162.98 9.53633 162.521 9.779C162.061 10.013 161.515 10.13 160.883 10.13C160.25 10.13 159.687 9.98267 159.193 9.688C158.707 9.39333 158.326 8.98167 158.049 8.453C157.771 7.91567 157.633 7.30467 157.633 6.62C157.633 5.88333 157.771 5.242 158.049 4.696C158.335 4.14133 158.72 3.71667 159.206 3.422C159.7 3.12733 160.254 2.98 160.87 2.98C161.814 2.98 162.56 3.292 163.106 3.916C163.66 4.53133 163.938 5.385 163.938 6.477V6.555C163.938 6.61567 163.925 6.66333 163.899 6.698C163.881 6.73267 163.834 6.75 163.756 6.75H158.621C158.56 6.75 158.53 6.815 158.53 6.945ZM162.846 6.139C162.932 6.139 162.989 6.126 163.015 6.1C163.049 6.074 163.067 6.02633 163.067 5.957C163.067 5.541 162.976 5.15533 162.794 4.8C162.62 4.44467 162.369 4.163 162.04 3.955C161.71 3.747 161.325 3.643 160.883 3.643C160.397 3.643 159.977 3.76433 159.622 4.007C159.266 4.241 158.993 4.54867 158.803 4.93C158.621 5.31133 158.534 5.71433 158.543 6.139H162.846ZM169.308 4.566C169.117 4.28 168.853 4.05467 168.515 3.89C168.186 3.72533 167.804 3.643 167.371 3.643C166.86 3.643 166.439 3.75133 166.11 3.968C165.781 4.18467 165.616 4.475 165.616 4.839C165.616 5.05567 165.698 5.255 165.863 5.437C166.036 5.61033 166.335 5.762 166.76 5.892L168.45 6.412C168.996 6.568 169.403 6.79767 169.672 7.101C169.941 7.39567 170.075 7.74667 170.075 8.154C170.075 8.53533 169.954 8.87767 169.711 9.181C169.477 9.47567 169.152 9.70967 168.736 9.883C168.32 10.0477 167.852 10.13 167.332 10.13C166.682 10.13 166.101 10 165.59 9.74C165.079 9.47133 164.715 9.12033 164.498 8.687C164.481 8.65233 164.472 8.62633 164.472 8.609C164.472 8.57433 164.489 8.544 164.524 8.518L164.94 8.271C164.975 8.25367 165.001 8.245 165.018 8.245C165.044 8.245 165.074 8.26233 165.109 8.297C165.586 9.06833 166.318 9.454 167.306 9.454C167.861 9.454 168.32 9.34567 168.684 9.129C169.057 8.90367 169.243 8.609 169.243 8.245C169.243 7.985 169.135 7.764 168.918 7.582C168.701 7.39133 168.346 7.22667 167.852 7.088L166.526 6.698C165.902 6.52467 165.456 6.29933 165.187 6.022C164.927 5.736 164.797 5.39367 164.797 4.995C164.797 4.59633 164.905 4.24533 165.122 3.942C165.347 3.63867 165.655 3.40467 166.045 3.24C166.435 3.06667 166.881 2.98 167.384 2.98C167.939 2.98 168.437 3.08833 168.879 3.305C169.33 3.513 169.676 3.80767 169.919 4.189C169.971 4.24967 169.967 4.29733 169.906 4.332L169.464 4.592C169.438 4.60933 169.408 4.618 169.373 4.618C169.347 4.60933 169.325 4.592 169.308 4.566ZM171.88 6.945C171.88 7.387 171.988 7.803 172.205 8.193C172.421 8.57433 172.712 8.87767 173.076 9.103C173.448 9.32833 173.851 9.441 174.285 9.441C175.221 9.441 175.931 9.064 176.417 8.31C176.443 8.26667 176.469 8.245 176.495 8.245C176.521 8.23633 176.551 8.24067 176.586 8.258L177.028 8.505C177.054 8.52233 177.067 8.544 177.067 8.57C177.075 8.596 177.067 8.62633 177.041 8.661C176.72 9.16367 176.33 9.53633 175.871 9.779C175.411 10.013 174.865 10.13 174.233 10.13C173.6 10.13 173.037 9.98267 172.543 9.688C172.057 9.39333 171.676 8.98167 171.399 8.453C171.121 7.91567 170.983 7.30467 170.983 6.62C170.983 5.88333 171.121 5.242 171.399 4.696C171.685 4.14133 172.07 3.71667 172.556 3.422C173.05 3.12733 173.604 2.98 174.22 2.98C175.164 2.98 175.91 3.292 176.456 3.916C177.01 4.53133 177.288 5.385 177.288 6.477V6.555C177.288 6.61567 177.275 6.66333 177.249 6.698C177.231 6.73267 177.184 6.75 177.106 6.75H171.971C171.91 6.75 171.88 6.815 171.88 6.945ZM176.196 6.139C176.282 6.139 176.339 6.126 176.365 6.1C176.399 6.074 176.417 6.02633 176.417 5.957C176.417 5.541 176.326 5.15533 176.144 4.8C175.97 4.44467 175.719 4.163 175.39 3.955C175.06 3.747 174.675 3.643 174.233 3.643C173.747 3.643 173.327 3.76433 172.972 4.007C172.616 4.241 172.343 4.54867 172.153 4.93C171.971 5.31133 171.884 5.71433 171.893 6.139H176.196ZM178.706 10C178.602 10 178.55 9.948 178.55 9.844V3.253C178.55 3.15767 178.593 3.11 178.68 3.11H179.239C179.317 3.11 179.356 3.15333 179.356 3.24V4.098C179.356 4.14133 179.369 4.16733 179.395 4.176C179.421 4.18467 179.451 4.17167 179.486 4.137C179.841 3.73833 180.183 3.448 180.513 3.266C180.842 3.07533 181.176 2.98 181.514 2.98C181.678 2.98 181.795 2.993 181.865 3.019C181.943 3.03633 181.982 3.07533 181.982 3.136V3.734C181.982 3.79467 181.947 3.825 181.878 3.825C181.644 3.799 181.475 3.786 181.371 3.786C181.111 3.786 180.825 3.86833 180.513 4.033C180.201 4.189 179.936 4.39267 179.72 4.644C179.512 4.89533 179.408 5.14667 179.408 5.398V9.844C179.408 9.948 179.351 10 179.239 10H178.706ZM188.431 3.11C188.483 3.11 188.517 3.12733 188.535 3.162C188.561 3.188 188.565 3.22267 188.548 3.266L185.883 9.831C185.848 9.94367 185.757 10 185.61 10H185.259C185.111 10 185.012 9.948 184.96 9.844L182.308 3.279L182.295 3.24C182.295 3.15333 182.342 3.11 182.438 3.11H183.036C183.131 3.11 183.192 3.15333 183.218 3.24L185.402 8.674C185.428 8.76067 185.458 8.804 185.493 8.804C185.527 8.804 185.566 8.75633 185.61 8.661L187.781 3.227C187.807 3.149 187.863 3.11 187.95 3.11H188.431ZM189.702 6.945C189.702 7.387 189.81 7.803 190.027 8.193C190.243 8.57433 190.534 8.87767 190.898 9.103C191.27 9.32833 191.673 9.441 192.107 9.441C193.043 9.441 193.753 9.064 194.239 8.31C194.265 8.26667 194.291 8.245 194.317 8.245C194.343 8.23633 194.373 8.24067 194.408 8.258L194.85 8.505C194.876 8.52233 194.889 8.544 194.889 8.57C194.897 8.596 194.889 8.62633 194.863 8.661C194.542 9.16367 194.152 9.53633 193.693 9.779C193.233 10.013 192.687 10.13 192.055 10.13C191.422 10.13 190.859 9.98267 190.365 9.688C189.879 9.39333 189.498 8.98167 189.221 8.453C188.943 7.91567 188.805 7.30467 188.805 6.62C188.805 5.88333 188.943 5.242 189.221 4.696C189.507 4.14133 189.892 3.71667 190.378 3.422C190.872 3.12733 191.426 2.98 192.042 2.98C192.986 2.98 193.732 3.292 194.278 3.916C194.832 4.53133 195.11 5.385 195.11 6.477V6.555C195.11 6.61567 195.097 6.66333 195.071 6.698C195.053 6.73267 195.006 6.75 194.928 6.75H189.793C189.732 6.75 189.702 6.815 189.702 6.945ZM194.018 6.139C194.104 6.139 194.161 6.126 194.187 6.1C194.221 6.074 194.239 6.02633 194.239 5.957C194.239 5.541 194.148 5.15533 193.966 4.8C193.792 4.44467 193.541 4.163 193.212 3.955C192.882 3.747 192.497 3.643 192.055 3.643C191.569 3.643 191.149 3.76433 190.794 4.007C190.438 4.241 190.165 4.54867 189.975 4.93C189.793 5.31133 189.706 5.71433 189.715 6.139H194.018ZM201.299 10C201.186 10 201.13 9.94367 201.13 9.831V9.233C201.13 9.155 201.113 9.116 201.078 9.116C201.052 9.116 201.017 9.13767 200.974 9.181C200.714 9.441 200.428 9.66633 200.116 9.857C199.813 10.039 199.405 10.13 198.894 10.13C198.339 10.13 197.837 10 197.386 9.74C196.944 9.48 196.593 9.09 196.333 8.57C196.082 8.05 195.956 7.41733 195.956 6.672C195.956 5.944 196.086 5.30267 196.346 4.748C196.606 4.18467 196.97 3.75133 197.438 3.448C197.906 3.136 198.443 2.98 199.05 2.98C199.457 2.98 199.804 3.045 200.09 3.175C200.385 3.29633 200.658 3.46533 200.909 3.682C200.978 3.72533 201.022 3.747 201.039 3.747C201.082 3.747 201.104 3.695 201.104 3.591V0.51C201.104 0.406 201.152 0.353999 201.247 0.353999H201.832C201.919 0.353999 201.962 0.401666 201.962 0.497V9.818C201.962 9.88733 201.949 9.935 201.923 9.961C201.897 9.987 201.849 10 201.78 10H201.299ZM201.104 4.566C200.801 4.26267 200.497 4.03733 200.194 3.89C199.891 3.734 199.566 3.656 199.219 3.656C198.76 3.656 198.348 3.773 197.984 4.007C197.629 4.241 197.347 4.58333 197.139 5.034C196.94 5.476 196.84 6.00467 196.84 6.62C196.84 7.556 197.057 8.26667 197.49 8.752C197.923 9.22867 198.469 9.467 199.128 9.467C199.483 9.467 199.813 9.38033 200.116 9.207C200.419 9.03367 200.658 8.817 200.831 8.557C201.013 8.28833 201.104 8.02833 201.104 7.777V4.566ZM204.493 9.818C204.493 9.88733 204.476 9.935 204.441 9.961C204.415 9.987 204.359 10 204.272 10H203.531C203.418 10 203.362 9.948 203.362 9.844V8.856C203.362 8.76067 203.401 8.713 203.479 8.713H204.376C204.454 8.713 204.493 8.75633 204.493 8.843V9.818Z" fill="#ADADAD"/>
</svg>
