<svg width="342" height="218" viewBox="0 0 342 218" fill="none" xmlns="http://www.w3.org/2000/svg">
<path d="M1.93352 217.8C1.33075 141.256 76.7805 78.6565 170.455 77.9786C264.129 77.3014 340.556 138.804 341.158 215.348" stroke="#B5B2B2"/>
<path d="M125.131 163.879C143.978 163.879 159.257 148.628 159.257 129.815C159.257 111.001 143.978 95.7498 125.131 95.7498C106.283 95.7498 91.0043 111.001 91.0043 129.815C91.0043 148.628 106.283 163.879 125.131 163.879Z" fill="#F2F2F2"/>
<path d="M203.292 95.7956L203.284 95.7998L167.875 115.745L129.101 96.1331L128.433 95.7956L130.446 55.0836L165.46 29.8421L165.847 30.0865L202.085 53.0479L203.292 95.7956Z" fill="#4C88B5"/>
<path opacity="0.3" d="M203.292 95.5895L167.911 115.745L129.167 95.927L163.487 71.312L203.292 95.5895Z" fill="black"/>
<path opacity="0.1" d="M203.292 95.7498L163.661 71.6573L166.047 29.8421L202.091 52.8731L203.292 95.7498Z" fill="black"/>
<path d="M130.098 67.6096L129.901 67.324L165.234 41.6909L202.558 65.7429L202.377 66.0394L165.245 42.1109L130.098 67.6096Z" fill="#F2F2F2"/>
<path d="M129.358 80.9392L129.167 80.6635L164.332 57.2422L164.424 57.2935L202.558 78.4962L202.39 78.7866L164.348 57.635L129.358 80.9392Z" fill="#F2F2F2"/>
<path d="M142.558 103.155L142.378 102.862L177.997 80.6227V37.9883H178.339V80.8147L142.558 103.155Z" fill="#F2F2F2"/>
<path d="M156.503 109.82L156.322 109.531L190.475 88.0354V46.1341H190.815V88.2246L156.503 109.82Z" fill="#F2F2F2"/>
<path d="M190.651 103.155L151.185 80.7655L151.19 80.6579L153.268 38.7286L153.606 38.7462L151.533 80.5679L190.815 102.853L190.651 103.155Z" fill="#F2F2F2"/>
<path d="M178.18 109.82L138.708 89.1838L138.714 89.0748L141.041 47.6151L141.383 47.6342L139.063 88.9841L178.339 109.518L178.18 109.82Z" fill="#F2F2F2"/>
</svg>
