<svg width="145" height="160" viewBox="0 0 145 160" fill="none" xmlns="http://www.w3.org/2000/svg">
<path d="M72.6048 28.3548C80.1031 28.3548 86.182 22.2212 86.182 14.6549C86.182 7.08863 80.1031 0.954987 72.6048 0.954987C65.1065 0.954987 59.0275 7.08863 59.0275 14.6549C59.0275 22.2212 65.1065 28.3548 72.6048 28.3548Z" fill="#3F3D56"/>
<path d="M72.6048 159.8C55.9657 159.8 39.8404 153.978 26.9779 143.327C14.1148 132.675 5.31084 117.853 2.06404 101.386C-1.18202 84.9184 1.33088 67.8246 9.17486 53.0171C17.0188 38.2096 29.7081 26.6045 45.0812 20.1792C60.4543 13.7539 77.5594 12.906 93.483 17.7798C109.406 22.6537 123.162 32.9478 132.406 46.9082C141.651 60.8686 145.812 77.6315 144.181 94.341C142.55 111.05 135.228 126.672 123.462 138.544C116.798 145.304 108.873 150.663 100.143 154.312C91.4141 157.96 82.0539 159.826 72.6048 159.8ZM72.6048 15.2093C33.2499 15.2093 1.23179 47.5164 1.23179 87.2271C1.23179 126.938 33.2499 159.246 72.6048 159.246C111.961 159.246 143.979 126.938 143.979 87.2271C143.979 47.5164 111.961 15.2093 72.6048 15.2093Z" fill="#4C88B5"/>
</svg>
