<svg width="40" height="40" viewBox="0 0 40 40" fill="none" xmlns="http://www.w3.org/2000/svg">
<g clip-path="url(#clip0)">
<path d="M26.6946 23.965C26.6946 23.4312 26.4658 23.1387 26.1208 22.93C25.7696 22.7287 25.3458 22.7012 24.7658 22.7012H22.1946V27.4012H23.3208V25.69H24.5258C24.9221 25.69 25.1708 25.73 25.3196 25.8987C25.5208 26.1137 25.4958 26.53 25.4958 26.8175V27.3975H26.5896V26.4725C26.5896 26.0562 26.5646 25.8475 26.4146 25.6125C26.2674 25.4362 26.0764 25.3017 25.8608 25.2225L25.8921 25.2087C26.1983 25.0925 26.6933 24.7137 26.6933 23.965H26.6946ZM25.2421 24.6412L25.1958 24.635C25.0458 24.7262 24.8708 24.7337 24.6421 24.7337H23.2958V23.685H24.6696C24.8708 23.685 25.0658 23.685 25.2233 23.77C25.3018 23.8082 25.3671 23.869 25.4109 23.9444C25.4548 24.0199 25.4752 24.1067 25.4696 24.1937C25.4696 24.395 25.3908 24.55 25.2483 24.6425L25.2421 24.6412ZM33.8296 26.3937H31.6683V27.3975H33.8433C34.9683 27.3975 35.5933 26.9337 35.5933 25.9262C35.5933 25.4562 35.4833 25.1762 35.2821 24.9562C35.0283 24.735 34.6233 24.63 34.0658 24.6112L33.4396 24.585C33.2646 24.585 33.1408 24.585 33.0108 24.5337C32.9366 24.5105 32.8721 24.4636 32.8271 24.4001C32.7822 24.3367 32.7593 24.2602 32.7621 24.1825C32.7621 24.0325 32.7883 23.9087 32.9121 23.8375C33.0511 23.76 33.2094 23.7236 33.3683 23.7325H35.4121V22.7312H33.1658C31.9946 22.7312 31.5708 23.46 31.5708 24.1312C31.5708 25.635 32.8608 25.5562 33.9158 25.5825C34.0846 25.5825 34.2146 25.6075 34.2858 25.6787C34.3646 25.7325 34.4221 25.855 34.4221 25.9787C34.4221 26.1087 34.3633 26.2325 34.2921 26.2787C34.1958 26.3687 34.0458 26.395 33.8308 26.395L33.8296 26.3937ZM0.000820313 0V16.83L1.34957 13.6987H4.26582L4.64207 14.4737V13.6987H8.04707L8.79582 15.3975L9.52582 13.7125H20.3658C20.8546 13.7125 21.2958 13.8087 21.6221 14.1087V13.7237H24.6033V14.1087C25.1096 13.8225 25.7421 13.7237 26.4646 13.7237H30.8058L31.2108 14.4987V13.7237H34.4071L34.8283 14.4987V13.7175H37.9283V20.3012H34.7833L34.1846 19.2975V20.2737H30.2583L29.8346 19.225H28.8583L28.4096 20.2462H26.3908C25.5896 20.2462 24.9908 20.0775 24.5871 19.85V20.2462H19.7683V18.7762C19.7683 18.575 19.7233 18.575 19.5996 18.5475H19.4233V20.2725H10.1071V19.4787L9.75582 20.2725H7.81582L7.47707 19.4787V20.2525H3.72082L3.29707 19.2112H2.32707L1.90582 20.2525H-0.00292969V39.9987H39.6383V28.15C39.1896 28.3762 38.6171 28.4487 38.0171 28.4487H35.1471V28.025C34.7958 28.2987 34.1971 28.4487 33.6233 28.4487H24.5146V26.9525C24.5146 26.7512 24.4808 26.7512 24.3133 26.7512H24.1896V28.4562H21.1883V26.68C20.6933 26.9087 20.1133 26.9262 19.6383 26.9087H19.2871V28.4325H15.6558L14.7508 27.4025L13.7996 28.4062H7.90082V21.8562H13.9171L14.7821 22.86L15.7071 21.8562H19.7233C20.1921 21.8562 20.9533 21.91 21.2921 22.235V21.8312H24.9183C25.2571 21.8312 25.9933 21.91 26.4283 22.2075V21.8112H31.8646V22.2075C32.1383 21.9337 32.7183 21.8112 33.2058 21.8112H36.3558V22.2075C36.6821 21.9612 37.1308 21.8112 37.7558 21.8112H39.7158V0.00125L0.000820313 0ZM35.2608 24.9212C35.2671 24.935 35.2671 24.9475 35.2746 24.955C35.2946 24.9662 35.3196 24.9662 35.3333 24.9862L35.2621 24.9275L35.2608 24.9212ZM39.7146 21.8037H39.8258V22.7287H39.7146V21.8037ZM39.7721 25.0512V25.0375C39.7271 24.9987 39.7008 24.9612 39.6483 24.9212C39.4021 24.6675 38.9971 24.5625 38.3783 24.55L37.7733 24.5312C37.5783 24.5312 37.4546 24.5175 37.3246 24.48C37.2505 24.4566 37.1861 24.4096 37.1412 24.3462C37.0962 24.2828 37.0733 24.2064 37.0758 24.1287C37.0758 23.9787 37.1271 23.86 37.2258 23.7887C37.3496 23.7175 37.4721 23.705 37.6746 23.705H39.7133V22.7287H37.5783C36.4246 22.7287 35.9771 23.4575 35.9771 24.1287C35.9771 25.625 37.2783 25.5537 38.3271 25.58C38.5033 25.58 38.6271 25.5987 38.6983 25.6762C38.7771 25.73 38.8283 25.8525 38.8283 25.9762C38.8274 26.0343 38.8134 26.0914 38.7875 26.1433C38.7615 26.1952 38.7242 26.2407 38.6783 26.2762C38.5996 26.3662 38.4496 26.3925 38.2296 26.3925H36.0796V27.4012H38.2233C38.9246 27.4012 39.4471 27.2062 39.7271 26.8025H39.7721C39.9221 26.5737 40.0008 26.3012 40.0008 25.9312C40.0008 25.5262 39.9221 25.28 39.7721 25.0512V25.0512ZM30.9971 23.6787V22.7087H27.2721V27.4287H30.9971V26.4525H28.3783V25.5087H30.9321V24.5325H28.3783V23.6862L30.9971 23.6787ZM22.5208 14.6412H23.6596V19.3362H22.5208V14.6412ZM21.8758 15.905L21.8621 15.9187C21.8621 15.39 21.6471 15.085 21.2958 14.8775C20.9371 14.6687 20.5158 14.6487 19.9496 14.6487H17.3846V19.3487H18.5096V17.6237H19.7083C20.1046 17.6237 20.3596 17.675 20.5221 17.825C20.7258 18.0537 20.6983 18.4562 20.6983 18.7362V19.33H21.8246V18.4112C21.8246 17.995 21.7983 17.7862 21.6408 17.545C21.4943 17.3713 21.3065 17.2372 21.0946 17.155C21.3353 17.0486 21.539 16.8728 21.6794 16.6502C21.8199 16.4276 21.8909 16.1681 21.8833 15.905H21.8758ZM20.4508 16.5637H20.4308C20.2746 16.6537 20.1046 16.66 19.8771 16.66H18.5033V15.6187H19.8771C20.0783 15.6187 20.2733 15.625 20.4233 15.7037C20.5733 15.7687 20.6771 15.9187 20.6771 16.12C20.6771 16.3212 20.5983 16.485 20.4508 16.5637ZM26.5371 15.6187H27.5858V14.6225H26.5108C25.7421 14.6225 25.1758 14.7987 24.8121 15.1712C24.3371 15.6712 24.2121 16.3225 24.2121 17.0262C24.2121 17.88 24.4133 18.4125 24.8121 18.81C25.1958 19.2062 25.8858 19.3312 26.4258 19.3312H27.7296L28.1533 18.2825H30.4696L30.9058 19.3312H33.1708V15.815L35.2946 19.3312H36.8833V14.6425H35.7371V17.9175L33.7721 14.6487H32.0721V18.9975L30.1833 14.5712H28.5096L26.9408 18.2762H26.4396C26.1483 18.2762 25.8346 18.225 25.6596 18.0475C25.4508 17.8012 25.3533 17.4487 25.3533 16.9475C25.3533 16.4725 25.4833 16.0937 25.6721 15.8987C25.8933 15.67 26.1283 15.6187 26.5321 15.6187H26.5371ZM29.3171 15.4437L30.0858 17.305V17.3112H28.5358L29.3171 15.4437ZM3.96582 18.2812L4.38957 19.33H6.66832V15.6587L8.28957 19.33H9.25957L10.8796 15.6587L10.9058 19.33H12.0571V14.6487H10.1958L8.85457 17.8187L7.39082 14.6425H5.57457V19.0825L3.67332 14.6425H2.01332L0.0220703 19.3312H1.21832L1.64832 18.29H3.96707L3.96582 18.2812ZM2.81957 15.4437L3.58832 17.305L3.58207 17.3112H2.05832L2.81957 15.4437ZM19.7596 22.7012H16.1933L14.7733 24.2375L13.3996 22.7012H8.91457V27.4012H13.3346L14.7596 25.8462L16.1346 27.3962H18.3008V25.8325H19.7008C20.6971 25.8325 21.6471 25.5587 21.6471 24.2575L21.6408 24.2512C21.6408 22.95 20.6458 22.7012 19.7596 22.7012V22.7012ZM12.7871 26.42H10.0333V25.4887H12.4796V24.5325H10.0333V23.6862H12.8321L14.0571 25.0525L12.7808 26.4262L12.7871 26.42ZM17.1871 26.9737L15.4683 25.0587L17.1871 23.2175V26.9737ZM19.7721 24.8762H18.3008V23.6775H19.7721C20.1758 23.6775 20.4758 23.8412 20.4758 24.2512C20.4758 24.6612 20.2296 24.8762 19.7721 24.8762ZM16.6158 15.6187V14.6425H12.8846V19.3375H16.6158V18.3675H13.9971V17.4287H16.5433V16.465H13.9971V15.6187H16.6158Z" fill="#254AA5"/>
</g>
<defs>
<clipPath id="clip0">
<rect width="40" height="40" fill="white"/>
</clipPath>
</defs>
</svg>
