<svg width="67" height="40" viewBox="0 0 67 40" fill="none" xmlns="http://www.w3.org/2000/svg">
<rect width="66.6667" height="40" rx="3" fill="#B3B3B3"/>
<rect y="6" width="67" height="8" fill="#4B4B4B"/>
<rect x="5" y="17" width="35" height="8" fill="#D5D4D4"/>
<path d="M47.5508 20.2031L48.4805 18.3125H50.0469L48.457 21.1328L50.0898 24H48.5078L47.5508 22.0742L46.5938 24H45.0156L46.6445 21.1328L45.0586 18.3125H46.6211L47.5508 20.2031ZM52.6602 20.2031L53.5898 18.3125H55.1562L53.5664 21.1328L55.1992 24H53.6172L52.6602 22.0742L51.7031 24H50.125L51.7539 21.1328L50.168 18.3125H51.7305L52.6602 20.2031ZM57.7695 20.2031L58.6992 18.3125H60.2656L58.6758 21.1328L60.3086 24H58.7266L57.7695 22.0742L56.8125 24H55.2344L56.8633 21.1328L55.2773 18.3125H56.8398L57.7695 20.2031Z" fill="black"/>
<path d="M66 21C66 23.0469 64.7555 25.0224 62.4912 26.5319C60.234 28.0367 57.058 29 53.5 29C49.942 29 46.766 28.0367 44.5088 26.5319C42.2445 25.0224 41 23.0469 41 21C41 18.9531 42.2445 16.9776 44.5088 15.4681C46.766 13.9633 49.942 13 53.5 13C57.058 13 60.234 13.9633 62.4912 15.4681C64.7555 16.9776 66 18.9531 66 21Z" stroke="#FC0000" stroke-width="2"/>
</svg>
