<svg width="68" height="41" viewBox="0 0 68 41" fill="none" xmlns="http://www.w3.org/2000/svg">
<rect y="1" width="66.6667" height="40" rx="3" fill="#B2B2B2"/>
<path d="M49.5508 9.20312L50.4805 7.3125H52.0469L50.457 10.1328L52.0898 13H50.5078L49.5508 11.0742L48.5938 13H47.0156L48.6445 10.1328L47.0586 7.3125H48.6211L49.5508 9.20312ZM54.6602 9.20312L55.5898 7.3125H57.1562L55.5664 10.1328L57.1992 13H55.6172L54.6602 11.0742L53.7031 13H52.125L53.7539 10.1328L52.168 7.3125H53.7305L54.6602 9.20312ZM59.7695 9.20312L60.6992 7.3125H62.2656L60.6758 10.1328L62.3086 13H60.7266L59.7695 11.0742L58.8125 13H57.2344L58.8633 10.1328L57.2773 7.3125H58.8398L59.7695 9.20312Z" fill="black"/>
<path d="M9.91309 22.1523L10.6104 20.7344H11.7852L10.5928 22.8496L11.8174 25H10.6309L9.91309 23.5557L9.19531 25H8.01172L9.2334 22.8496L8.04395 20.7344H9.21582L9.91309 22.1523ZM13.7451 22.1523L14.4424 20.7344H15.6172L14.4248 22.8496L15.6494 25H14.4629L13.7451 23.5557L13.0273 25H11.8438L13.0654 22.8496L11.876 20.7344H13.0479L13.7451 22.1523ZM17.5771 22.1523L18.2744 20.7344H19.4492L18.2568 22.8496L19.4814 25H18.2949L17.5771 23.5557L16.8594 25H15.6758L16.8975 22.8496L15.708 20.7344H16.8799L17.5771 22.1523ZM21.4092 22.1523L22.1064 20.7344H23.2812L22.0889 22.8496L23.3135 25H22.127L21.4092 23.5557L20.6914 25H19.5078L20.7295 22.8496L19.54 20.7344H20.7119L21.4092 22.1523ZM26.7354 22.1523L27.4326 20.7344H28.6074L27.415 22.8496L28.6396 25H27.4531L26.7354 23.5557L26.0176 25H24.834L26.0557 22.8496L24.8662 20.7344H26.0381L26.7354 22.1523ZM30.5674 22.1523L31.2646 20.7344H32.4395L31.2471 22.8496L32.4717 25H31.2852L30.5674 23.5557L29.8496 25H28.666L29.8877 22.8496L28.6982 20.7344H29.8701L30.5674 22.1523ZM34.3994 22.1523L35.0967 20.7344H36.2715L35.0791 22.8496L36.3037 25H35.1172L34.3994 23.5557L33.6816 25H32.498L33.7197 22.8496L32.5303 20.7344H33.7021L34.3994 22.1523ZM38.2314 22.1523L38.9287 20.7344H40.1035L38.9111 22.8496L40.1357 25H38.9492L38.2314 23.5557L37.5137 25H36.3301L37.5518 22.8496L36.3623 20.7344H37.5342L38.2314 22.1523ZM43.5576 22.1523L44.2549 20.7344H45.4297L44.2373 22.8496L45.4619 25H44.2754L43.5576 23.5557L42.8398 25H41.6562L42.8779 22.8496L41.6885 20.7344H42.8604L43.5576 22.1523ZM47.3896 22.1523L48.0869 20.7344H49.2617L48.0693 22.8496L49.2939 25H48.1074L47.3896 23.5557L46.6719 25H45.4883L46.71 22.8496L45.5205 20.7344H46.6924L47.3896 22.1523ZM51.2217 22.1523L51.9189 20.7344H53.0938L51.9014 22.8496L53.126 25H51.9395L51.2217 23.5557L50.5039 25H49.3203L50.542 22.8496L49.3525 20.7344H50.5244L51.2217 22.1523ZM55.0537 22.1523L55.751 20.7344H56.9258L55.7334 22.8496L56.958 25H55.7715L55.0537 23.5557L54.3359 25H53.1523L54.374 22.8496L53.1846 20.7344H54.3564L55.0537 22.1523Z" fill="black"/>
<path d="M67 9C67 11.0469 65.7555 13.0224 63.4912 14.5319C61.234 16.0367 58.058 17 54.5 17C50.942 17 47.766 16.0367 45.5088 14.5319C43.2445 13.0224 42 11.0469 42 9C42 6.9531 43.2445 4.97758 45.5088 3.46809C47.766 1.96326 50.942 1 54.5 1C58.058 1 61.234 1.96326 63.4912 3.46809C65.7555 4.97758 67 6.9531 67 9Z" stroke="#FC0000" stroke-width="2"/>
</svg>
