<svg width="450" height="270" viewBox="0 0 450 270" fill="none" xmlns="http://www.w3.org/2000/svg">
<rect width="450" height="270" rx="10" fill="#B2B2B2"/>
<path d="M72.4351 131.49L76.9673 122.273H84.6035L76.853 136.022L84.813 150H77.1006L72.4351 140.612L67.7695 150H60.0762L68.0171 136.022L60.2856 122.273H67.9028L72.4351 131.49ZM97.3433 131.49L101.875 122.273H109.512L101.761 136.022L109.721 150H102.009L97.3433 140.612L92.6777 150H84.9844L92.9253 136.022L85.1938 122.273H92.811L97.3433 131.49ZM122.251 131.49L126.784 122.273H134.42L126.669 136.022L134.629 150H126.917L122.251 140.612L117.586 150H109.893L117.833 136.022L110.102 122.273H117.719L122.251 131.49ZM147.16 131.49L151.692 122.273H159.328L151.578 136.022L159.538 150H151.825L147.16 140.612L142.494 150H134.801L142.742 136.022L135.01 122.273H142.627L147.16 131.49ZM171.001 140.536H159.557V135.565H171.001V140.536ZM186.655 131.49L191.187 122.273H198.823L191.073 136.022L199.033 150H191.32L186.655 140.612L181.989 150H174.296L182.237 136.022L174.505 122.273H182.123L186.655 131.49ZM211.563 131.49L216.095 122.273H223.731L215.981 136.022L223.941 150H216.229L211.563 140.612L206.897 150H199.204L207.145 136.022L199.414 122.273H207.031L211.563 131.49ZM236.471 131.49L241.003 122.273H248.64L240.889 136.022L248.849 150H241.137L236.471 140.612L231.806 150H224.112L232.053 136.022L224.322 122.273H231.939L236.471 131.49ZM261.379 131.49L265.912 122.273H273.548L265.797 136.022L273.757 150H266.045L261.379 140.612L256.714 150H249.021L256.961 136.022L249.23 122.273H256.847L261.379 131.49ZM285.221 140.536H273.776V135.565H285.221V140.536ZM300.875 131.49L305.407 122.273H313.043L305.292 136.022L313.252 150H305.54L300.875 140.612L296.209 150H288.516L296.457 136.022L288.725 122.273H296.342L300.875 131.49ZM325.783 131.49L330.315 122.273H337.951L330.201 136.022L338.161 150H330.448L325.783 140.612L321.117 150H313.424L321.365 136.022L313.633 122.273H321.25L325.783 131.49ZM350.691 131.49L355.223 122.273H362.859L355.109 136.022L363.069 150H355.356L350.691 140.612L346.025 150H338.332L346.273 136.022L338.542 122.273H346.159L350.691 131.49ZM375.599 131.49L380.131 122.273H387.768L380.017 136.022L387.977 150H380.265L375.599 140.612L370.934 150H363.24L371.181 136.022L363.45 122.273H371.067L375.599 131.49Z" fill="black"/>
</svg>
