<svg width="62" height="20" viewBox="0 0 62 20" fill="none" xmlns="http://www.w3.org/2000/svg">
<g clip-path="url(#clip0)">
<path d="M31.9029 6.36819C31.8677 9.14313 34.3759 10.6916 36.2653 11.6123C38.2065 12.5569 38.8586 13.1626 38.8508 14.0075C38.8364 15.3002 37.3024 15.8708 35.867 15.893C33.3627 15.9318 31.9065 15.2169 30.7489 14.6761L29.8467 18.8976C31.0082 19.4328 33.1588 19.8995 35.3889 19.92C40.6239 19.92 44.0487 17.3359 44.0672 13.3294C44.0877 8.24458 37.034 7.96313 37.0822 5.69036C37.0988 5.0012 37.7564 4.26578 39.1974 4.07879C39.9106 3.98434 41.8795 3.91205 44.1118 4.94L44.988 0.855661C43.7875 0.418553 42.2446 -2.14434e-06 40.3236 -2.14434e-06C35.3964 -2.14434e-06 31.9308 2.61927 31.9029 6.36819V6.36819ZM53.4067 0.351805C52.4508 0.351805 51.6453 0.909395 51.2858 1.76506L43.808 19.62H49.039L50.08 16.7431H56.4723L57.0761 19.62H61.6867L57.6634 0.351805H53.4067V0.351805ZM54.1386 5.55687L55.6482 12.7923H51.5137L54.1386 5.55687V5.55687ZM25.5605 0.352046L21.4371 19.6198H26.4219L30.5434 0.351564H25.5605V0.352046ZM18.1863 0.351564L12.9978 13.4665L10.899 2.31542C10.6528 1.0706 9.68024 0.351805 8.60024 0.351805H0.118795L0 0.911323C1.7412 1.28915 3.71952 1.89855 4.91807 2.5506C5.65157 2.94891 5.86072 3.29711 6.10169 4.24361L10.0769 19.62H15.3446L23.4207 0.351805H18.1863" fill="url(#paint0_linear)"/>
</g>
<defs>
<linearGradient id="paint0_linear" x1="28.3599" y1="20.3196" x2="28.9365" y2="-0.138538" gradientUnits="userSpaceOnUse">
<stop stop-color="#222357"/>
<stop offset="1" stop-color="#254AA5"/>
</linearGradient>
<clipPath id="clip0">
<rect width="61.6867" height="20" fill="white"/>
</clipPath>
</defs>
</svg>
