<svg width="45" height="30" viewBox="0 0 45 30" fill="none" xmlns="http://www.w3.org/2000/svg">
<path d="M8.181 29.8509V27.8653C8.181 27.104 7.64064 26.6077 6.71445 26.6077C6.25145 26.6077 5.74977 26.7401 5.40242 27.1703C5.13242 26.8063 4.74658 26.6077 4.16773 26.6077C3.78172 26.6077 3.39605 26.7069 3.08721 27.071V26.6739H2.27686V29.8509H3.08721V28.0969C3.08721 27.5344 3.43455 27.2695 3.9749 27.2695C4.5149 27.2695 4.78525 27.5674 4.78525 28.0969V29.8509H5.59561V28.0969C5.59561 27.5344 5.98127 27.2695 6.48295 27.2695C7.0233 27.2695 7.2933 27.5674 7.2933 28.0969V29.8509H8.181V29.8509ZM20.1818 26.6739H18.8699V25.7142H18.0595V26.6739H17.3264V27.3026H18.0594V28.7588C18.0594 29.487 18.4067 29.9171 19.3329 29.9171C19.6803 29.9171 20.0659 29.8179 20.3363 29.6855L20.1046 29.0897C19.8731 29.2221 19.6031 29.2553 19.4101 29.2553C19.0242 29.2553 18.8699 29.0567 18.8699 28.7257V27.3026H20.1818V26.6739V26.6739ZM27.0506 26.6076C26.5876 26.6076 26.2789 26.8063 26.0859 27.071V26.6739H25.2755V29.8509H26.0859V28.0639C26.0859 27.5344 26.3559 27.2365 26.8576 27.2365C27.0119 27.2365 27.2049 27.2697 27.3593 27.3027L27.5908 26.6409C27.4364 26.6077 27.2049 26.6077 27.0506 26.6077V26.6076ZM16.6704 26.9386C16.2843 26.7069 15.7442 26.6077 15.1653 26.6077C14.2393 26.6077 13.622 27.0048 13.622 27.6336C13.622 28.1632 14.085 28.4609 14.8953 28.5603L15.2812 28.5935C15.7057 28.6595 15.9372 28.7588 15.9372 28.9244C15.9372 29.1559 15.6285 29.3214 15.0881 29.3214C14.548 29.3214 14.1235 29.1559 13.8533 28.9905L13.4674 29.52C13.892 29.7847 14.4708 29.9171 15.0495 29.9171C16.13 29.9171 16.7475 29.487 16.7475 28.8912C16.7475 28.3286 16.2458 28.0307 15.474 27.9315L15.0881 27.8983C14.7408 27.8652 14.4708 27.7991 14.4708 27.6006C14.4708 27.3689 14.7408 27.2365 15.1653 27.2365C15.6285 27.2365 16.0915 27.4019 16.323 27.5012L16.6704 26.9386V26.9386ZM38.2027 26.6077C37.7395 26.6077 37.4308 26.8063 37.2378 27.071V26.6739H36.4275V29.8509H37.2378V28.0639C37.2378 27.5344 37.508 27.2365 38.0095 27.2365C38.164 27.2365 38.357 27.2697 38.5113 27.3027L38.7429 26.6409C38.5885 26.6077 38.357 26.6077 38.2027 26.6077V26.6077ZM27.8609 28.2624C27.8609 29.2221 28.6326 29.9171 29.829 29.9171C30.3692 29.9171 30.755 29.8179 31.1408 29.5532L30.755 28.9905C30.4463 29.1891 30.1377 29.2883 29.7903 29.2883C29.1343 29.2883 28.6713 28.8912 28.6713 28.2624C28.6713 27.6668 29.1343 27.2695 29.7903 27.2365C30.1377 27.2365 30.4463 27.3357 30.755 27.5344L31.1408 26.9718C30.755 26.7069 30.3692 26.6077 29.829 26.6077C28.6326 26.6077 27.8609 27.3027 27.8609 28.2624ZM35.3471 28.2624V26.6739H34.5368V27.071C34.2666 26.7733 33.8807 26.6077 33.3791 26.6077C32.3372 26.6077 31.5269 27.3027 31.5269 28.2624C31.5269 29.2221 32.3372 29.9171 33.3791 29.9171C33.9192 29.9171 34.3053 29.7517 34.5368 29.4538V29.8509H35.3471V28.2624V28.2624ZM32.3757 28.2624C32.3757 27.6998 32.8002 27.2365 33.4947 27.2365C34.1507 27.2365 34.6139 27.6668 34.6139 28.2624C34.6139 28.825 34.1507 29.2883 33.4947 29.2883C32.8002 29.2551 32.3757 28.825 32.3757 28.2624V28.2624ZM22.6902 26.6077C21.6096 26.6077 20.8378 27.2695 20.8378 28.2624C20.8378 29.2553 21.6095 29.9171 22.7287 29.9171C23.2688 29.9171 23.8092 29.7847 24.2337 29.487L23.8477 28.9905C23.539 29.1891 23.1532 29.3214 22.7673 29.3214C22.2656 29.3214 21.764 29.1229 21.6481 28.5601H24.388V28.2956C24.4267 27.2695 23.732 26.6077 22.69 26.6077H22.6902ZM22.6902 27.2034C23.1917 27.2034 23.5392 27.4682 23.6162 27.9647H21.6868C21.764 27.5344 22.1113 27.2034 22.6902 27.2034ZM42.7946 28.2624V25.4163H41.9843V27.071C41.7141 26.7733 41.3282 26.6077 40.8266 26.6077C39.7847 26.6077 38.9744 27.3027 38.9744 28.2624C38.9744 29.2221 39.7847 29.9171 40.8266 29.9171C41.3669 29.9171 41.7528 29.7517 41.9843 29.4538V29.8509H42.7946V28.2624V28.2624ZM39.8234 28.2624C39.8234 27.6998 40.2477 27.2365 40.9424 27.2365C41.5984 27.2365 42.0614 27.6668 42.0614 28.2624C42.0614 28.825 41.5984 29.2883 40.9424 29.2883C40.2477 29.2551 39.8234 28.825 39.8234 28.2624V28.2624ZM12.7343 28.2624V26.6739H11.9239V27.071C11.6537 26.7733 11.2679 26.6077 10.7662 26.6077C9.72436 26.6077 8.914 27.3027 8.914 28.2624C8.914 29.2221 9.72436 29.9171 10.7662 29.9171C11.3066 29.9171 11.6924 29.7517 11.9239 29.4538V29.8509H12.7343V28.2624V28.2624ZM9.72436 28.2624C9.72436 27.6998 10.1489 27.2365 10.8434 27.2365C11.4994 27.2365 11.9626 27.6668 11.9626 28.2624C11.9626 28.825 11.4994 29.2883 10.8434 29.2883C10.1489 29.2551 9.72436 28.825 9.72436 28.2624V28.2624Z" fill="black"/>
<path d="M16.3999 2.54819H28.5552V21.2795H16.3999V2.54819Z" fill="#FF5F00"/>
<path d="M17.1719 11.9139C17.1719 8.10814 19.2556 4.73246 22.4583 2.54819C20.1046 0.959699 17.1334 0 13.892 0C6.21264 0 0 5.32809 0 11.9139C0 18.4996 6.21264 23.8278 13.8918 23.8278C17.1332 23.8278 20.1045 22.8681 22.4583 21.2795C19.2556 19.1284 17.1719 15.7197 17.1719 11.9139V11.9139Z" fill="#EB001B"/>
<path d="M44.9557 11.9139C44.9557 18.4996 38.743 23.8278 31.0638 23.8278C27.8224 23.8278 24.8512 22.8681 22.4973 21.2795C25.7387 19.0954 27.7839 15.7197 27.7839 11.9139C27.7839 8.10814 25.7 4.73246 22.4973 2.54819C24.851 0.959699 27.8224 0 31.0638 0C38.743 0 44.9558 5.36126 44.9558 11.9139H44.9557Z" fill="#F79E1B"/>
</svg>
