<svg width="230" height="145" viewBox="0 0 230 145" fill="none" xmlns="http://www.w3.org/2000/svg">
<rect width="230" height="145" rx="10" transform="matrix(-1 0 0 1 230 0)" fill="#004F92"/>
<rect width="230" height="35" transform="matrix(-1 0 0 1 230 17)" fill="#231F20"/>
<rect width="176" height="30" transform="matrix(-1 0 0 1 223 58)" fill="#B8CDDD"/>
<rect width="30" height="25" transform="matrix(-1 0 0 1 38 60)" fill="white"/>
<path d="M169 80.7843C167.68 76.7467 165.674 73.2641 163.962 69.384C163.906 69.2581 163.704 68.1638 163.704 68.722C163.704 70.1072 163.704 71.4924 163.704 72.8776C163.704 73.8828 163.704 74.888 163.704 75.8932C163.704 76.5241 162.653 74.3727 162.325 74.0545C161.531 73.2836 158.336 71.4813 157.25 72.326C156.648 72.7944 155.249 72.5099 154.511 72.5099C152.587 72.5099 152.123 74.6208 151.09 75.8013C147.283 80.1529 143.994 71.0469 141.198 69.7885C140.278 69.3748 139.794 71.0382 139.396 71.6641C138.065 73.7558 134.007 69.475 133.107 68.5749C132.573 68.0409 130.723 65.1951 129.779 66.2213C128.11 68.0355 127.425 71.6041 126.396 73.8338C125.959 74.7794 125.763 76.0367 124.833 76.6287C123.405 77.5372 119.218 75.1105 118.121 74.6612C116.33 73.9271 112.789 71.2472 110.748 73.1718C109.652 74.2048 109.425 75.412 107.935 75.9852C106.019 76.7218 103.748 75.7069 101.812 76.4816" stroke="black" stroke-width="3" stroke-linecap="round"/>
<rect width="230" height="145" rx="10" transform="matrix(-1 0 0 1 230 0)" fill="url(#paint0_linear)" fill-opacity="0.72"/>
<defs>
<linearGradient id="paint0_linear" x1="5.85356e-08" y1="4" x2="230" y2="141" gradientUnits="userSpaceOnUse">
<stop stop-color="white"/>
<stop offset="1" stop-opacity="0"/>
</linearGradient>
</defs>
</svg>
