<svg width="230" height="145" viewBox="0 0 230 145" fill="none" xmlns="http://www.w3.org/2000/svg">
<rect width="230" height="145" rx="10" fill="#004E90"/>
<rect width="230" height="145" rx="10" fill="url(#paint0_linear)" fill-opacity="0.72"/>
<rect x="25" y="23" width="30" height="30" rx="5" fill="#E1C968"/>
<path d="M155.074 44V29.7812H160.182C162.011 29.7812 163.401 30.1165 164.352 30.7871C165.309 31.4577 165.787 32.431 165.787 33.707C165.787 34.4427 165.618 35.071 165.279 35.5918C164.941 36.1126 164.443 36.4967 163.785 36.7441C164.527 36.9395 165.097 37.304 165.494 37.8379C165.891 38.3717 166.09 39.0228 166.09 39.791C166.09 41.1842 165.647 42.2324 164.762 42.9355C163.883 43.6322 162.577 43.987 160.846 44H155.074ZM158.502 37.9551V41.3633H160.748C161.367 41.3633 161.842 41.2233 162.174 40.9434C162.506 40.6569 162.672 40.2565 162.672 39.7422C162.672 38.5573 162.083 37.9616 160.904 37.9551H158.502ZM158.502 35.709H160.289C161.038 35.7025 161.572 35.5658 161.891 35.2988C162.21 35.0319 162.369 34.638 162.369 34.1172C162.369 33.5182 162.197 33.0885 161.852 32.8281C161.507 32.5612 160.95 32.4277 160.182 32.4277H158.502V35.709ZM176.061 41.3438H171.363L170.543 44H166.881L172.096 29.7812H175.318L180.572 44H176.891L176.061 41.3438ZM172.184 38.6973H175.24L173.707 33.7656L172.184 38.6973ZM193.492 44H190.084L185.045 35.1523V44H181.617V29.7812H185.045L190.074 38.6289V29.7812H193.492V44ZM200.494 38.707L199.088 40.25V44H195.66V29.7812H199.088V36.0508L200.279 34.2441L203.346 29.7812H207.584L202.779 36.0703L207.584 44H203.521L200.494 38.707Z" fill="white"/>
<defs>
<linearGradient id="paint0_linear" x1="5.85356e-08" y1="4" x2="230" y2="141" gradientUnits="userSpaceOnUse">
<stop stop-color="white"/>
<stop offset="1" stop-opacity="0"/>
</linearGradient>
</defs>
</svg>
